<?xml version="1.0" encoding="utf-8"?>
<svg fill="none" height="1011" viewBox="0 0 1604 1011" width="1604" xmlns="http://www.w3.org/2000/svg" xmlns:xlink="http://www.w3.org/1999/xlink">
<g id="36-59-svg">
<rect fill="white" height="1011" width="1604"/>
<text fill="#1A1A1A" font-family="Roboto" font-size="17" font-weight="bold" id="Sum Features" letter-spacing="0em" style="white-space: pre" transform="translate(1307 186)" xml:space="preserve"><tspan x="0" y="18.3105">Sum Features</tspan></text>
<text fill="#4D4D4D" font-family="Roboto" font-size="13" id="The model has finally computed information about the sum: its value mod 10, mod 100, and its approximate magnitude." letter-spacing="0em" style="white-space: pre" transform="translate(1307 215)" xml:space="preserve"><tspan x="0" y="11.4434">The model has finally computed information </tspan><tspan x="0" y="25.4434">about the sum: its value mod 10, mod 100, </tspan><tspan x="0" y="39.4434">and its approximate magnitude.</tspan></text>
<text fill="#1A1A1A" font-family="Roboto" font-size="17" font-weight="bold" id="Lookup Table Features" letter-spacing="0em" style="white-space: pre" transform="translate(1307 352)" xml:space="preserve"><tspan x="0" y="18.3105">Lookup Table Features</tspan></text>
<text fill="#1A1A1A" font-family="Roboto" font-size="17" font-weight="bold" id="Add Function Features" letter-spacing="0em" style="white-space: pre" transform="translate(1307 554)" xml:space="preserve"><tspan x="0" y="18.3105">Add Function Features</tspan></text>
<text fill="#4D4D4D" font-family="Roboto" font-size="13" id="Most computation takes place on the â=â token" letter-spacing="0em" style="white-space: pre" transform="translate(1307 938)" xml:space="preserve"><tspan x="0" y="11.4434">Most computation </tspan><tspan x="0" y="25.4434">takes place on the </tspan><tspan x="0" y="39.4434">“=” token</tspan></text>
<text fill="#1A1A1A" font-family="Roboto" font-size="17" font-weight="bold" id="Input Features" letter-spacing="0em" style="white-space: pre" transform="translate(1307 802)" xml:space="preserve"><tspan x="0" y="18.3105">Input Features</tspan></text>
<text fill="#4D4D4D" font-family="Roboto" font-size="13" id="The model has stored information about particular pairs of input properties. They take input from the original addends (via attention) and the Add Function features. Operand plots are points, possibly with repetition (modular) or smearing (low-precision)" letter-spacing="0em" style="white-space: pre" transform="translate(1307 381)" xml:space="preserve"><tspan x="0" y="11.4434">The model has stored information about </tspan><tspan x="0" y="25.4434">particular pairs of input properties. They take </tspan><tspan x="0" y="39.4434">input from the original addends (via attention) </tspan><tspan x="0" y="53.4434">and the Add Function features. Operand plots </tspan><tspan x="0" y="67.4434">are points, possibly with repetition (modular) or </tspan><tspan x="0" y="81.4434">smearing (low-precision)</tspan></text>
<text fill="#4D4D4D" font-family="Roboto" font-size="13" id="The model separately determines the ones digit of the number to be added and its approximate magnitude. Operand plots show vertical or horizontal stripes." letter-spacing="0em" style="white-space: pre" transform="translate(1307 583)" xml:space="preserve"><tspan x="0" y="11.4434">The model separately determines the ones </tspan><tspan x="0" y="25.4434">digit of the number to be added and its </tspan><tspan x="0" y="39.4434">approximate magnitude. Operand plots show </tspan><tspan x="0" y="53.4434">vertical or horizontal stripes.</tspan></text>
<text fill="#4D4D4D" font-family="Roboto" font-size="13" id="The model has features specific to the ones digit and to the approximate magnitude, at various scales." letter-spacing="0em" style="white-space: pre" transform="translate(1307 831)" xml:space="preserve"><tspan x="0" y="11.4434">The model has features specific to the ones </tspan><tspan x="0" y="25.4434">digit and to the approximate magnitude, at </tspan><tspan x="0" y="39.4434">various scales.</tspan></text>
<g id="Group 904">
<path d="M1249.37 940.5H1216.5C1216.5 936.979 1216.52 932.827 1216.54 928.167C1216.64 905.55 1216.79 870.978 1215.34 838.537C1214.46 818.816 1212.99 799.866 1210.55 784.857C1209.33 777.354 1207.87 770.82 1206.11 765.662C1204.36 760.523 1202.3 756.67 1199.82 754.615C1182.84 740.524 1143.7 723.551 1089.15 723.551H955.22C944.45 723.551 935.72 714.821 935.72 704.051V586.487C935.72 577.374 928.333 569.987 919.22 569.987H687C676.23 569.987 667.5 561.257 667.5 550.487V154.435C667.5 144.689 669.321 135.905 672.242 129.576C675.184 123.205 679.147 119.5 683.349 119.5H1279.65C1283.85 119.5 1287.82 123.205 1290.76 129.576C1293.68 135.905 1295.5 144.689 1295.5 154.435V810.304V810.446V810.59V810.735V810.88V811.026V811.174V811.322V811.471V811.622V811.773V811.925V812.077V812.231V812.386V812.542V812.698V812.855V813.014V813.173V813.333V813.494V813.656V813.819V813.982V814.147V814.312V814.478V814.645V814.813V814.982V815.152V815.322V815.494V815.666V815.839V816.013V816.188V816.363V816.539V816.717V816.895V817.074V817.253V817.434V817.615V817.797V817.98V818.164V818.349V818.534V818.72V818.907V819.095V819.284V819.473V819.663V819.854V820.046V820.238V820.431V820.625V820.82V821.015V821.212V821.409V821.607V821.805V822.004V822.204V822.405V822.607V822.809V823.012V823.216V823.42V823.625V823.831V824.038V824.245V824.453V824.662V824.871V825.081V825.292V825.503V825.716V825.929V826.142V826.356V826.571V826.787V827.003V827.22V827.438V827.656V827.875V828.095V828.315V828.536V828.758V828.98V829.203V829.427V829.651V829.876V830.101V830.327V830.554V830.782V831.01V831.238V831.467V831.697V831.928V832.159V832.39V832.623V832.856V833.089V833.323V833.558V833.793V834.029V834.265V834.502V834.74V834.978V835.217V835.456V835.696V835.936V836.177V836.419V836.661V836.903V837.147V837.39V837.635V837.879V838.125V838.371V838.617V838.864V839.111V839.359V839.608V839.857V840.106V840.356V840.607V840.858V841.109V841.361V841.614V841.867V842.12V842.374V842.629V842.884V843.139V843.395V843.651V843.908V844.165V844.423V844.681V844.94V845.199V845.459V845.719V845.979V846.24V846.501V846.763V847.025V847.288V847.551V847.814V848.078V848.343V848.607V848.872V849.138V849.404V849.67V849.937V850.204V850.472V850.74V851.008V851.277V851.546V851.815V852.085V852.355V852.626V852.897V853.168V853.44V853.712V853.984V854.257V854.53V854.803V855.077V855.351V855.626V855.901V856.176V856.451V856.727V857.003V857.279V857.556V857.833V858.111V858.388V858.666V858.945V859.223V859.502V859.781V860.061V860.34V860.62V860.901V861.181V861.462V861.743V862.025V862.306V862.588V862.87V863.153V863.436V863.719V864.002V864.285V864.569V864.853V865.137V865.421V865.706V865.991V866.276V866.561V866.847V867.133V867.419V867.705V867.991V868.278V868.564V868.851V869.139V869.426V869.714V870.001V870.289V870.577V870.866V871.154V871.443V871.732V872.021V872.31V872.599V872.888V873.178V873.468V873.758V874.048V874.338V874.628V874.919V875.209V875.5V875.791V876.082V876.373V876.664V876.956V877.247V877.539V877.831V878.122V878.414V878.706V878.998V879.291V879.583V879.875V880.168V880.46V880.753V881.045V881.338V881.631V881.924V882.217V882.51V882.803V883.096V883.389V883.682V883.976V884.269V884.562V884.856V885.149V885.443V885.736V886.029V886.323V886.617V886.91V887.204V887.497V887.791V888.084V888.378V888.672V888.965V889.259V889.552V889.846V890.139V890.433V890.726V891.02V891.313V891.607V891.9V892.194V892.487V892.78V893.073V893.366V893.66V893.953V894.246V894.539V894.831V895.124V895.417V895.71V896.002V896.295V896.587V896.88V897.172V897.464V897.756V898.048V898.34V898.632V898.923V899.215V899.506V899.798V900.089V900.38V900.671V900.962V901.253V901.543V901.834V902.124V902.414V902.704V902.994V903.284V903.573V903.863V904.152V904.441V904.73V905.019V905.308V905.596V905.884V906.173V906.46V906.748V907.036V907.323V907.61V907.897V908.184V908.471V908.757V909.043V909.329V909.615V909.9V910.185V910.471V910.755V911.04V911.324V911.609V911.892V912.176V912.46V912.743V913.026V913.308V913.591V913.873V914.155V914.436V914.718V914.999V915.28V915.56V915.841V916.121V916.4V916.68V916.959V917.238V917.516V917.794V918.072V918.35V918.627V918.904V919.181V919.457V919.733V920.009V920.285V920.56V920.834V921.109V921.383V921.657V921.93V922.203V922.476V922.748V923.02V923.292V923.563V923.834V924.104V924.375V924.644V924.914V925.183V925.451V925.72V925.988V926.255V926.522V926.789V927.055V927.321V927.587V927.852V928.116V928.381V928.644V928.908V929.171V929.433V929.696V929.957V930.219V930.479V930.74V931V931.259V931.518V931.777V932.035V932.293V932.55V932.807V933.063V933.319V933.574V933.829V934.083V934.337V934.591V934.844V935.096V935.348V935.6V935.851V936.101V936.351V936.6V936.849V937.098V937.346V937.593V937.84V938.086V938.332V938.577V938.822V939.066V939.31V939.553V939.796V940.038V940.279V940.5H1249.37Z" fill="#F6F6F3" id="Union" stroke="#B8B6AD"/>
<path d="M1013.31 940.5H927.849C927.783 938.871 927.378 937.541 926.391 936.505C925.321 935.381 923.641 934.682 921.237 934.227C916.451 933.321 908.413 933.321 895.445 933.321H895.341H895.227H895.113H895.001H894.889H894.778H894.667H894.558H894.449H894.341H894.233H894.126H894.02H893.914H893.809H893.705H893.601H893.499H893.396H893.295H893.194H893.093H892.994H892.895H892.796H892.698H892.601H892.505H892.409H892.313H892.218H892.124H892.031H891.938H891.845H891.753H891.662H891.572H891.481H891.392H891.303H891.214H891.127H891.039H890.952H890.866H890.78H890.695H890.61H890.526H890.443H890.359H890.277H890.195H890.113H890.032H889.951H889.871H889.791H889.712H889.633H889.555H889.477H889.4H889.323H889.246H889.17H889.095H889.02H888.945H888.871H888.797H888.723H888.65H888.578H888.505H888.434H888.362H888.291H888.22H888.15H888.08H888.011H887.942H887.873H887.804H887.736H887.669H887.601H887.534H887.468H887.401H887.335H887.27H887.204H887.139H887.075H887.01H886.946H886.882H886.819H886.755H886.693H886.63H886.568H886.505H886.444H886.382H886.321H886.26H886.199H886.138H886.078H886.018H885.958H885.899H885.839H885.78H885.721H885.663H885.604H885.546H885.488H885.43H885.372H885.315H885.257H885.2H885.143H885.086H885.03H884.973H884.917H884.861H884.805H884.749H884.693H884.638H884.582H884.527H884.471H884.416H884.361H884.307H884.252H884.197H884.142H884.088H884.034H883.979H883.925H883.871H883.817H883.763H883.709H883.655H883.601H883.547H883.494H883.44H883.386H883.332H883.279H883.225H883.172H883.118H883.065H883.011H882.957H882.904H882.85H882.797H882.743H882.69H882.636H882.582H882.529H882.475H882.421H882.367H882.313H882.259H882.205H882.151H882.097H882.043H881.989H881.934H881.88H881.825H881.771H881.716H881.661H881.606H881.551H881.496H881.441H881.385H881.33H881.274H881.218H881.162H881.106H881.05H880.993H880.937H880.88H880.823H880.766H880.709H880.651H880.594H880.536H880.478H880.419H880.361H880.302H880.244H880.184H880.125H880.066H880.006H879.946H879.886H879.825H879.765H879.704H879.642H879.581H879.519H879.457H879.395H879.332H879.269H879.206H879.143H879.079H879.015H878.951H878.886H878.821H878.756H878.69H878.625H878.558H878.492H878.425H878.358H878.29H878.222H878.154H878.085H878.016H877.947H877.877H877.807H877.736H877.665H877.594H877.522H877.45H877.378H877.305H877.232H877.158H877.084H877.009H876.934H876.859H876.783H876.706H876.63H876.552H876.475H876.396H876.318H876.239H876.159H876.079H875.999H875.918H875.836H875.754H875.672H875.589H875.505H875.421H875.337H875.252H875.166H875.08H874.993H874.906H874.818H874.73H874.641H874.552H874.462H874.371H874.28H874.189H874.096H874.004H873.91H873.816H873.722H873.627H873.531H873.434H873.337H873.24H873.141H873.043H872.943H872.843H872.742H872.641H872.539H872.436H872.333H872.229H872.124H872.019H871.912H871.806H871.698H871.59H871.482H871.372H871.262H871.151H871.039H870.927H870.814H870.7H870.586H870.471H870.355H870.238H870.121H870.003H869.884H869.764H869.644H869.522H869.4H869.278H869.154H869.03H868.905H868.779H868.652H868.525H868.397H868.267H868.138H868.007H867.875H867.743H867.61H867.476H867.341H867.205H867.069H866.931H866.793H866.654H866.514H866.373H866.231H866.089H865.945H865.801H865.656H865.509H865.362H865.214H865.066H864.916H864.765H864.613H864.461H864.307H864.153H863.998H863.841H863.684H863.526H863.367H863.207H863.046H862.884H862.721H862.557H862.392H862.226H862.059H861.891H861.722H861.552H861.381H861.209H861.036H860.862H860.687H860.511H860.334H860.155H859.976H859.796H859.615H859.432H859.249H859.065H858.879H858.692H858.505H858.316H858.126H857.935H857.743H857.55H857.356H857.16H856.964H856.766H856.568H856.368H856.167H855.965H855.761H855.557H855.351H855.145H854.937H854.728H854.518H854.306H854.094H853.88H853.665H853.449H853.232H853.014H852.794H852.573H852.351H852.128H851.903H851.678H851.451H851.222H850.993H850.762H850.531H850.297H850.063H849.827H849.59H849.352H849.113H848.872H848.63H848.387H848.142H847.896H847.649H847.401H847.151H846.9H846.648H846.394H846.139H845.883H845.625H845.366H845.106H844.844H844.581H844.317H844.051H843.784H843.515H843.245H842.974H842.702H842.428H842.152H841.876H841.597H841.318H841.037H840.755H840.471H840.186H839.899H839.611H839.322H839.031H838.738H838.445H838.149H837.853H837.555H837.255H836.954H836.651H836.347H836.042H835.735H835.426H835.116H834.805H706.719C695.95 933.321 687.219 924.59 687.219 913.821L687.22 837C687.22 828.44 694.159 821.5 702.72 821.5L1013.31 821.5L1157.02 821.5C1165.58 821.5 1172.5 828.439 1172.5 837V927.242C1172.5 929.414 1171.58 931.028 1169.93 932.251C1168.25 933.492 1165.82 934.333 1162.83 934.875C1156.84 935.957 1148.83 935.806 1140.75 935.493C1139.51 935.445 1138.27 935.393 1137.03 935.342C1130.25 935.059 1123.66 934.785 1118.51 935.184C1115.47 935.421 1112.87 935.895 1111.02 936.776C1109.31 937.592 1108.17 938.793 1107.99 940.5H1013.31ZM628.589 940.5H527.083C526.917 939.602 526.309 938.848 525.431 938.223C524.399 937.488 522.928 936.88 521.136 936.369C517.545 935.345 512.51 934.669 506.694 934.22C497.022 933.473 485.098 933.346 473.855 933.325C473.855 933.322 473.855 933.321 473.855 933.321H473.854H473.852H473.849H473.845H473.84H473.84H473.834H473.833H473.827H473.826H473.818H473.817H473.809H473.808H473.799H473.797H473.788H473.785H473.776H473.772H473.764H473.758H473.75H473.742H473.735H473.726H473.719H473.708H473.703H473.689H473.685H473.669H473.667H473.648H473.628H473.625H473.607H473.602H473.585H473.577H473.562H473.551H473.539H473.523H473.515H473.495H473.489H473.465H473.463H473.437H473.434H473.409H473.401H473.381H473.368H473.352H473.333H473.322H473.297H473.291H473.26H473.259H473.227H473.22H473.194H473.18H473.161H473.139H473.126H473.096H473.091H473.056H473.052H473.019H473.006H472.982H472.959H472.944H472.911H472.905H472.866H472.861H472.826H472.81H472.786H472.758H472.745H472.704H472.703H472.66H472.649H472.617H472.592H472.574H472.534H472.529H472.485H472.475H472.439H472.414H472.393H472.352H472.346H472.299H472.288H472.252H472.223H472.203H472.156H472.155H472.105H472.088H472.056H472.018H472.005H471.954H471.947H471.903H471.874H471.851H471.8H471.799H471.746H471.724H471.693H471.647H471.639H471.585H471.568H471.531H471.487H471.476H471.42H471.405H471.365H471.322H471.308H471.252H471.237H471.195H471.15H471.137H471.08H471.062H471.022H470.972H470.963H470.904H470.881H470.845H470.787H470.786H470.726H470.693H470.666H470.605H470.596H470.545H470.498H470.484H470.423H470.399H470.361H470.299H470.298H470.237H470.195H470.175H470.112H470.09H470.05H469.987H469.984H469.923H469.876H469.86H469.796H469.766H469.733H469.669H469.655H469.604H469.542H469.54H469.476H469.427H469.411H469.346H469.31H469.281H469.216H469.192H469.151H469.086H469.072H469.021H468.955H468.95H468.89H468.827H468.824H468.759H468.701H468.693H468.627H468.574H468.562H468.496H468.445H468.43H468.364H468.315H468.298H468.232H468.182H468.166H468.101H468.048H468.035H467.969H467.912H467.903H467.838H467.774H467.772H467.707H467.641H467.634H467.576H467.51H467.492H467.445H467.38H467.349H467.315H467.25H467.203H467.186H467.121H467.107H467.093H467.057H467.056H466.992H466.98H466.928H466.907H466.868H466.864H466.8H466.758H466.756H466.737H466.674H466.65H466.61H466.603H466.547H466.543H466.485H466.449H466.438H466.422H466.36H466.335H466.298H466.292H466.236H466.233H466.175H466.133H466.114H466.053H466.035H465.992H465.973H465.938H465.932H465.872H465.843H465.812H465.81H465.753H465.75H465.694H465.658H465.646H465.635H465.576H465.568H465.518H465.479H465.479H465.461H465.403H465.392H465.347H465.311H465.307H465.29H465.234H465.223H465.178H465.141H465.141H465.123H465.068H465.06H465.014H464.981H464.969H464.96H464.906H464.903H464.853H464.827H464.8H464.794H464.752H464.748H464.696H464.679H464.645H464.618H464.608H464.594H464.544H464.538H464.494H464.469H464.445H464.44H464.402H464.397H464.349H464.336H464.301H464.272H464.26H464.254H464.21H464.207H464.162H464.148H464.116H464.089H464.077H464.072H464.03H464.027H463.984H463.973H463.941H463.918H463.899H463.893H463.864H463.857H463.816H463.811H463.776H463.76H463.736H463.71H463.707H463.697H463.661H463.658H463.621H463.614H463.584H463.568H463.547H463.524H463.518H463.512H463.481H463.477H463.442H463.439H463.409H463.399H463.376H463.36H463.344H463.328H463.322H463.313H463.285H463.282H463.253H463.25H463.224H463.216H463.195H463.184H463.168H463.152H463.141H463.135H463.122H463.116H463.093H463.091H463.066H463.066H463.043H463.039H463.021H463.014H462.999H462.99H462.978H462.967H462.958H462.946H462.941H462.939H462.926H462.921H462.906H462.904H462.888H462.888H462.872H462.872H462.858H462.856H462.844H462.842H462.831H462.828H462.82H462.816H462.809H462.805H462.799H462.795H462.79H462.786H462.782H462.779H462.775H462.772H462.769H462.767H462.765H462.762H462.761H462.759H462.758H462.756H462.756H462.755H462.755H462.744H462.545H462.345H462.142H461.937H461.729H461.52H461.309H461.095H460.88H460.662H460.442H460.219H459.995H459.769H459.54H459.309H459.076H458.84H458.603H458.363H458.12H457.876H457.629H457.38H457.129H456.876H456.62H456.362H456.101H455.839H455.574H455.306H455.036H454.764H454.49H454.213H453.934H453.652H453.368H453.082H452.793H452.501H452.208H451.912H451.613H451.312H451.008H450.702H450.394H450.083H326.012C320.569 933.321 315.665 931.869 312.136 929.549C308.603 927.227 306.5 924.075 306.5 920.664L306.5 837C306.5 828.44 313.44 821.5 322 821.5L628.589 821.5L662.192 821.5C670.753 821.5 677.715 828.441 677.715 837V927.242C677.715 928.375 677.507 929.178 677.177 929.762C676.851 930.34 676.385 930.74 675.801 931.035C675.208 931.334 674.497 931.522 673.694 931.668C673.181 931.76 672.659 931.832 672.117 931.906C671.798 931.95 671.472 931.994 671.137 932.045C669.381 932.309 667.494 932.719 666.06 934.017C664.676 935.271 663.795 937.274 663.713 940.5H628.589Z" fill="#F6F6F3" id="Union_2" stroke="#B8B6AD"/>
<g id="Group 618">
<path d="M510 843.5L510 800.556C510 796.137 513.582 792.556 518 792.556L559 792.556C563.418 792.556 567 788.974 567 784.556L567 761" id="Vector 294" stroke="#633636" stroke-width="2"/>
<path d="M370 844L370 800.556C370 796.137 373.582 792.556 378 792.556L488 792.556C492.418 792.556 496 788.974 496 784.556L496 761" id="Vector 292" stroke="#633636" stroke-width="2"/>
<path d="M745 509L750.774 519L739.226 519L745 509ZM496 644L497 644L496 644ZM495 840.5L495 644L497 644L497 840.5L495 840.5ZM504 635L737 635L737 637L504 637L504 635ZM744 628L744 518L746 518L746 628L744 628ZM737 635C740.866 635 744 631.866 744 628L746 628C746 632.971 741.971 637 737 637L737 635ZM495 644C495 639.029 499.029 635 504 635L504 637C500.134 637 497 640.134 497 644L495 644Z" fill="#633636" id="Vector 293"/>
<path d="M1166 450L1156 455.774L1156 444.226L1166 450ZM1095.01 736L1096.01 736L1095.01 736ZM1095.01 458L1094.01 458L1095.01 458ZM626.507 844L626.507 800.556L628.507 800.556L628.507 844L626.507 844ZM619.507 793.556L575 793.556L575 791.556L619.507 791.556L619.507 793.556ZM566 784.556L566 752L568 752L568 784.556L566 784.556ZM575 743L720.078 743L720.078 745L575 745L575 743ZM720.078 743L1087.01 743L1087.01 745L720.078 745L720.078 743ZM1094.01 736L1094.01 458L1096.01 458L1096.01 736L1094.01 736ZM1103.01 449L1157 449L1157 451L1103.01 451L1103.01 449ZM1087.01 743C1090.87 743 1094.01 739.866 1094.01 736L1096.01 736C1096.01 740.971 1091.98 745 1087.01 745L1087.01 743ZM566 752C566 747.029 570.029 743 575 743L575 745C571.134 745 568 748.134 568 752L566 752ZM575 793.556C570.029 793.556 566 789.526 566 784.556L568 784.556C568 788.422 571.134 791.556 575 791.556L575 793.556ZM1094.01 458C1094.01 453.029 1098.04 449 1103.01 449L1103.01 451C1099.14 451 1096.01 454.134 1096.01 458L1094.01 458ZM626.507 800.556C626.507 796.69 623.373 793.556 619.507 793.556L619.507 791.556C624.478 791.556 628.507 795.585 628.507 800.556L626.507 800.556Z" fill="#633636" id="Vector 295"/>
</g>
<g id="Group 684">
<path d="M446 865.5H445.5V866V886C445.5 889.038 447.962 891.5 451 891.5H541C544.038 891.5 546.5 889.038 546.5 886V866V865.5H546H446Z" fill="#E3D9D3" id="image 44" stroke="#B8B6AD"/>
<g id="Group 638">
<path d="M546 866.5H546.5V866V847C546.5 843.962 544.038 841.5 541 841.5H451C447.962 841.5 445.5 843.962 445.5 847V866V866.5H446H546Z" fill="#F6F6F3" id="Rectangle 212" stroke="#B8B6AD"/>
<text fill="#4D4D4D" font-family="Roboto" font-size="17" id="59" letter-spacing="0em" style="white-space: pre" xml:space="preserve"><tspan x="486.438" y="860.311">59</tspan></text>
</g>
</g>
<g id="Group 589">
<rect fill="#F6F6F3" height="43" id="Rectangle 130" rx="1.5" stroke="#B8B6AD" width="995" x="300.5" y="940.5"/>
<g id="Tokens" style="mix-blend-mode:darken">
<g id="Frame 90">
<rect fill="#F6F6F3" height="44" transform="translate(300 940)" width="161"/>
<text fill="#333333" font-family="Roboto Mono" font-size="18" id="Lorem ipsum dolor sit amet, consectetur adipiscing elit" letter-spacing="0em" style="white-space: pre" xml:space="preserve"><tspan x="353.474" y="968.992">calc:</tspan></text>
</g>
</g>
<g id="Tokens_2" style="mix-blend-mode:darken">
<rect fill="#706D5C" height="2" id="Rectangle 19" width="140" x="526" y="940"/>
<g id="Frame 90_2">
<rect fill="#E6E3D6" height="42" transform="translate(526 942)" width="140"/>
<text fill="black" font-family="Roboto Mono" font-size="20" id="Lorem ipsum dolor sit amet, consectetur adipiscing elit_2" letter-spacing="0em" style="white-space: pre" xml:space="preserve"><tspan x="583.988" y="969.769">36</tspan></text>
</g>
</g>
<g id="Tokens_3" style="mix-blend-mode:darken">
<g id="Frame 90_3">
<rect fill="#F6F6F3" height="44" transform="translate(706 940)" width="183.585"/>
<text fill="#333333" font-family="Roboto Mono" font-size="18" id="Lorem ipsum dolor sit amet, consectetur adipiscing elit_3" letter-spacing="0em" style="white-space: pre" xml:space="preserve"><tspan x="792.387" y="968.992">+</tspan></text>
</g>
</g>
<g id="Tokens_4" style="mix-blend-mode:darken">
<rect fill="#706D5C" height="2" id="Rectangle 19_2" width="183.585" x="926.721" y="940"/>
<g id="Frame 90_4">
<rect fill="#E6E3D6" height="42" transform="translate(926.721 942)" width="183.585"/>
<text fill="black" font-family="Roboto Mono" font-size="20" id="Lorem ipsum dolor sit amet, consectetur adipiscing elit_4" letter-spacing="0em" style="white-space: pre" xml:space="preserve"><tspan x="1006.5" y="969.769">59</tspan></text>
</g>
</g>
<g id="Tokens_5" style="mix-blend-mode:darken">
<rect fill="#706D5C" height="2" id="Rectangle 19_3" width="80" x="1216" y="940"/>
<g id="Frame 90_5">
<rect fill="#E6E3D6" height="42" transform="translate(1216 942)" width="80"/>
<text fill="black" font-family="Roboto Mono" font-size="20" id="Lorem ipsum dolor sit amet, consectetur adipiscing elit_5" letter-spacing="0em" style="white-space: pre" xml:space="preserve"><tspan x="1249.99" y="969.769">=</tspan></text>
</g>
</g>
</g>
<g id="Group 588">
<rect fill="#F6F6F3" height="43" id="Rectangle 131" rx="1.5" stroke="#B8B6AD" width="995" x="300.5" y="47.5"/>
<g id="Tokens_6" style="mix-blend-mode:darken">
<g id="Frame 90_6">
<rect fill="#F6F6F3" height="44" transform="translate(375.055 47)" width="700.384"/>
<text fill="#333333" font-family="Roboto Mono" font-size="18" id="Lorem ipsum dolor sit amet, consectetur adipiscing elit_6" letter-spacing="0em" style="white-space: pre" xml:space="preserve"><tspan x="660.383" y="75.9917">calc: 36+59=</tspan></text>
</g>
</g>
<g id="Tokens_7" style="mix-blend-mode:darken">
<g id="Frame 90_7">
<path d="M1155 47H1294C1295.1 47 1296 47.8954 1296 49V89H1155V47Z" fill="#E6E3D6"/>
<text fill="black" font-family="Roboto Mono" font-size="20" id="Lorem ipsum dolor sit amet, consectetur adipiscing elit_7" letter-spacing="0em" style="white-space: pre" xml:space="preserve"><tspan x="1213.49" y="74.7686">95</tspan></text>
</g>
<path d="M1155 89H1295.24H1296C1296 90.1046 1295.1 91 1294 91H1155V89Z" fill="#706D5C" id="Rectangle 19_4"/>
</g>
</g>
<path d="M1009 508L1003.23 518H1014.77L1009 508ZM1010 578V517H1008V578H1010Z" fill="#633636" id="Vector 155"/>
<path d="M1044.88 341.003L1050.65 350.992L1039.11 351.013L1044.88 341.003ZM1120.94 362.766L1120.95 361.766L1120.94 362.766ZM1052.86 362.776L1052.86 361.776L1052.86 362.776ZM1198 370.739L1197 370.741L1198 370.739ZM1190.02 362.756L1190.02 361.756L1190.02 362.756ZM1197 377.977L1197 370.741L1199 370.736L1199 377.973L1197 377.977ZM1043.88 354.793L1043.88 350.005L1045.88 350.001L1045.88 354.789L1043.88 354.793ZM1190.01 363.756L1120.94 363.766L1120.95 361.766L1190.02 361.756L1190.01 363.756ZM1120.94 363.766L1052.86 363.776L1052.86 361.776L1120.95 361.766L1120.94 363.766ZM1045.88 354.789C1045.88 358.651 1049 361.777 1052.86 361.776L1052.86 363.776C1047.89 363.777 1043.88 359.757 1043.88 354.793L1045.88 354.789ZM1197 370.741C1197 366.88 1193.87 363.756 1190.01 363.756L1190.02 361.756C1194.98 361.756 1199 365.773 1199 370.736L1197 370.741Z" fill="#633636" id="Vector 308"/>
<path d="M1027 341L1021.23 351H1032.77L1027 341ZM768 384V374.5H766V384H768ZM779 363.5H1015V361.5H779V363.5ZM1028 350.5V350H1026V350.5H1028ZM1015 363.5C1022.18 363.5 1028 357.68 1028 350.5H1026C1026 356.575 1021.08 361.5 1015 361.5V363.5ZM768 374.5C768 368.425 772.925 363.5 779 363.5V361.5C771.82 361.5 766 367.32 766 374.5H768Z" fill="#633636" id="Vector 306"/>
<path d="M767 343L761.227 353L772.774 353L767 343ZM990 382.5V374.5H988V382.5H990ZM977 361.5H779V363.5H977V361.5ZM779 361.5C772.925 361.5 768 356.575 768 350.5L766 350.5C766 357.68 771.82 363.5 779 363.5V361.5ZM990 374.5C990 367.32 984.18 361.5 977 361.5V363.5C983.075 363.5 988 368.425 988 374.5H990Z" fill="#633636" id="Vector 316"/>
<path d="M1027 341L1032.77 350.988L1021.23 351.012L1027 341ZM1026 378.002L1026 350.002L1028 349.998L1028 377.998L1026 378.002Z" fill="#633636" id="Vector 315"/>
<path d="M1227 90L1232.77 100H1221.23L1227 90ZM1016 176V150.551H1018V176H1016ZM1037 129.551H1207V131.551H1037V129.551ZM1226 110.551V99H1228V110.551H1226ZM1207 129.551C1217.49 129.551 1226 121.044 1226 110.551H1228C1228 122.149 1218.6 131.551 1207 131.551V129.551ZM1016 150.551C1016 138.953 1025.4 129.551 1037 129.551V131.551C1026.51 131.551 1018 140.058 1018 150.551H1016Z" fill="#633636" id="Vector 301"/>
<path d="M770 177.75V150.516C770 139.47 778.954 130.516 790 130.516H1083" id="Vector 303" stroke="#633636" stroke-width="2"/>
<path d="M956.5 445.015L946.452 439.242L946.548 450.789L956.5 445.015ZM813.007 446.016L947.508 446.015L947.492 444.015L812.991 444.016L813.007 446.016Z" fill="#633636" id="Vector 282"/>
<path d="M956 275.5L946 269.727L946 281.274L956 275.5ZM786.999 276.5L947 276.5V274.5L786.999 274.5L786.999 276.5Z" fill="#633636" id="Vector 299"/>
<path d="M1217 341L1211.23 351H1222.77L1217 341ZM1218 378.5V350H1216V378.5H1218Z" fill="#BF7C7C" id="Vector 313"/>
<path d="M1217 508.5L1211.23 518.5H1222.77L1217 508.5ZM1218 580V517.5H1216V580H1218Z" fill="#BF7C7C" id="Vector 314"/>
<path d="M1069 275.5L1079 281.274V269.726L1069 275.5ZM1166 274.5H1078V276.5H1166V274.5Z" fill="#633636" id="Vector 300"/>
<path d="M1227 90L1221.23 100H1232.77L1227 90ZM1228 178.499V99H1226V178.499H1228Z" fill="#633636" id="Vector 304"/>
<path d="M767 343L761.226 353H772.774L767 343ZM768 407V352H766V407H768Z" fill="#633636" id="Vector 305"/>
<g id="Group 646">
<path d="M1103 897L1097.23 907L1108.77 907L1103 897ZM1095 918.5L1095 919.5L1095 918.5ZM1103 910.5L1102 910.5L1103 910.5ZM1007 940L1007 926.5L1005 926.5L1005 940L1007 940ZM1014 919.5L1095 919.5L1095 917.5L1014 917.5L1014 919.5ZM1104 910.5L1104 906L1102 906L1102 910.5L1104 910.5ZM1095 919.5C1099.97 919.5 1104 915.471 1104 910.5L1102 910.5C1102 914.366 1098.87 917.5 1095 917.5L1095 919.5ZM1007 926.5C1007 922.634 1010.13 919.5 1014 919.5L1014 917.5C1009.03 917.5 1005 921.529 1005 926.5L1007 926.5Z" fill="#633636" id="Vector 292_2"/>
</g>
<g id="Group 650">
<path d="M370 897L375.774 907L364.227 907L370 897ZM370 910.5L371 910.5L370 910.5ZM634 942L634 926.5L636 926.5L636 942L634 942ZM627 919.5L378 919.5L378 917.5L627 917.5L627 919.5ZM369 910.5L369 906L371 906L371 910.5L369 910.5ZM378 919.5C373.03 919.5 369 915.471 369 910.5L371 910.5C371 914.366 374.134 917.5 378 917.5L378 919.5ZM634 926.5C634 922.634 630.866 919.5 627 919.5L627 917.5C631.971 917.5 636 921.529 636 926.5L634 926.5Z" fill="#633636" id="Vector 292_3"/>
</g>
<g id="Group 647">
<path d="M873 897L878.774 907L867.227 907L873 897ZM881 918.5L881 919.5L881 918.5ZM873 910.5L872 910.5L873 910.5ZM1005 940L1005 926.5L1007 926.5L1007 940L1005 940ZM998 919.5L881 919.5L881 917.5L998 917.5L998 919.5ZM872 910.5L872 906L874 906L874 910.5L872 910.5ZM881 919.5C876.029 919.5 872 915.471 872 910.5L874 910.5C874 914.366 877.134 917.5 881 917.5L881 919.5ZM1005 926.5C1005 922.634 1001.87 919.5 998 919.5L998 917.5C1002.97 917.5 1007 921.529 1007 926.5L1005 926.5Z" fill="#633636" id="Vector 292_4"/>
</g>
<path d="M1006 898L1000.23 908H1011.77L1006 898ZM1007 940V907H1005V940H1007Z" fill="#633636" id="Vector 292_5"/>
<g id="Group 652">
<path d="M620 897L625.774 907L614.227 907L620 897ZM620 911L621 911L620 911ZM634 942L634 926L636 926L636 942L634 942ZM619 911L619 906L621 906L621 911L619 911ZM627.5 919.5C622.806 919.5 619 915.694 619 911L621 911C621 914.59 623.91 917.5 627.5 917.5L627.5 919.5ZM634 926C634 922.41 631.09 919.5 627.5 919.5L627.5 917.5C632.194 917.5 636 921.306 636 926L634 926Z" fill="#633636" id="Vector 292_6"/>
</g>
<g id="Group 649">
<path d="M747 897L752.774 907L741.227 907L747 897ZM747 910.5L748 910.5L747 910.5ZM998 918.5L998 919.5L998 918.5ZM1005 940L1005 926.5L1007 926.5L1007 940L1005 940ZM998 919.5L755 919.5L755 917.5L998 917.5L998 919.5ZM746 910.5L746 906L748 906L748 910.5L746 910.5ZM755 919.5C750.029 919.5 746 915.471 746 910.5L748 910.5C748 914.366 751.134 917.5 755 917.5L755 919.5ZM1005 926.5C1005 922.634 1001.87 919.5 998 919.5L998 917.5C1002.97 917.5 1007 921.529 1007 926.5L1005 926.5Z" fill="#633636" id="Vector 292_7"/>
</g>
<g id="snh35_-9----6-----5__b12406787_b6290003">
<g id="Group 632">
<path d="M1270 479.5H1270.5V479V384C1270.5 380.962 1268.04 378.5 1265 378.5H1175C1171.96 378.5 1169.5 380.962 1169.5 384V479V479.5H1170H1270Z" fill="#FFF5F0" id="30197736" stroke="#B8B6AD"/>
<path d="M1170 478.5H1169.5V479V498C1169.5 501.038 1171.96 503.5 1175 503.5H1265C1268.04 503.5 1270.5 501.038 1270.5 498V479V478.5H1270H1170Z" fill="#F6F6F3" id="Rectangle 211" stroke="#B8B6AD"/>
</g>
<g id="Group 662">
<g id="Group 659">
<path d="M1267 482.5H1267.5V482V387C1267.5 383.962 1265.04 381.5 1262 381.5H1172C1168.96 381.5 1166.5 383.962 1166.5 387V482V482.5H1167H1267Z" fill="url(#pattern0_1409_3786)" id="heatmap" stroke="#B8B6AD"/>
<path d="M1167 481.5H1166.5V482V501C1166.5 504.038 1168.96 506.5 1172 506.5H1262C1265.04 506.5 1267.5 504.038 1267.5 501V482V481.5H1267H1167Z" fill="#F6F6F3" id="Rectangle 212_2" stroke="#B8B6AD"/>
</g>
<text fill="#4D4D4D" font-family="Roboto" font-size="17" id="_6 + _9" letter-spacing="0em" style="white-space: pre" xml:space="preserve"><tspan x="1190.73" y="500.311">_6 + _9</tspan></text>
</g>
</g>
<g id="snh35_narrow-magnitude__b8229363">
<g id="Group 666">
<path d="M1065 479.5H1065.5V479V384C1065.5 380.962 1063.04 378.5 1060 378.5H970C966.962 378.5 964.5 380.962 964.5 384V479V479.5H965H1065Z" fill="#FFF5F0" id="30197736_2" stroke="#B8B6AD"/>
<path d="M965 478.5H964.5V479V498C964.5 501.038 966.962 503.5 970 503.5H1060C1063.04 503.5 1065.5 501.038 1065.5 498V479V478.5H1065H965Z" fill="#F6F6F3" id="Rectangle 211_2" stroke="#B8B6AD"/>
</g>
<g id="Group 658">
<path d="M1061 482.5H1061.5V482V387C1061.5 383.962 1059.04 381.5 1056 381.5H966C962.962 381.5 960.5 383.962 960.5 387V482V482.5H961H1061Z" fill="url(#pattern1_1409_3786)" id="heatmap_2" stroke="#B8B6AD"/>
<path d="M961 481.5H960.5V482V501C960.5 504.038 962.962 506.5 966 506.5H1056C1059.04 506.5 1061.5 504.038 1061.5 501V482V481.5H1061H961Z" fill="#F6F6F3" id="Rectangle 213" stroke="#B8B6AD"/>
<text fill="#4D4D4D" font-family="Roboto" font-size="17" id="~36 + ~60" letter-spacing="0em" style="white-space: pre" xml:space="preserve"><tspan x="971.264" y="500.311">~36 + ~60</tspan></text>
</g>
</g>
<g id="snh35_wide-magnitude-l__b27385456_b7934217_b24289973_b24383324">
<g id="Group 667">
<path d="M814 478.5H814.5V478V383C814.5 379.962 812.038 377.5 809 377.5H719C715.962 377.5 713.5 379.962 713.5 383V478V478.5H714H814Z" fill="#FFF5F0" id="30197736_3" stroke="#B8B6AD"/>
<path d="M714 477.5H713.5V478V497C713.5 500.038 715.962 502.5 719 502.5H809C812.038 502.5 814.5 500.038 814.5 497V478V477.5H814H714Z" fill="#F6F6F3" id="Rectangle 211_3" stroke="#B8B6AD"/>
</g>
<g id="Group 657">
<path d="M810 481.5H810.5V481V386C810.5 382.962 808.038 380.5 805 380.5H715C711.962 380.5 709.5 382.962 709.5 386V481V481.5H710H810Z" fill="url(#pattern2_1409_3786)" id="heatmap_3" stroke="#B8B6AD"/>
<path d="M710 481.5H709.5V482V501C709.5 504.038 711.962 506.5 715 506.5H805C808.038 506.5 810.5 504.038 810.5 501V482V481.5H810H710Z" fill="#F6F6F3" id="Rectangle 216" stroke="#B8B6AD"/>
<text fill="#4D4D4D" font-family="Roboto" font-size="17" id="~40 + ~50" letter-spacing="0em" style="white-space: pre" xml:space="preserve"><tspan x="720.264" y="500.311">~40 + ~50</tspan></text>
</g>
</g>
<g id="snh35_add-9__b16668051">
<g id="Group 661">
<path d="M1267 681.5H1267.5V681V586C1267.5 582.962 1265.04 580.5 1262 580.5H1172C1168.96 580.5 1166.5 582.962 1166.5 586V681V681.5H1167H1267Z" fill="url(#pattern3_1409_3786)" id="heatmap_4" stroke="#B8B6AD"/>
<path d="M1167 680.5H1166.5V681V700C1166.5 703.038 1168.96 705.5 1172 705.5H1262C1265.04 705.5 1267.5 703.038 1267.5 700V681V680.5H1267H1167Z" fill="#F6F6F3" id="Rectangle 214" stroke="#B8B6AD"/>
<text fill="#4D4D4D" font-family="Roboto" font-size="17" id="add _9" letter-spacing="0em" style="white-space: pre" xml:space="preserve"><tspan x="1192.06" y="699.311">add _9</tspan></text>
</g>
</g>
<g id="snh35_add--57__b5685156">
<g id="Group 660">
<g id="heatmap_5">
<path d="M1059 679.5H1059.5V679V584C1059.5 580.962 1057.04 578.5 1054 578.5H964C960.962 578.5 958.5 580.962 958.5 584V679V679.5H959H1059Z" fill="url(#pattern4_1409_3786)"/>
<path d="M1059 679.5H1059.5V679V584C1059.5 580.962 1057.04 578.5 1054 578.5H964C960.962 578.5 958.5 580.962 958.5 584V679V679.5H959H1059Z" fill="url(#pattern5_1409_3786)"/>
<path d="M1059 679.5H1059.5V679V584C1059.5 580.962 1057.04 578.5 1054 578.5H964C960.962 578.5 958.5 580.962 958.5 584V679V679.5H959H1059Z" stroke="#B8B6AD"/>
</g>
<path d="M959 678.5H958.5V679V698C958.5 701.038 960.962 703.5 964 703.5H1054C1057.04 703.5 1059.5 701.038 1059.5 698V679V678.5H1059H959Z" fill="#F6F6F3" id="Rectangle 215" stroke="#B8B6AD"/>
<text fill="#4D4D4D" font-family="Roboto" font-size="17" id="add ~57" letter-spacing="0em" style="white-space: pre" xml:space="preserve"><tspan x="977.324" y="697.311">add ~57</tspan></text>
</g>
</g>
<g id="Group 653">
<path d="M482 897L487.774 907L476.227 907L482 897ZM482 910.5L483 910.5L482 910.5ZM634 942L634 926.5L636 926.5L636 942L634 942ZM627 919.5L490 919.5L490 917.5L627 917.5L627 919.5ZM481 910.5L481 906L483 906L483 910.5L481 910.5ZM490 919.5C485.029 919.5 481 915.471 481 910.5L483 910.5C483 914.366 486.134 917.5 490 917.5L490 919.5ZM634 926.5C634 922.634 630.866 919.5 627 919.5L627 917.5C631.971 917.5 636 921.529 636 926.5L634 926.5Z" fill="#633636" id="Vector 292_8"/>
</g>
<g id="snh35_30--width-20-__b10068234">
<path d="M417 869.5H417.5V869V850C417.5 846.962 415.038 844.5 412 844.5H322C318.962 844.5 316.5 846.962 316.5 850V869V869.5H317H417Z" fill="#F6F6F3" id="Rectangle 212_3" stroke="#B8B6AD"/>
<text fill="#4D4D4D" font-family="Roboto" font-size="17" id="~30" letter-spacing="0em" style="white-space: pre" xml:space="preserve"><tspan x="351.652" y="863.311">~30</tspan></text>
<path d="M317 869.5H316.5V870V890C316.5 893.038 318.962 895.5 322 895.5H412C415.038 895.5 417.5 893.038 417.5 890V870V869.5H417H317Z" fill="url(#pattern6_1409_3786)" id="embed" stroke="#B8B6AD"/>
</g>
<g id="snh35_36__b30396453_b5250231_b25167495">
<path d="M442 869.5H441.5V870V890C441.5 893.038 443.962 895.5 447 895.5H537C540.038 895.5 542.5 893.038 542.5 890V870V869.5H542H442Z" fill="url(#pattern7_1409_3786)" id="embed_2" stroke="#B8B6AD"/>
<g id="Group 634">
<path d="M542 870.5H542.5V870V851C542.5 847.962 540.038 845.5 537 845.5H447C443.962 845.5 441.5 847.962 441.5 851V870V870.5H442H542Z" fill="#F6F6F3" id="Rectangle 212_4" stroke="#B8B6AD"/>
<text fill="#4D4D4D" font-family="Roboto" font-size="17" id="36" letter-spacing="0em" style="white-space: pre" xml:space="preserve"><tspan x="482.438" y="864.311">36</tspan></text>
</g>
</g>
<g id="snh35_-6__b19825041">
<path d="M567 869.5H566.5V870V890C566.5 893.038 568.962 895.5 572 895.5H662C665.038 895.5 667.5 893.038 667.5 890V870V869.5H667H567Z" fill="url(#pattern8_1409_3786)" id="embed_3" stroke="#B8B6AD"/>
<g id="Group 635">
<path d="M667 869.5H667.5V869V850C667.5 846.962 665.038 844.5 662 844.5H572C568.962 844.5 566.5 846.962 566.5 850V869V869.5H567H667Z" fill="#F6F6F3" id="Rectangle 212_5" stroke="#B8B6AD"/>
<text fill="#4D4D4D" font-family="Roboto" font-size="17" id="_6" letter-spacing="0em" style="white-space: pre" xml:space="preserve"><tspan x="608.384" y="863.311">_6</tspan></text>
</g>
</g>
<g id="snh35_sum----95__b10466709_b25175771">
<g id="Group 669">
<path d="M1065 311.5H1065.5V311V216C1065.5 212.962 1063.04 210.5 1060 210.5H970C966.962 210.5 964.5 212.962 964.5 216V311V311.5H965H1065Z" fill="#FFF5F0" id="30197736_4" stroke="#B8B6AD"/>
<path d="M965 310.5H964.5V311V330C964.5 333.038 966.962 335.5 970 335.5H1060C1063.04 335.5 1065.5 333.038 1065.5 330V311V310.5H1065H965Z" fill="#F6F6F3" id="Rectangle 211_4" stroke="#B8B6AD"/>
</g>
<g id="Group 664">
<g id="Group 655">
<path d="M1061 315.5H1061.5V315V220C1061.5 216.962 1059.04 214.5 1056 214.5H966C962.962 214.5 960.5 216.962 960.5 220V315V315.5H961H1061Z" fill="url(#pattern9_1409_3786)" id="heatmap_6" stroke="#B8B6AD"/>
<path d="M961 314.5H960.5V315V334C960.5 337.038 962.962 339.5 966 339.5H1056C1059.04 339.5 1061.5 337.038 1061.5 334V315V314.5H1061H961Z" fill="#F6F6F3" id="Rectangle 218" stroke="#B8B6AD"/>
<text fill="#4D4D4D" font-family="Roboto" font-size="17" id="sum = _95" letter-spacing="0em" style="white-space: pre" xml:space="preserve"><tspan x="972.186" y="333.311">sum = _95</tspan></text>
</g>
<rect fill="url(#pattern10_1409_3786)" height="26" id="image 49" rx="5.5" stroke="#B8B6AD" width="101" x="960.5" y="175.5"/>
</g>
</g>
<g id="snh35_sum----5__b14881010">
<g id="Group 670">
<path d="M1270 311.5H1270.5V311V216C1270.5 212.962 1268.04 210.5 1265 210.5H1175C1171.96 210.5 1169.5 212.962 1169.5 216V311V311.5H1170H1270Z" fill="#FFF5F0" id="30197736_5" stroke="#B8B6AD"/>
<path d="M1170 310.5H1169.5V311V330C1169.5 333.038 1171.96 335.5 1175 335.5H1265C1268.04 335.5 1270.5 333.038 1270.5 330V311V310.5H1270H1170Z" fill="#F6F6F3" id="Rectangle 211_5" stroke="#B8B6AD"/>
</g>
<g id="Group 665">
<g id="Group 656">
<path d="M1266 315.5H1266.5V315V220C1266.5 216.962 1264.04 214.5 1261 214.5H1171C1167.96 214.5 1165.5 216.962 1165.5 220V315V315.5H1166H1266Z" fill="url(#pattern11_1409_3786)" id="heatmap_7" stroke="#B8B6AD"/>
<path d="M1166 314.5H1165.5V315V334C1165.5 337.038 1167.96 339.5 1171 339.5H1261C1264.04 339.5 1266.5 337.038 1266.5 334V315V314.5H1266H1166Z" fill="#F6F6F3" id="Rectangle 217" stroke="#B8B6AD"/>
<text fill="#4D4D4D" font-family="Roboto" font-size="17" id="sum = _5" letter-spacing="0em" style="white-space: pre" xml:space="preserve"><tspan x="1181.97" y="333.311">sum = _5</tspan></text>
</g>
<rect fill="url(#pattern12_1409_3786)" height="26" id="image 50" rx="5.5" stroke="#B8B6AD" width="101" x="1166.5" y="175.5"/>
</g>
</g>
<rect fill="white" height="12" id="Rectangle 207" width="11" x="853" y="739"/>
<g id="Group 687">
<path d="M995 848L995 803.686C995 799.267 991.418 795.686 987 795.686L861 795.686" id="Vector 297" stroke="#633636" stroke-width="2"/>
<path d="M751 848L751 803.686C751 799.267 754.581 795.686 759 795.686L885 795.686" id="Vector 292_9" stroke="#633636" stroke-width="2"/>
<path d="M956.499 471.5L946.499 465.726L946.499 477.274L956.499 471.5ZM914.999 479.5L915.999 479.5L914.999 479.5ZM914.999 628L915.999 628L914.999 628ZM915.999 628L915.999 479.5L913.999 479.5L913.999 628L915.999 628ZM922.999 472.5L947.499 472.5L947.499 470.5L922.999 470.5L922.999 472.5ZM732.5 637L906.999 637L906.999 635L732.5 635L732.5 637ZM915.999 479.5C915.999 475.634 919.133 472.5 922.999 472.5L922.999 470.5C918.029 470.5 913.999 474.529 913.999 479.5L915.999 479.5ZM913.999 628C913.999 631.866 910.865 635 906.999 635L906.999 637C911.97 637 915.999 632.971 915.999 628L913.999 628Z" fill="#633636" id="Vector 296"/>
<rect fill="white" height="12" id="Rectangle 206" width="11" x="766.999" y="630"/>
<path d="M772 509L777.773 519L766.226 519L772 509ZM858.999 795.577L857.999 795.577L858.999 795.577ZM772 724.677L771 724.677L772 724.677ZM857.999 848L857.999 795.577L859.999 795.577L859.999 848L857.999 848ZM850.999 733.677L780 733.677L780 731.677L850.999 731.677L850.999 733.677ZM771 724.677L771 518L773 518L773 724.677L771 724.677ZM857.999 795.577L857.999 740.677L859.999 740.677L859.999 795.577L857.999 795.577ZM780 733.677C775.029 733.677 771 729.648 771 724.677L773 724.677C773 728.543 776.134 731.677 780 731.677L780 733.677ZM850.999 731.677C855.97 731.677 859.999 735.707 859.999 740.677L857.999 740.677C857.999 736.811 854.865 733.677 850.999 733.677L850.999 731.677Z" fill="#633636" id="Vector 293_2"/>
<path d="M1009 708L1003.23 718L1014.77 718L1009 708ZM859 795.578L860 795.578L859 795.578ZM1001 732.677L1001 731.677L1001 732.677ZM1009 724.677L1008 724.677L1009 724.677ZM860 848L860 795.578L858 795.578L858 848L860 848ZM867 733.677L1001 733.677L1001 731.677L867 731.677L867 733.677ZM1010 724.677L1010 717L1008 717L1008 724.677L1010 724.677ZM860 795.578L860 740.677L858 740.677L858 795.578L860 795.578ZM1001 733.677C1005.97 733.677 1010 729.648 1010 724.677L1008 724.677C1008 728.543 1004.87 731.677 1001 731.677L1001 733.677ZM867 731.677C862.029 731.677 858 735.707 858 740.677L860 740.677C860 736.811 863.134 733.677 867 733.677L867 731.677Z" fill="#633636" id="Vector 298"/>
</g>
<rect fill="#F6F6F3" height="12" id="Rectangle 209" width="11" x="889" y="790"/>
<g id="snh35_-9__b605978">
<path d="M1063 870.5H1062.5V871V891C1062.5 894.038 1064.96 896.5 1068 896.5H1158C1161.04 896.5 1163.5 894.038 1163.5 891V871V870.5H1163H1063Z" fill="url(#pattern13_1409_3786)" id="embed_4" stroke="#B8B6AD"/>
<g id="Group 639">
<path d="M1163 871.5H1163.5V871V852C1163.5 848.962 1161.04 846.5 1158 846.5H1068C1064.96 846.5 1062.5 848.962 1062.5 852V871V871.5H1063H1163Z" fill="#F6F6F3" id="Rectangle 212_6" stroke="#B8B6AD"/>
<text fill="#4D4D4D" font-family="Roboto" font-size="17" id="_9" letter-spacing="0em" style="white-space: pre" xml:space="preserve"><tspan x="1104.38" y="865.311">_9</tspan></text>
</g>
</g>
<g id="snh35_-59--width-2-__b12936589">
<g id="Group 637">
<path d="M917 869.5H917.5V869V850C917.5 846.962 915.038 844.5 912 844.5H822C818.962 844.5 816.5 846.962 816.5 850V869V869.5H817H917Z" fill="#F6F6F3" id="Rectangle 212_7" stroke="#B8B6AD"/>
<text fill="#4D4D4D" font-family="Roboto" font-size="17" id="~59" letter-spacing="0em" style="white-space: pre" xml:space="preserve"><tspan x="851.652" y="863.311">~59</tspan></text>
</g>
<path d="M817 869.5H816.5V870V890C816.5 893.038 818.962 895.5 822 895.5H912C915.038 895.5 917.5 893.038 917.5 890V870V869.5H917H817Z" fill="url(#pattern14_1409_3786)" id="embed_5" stroke="#B8B6AD"/>
</g>
<g id="snh35_5-__b64396">
<g id="Group 685">
<g id="Group 639_2">
<path d="M796 869.5H796.5V869V850C796.5 846.962 794.038 844.5 791 844.5H701C697.962 844.5 695.5 846.962 695.5 850V869V869.5H696H796Z" fill="#F6F6F3" id="Rectangle 212_8" stroke="#B8B6AD"/>
<text fill="#4D4D4D" font-family="Roboto" font-size="17" id="5_" letter-spacing="0em" style="white-space: pre" xml:space="preserve"><tspan x="737.384" y="863.311">5_</tspan></text>
</g>
</g>
<path d="M696 869.5H695.5V870V890C695.5 893.038 697.962 895.5 701 895.5H791C794.038 895.5 796.5 893.038 796.5 890V870V869.5H796H696Z" fill="url(#pattern15_1409_3786)" id="embed_6" stroke="#B8B6AD"/>
</g>
<path d="M895 844L895 779.5C895 775.082 898.582 771.5 903 771.5H1024.5" id="Vector 295_2" stroke="#633636" stroke-width="2"/>
<path d="M1221.5 708L1215.73 718L1227.27 718L1221.5 708ZM1018 842L1018 779.5L1016 779.501L1016 842L1018 842ZM1025 772.5L1213.5 772.5L1213.5 770.5L1025 770.5L1025 772.5ZM1222.5 763.5L1222.5 717L1220.5 717L1220.5 763.5L1222.5 763.5ZM1213.5 772.5C1218.47 772.5 1222.5 768.471 1222.5 763.5L1220.5 763.5C1220.5 767.366 1217.37 770.5 1213.5 770.5L1213.5 772.5ZM1018 779.5C1018 775.634 1021.13 772.5 1025 772.5L1025 770.5C1020.03 770.5 1016 774.53 1016 779.501L1018 779.5Z" fill="#633636" id="Vector 309"/>
<text fill="#4D4D4D" font-family="Roboto" font-size="13" id="Example low precision features" letter-spacing="0em" style="white-space: pre" transform="translate(539 396)" xml:space="preserve"><tspan x="54.3359" y="11.4434">Example
</tspan><tspan x="27.5107" y="25.4434">low precision </tspan><tspan x="56.3545" y="39.4434">features</tspan></text>
<text fill="#4D4D4D" font-family="Roboto" font-size="13" id="Inputs near 30 make this early feature fire" letter-spacing="0em" style="white-space: pre" transform="translate(317 716)" xml:space="preserve"><tspan x="0" y="11.4434">Inputs near 30 make this </tspan><tspan x="0" y="25.4434">early feature fire</tspan></text>
<path d="M710 412.001L649.5 412.001" id="Vector 871" stroke="#788C5D" stroke-dasharray="2 2" stroke-width="1.5"/>
<path d="M721 254L627 384" id="Vector 872" stroke="#788C5D" stroke-dasharray="2 2" stroke-width="1.5"/>
<path d="M345 842.5L345 751" id="Vector 875" stroke="#788C5D" stroke-dasharray="2 2" stroke-width="1.5"/>
<text fill="#4D4D4D" font-family="Roboto" font-size="13" id="Example mod 10 features" letter-spacing="0em" style="white-space: pre" transform="translate(1081 349)" xml:space="preserve"><tspan x="0" y="11.4434">Example mod 10 </tspan><tspan x="0" y="25.4434">features</tspan></text>
<path d="M1164 309L1125 346" id="Vector 873" stroke="#788C5D" stroke-dasharray="2 2" stroke-width="1.5"/>
<path d="M1125 379L1165 418" id="Vector 874" stroke="#788C5D" stroke-dasharray="2 2" stroke-width="1.5"/>
<path d="M1113 846L1113 779.5C1113 775.082 1116.58 771.5 1121 771.5H1121.5" id="Vector 294_2" stroke="#633636" stroke-width="2"/>
<g id="snh35_59__b8284534_b24873848">
<g id="Group 682">
<path d="M942 866.5H941.5V867V887C941.5 890.038 943.962 892.5 947 892.5H1037C1040.04 892.5 1042.5 890.038 1042.5 887V867V866.5H1042H942Z" fill="#E3D9D3" id="image 44_2" stroke="#B8B6AD"/>
<g id="Group 638_2">
<path d="M1042 867.5H1042.5V867V848C1042.5 844.962 1040.04 842.5 1037 842.5H947C943.962 842.5 941.5 844.962 941.5 848V867V867.5H942H1042Z" fill="#F6F6F3" id="Rectangle 212_9" stroke="#B8B6AD"/>
<text fill="#4D4D4D" font-family="Roboto" font-size="17" id="59_2" letter-spacing="0em" style="white-space: pre" xml:space="preserve"><tspan x="982.438" y="861.311">59</tspan></text>
</g>
</g>
<g id="Group 641">
<path d="M938 870.5H937.5V871V891C937.5 894.038 939.962 896.5 943 896.5H1033C1036.04 896.5 1038.5 894.038 1038.5 891V871V870.5H1038H938Z" fill="url(#pattern16_1409_3786)" id="embed_7" stroke="#B8B6AD"/>
<g id="Group 638_3">
<path d="M1038 871.5H1038.5V871V852C1038.5 848.962 1036.04 846.5 1033 846.5H943C939.962 846.5 937.5 848.962 937.5 852V871V871.5H938H1038Z" fill="#F6F6F3" id="Rectangle 212_10" stroke="#B8B6AD"/>
<text fill="#4D4D4D" font-family="Roboto" font-size="17" id="59_3" letter-spacing="0em" style="white-space: pre" xml:space="preserve"><tspan x="978.438" y="865.311">59</tspan></text>
</g>
</g>
</g>
<g id="snh35_sum--92__b26828964_b24405931_b28037773_b14367779">
<g id="Group 668">
<path d="M824 313.5H824.5V313V218C824.5 214.962 822.038 212.5 819 212.5H729C725.962 212.5 723.5 214.962 723.5 218V313V313.5H724H824Z" fill="#FFF5F0" id="30197736_6" stroke="#B8B6AD"/>
<path d="M724 312.5H723.5V313V332C723.5 335.038 725.962 337.5 729 337.5H819C822.038 337.5 824.5 335.038 824.5 332V313V312.5H824H724Z" fill="#F6F6F3" id="Rectangle 211_6" stroke="#B8B6AD"/>
</g>
<g id="Group 663">
<g id="Group 654">
<path d="M820 317.5H820.5V317V222C820.5 218.962 818.038 216.5 815 216.5H725C721.962 216.5 719.5 218.962 719.5 222V317V317.5H720H820Z" fill="url(#pattern17_1409_3786)" id="heatmap_8" stroke="#B8B6AD"/>
<path d="M720 316.5H719.5V317V336C719.5 339.038 721.962 341.5 725 341.5H815C818.038 341.5 820.5 339.038 820.5 336V317V316.5H820H720Z" fill="#F6F6F3" id="Rectangle 219" stroke="#B8B6AD"/>
<text fill="#4D4D4D" font-family="Roboto" font-size="17" id="sum ~92" letter-spacing="0em" style="white-space: pre" xml:space="preserve"><tspan x="736.008" y="335.311">sum ~92</tspan></text>
</g>
<rect fill="url(#pattern18_1409_3786)" height="26" id="image 51" rx="5.5" stroke="#B8B6AD" width="101" x="719.5" y="177.5"/>
</g>
</g>
<g id="full_graph_link__calc-36-plus-59">
<rect fill="#6A9BCC" fill-opacity="0.1" height="24" rx="4" width="143" x="1155" y="987"/>
<g id="Component">
<path d="M1166.5 994.25H1163M1163 994.25V997.75M1163 994.25L1167 998.25" id="Vector 891" stroke="#6A9BCC"/>
<path d="M1168.5 1003.75L1172 1003.75M1172 1003.75L1172 1000.25M1172 1003.75L1168 999.75" id="Vector 893" stroke="#6A9BCC"/>
</g>
<text fill="#6A9BCC" font-family="Roboto" font-size="13" id="View detailed graph" letter-spacing="0em" style="white-space: pre" xml:space="preserve"><tspan x="1177" y="1003.44">View detailed graph</tspan></text>
</g>
<g id="Frame 118">
<g id="Frame 114">
<text fill="#4D4D4D" font-family="Roboto" font-size="13" id="Figure 00: A simplified attribution graph of Haiku adding two-digit numbers. Features of the inputs feed into separable processing pathways." letter-spacing="0em" style="white-space: pre" xml:space="preserve"><tspan x="300" y="1006.44">Figure 00: A simplified attribution graph of Haiku adding two-digit numbers. Features of the inputs feed into separable processing pathways.</tspan></text>
</g>
</g>
<g id="Group 794">
<text fill="#CC6500" font-family="Roboto" font-size="13" font-style="italic" id="Hover to see feature visualizations!" letter-spacing="0em" style="white-space: pre" xml:space="preserve"><tspan x="561" y="229.443">Hover to see </tspan><tspan x="561" y="243.443">feature </tspan><tspan x="561" y="257.443">visualizations!</tspan></text>
<path d="M710.354 239.354C710.549 239.158 710.549 238.842 710.354 238.646L707.172 235.464C706.976 235.269 706.66 235.269 706.464 235.464C706.269 235.66 706.269 235.976 706.464 236.172L709.293 239L706.464 241.828C706.269 242.024 706.269 242.34 706.464 242.536C706.66 242.731 706.976 242.731 707.172 242.536L710.354 239.354ZM609.5 239.5C671 239.5 627 239.5 710 239.5V238.5C627 238.5 671 238.5 609.5 238.5V239.5Z" fill="#CC6500" id="Vector 456"/>
</g>
</g>
</g>
<defs>
<pattern height="1" id="pattern0_1409_3786" patternContentUnits="objectBoundingBox" width="1">
<use transform="scale(0.005)" xlink:href="#image0_1409_3786"/>
</pattern>
<pattern height="1" id="pattern1_1409_3786" patternContentUnits="objectBoundingBox" width="1">
<use transform="scale(0.005)" xlink:href="#image1_1409_3786"/>
</pattern>
<pattern height="1" id="pattern2_1409_3786" patternContentUnits="objectBoundingBox" width="1">
<use transform="scale(0.005)" xlink:href="#image2_1409_3786"/>
</pattern>
<pattern height="1" id="pattern3_1409_3786" patternContentUnits="objectBoundingBox" width="1">
<use transform="scale(0.005)" xlink:href="#image3_1409_3786"/>
</pattern>
<pattern height="1" id="pattern4_1409_3786" patternContentUnits="objectBoundingBox" width="1">
<use transform="scale(0.005)" xlink:href="#image4_1409_3786"/>
</pattern>
<pattern height="1" id="pattern5_1409_3786" patternContentUnits="objectBoundingBox" width="1">
<use transform="scale(0.005)" xlink:href="#image5_1409_3786"/>
</pattern>
<pattern height="1" id="pattern6_1409_3786" patternContentUnits="objectBoundingBox" width="1">
<use transform="scale(0.005 0.02)" xlink:href="#image6_1409_3786"/>
</pattern>
<pattern height="1" id="pattern7_1409_3786" patternContentUnits="objectBoundingBox" width="1">
<use transform="scale(0.005 0.02)" xlink:href="#image7_1409_3786"/>
</pattern>
<pattern height="1" id="pattern8_1409_3786" patternContentUnits="objectBoundingBox" width="1">
<use transform="scale(0.005 0.02)" xlink:href="#image8_1409_3786"/>
</pattern>
<pattern height="1" id="pattern9_1409_3786" patternContentUnits="objectBoundingBox" width="1">
<use transform="scale(0.005)" xlink:href="#image9_1409_3786"/>
</pattern>
<pattern height="1" id="pattern10_1409_3786" patternContentUnits="objectBoundingBox" width="1">
<use transform="scale(0.005 0.02)" xlink:href="#image10_1409_3786"/>
</pattern>
<pattern height="1" id="pattern11_1409_3786" patternContentUnits="objectBoundingBox" width="1">
<use transform="scale(0.005)" xlink:href="#image11_1409_3786"/>
</pattern>
<pattern height="1" id="pattern12_1409_3786" patternContentUnits="objectBoundingBox" width="1">
<use transform="scale(0.005 0.02)" xlink:href="#image12_1409_3786"/>
</pattern>
<pattern height="1" id="pattern13_1409_3786" patternContentUnits="objectBoundingBox" width="1">
<use transform="scale(0.005 0.02)" xlink:href="#image13_1409_3786"/>
</pattern>
<pattern height="1" id="pattern14_1409_3786" patternContentUnits="objectBoundingBox" width="1">
<use transform="scale(0.005 0.02)" xlink:href="#image14_1409_3786"/>
</pattern>
<pattern height="1" id="pattern15_1409_3786" patternContentUnits="objectBoundingBox" width="1">
<use transform="scale(0.005 0.02)" xlink:href="#image15_1409_3786"/>
</pattern>
<pattern height="1" id="pattern16_1409_3786" patternContentUnits="objectBoundingBox" width="1">
<use transform="scale(0.005 0.02)" xlink:href="#image16_1409_3786"/>
</pattern>
<pattern height="1" id="pattern17_1409_3786" patternContentUnits="objectBoundingBox" width="1">
<use transform="scale(0.005)" xlink:href="#image17_1409_3786"/>
</pattern>
<pattern height="1" id="pattern18_1409_3786" patternContentUnits="objectBoundingBox" width="1">
<use transform="scale(0.005 0.02)" xlink:href="#image18_1409_3786"/>
</pattern>
<image data-name="image.png" height="200" id="image0_1409_3786" preserveAspectRatio="none" width="200" xlink:href="./png/img_efc3c8ba4fc7f64b.png"/>
<image data-name="image.png" height="200" id="image1_1409_3786" preserveAspectRatio="none" width="200" xlink:href="./png/img_9f2aa189ffe2dd04.png"/>
<image data-name="image.png" height="200" id="image2_1409_3786" preserveAspectRatio="none" width="200" xlink:href="./png/img_c7193272f609b7b5.png"/>
<image data-name="image.png" height="200" id="image3_1409_3786" preserveAspectRatio="none" width="200" xlink:href="./png/img_7a8c7de1a9dceda0.png"/>
<image data-name="26422616.png" height="200" id="image4_1409_3786" preserveAspectRatio="none" width="200" xlink:href="./png/img_f5a415f92ae44f75.png"/>
<image data-name="image.png" height="200" id="image5_1409_3786" preserveAspectRatio="none" width="200" xlink:href="./png/img_2e46ee41839bfb71.png"/>
<image data-name="image.png" height="50" id="image6_1409_3786" preserveAspectRatio="none" width="200" xlink:href="./png/img_115f31e0e39c3f7b.png"/>
<image data-name="image.png" height="50" id="image7_1409_3786" preserveAspectRatio="none" width="200" xlink:href="./png/img_809852f78071dc18.png"/>
<image data-name="image.png" height="50" id="image8_1409_3786" preserveAspectRatio="none" width="200" xlink:href="./png/img_eabfb1c991c99a94.png"/>
<image data-name="image.png" height="200" id="image9_1409_3786" preserveAspectRatio="none" width="200" xlink:href="./png/img_35004f8eb823d7b4.png"/>
<image data-name="image.png" height="50" id="image10_1409_3786" preserveAspectRatio="none" width="200" xlink:href="./png/img_7c16ca863f79c3a0.png"/>
<image data-name="image.png" height="200" id="image11_1409_3786" preserveAspectRatio="none" width="200" xlink:href="./png/img_ae0aeffe4d25e86d.png"/>
<image data-name="image.png" height="50" id="image12_1409_3786" preserveAspectRatio="none" width="200" xlink:href="./png/img_a3e2f10455de0cd5.png"/>
<image data-name="8136796_embed.png" height="50" id="image13_1409_3786" preserveAspectRatio="none" width="200" xlink:href="./png/img_552bccd0ca0b2d52.png"/>
<image data-name="image.png" height="50" id="image14_1409_3786" preserveAspectRatio="none" width="200" xlink:href="./png/img_7cbc499c41fc2ca3.png"/>
<image data-name="21541325_embed.png" height="50" id="image15_1409_3786" preserveAspectRatio="none" width="200" xlink:href="./png/img_7072b4c018bc2d39.png"/>
<image data-name="image.png" height="50" id="image16_1409_3786" preserveAspectRatio="none" width="200" xlink:href="./png/img_373dbbb6c2d057bd.png"/>
<image data-name="image.png" height="200" id="image17_1409_3786" preserveAspectRatio="none" width="200" xlink:href="./png/img_6f90d00f6fea11cd.png"/>
<image data-name="image.png" height="50" id="image18_1409_3786" preserveAspectRatio="none" width="200" xlink:href="./png/img_5dff3f03bda41323.png"/>
</defs>
</svg>