<?xml version="1.0" encoding="utf-8"?>
<svg fill="none" height="695" viewBox="0 0 1304 695" width="1304" xmlns="http://www.w3.org/2000/svg">
<g id="ablation-feature-svg">
<rect fill="white" height="695" width="1304"/>
<g clip-path="url(#clip0_2248_11172)" id="ablation_feature 1">
<g id="figure_1">
<g id="patch_1">
<path d="M76 656H1228V80H76V656Z" fill="white" id="Vector"/>
</g>
<g id="axes_1">
<g id="patch_2">
<path d="M139.986 601.973H1213.6V94.4H139.986V601.973Z" fill="white" id="Vector_2"/>
</g>
<g id="matplotlib.axis_1">
<g id="xtick_1">
<g id="line2d_1">
<g id="Group">
<g id="Vector_3">
<path d="M188.787 601.973V606.64V601.973Z" fill="#666664"/>
<path d="M188.787 601.973V606.64" stroke="#666664" stroke-width="1.06667"/>
</g>
</g>
</g>
<g id="text_1">
<g id="Group_2">
<path d="M188.786 611.492C186.786 611.492 185.48 612.774 185.48 614.946V617.826C185.48 620.107 186.828 621.28 188.786 621.28C190.747 621.28 192.095 620.107 192.095 617.826V614.946C192.095 612.774 190.786 611.492 188.786 611.492ZM188.786 620.107C187.44 620.107 186.761 619.132 186.761 617.813V614.959C186.761 613.64 187.44 612.665 188.786 612.665C190.134 612.665 190.813 613.64 190.813 614.959V617.813C190.813 619.132 190.134 620.107 188.786 620.107Z" fill="#666664" id="Vector_4"/>
</g>
</g>
</g>
<g id="xtick_2">
<g id="line2d_2">
<g id="Group_3">
<g id="Vector_5">
<path d="M246.2 601.973V606.64V601.973Z" fill="#666664"/>
<path d="M246.2 601.973V606.64" stroke="#666664" stroke-width="1.06667"/>
</g>
</g>
</g>
<g id="text_2">
<g id="Group_4">
<path d="M247.539 611.613H246.579L243.9 613.253V614.48L246.246 613.119V621.119H247.539V611.613Z" fill="#666664" id="Vector_6"/>
</g>
</g>
</g>
<g id="xtick_3">
<g id="line2d_3">
<g id="Group_5">
<g id="Vector_7">
<path d="M303.612 601.973V606.64V601.973Z" fill="#666664"/>
<path d="M303.612 601.973V606.64" stroke="#666664" stroke-width="1.06667"/>
</g>
</g>
</g>
<g id="text_3">
<g id="Group_6">
<path d="M307.146 619.946H302.532L304.532 617.986C305.692 616.853 306.598 615.907 306.598 614.413C306.598 612.746 305.426 611.492 303.546 611.492C301.665 611.492 300.519 612.759 300.519 614.507V615.132H301.786V614.519C301.786 613.44 302.438 612.665 303.546 612.665C304.653 612.665 305.305 613.359 305.305 614.413C305.305 615.44 304.719 616.132 303.692 617.159L300.492 620.319V621.119H307.146V619.946Z" fill="#666664" id="Vector_8"/>
</g>
</g>
</g>
<g id="xtick_4">
<g id="line2d_4">
<g id="Group_7">
<g id="Vector_9">
<path d="M361.025 601.973V606.64V601.973Z" fill="#666664"/>
<path d="M361.025 601.973V606.64" stroke="#666664" stroke-width="1.06667"/>
</g>
</g>
</g>
<g id="text_4">
<g id="Group_8">
<path d="M364.345 618.532C364.345 617.026 363.424 616.359 362.718 616.146C363.29 615.892 364.038 615.265 364.038 614.092C364.038 612.586 362.918 611.492 360.932 611.492C358.865 611.492 357.932 612.865 357.865 614.08H359.145C359.29 613.28 359.824 612.653 360.945 612.653C362.011 612.653 362.757 613.199 362.757 614.146C362.757 615.107 362.157 615.64 361.145 615.64H359.438V616.813H361.105C362.332 616.813 363.038 617.386 363.038 618.453C363.038 619.507 362.238 620.107 360.972 620.107C359.678 620.107 359.038 619.346 358.905 618.613H357.611C357.718 619.907 358.732 621.28 360.972 621.28C363.105 621.28 364.345 620.174 364.345 618.532Z" fill="#666664" id="Vector_10"/>
</g>
</g>
</g>
<g id="xtick_5">
<g id="line2d_5">
<g id="Group_9">
<g id="Vector_11">
<path d="M418.437 601.973V606.64V601.973Z" fill="#666664"/>
<path d="M418.437 601.973V606.64" stroke="#666664" stroke-width="1.06667"/>
</g>
</g>
</g>
<g id="text_5">
<g id="Group_10">
<path d="M422.517 618.198V617.08H420.505V611.652H419.09L414.451 617.492V618.198H419.251V621.119H420.505V618.198H422.517ZM416.157 617.08L419.251 613.146V617.08H416.157Z" fill="#666664" id="Vector_12"/>
</g>
</g>
</g>
<g id="xtick_6">
<g id="line2d_6">
<g id="Group_11">
<g id="Vector_13">
<path d="M475.85 601.973V606.64V601.973Z" fill="#666664"/>
<path d="M475.85 601.973V606.64" stroke="#666664" stroke-width="1.06667"/>
</g>
</g>
</g>
<g id="text_6">
<g id="Group_12">
<path d="M473.031 616.932H474.098C474.244 616.719 474.698 616.053 475.883 616.053C477.11 616.053 477.923 616.799 477.923 618.013V618.146C477.923 619.28 477.098 620.107 475.883 620.107C474.404 620.107 473.937 619.146 473.831 618.507H472.564C472.671 619.946 473.71 621.28 475.883 621.28C477.871 621.28 479.204 619.986 479.204 618.146V617.999C479.204 616.013 477.804 614.88 476.177 614.88C475.256 614.88 474.631 615.199 474.256 615.574V612.826H478.844V611.653H473.031V616.932Z" fill="#666664" id="Vector_14"/>
</g>
</g>
</g>
<g id="xtick_7">
<g id="line2d_7">
<g id="Group_13">
<g id="Vector_15">
<path d="M533.262 601.973V606.64V601.973Z" fill="#666664"/>
<path d="M533.262 601.973V606.64" stroke="#666664" stroke-width="1.06667"/>
</g>
</g>
</g>
<g id="text_7">
<g id="Group_14">
<path d="M536.662 618.053C536.662 616.092 535.396 614.88 533.635 614.88C533.114 614.88 532.702 614.986 532.381 615.159L535.141 611.653H533.608L531.396 614.546C530.556 615.626 529.862 616.613 529.862 618.053C529.862 619.919 531.089 621.28 533.248 621.28C535.381 621.28 536.662 619.865 536.662 618.053ZM535.369 618.053C535.369 619.186 534.635 620.107 533.248 620.107C531.914 620.107 531.156 619.186 531.156 618.053C531.156 616.88 531.969 615.974 533.248 615.974C534.635 615.974 535.369 616.88 535.369 618.053Z" fill="#666664" id="Vector_16"/>
</g>
</g>
</g>
<g id="xtick_8">
<g id="line2d_8">
<g id="Group_15">
<g id="Vector_17">
<path d="M590.674 601.973V606.64V601.973Z" fill="#666664"/>
<path d="M590.674 601.973V606.64" stroke="#666664" stroke-width="1.06667"/>
</g>
</g>
</g>
<g id="text_8">
<g id="Group_16">
<path d="M594.061 612.625V611.652H587.421V612.825H592.594L587.955 621.119H589.367L594.061 612.625Z" fill="#666664" id="Vector_18"/>
</g>
</g>
</g>
<g id="xtick_9">
<g id="line2d_9">
<g id="Group_17">
<g id="Vector_19">
<path d="M648.087 601.973V606.64V601.973Z" fill="#666664"/>
<path d="M648.087 601.973V606.64" stroke="#666664" stroke-width="1.06667"/>
</g>
</g>
</g>
<g id="text_9">
<g id="Group_18">
<path d="M651.487 618.559C651.487 617.226 650.527 616.453 649.793 616.24C650.475 616.026 651.3 615.386 651.3 614.107C651.3 612.613 650.233 611.492 648.26 611.492H647.914C645.954 611.492 644.875 612.613 644.875 614.107C644.875 615.386 645.7 616.026 646.381 616.24C645.647 616.453 644.687 617.226 644.687 618.559C644.687 620.159 645.9 621.28 647.875 621.28H648.233C650.247 621.28 651.487 620.159 651.487 618.559ZM648.26 612.64C649.327 612.64 650.02 613.24 650.02 614.159C650.02 615.08 649.327 615.68 648.26 615.68H647.914C646.847 615.68 646.154 615.08 646.154 614.159C646.154 613.24 646.847 612.64 647.914 612.64H648.26ZM648.287 616.826C649.42 616.826 650.181 617.465 650.181 618.48C650.181 619.492 649.42 620.132 648.287 620.132H647.887C646.766 620.132 645.993 619.492 645.993 618.48C645.993 617.465 646.766 616.826 647.887 616.826H648.287Z" fill="#666664" id="Vector_20"/>
</g>
</g>
</g>
<g id="xtick_10">
<g id="line2d_10">
<g id="Group_19">
<g id="Vector_21">
<path d="M705.5 601.973V606.64V601.973Z" fill="#666664"/>
<path d="M705.5 601.973V606.64" stroke="#666664" stroke-width="1.06667"/>
</g>
</g>
</g>
<g id="text_10">
<g id="Group_20">
<path d="M707.366 618.226C708.206 617.132 708.9 616.159 708.9 614.719C708.9 612.853 707.673 611.492 705.512 611.492C703.379 611.492 702.1 612.907 702.1 614.719C702.1 616.68 703.366 617.892 705.127 617.892C705.645 617.892 706.06 617.786 706.379 617.613L703.618 621.119H705.152L707.366 618.226ZM703.393 614.719C703.393 613.613 704.127 612.665 705.512 612.665C706.845 612.665 707.606 613.613 707.606 614.719C707.606 615.892 706.793 616.799 705.512 616.799C704.127 616.799 703.393 615.892 703.393 614.719Z" fill="#666664" id="Vector_22"/>
</g>
</g>
</g>
<g id="xtick_11">
<g id="line2d_11">
<g id="Group_21">
<g id="Vector_23">
<path d="M762.912 601.973V606.64V601.973Z" fill="#666664"/>
<path d="M762.912 601.973V606.64" stroke="#666664" stroke-width="1.06667"/>
</g>
</g>
</g>
<g id="text_11">
<g id="Group_22">
<path d="M759.638 611.613H758.678L755.999 613.253V614.48L758.344 613.119V621.119H759.638V611.613Z" fill="#666664" id="Vector_24"/>
<path d="M765.878 611.492C763.878 611.492 762.571 612.774 762.571 614.946V617.826C762.571 620.107 763.919 621.28 765.878 621.28C767.838 621.28 769.186 620.107 769.186 617.826V614.946C769.186 612.774 767.878 611.492 765.878 611.492ZM765.878 620.107C764.532 620.107 763.853 619.132 763.853 617.813V614.959C763.853 613.64 764.532 612.665 765.878 612.665C767.225 612.665 767.905 613.64 767.905 614.959V617.813C767.905 619.132 767.225 620.107 765.878 620.107Z" fill="#666664" id="Vector_25"/>
</g>
</g>
</g>
<g id="xtick_12">
<g id="line2d_12">
<g id="Group_23">
<g id="Vector_26">
<path d="M820.324 601.973V606.64V601.973Z" fill="#666664"/>
<path d="M820.324 601.973V606.64" stroke="#666664" stroke-width="1.06667"/>
</g>
</g>
</g>
<g id="text_12">
<g id="Group_24">
<path d="M818.697 611.613H817.737L815.058 613.253V614.48L817.403 613.119V621.119H818.697V611.613Z" fill="#666664" id="Vector_27"/>
<path d="M824.631 611.613H823.67L820.991 613.253V614.48L823.337 613.119V621.119H824.631V611.613Z" fill="#666664" id="Vector_28"/>
</g>
</g>
</g>
<g id="xtick_13">
<g id="line2d_13">
<g id="Group_25">
<g id="Vector_29">
<path d="M877.737 601.973V606.64V601.973Z" fill="#666664"/>
<path d="M877.737 601.973V606.64" stroke="#666664" stroke-width="1.06667"/>
</g>
</g>
</g>
<g id="text_13">
<g id="Group_26">
<path d="M874.957 611.613H873.997L871.317 613.253V614.48L873.663 613.119V621.119H874.957V611.613Z" fill="#666664" id="Vector_30"/>
<path d="M884.238 619.946H879.624L881.624 617.986C882.784 616.853 883.69 615.907 883.69 614.413C883.69 612.746 882.517 611.492 880.638 611.492C878.757 611.492 877.611 612.759 877.611 614.507V615.132H878.878V614.519C878.878 613.44 879.53 612.665 880.638 612.665C881.744 612.665 882.396 613.359 882.396 614.413C882.396 615.44 881.811 616.132 880.784 617.159L877.584 620.319V621.119H884.238V619.946Z" fill="#666664" id="Vector_31"/>
</g>
</g>
</g>
<g id="xtick_14">
<g id="line2d_14">
<g id="Group_27">
<g id="Vector_32">
<path d="M935.149 601.973V606.64V601.973Z" fill="#666664"/>
<path d="M935.149 601.973V606.64" stroke="#666664" stroke-width="1.06667"/>
</g>
</g>
</g>
<g id="text_14">
<g id="Group_28">
<path d="M932.209 611.613H931.249L928.569 613.253V614.48L930.915 613.119V621.119H932.209V611.613Z" fill="#666664" id="Vector_33"/>
<path d="M941.436 618.532C941.436 617.026 940.515 616.359 939.809 616.146C940.382 615.892 941.13 615.265 941.13 614.092C941.13 612.586 940.009 611.492 938.023 611.492C935.957 611.492 935.023 612.865 934.957 614.08H936.236C936.382 613.28 936.915 612.653 938.036 612.653C939.103 612.653 939.848 613.199 939.848 614.146C939.848 615.107 939.248 615.64 938.236 615.64H936.53V616.813H938.196C939.423 616.813 940.13 617.386 940.13 618.453C940.13 619.507 939.33 620.107 938.063 620.107C936.769 620.107 936.13 619.346 935.996 618.613H934.703C934.809 619.907 935.823 621.28 938.063 621.28C940.196 621.28 941.436 620.174 941.436 618.532Z" fill="#666664" id="Vector_34"/>
</g>
</g>
</g>
<g id="xtick_15">
<g id="line2d_15">
<g id="Group_29">
<g id="Vector_35">
<path d="M992.562 601.973V606.64V601.973Z" fill="#666664"/>
<path d="M992.562 601.973V606.64" stroke="#666664" stroke-width="1.06667"/>
</g>
</g>
</g>
<g id="text_15">
<g id="Group_30">
<path d="M989.315 611.613H988.355L985.676 613.253V614.48L988.022 613.119V621.119H989.315V611.613Z" fill="#666664" id="Vector_36"/>
<path d="M999.609 618.199V617.08H997.597V611.653H996.182L991.542 617.492V618.199H996.342V621.119H997.597V618.199H999.609ZM993.249 617.08L996.342 613.146V617.08H993.249Z" fill="#666664" id="Vector_37"/>
</g>
</g>
</g>
<g id="xtick_16">
<g id="line2d_16">
<g id="Group_31">
<g id="Vector_38">
<path d="M1049.97 601.973V606.64V601.973Z" fill="#666664"/>
<path d="M1049.97 601.973V606.64" stroke="#666664" stroke-width="1.06667"/>
</g>
</g>
</g>
<g id="text_16">
<g id="Group_32">
<path d="M1046.97 611.613H1046.01L1043.33 613.253V614.48L1045.68 613.119V621.119H1046.97V611.613Z" fill="#666664" id="Vector_39"/>
<path d="M1050.12 616.932H1051.19C1051.33 616.719 1051.79 616.053 1052.97 616.053C1054.2 616.053 1055.01 616.799 1055.01 618.013V618.146C1055.01 619.28 1054.19 620.107 1052.97 620.107C1051.5 620.107 1051.03 619.146 1050.92 618.507H1049.66C1049.76 619.946 1050.8 621.28 1052.97 621.28C1054.96 621.28 1056.3 619.986 1056.3 618.146V617.999C1056.3 616.013 1054.9 614.88 1053.27 614.88C1052.35 614.88 1051.72 615.199 1051.35 615.574V612.826H1055.93V611.653H1050.12V616.932Z" fill="#666664" id="Vector_40"/>
</g>
</g>
</g>
<g id="xtick_17">
<g id="line2d_17">
<g id="Group_33">
<g id="Vector_41">
<path d="M1107.39 601.973V606.64V601.973Z" fill="#666664"/>
<path d="M1107.39 601.973V606.64" stroke="#666664" stroke-width="1.06667"/>
</g>
</g>
</g>
<g id="text_17">
<g id="Group_34">
<path d="M1104.37 611.613H1103.41L1100.73 613.253V614.48L1103.07 613.119V621.119H1104.37V611.613Z" fill="#666664" id="Vector_42"/>
<path d="M1113.75 618.053C1113.75 616.092 1112.49 614.88 1110.73 614.88C1110.21 614.88 1109.79 614.986 1109.47 615.159L1112.23 611.653H1110.7L1108.49 614.546C1107.65 615.626 1106.95 616.613 1106.95 618.053C1106.95 619.919 1108.18 621.28 1110.34 621.28C1112.47 621.28 1113.75 619.865 1113.75 618.053ZM1112.46 618.053C1112.46 619.186 1111.73 620.107 1110.34 620.107C1109.01 620.107 1108.25 619.186 1108.25 618.053C1108.25 616.88 1109.06 615.974 1110.34 615.974C1111.73 615.974 1112.46 616.88 1112.46 618.053Z" fill="#666664" id="Vector_43"/>
</g>
</g>
</g>
<g id="xtick_18">
<g id="line2d_18">
<g id="Group_35">
<g id="Vector_44">
<path d="M1164.8 601.973V606.64V601.973Z" fill="#666664"/>
<path d="M1164.8 601.973V606.64" stroke="#666664" stroke-width="1.06667"/>
</g>
</g>
</g>
<g id="text_18">
<g id="Group_36">
<path d="M1162.02 611.613H1161.06L1158.38 613.253V614.48L1160.73 613.119V621.119H1162.02V611.613Z" fill="#666664" id="Vector_45"/>
<path d="M1171.15 612.626V611.653H1164.51V612.826H1169.69L1165.05 621.119H1166.46L1171.15 612.626Z" fill="#666664" id="Vector_46"/>
</g>
</g>
</g>
<g id="text_19">
<g id="Group_37">
<path d="M605.044 639.119H612.338V637.919H606.324V634.692H609.578V633.492H606.324V630.852H611.844V629.652H605.044V639.119Z" fill="black" id="Vector_47"/>
<path d="M615.351 635.425C615.351 634.186 615.978 633.507 617.032 633.507C618.032 633.507 618.632 634.146 618.632 635.425V639.119H619.857V635.198C619.857 633.425 618.857 632.386 617.324 632.386C616.217 632.386 615.605 633.092 615.351 633.64V632.532H614.138V639.119H615.351V635.425Z" fill="black" id="Vector_48"/>
<path d="M626.765 639.119H627.977V629.307H626.765V633.613C626.577 633.28 626.031 632.359 624.725 632.359C623.138 632.359 621.858 633.64 621.858 635.825C621.858 637.998 623.138 639.28 624.725 639.28C626.044 639.28 626.592 638.386 626.765 637.998V639.119ZM626.792 635.825C626.792 637.146 626.085 638.173 624.938 638.173C623.804 638.173 623.11 637.146 623.11 635.825C623.11 634.492 623.804 633.48 624.938 633.48C626.085 633.48 626.792 634.492 626.792 635.825Z" fill="black" id="Vector_49"/>
<path d="M633.95 631.265H635.217V629.359H633.95V631.265ZM633.977 639.119H635.192V632.532H633.977V639.119Z" fill="black" id="Vector_50"/>
<path d="M638.871 635.425C638.871 634.186 639.498 633.507 640.552 633.507C641.552 633.507 642.152 634.146 642.152 635.425V639.119H643.377V635.198C643.377 633.425 642.377 632.386 640.844 632.386C639.737 632.386 639.125 633.092 638.871 633.64V632.532H637.658V639.119H638.871V635.425Z" fill="black" id="Vector_51"/>
<path d="M650.284 637.998H649.178C648.178 637.998 647.897 637.625 647.897 636.719V633.625H650.284V632.532H647.897V629.652H646.684V632.532H644.963V633.625H646.684V636.973C646.684 638.398 647.418 639.119 648.872 639.119H650.284V637.998Z" fill="black" id="Vector_52"/>
<path d="M654.751 632.359C652.924 632.359 651.751 633.813 651.751 635.825C651.751 637.759 652.951 639.28 654.872 639.28C656.938 639.28 657.551 637.892 657.697 637.359H656.538C656.43 637.532 656.045 638.173 654.872 638.173C653.697 638.173 653.045 637.225 652.978 635.998H657.738V635.813C657.738 633.719 656.538 632.359 654.751 632.359ZM654.751 633.398C655.697 633.398 656.257 633.986 656.457 635.04H653.018C653.191 634.025 653.751 633.398 654.751 633.398Z" fill="black" id="Vector_53"/>
<path d="M660.937 635.398C660.937 634.24 661.537 633.692 663.07 633.692H664.443V632.48H663.177C661.698 632.48 661.11 633.225 660.937 633.719V632.532H659.725V639.119H660.937V635.398Z" fill="black" id="Vector_54"/>
<path d="M671.672 632.532H670.418L668.497 637.507L666.578 632.532H665.218L667.939 639.24H669.018L671.672 632.532Z" fill="black" id="Vector_55"/>
<path d="M675.804 632.359C673.977 632.359 672.804 633.813 672.804 635.825C672.804 637.759 674.004 639.28 675.925 639.28C677.992 639.28 678.604 637.892 678.75 637.359H677.592C677.483 637.532 677.098 638.173 675.925 638.173C674.75 638.173 674.098 637.225 674.031 635.998H678.792V635.813C678.792 633.719 677.592 632.359 675.804 632.359ZM675.804 633.398C676.75 633.398 677.31 633.986 677.51 635.04H674.071C674.244 634.025 674.804 633.398 675.804 633.398Z" fill="black" id="Vector_56"/>
<path d="M681.991 635.425C681.991 634.186 682.618 633.507 683.672 633.507C684.672 633.507 685.272 634.146 685.272 635.425V639.119H686.497V635.198C686.497 633.425 685.497 632.386 683.964 632.386C682.857 632.386 682.245 633.092 681.991 633.64V632.532H680.778V639.119H681.991V635.425Z" fill="black" id="Vector_57"/>
<path d="M693.404 637.998H692.298C691.298 637.998 691.017 637.625 691.017 636.719V633.625H693.404V632.532H691.017V629.652H689.804V632.532H688.083V633.625H689.804V636.973C689.804 638.398 690.538 639.119 691.992 639.119H693.404V637.998Z" fill="black" id="Vector_58"/>
<path d="M695.284 631.265H696.55V629.359H695.284V631.265ZM695.311 639.119H696.525V632.532H695.311V639.119Z" fill="black" id="Vector_59"/>
<path d="M701.658 632.373C699.792 632.373 698.564 633.865 698.564 635.825C698.564 637.786 699.792 639.28 701.658 639.28C703.525 639.28 704.752 637.786 704.752 635.825C704.752 633.865 703.525 632.373 701.658 632.373ZM701.658 638.159C700.444 638.159 699.819 637.119 699.819 635.825C699.819 634.532 700.458 633.492 701.658 633.492C702.858 633.492 703.498 634.532 703.498 635.825C703.498 637.119 702.858 638.159 701.658 638.159Z" fill="black" id="Vector_60"/>
<path d="M707.991 635.425C707.991 634.186 708.618 633.507 709.672 633.507C710.672 633.507 711.272 634.146 711.272 635.425V639.119H712.497V635.198C712.497 633.425 711.497 632.386 709.964 632.386C708.857 632.386 708.245 633.092 707.991 633.64V632.532H706.778V639.119H707.991V635.425Z" fill="black" id="Vector_61"/>
<path d="M718.458 639.119H719.671V629.307H718.458V639.119Z" fill="black" id="Vector_62"/>
<path d="M726.497 639.119H727.712V632.532H726.497V633.625C726.312 633.292 725.831 632.386 724.537 632.386C722.964 632.386 721.751 633.665 721.751 635.84C721.751 638.013 722.964 639.28 724.537 639.28C725.818 639.28 726.324 638.425 726.497 638.04V639.119ZM726.524 635.84C726.524 637.159 725.885 638.173 724.764 638.173C723.618 638.173 723.004 637.159 723.004 635.84C723.004 634.519 723.618 633.507 724.764 633.507C725.885 633.507 726.524 634.519 726.524 635.84Z" fill="black" id="Vector_63"/>
<path d="M735.738 632.532H734.498L732.55 637.425L730.604 632.532H729.271L731.925 639.013L730.75 641.973H731.965L735.738 632.532Z" fill="black" id="Vector_64"/>
<path d="M739.871 632.359C738.044 632.359 736.871 633.813 736.871 635.825C736.871 637.759 738.071 639.28 739.992 639.28C742.059 639.28 742.671 637.892 742.817 637.359H741.659C741.55 637.532 741.165 638.173 739.992 638.173C738.817 638.173 738.165 637.225 738.098 635.998H742.859V635.813C742.859 633.719 741.659 632.359 739.871 632.359ZM739.871 633.398C740.817 633.398 741.377 633.986 741.577 635.04H738.138C738.311 634.025 738.871 633.398 739.871 633.398Z" fill="black" id="Vector_65"/>
<path d="M746.057 635.398C746.057 634.24 746.657 633.692 748.191 633.692H749.563V632.48H748.297C746.818 632.48 746.23 633.225 746.057 633.719V632.532H744.845V639.119H746.057V635.398Z" fill="black" id="Vector_66"/>
</g>
</g>
</g>
<g id="matplotlib.axis_2">
<g id="ytick_1">
<g id="line2d_19">
<g id="Group_38">
<g id="Vector_67">
<path d="M139.986 578.976H135.32H139.986Z" fill="#666664"/>
<path d="M139.986 578.976H135.32" stroke="#666664" stroke-width="1.06667"/>
</g>
</g>
</g>
<g id="text_20">
<g id="Group_39">
<path d="M112.918 574.255C110.918 574.255 109.611 575.537 109.611 577.71V580.589C109.611 582.87 110.959 584.043 112.918 584.043C114.878 584.043 116.226 582.87 116.226 580.589V577.71C116.226 575.537 114.918 574.255 112.918 574.255ZM112.918 582.87C111.572 582.87 110.893 581.895 110.893 580.576V577.722C110.893 576.403 111.572 575.428 112.918 575.428C114.265 575.428 114.945 576.403 114.945 577.722V580.576C114.945 581.895 114.265 582.87 112.918 582.87Z" fill="#666664" id="Vector_68"/>
<path d="M118.705 583.882H120.253V581.989H118.705V583.882Z" fill="#666664" id="Vector_69"/>
<path d="M126.038 574.255C124.038 574.255 122.731 575.537 122.731 577.71V580.589C122.731 582.87 124.079 584.043 126.038 584.043C127.998 584.043 129.346 582.87 129.346 580.589V577.71C129.346 575.537 128.038 574.255 126.038 574.255ZM126.038 582.87C124.692 582.87 124.013 581.895 124.013 580.576V577.722C124.013 576.403 124.692 575.428 126.038 575.428C127.386 575.428 128.065 576.403 128.065 577.722V580.576C128.065 581.895 127.386 582.87 126.038 582.87Z" fill="#666664" id="Vector_70"/>
</g>
</g>
</g>
<g id="ytick_2">
<g id="line2d_20">
<g id="Group_40">
<g id="Vector_71">
<path d="M139.986 486.183H135.32H139.986Z" fill="#666664"/>
<path d="M139.986 486.183H135.32" stroke="#666664" stroke-width="1.06667"/>
</g>
</g>
</g>
<g id="text_21">
<g id="Group_41">
<path d="M113.905 481.462C111.905 481.462 110.599 482.743 110.599 484.916V487.795C110.599 490.077 111.947 491.25 113.905 491.25C115.866 491.25 117.214 490.077 117.214 487.795V484.916C117.214 482.743 115.905 481.462 113.905 481.462ZM113.905 490.077C112.56 490.077 111.88 489.102 111.88 487.783V484.929C111.88 483.61 112.56 482.635 113.905 482.635C115.253 482.635 115.932 483.61 115.932 484.929V487.783C115.932 489.102 115.253 490.077 113.905 490.077Z" fill="#666664" id="Vector_72"/>
<path d="M119.692 491.089H121.24V489.195H119.692V491.089Z" fill="#666664" id="Vector_73"/>
<path d="M130.067 489.916H125.453L127.453 487.956C128.613 486.822 129.519 485.877 129.519 484.383C129.519 482.716 128.346 481.462 126.467 481.462C124.586 481.462 123.44 482.729 123.44 484.477V485.102H124.707V484.489C124.707 483.41 125.359 482.635 126.467 482.635C127.574 482.635 128.226 483.329 128.226 484.383C128.226 485.41 127.64 486.102 126.613 487.129L123.413 490.289V491.089H130.067V489.916Z" fill="#666664" id="Vector_74"/>
</g>
</g>
</g>
<g id="ytick_3">
<g id="line2d_21">
<g id="Group_42">
<g id="Vector_75">
<path d="M139.986 393.39H135.32H139.986Z" fill="#666664"/>
<path d="M139.986 393.39H135.32" stroke="#666664" stroke-width="1.06667"/>
</g>
</g>
</g>
<g id="text_22">
<g id="Group_43">
<path d="M112.972 388.669C110.972 388.669 109.666 389.95 109.666 392.123V395.002C109.666 397.283 111.013 398.456 112.972 398.456C114.932 398.456 116.28 397.283 116.28 395.002V392.123C116.28 389.95 114.972 388.669 112.972 388.669ZM112.972 397.283C111.626 397.283 110.947 396.308 110.947 394.99V392.135C110.947 390.817 111.626 389.842 112.972 389.842C114.32 389.842 114.999 390.817 114.999 392.135V394.99C114.999 396.308 114.32 397.283 112.972 397.283Z" fill="#666664" id="Vector_76"/>
<path d="M118.759 398.296H120.307V396.402H118.759V398.296Z" fill="#666664" id="Vector_77"/>
<path d="M130.146 395.375V394.256H128.133V388.829H126.719L122.079 394.669V395.375H126.879V398.296H128.133V395.375H130.146ZM123.785 394.256L126.879 390.323V394.256H123.785Z" fill="#666664" id="Vector_78"/>
</g>
</g>
</g>
<g id="ytick_4">
<g id="line2d_22">
<g id="Group_44">
<g id="Vector_79">
<path d="M139.986 300.596H135.32H139.986Z" fill="#666664"/>
<path d="M139.986 300.596H135.32" stroke="#666664" stroke-width="1.06667"/>
</g>
</g>
</g>
<g id="text_23">
<g id="Group_45">
<path d="M113.424 295.875C111.424 295.875 110.118 297.157 110.118 299.33V302.209C110.118 304.49 111.466 305.663 113.424 305.663C115.384 305.663 116.732 304.49 116.732 302.209V299.33C116.732 297.157 115.424 295.875 113.424 295.875ZM113.424 304.49C112.078 304.49 111.399 303.515 111.399 302.196V299.342C111.399 298.023 112.078 297.048 113.424 297.048C114.772 297.048 115.451 298.023 115.451 299.342V302.196C115.451 303.515 114.772 304.49 113.424 304.49Z" fill="#666664" id="Vector_80"/>
<path d="M119.211 305.503H120.759V303.609H119.211V305.503Z" fill="#666664" id="Vector_81"/>
<path d="M129.692 302.436C129.692 300.475 128.425 299.263 126.665 299.263C126.144 299.263 125.731 299.369 125.41 299.542L128.171 296.036H126.637L124.425 298.93C123.585 300.009 122.892 300.996 122.892 302.436C122.892 304.303 124.119 305.663 126.277 305.663C128.41 305.663 129.692 304.248 129.692 302.436ZM128.398 302.436C128.398 303.569 127.665 304.49 126.277 304.49C124.944 304.49 124.185 303.569 124.185 302.436C124.185 301.263 124.998 300.357 126.277 300.357C127.665 300.357 128.398 301.263 128.398 302.436Z" fill="#666664" id="Vector_82"/>
</g>
</g>
</g>
<g id="ytick_5">
<g id="line2d_23">
<g id="Group_46">
<g id="Vector_83">
<path d="M139.986 207.803H135.32H139.986Z" fill="#666664"/>
<path d="M139.986 207.803H135.32" stroke="#666664" stroke-width="1.06667"/>
</g>
</g>
</g>
<g id="text_24">
<g id="Group_47">
<path d="M113.212 203.082C111.212 203.082 109.905 204.364 109.905 206.536V209.416C109.905 211.697 111.253 212.87 113.212 212.87C115.172 212.87 116.52 211.697 116.52 209.416V206.536C116.52 204.364 115.212 203.082 113.212 203.082ZM113.212 211.697C111.866 211.697 111.187 210.722 111.187 209.403V206.549C111.187 205.23 111.866 204.255 113.212 204.255C114.559 204.255 115.239 205.23 115.239 206.549V209.403C115.239 210.722 114.559 211.697 113.212 211.697Z" fill="#666664" id="Vector_84"/>
<path d="M118.999 212.709H120.546V210.816H118.999V212.709Z" fill="#666664" id="Vector_85"/>
<path d="M129.586 210.149C129.586 208.816 128.625 208.043 127.892 207.83C128.573 207.616 129.398 206.976 129.398 205.697C129.398 204.203 128.331 203.082 126.359 203.082H126.013C124.052 203.082 122.973 204.203 122.973 205.697C122.973 206.976 123.798 207.616 124.479 207.83C123.746 208.043 122.786 208.816 122.786 210.149C122.786 211.749 123.998 212.87 125.973 212.87H126.331C128.346 212.87 129.586 211.749 129.586 210.149ZM126.359 204.23C127.425 204.23 128.119 204.83 128.119 205.749C128.119 206.67 127.425 207.27 126.359 207.27H126.013C124.946 207.27 124.252 206.67 124.252 205.749C124.252 204.83 124.946 204.23 126.013 204.23H126.359ZM126.386 208.416C127.519 208.416 128.279 209.055 128.279 210.07C128.279 211.082 127.519 211.722 126.386 211.722H125.986C124.865 211.722 124.092 211.082 124.092 210.07C124.092 209.055 124.865 208.416 125.986 208.416H126.386Z" fill="#666664" id="Vector_86"/>
</g>
</g>
</g>
<g id="ytick_6">
<g id="line2d_24">
<g id="Group_48">
<g id="Vector_87">
<path d="M139.986 115.01H135.32H139.986Z" fill="#666664"/>
<path d="M139.986 115.01H135.32" stroke="#666664" stroke-width="1.06667"/>
</g>
</g>
</g>
<g id="text_25">
<g id="Group_49">
<path d="M115.905 110.41H114.945L112.266 112.049V113.276L114.611 111.916V119.916H115.905V110.41Z" fill="#666664" id="Vector_88"/>
<path d="M118.705 119.916H120.253V118.022H118.705V119.916Z" fill="#666664" id="Vector_89"/>
<path d="M126.038 110.289C124.038 110.289 122.732 111.57 122.732 113.743V116.622C122.732 118.903 124.08 120.076 126.038 120.076C127.999 120.076 129.347 118.903 129.347 116.622V113.743C129.347 111.57 128.038 110.289 126.038 110.289ZM126.038 118.903C124.692 118.903 124.013 117.928 124.013 116.61V113.756C124.013 112.437 124.692 111.462 126.038 111.462C127.386 111.462 128.065 112.437 128.065 113.756V116.61C128.065 117.928 127.386 118.903 126.038 118.903Z" fill="#666664" id="Vector_90"/>
</g>
</g>
</g>
<g id="text_26">
<g id="Group_50">
<path d="M100.118 415.129V413.836H96.0114V410.902C96.0114 408.836 94.9177 407.756 93.3052 407.756C91.6385 407.756 90.651 408.823 90.651 410.902V415.129H100.118ZM91.851 410.863C91.851 409.675 92.3843 409.09 93.3302 409.09C94.1968 409.09 94.8114 409.675 94.8114 410.863V413.836H91.851V410.863Z" fill="black" id="Vector_91"/>
<path d="M96.3968 404.517C95.2385 404.517 94.6906 403.917 94.6906 402.383V401.01H93.4781V402.277C93.4781 403.756 94.2239 404.344 94.7177 404.517H93.5302V405.729H100.118V404.517H96.3968Z" fill="black" id="Vector_92"/>
<path d="M93.3716 396.676C93.3716 398.542 94.8632 399.769 96.8237 399.769C98.7841 399.769 100.278 398.542 100.278 396.676C100.278 394.809 98.7841 393.582 96.8237 393.582C94.8632 393.582 93.3716 394.809 93.3716 396.676ZM99.157 396.676C99.157 397.89 98.1174 398.515 96.8237 398.515C95.5299 398.515 94.4903 397.876 94.4903 396.676C94.4903 395.476 95.5299 394.836 96.8237 394.836C98.1174 394.836 99.157 395.476 99.157 396.676Z" fill="black" id="Vector_93"/>
<path d="M99.0903 390.356C99.3841 390.21 100.278 389.61 100.278 388.304C100.278 386.756 98.9966 385.462 96.8237 385.462C94.6382 385.462 93.357 386.756 93.357 388.304C93.357 389.61 94.2778 390.21 94.6112 390.356H90.3049V391.556H100.117V390.356H99.0903ZM96.8237 390.383C95.4903 390.383 94.4778 389.704 94.4778 388.543C94.4778 387.41 95.4903 386.704 96.8237 386.704C98.1445 386.704 99.1716 387.41 99.1716 388.543C99.1716 389.704 98.1445 390.383 96.8237 390.383Z" fill="black" id="Vector_94"/>
<path d="M100.117 379.063V377.849H93.5299V379.063H94.6237C94.2903 379.249 93.3841 379.73 93.3841 381.024C93.3841 382.596 94.6632 383.809 96.8382 383.809C99.0112 383.809 100.278 382.596 100.278 381.024C100.278 379.742 99.4237 379.236 99.0382 379.063H100.117ZM96.8382 379.036C98.157 379.036 99.1716 379.676 99.1716 380.796C99.1716 381.942 98.157 382.557 96.8382 382.557C95.5174 382.557 94.5049 381.942 94.5049 380.796C94.5049 379.676 95.5174 379.036 96.8382 379.036Z" fill="black" id="Vector_95"/>
<path d="M99.0903 374.196C99.3841 374.05 100.278 373.45 100.278 372.144C100.278 370.596 98.9966 369.302 96.8237 369.302C94.6382 369.302 93.357 370.596 93.357 372.144C93.357 373.45 94.2778 374.05 94.6112 374.196H90.3049V375.396H100.117V374.196H99.0903ZM96.8237 374.223C95.4903 374.223 94.4778 373.544 94.4778 372.383C94.4778 371.25 95.4903 370.544 96.8237 370.544C98.1445 370.544 99.1716 371.25 99.1716 372.383C99.1716 373.544 98.1445 374.223 96.8237 374.223Z" fill="black" id="Vector_96"/>
<path d="M92.2635 367.264V365.997H90.3573V367.264H92.2635ZM100.118 367.236V366.022H93.5302V367.236H100.118Z" fill="black" id="Vector_97"/>
<path d="M100.118 363.529V362.316H90.3052V363.529H100.118Z" fill="black" id="Vector_98"/>
<path d="M92.2635 359.85V358.584H90.3573V359.85H92.2635ZM100.118 359.823V358.609H93.5302V359.823H100.118Z" fill="black" id="Vector_99"/>
<path d="M98.9968 351.636V352.742C98.9968 353.742 98.6239 354.024 97.7177 354.024H94.6239V351.636H93.5302V354.024H90.651V355.236H93.5302V356.957H94.6239V355.236H97.9718C99.3968 355.236 100.118 354.503 100.118 353.049V351.636H98.9968Z" fill="black" id="Vector_100"/>
<path d="M93.53 344.169V345.409L98.4238 347.357L93.53 349.303V350.636L100.011 347.982L102.972 349.157V347.942L93.53 344.169Z" fill="black" id="Vector_101"/>
<path d="M93.3716 336.409C93.3716 338.276 94.8632 339.503 96.8237 339.503C98.7841 339.503 100.278 338.276 100.278 336.409C100.278 334.542 98.7841 333.315 96.8237 333.315C94.8632 333.315 93.3716 334.542 93.3716 336.409ZM99.157 336.409C99.157 337.624 98.1174 338.249 96.8237 338.249C95.5299 338.249 94.4903 337.609 94.4903 336.409C94.4903 335.209 95.5299 334.569 96.8237 334.569C98.1174 334.569 99.157 335.209 99.157 336.409Z" fill="black" id="Vector_102"/>
<path d="M94.6239 326.904H93.5302V329.17H92.6635C91.8239 329.17 91.3968 328.783 91.3968 327.916V325.822H90.3052V328.049C90.3052 329.662 91.0906 330.383 92.4906 330.383H93.5302V332.104H94.6239V330.383H100.118V329.17H94.6239V326.904Z" fill="black" id="Vector_103"/>
<path d="M94.7173 320.517H90.6506V321.596H94.7173V320.517ZM94.7173 318.062H90.6506V319.144H94.7173V318.062Z" fill="black" id="Vector_104"/>
<path d="M100.118 315.236V312.076C100.118 309.09 98.2114 307.249 95.3843 307.249C92.5052 307.249 90.651 309.13 90.651 312.076V315.236H100.118ZM91.8385 312.076C91.8385 309.903 93.1448 308.582 95.3843 308.582C97.5448 308.582 98.9302 309.903 98.9302 312.076V313.942H91.8385V312.076Z" fill="black" id="Vector_105"/>
<path d="M100.118 298.195V296.837L90.5968 300.783V301.929L100.118 305.876V304.595L97.8385 303.662V299.129L100.118 298.195ZM96.6635 303.17L92.3448 301.395L96.6635 299.622V303.17Z" fill="black" id="Vector_106"/>
<path d="M94.8112 287.223V291.569H95.9716V288.45H98.4778C98.7841 288.863 99.0778 289.675 99.0778 290.863C99.0778 292.85 97.5841 294.102 95.3716 294.102C93.3049 294.102 91.6903 292.996 91.6903 291.117C91.6903 289.69 92.4903 289.009 92.9299 288.717V287.384C92.157 287.596 90.4903 288.623 90.4903 291.117C90.4903 293.663 92.5966 295.436 95.3716 295.436C98.2112 295.436 100.278 293.65 100.278 290.863C100.278 289.036 99.6112 287.863 99.0112 287.223H94.8112Z" fill="black" id="Vector_107"/>
<path d="M94.7173 283.596H90.6506V284.676H94.7173V283.596ZM94.7173 281.142H90.6506V282.224H94.7173V281.142Z" fill="black" id="Vector_108"/>
</g>
</g>
</g>
<g id="line2d_25">
<g id="Clip path group">
<mask height="508" id="mask0_2248_11172" maskUnits="userSpaceOnUse" style="mask-type:luminance" width="1075" x="139" y="94">
<g id="p888e4bfed1">
<path d="M1213.6 94.4H139.986V601.973H1213.6V94.4Z" fill="white" id="Vector_109"/>
</g>
</mask>
<g mask="url(#mask0_2248_11172)">
<path d="M139.986 118.725H1213.6" id="Vector_110" stroke="black" stroke-dasharray="7.4 3.2" stroke-width="2"/>
</g>
</g>
</g>
<g id="line2d_26">
<g id="Clip path group_2">
<mask height="508" id="mask1_2248_11172" maskUnits="userSpaceOnUse" style="mask-type:luminance" width="1075" x="139" y="94">
<g id="p888e4bfed1_2">
<path d="M1213.6 94.4H139.986V601.973H1213.6V94.4Z" fill="white" id="Vector_111"/>
</g>
</mask>
<g mask="url(#mask1_2248_11172)">
<path d="M188.787 118.725L246.2 577.997L303.612 578.327L361.025 578.762L418.437 571.016L475.849 575.002L533.262 553.426L590.674 565.877L648.087 566.301L705.499 572.612L762.912 572.68L820.324 566.98L877.737 481.975L935.149 122.485L992.562 140.928L1049.97 117.599L1107.39 117.81L1164.8 117.472" id="Vector_112" stroke="#0173B2" stroke-linecap="square" stroke-width="2"/>
</g>
</g>
</g>
<g id="line2d_27">
<g id="Clip path group_3">
<mask height="508" id="mask2_2248_11172" maskUnits="userSpaceOnUse" style="mask-type:luminance" width="1075" x="139" y="94">
<g id="p888e4bfed1_3">
<path d="M1213.6 94.4H139.986V601.973H1213.6V94.4Z" fill="white" id="Vector_113"/>
</g>
</mask>
<g mask="url(#mask2_2248_11172)">
<path d="M188.787 118.725L246.2 578.292L303.612 578.45L361.025 577.15L418.437 575.11L475.849 575.056L533.262 577.685L590.674 575.584L648.087 570.931L705.499 578.509L762.912 578.195L820.324 577.343L877.737 562.336L935.149 145.943L992.562 208.304L1049.97 119.939L1107.39 120.247L1164.8 120.249" id="Vector_114" stroke="#D55E00" stroke-linecap="square" stroke-width="2"/>
</g>
</g>
</g>
<g id="line2d_28">
<g id="Clip path group_4">
<mask height="508" id="mask3_2248_11172" maskUnits="userSpaceOnUse" style="mask-type:luminance" width="1075" x="139" y="94">
<g id="p888e4bfed1_4">
<path d="M1213.6 94.4H139.986V601.973H1213.6V94.4Z" fill="white" id="Vector_115"/>
</g>
</mask>
<g mask="url(#mask3_2248_11172)">
<path d="M188.787 118.725L246.2 573.868L303.612 565.215L361.025 578.428L418.437 572.038L475.849 576.746L533.262 576.902L590.674 578.514L648.087 578.837L705.499 578.902L762.912 578.878L820.324 578.727L877.737 577.904L935.149 371.002L992.562 506.036L1049.97 123.377L1107.39 124.361L1164.8 121.466" id="Vector_116" stroke="#949494" stroke-linecap="square" stroke-width="2"/>
</g>
</g>
</g>
<g id="line2d_29">
<g id="Clip path group_5">
<mask height="508" id="mask4_2248_11172" maskUnits="userSpaceOnUse" style="mask-type:luminance" width="1075" x="139" y="94">
<g id="p888e4bfed1_5">
<path d="M1213.6 94.4H139.986V601.973H1213.6V94.4Z" fill="white" id="Vector_117"/>
</g>
</mask>
<g mask="url(#mask4_2248_11172)">
<path d="M188.787 118.725L246.2 534.641L303.612 553.622L361.025 491.725L418.437 504.348L475.849 505.719L533.262 544.77L590.674 551.177L648.087 569.662L705.499 578.601L762.912 578.595L820.324 577.419L877.737 567.615L935.149 386.225L992.562 484.2L1049.97 121.48L1107.39 121.938L1164.8 119.784" id="Vector_118" stroke="#CC78BC" stroke-linecap="square" stroke-width="2"/>
</g>
</g>
</g>
<g id="patch_3">
<path d="M139.986 601.973V94.4" id="Vector_119" stroke="#666664" stroke-linecap="square" stroke-width="1.06667"/>
</g>
<g id="patch_4">
<path d="M1213.6 601.973V94.4" id="Vector_120" stroke="#666664" stroke-linecap="square" stroke-width="1.06667"/>
</g>
<g id="patch_5">
<path d="M139.986 601.973H1213.6" id="Vector_121" stroke="#666664" stroke-linecap="square" stroke-width="1.06667"/>
</g>
<g id="patch_6">
<path d="M139.986 94.4H1213.6" id="Vector_122" stroke="#666664" stroke-linecap="square" stroke-width="1.06667"/>
</g>
<g id="legend_1">
<g id="patch_7">
<path d="M1030.95 398.52H1204.27C1206.04 398.52 1206.93 397.631 1206.93 395.853V300.52C1206.93 298.742 1206.04 297.853 1204.27 297.853H1030.95C1029.17 297.853 1028.28 298.742 1028.28 300.52V395.853C1028.28 397.631 1029.17 398.52 1030.95 398.52Z" fill="white" id="Vector_123" opacity="0.8" stroke="#CCCCCC" stroke-width="1.33333"/>
</g>
<g id="line2d_30">
<path d="M1033.61 308.333H1046.95H1060.28" id="Vector_124" stroke="black" stroke-dasharray="7.4 3.2" stroke-width="2"/>
</g>
<g id="text_27">
<g id="Group_51">
<path d="M1072.41 312.999H1076.72C1078.92 312.999 1080.01 311.945 1080.01 310.278C1080.01 309.066 1079.21 308.278 1078.31 308.039C1079.05 307.826 1079.8 307.093 1079.8 306.078C1079.8 304.493 1078.84 303.533 1077.02 303.533H1072.41V312.999ZM1076.96 304.72C1077.92 304.72 1078.47 305.16 1078.47 306.12C1078.47 307.026 1077.92 307.52 1076.97 307.52H1073.69V304.72H1076.96ZM1076.68 308.706C1078.07 308.706 1078.69 309.253 1078.69 310.253C1078.69 311.226 1078.07 311.812 1076.68 311.812H1073.69V308.706H1076.68Z" fill="black" id="Vector_125"/>
<path d="M1086.55 312.999H1087.76V306.412H1086.55V307.506C1086.36 307.172 1085.88 306.266 1084.58 306.266C1083.01 306.266 1081.8 307.545 1081.8 309.72C1081.8 311.893 1083.01 313.16 1084.58 313.16C1085.87 313.16 1086.37 312.306 1086.55 311.92V312.999ZM1086.57 309.72C1086.57 311.039 1085.93 312.053 1084.81 312.053C1083.67 312.053 1083.05 311.039 1083.05 309.72C1083.05 308.399 1083.67 307.387 1084.81 307.387C1085.93 307.387 1086.57 308.399 1086.57 309.72Z" fill="black" id="Vector_126"/>
<path d="M1093.01 310.266C1093.88 310.36 1094.19 310.653 1094.19 311.226C1094.19 311.745 1093.75 312.106 1092.8 312.106C1091.45 312.106 1091.03 311.399 1090.92 311.226H1089.68C1089.79 311.826 1090.57 313.187 1092.8 313.187C1094.49 313.187 1095.4 312.32 1095.4 311.172C1095.4 309.987 1094.71 309.306 1093.15 309.106L1092.23 308.999C1091.44 308.906 1091.05 308.626 1091.05 308.133C1091.05 307.653 1091.49 307.278 1092.4 307.278C1093.52 307.278 1093.99 307.866 1094.09 307.999H1095.29C1095.12 307.466 1094.56 306.226 1092.4 306.226C1090.91 306.226 1089.86 307.012 1089.86 308.187C1089.86 309.399 1090.77 310.012 1092.06 310.16L1093.01 310.266Z" fill="black" id="Vector_127"/>
<path d="M1099.97 306.239C1098.15 306.239 1096.97 307.693 1096.97 309.706C1096.97 311.639 1098.17 313.16 1100.09 313.16C1102.16 313.16 1102.77 311.772 1102.92 311.239H1101.76C1101.65 311.412 1101.27 312.053 1100.09 312.053C1098.92 312.053 1098.27 311.106 1098.2 309.878H1102.96V309.693C1102.96 307.599 1101.76 306.239 1099.97 306.239ZM1099.97 307.278C1100.92 307.278 1101.48 307.866 1101.68 308.92H1098.24C1098.41 307.906 1098.97 307.278 1099.97 307.278Z" fill="black" id="Vector_128"/>
<path d="M1104.97 312.999H1106.19V303.187H1104.97V312.999Z" fill="black" id="Vector_129"/>
<path d="M1108.65 305.145H1109.92V303.239H1108.65V305.145ZM1108.68 312.999H1109.89V306.412H1108.68V312.999Z" fill="black" id="Vector_130"/>
<path d="M1113.57 309.306C1113.57 308.066 1114.2 307.387 1115.25 307.387C1116.25 307.387 1116.85 308.026 1116.85 309.306V312.999H1118.08V309.078C1118.08 307.306 1117.08 306.266 1115.54 306.266C1114.44 306.266 1113.83 306.972 1113.57 307.52V306.412H1112.36V312.999H1113.57V309.306Z" fill="black" id="Vector_131"/>
<path d="M1123.05 306.239C1121.23 306.239 1120.05 307.693 1120.05 309.706C1120.05 311.639 1121.25 313.16 1123.17 313.16C1125.24 313.16 1125.85 311.772 1126 311.239H1124.84C1124.73 311.412 1124.35 312.053 1123.17 312.053C1122 312.053 1121.35 311.106 1121.28 309.878H1126.04V309.693C1126.04 307.599 1124.84 306.239 1123.05 306.239ZM1123.05 307.278C1124 307.278 1124.56 307.866 1124.76 308.92H1121.32C1121.49 307.906 1122.05 307.278 1123.05 307.278Z" fill="black" id="Vector_132"/>
<path d="M1132.76 311.972C1132.9 312.253 1133.53 313.16 1134.81 313.16C1136.36 313.16 1137.65 311.878 1137.65 309.705C1137.65 307.52 1136.36 306.239 1134.81 306.239C1133.5 306.239 1132.9 307.16 1132.76 307.493V306.412H1131.56V315.853H1132.76V311.972ZM1132.73 309.705C1132.73 308.372 1133.44 307.36 1134.57 307.36C1135.7 307.36 1136.41 308.372 1136.41 309.705C1136.41 311.026 1135.7 312.053 1134.57 312.053C1133.44 312.053 1132.73 311.026 1132.73 309.705Z" fill="black" id="Vector_133"/>
<path d="M1140.92 309.278C1140.92 308.12 1141.52 307.572 1143.05 307.572H1144.42V306.36H1143.16C1141.68 306.36 1141.09 307.106 1140.92 307.599V306.412H1139.71V312.999H1140.92V309.278Z" fill="black" id="Vector_134"/>
<path d="M1148.76 306.253C1146.89 306.253 1145.67 307.745 1145.67 309.706C1145.67 311.666 1146.89 313.16 1148.76 313.16C1150.63 313.16 1151.85 311.666 1151.85 309.706C1151.85 307.745 1150.63 306.253 1148.76 306.253ZM1148.76 312.039C1147.54 312.039 1146.92 310.999 1146.92 309.706C1146.92 308.412 1147.56 307.372 1148.76 307.372C1149.96 307.372 1150.6 308.412 1150.6 309.706C1150.6 310.999 1149.96 312.039 1148.76 312.039Z" fill="black" id="Vector_135"/>
<path d="M1155.08 311.972C1155.22 312.266 1155.82 313.16 1157.13 313.16C1158.68 313.16 1159.97 311.878 1159.97 309.706C1159.97 307.52 1158.68 306.239 1157.13 306.239C1155.82 306.239 1155.22 307.16 1155.08 307.493V303.187H1153.88V312.999H1155.08V311.972ZM1155.05 309.706C1155.05 308.372 1155.73 307.36 1156.89 307.36C1158.02 307.36 1158.73 308.372 1158.73 309.706C1158.73 311.026 1158.02 312.053 1156.89 312.053C1155.73 312.053 1155.05 311.026 1155.05 309.706Z" fill="black" id="Vector_136"/>
<path d="M1166.37 312.999H1167.59V306.412H1166.37V307.506C1166.19 307.172 1165.71 306.266 1164.41 306.266C1162.84 306.266 1161.63 307.545 1161.63 309.72C1161.63 311.893 1162.84 313.16 1164.41 313.16C1165.69 313.16 1166.2 312.306 1166.37 311.92V312.999ZM1166.4 309.72C1166.4 311.039 1165.76 312.053 1164.64 312.053C1163.49 312.053 1162.88 311.039 1162.88 309.72C1162.88 308.399 1163.49 307.387 1164.64 307.387C1165.76 307.387 1166.4 308.399 1166.4 309.72Z" fill="black" id="Vector_137"/>
<path d="M1171.24 311.972C1171.38 312.266 1171.98 313.16 1173.29 313.16C1174.84 313.16 1176.13 311.878 1176.13 309.706C1176.13 307.52 1174.84 306.239 1173.29 306.239C1171.98 306.239 1171.38 307.16 1171.24 307.493V303.187H1170.04V312.999H1171.24V311.972ZM1171.21 309.706C1171.21 308.372 1171.89 307.36 1173.05 307.36C1174.18 307.36 1174.89 308.372 1174.89 309.706C1174.89 311.026 1174.18 312.053 1173.05 312.053C1171.89 312.053 1171.21 311.026 1171.21 309.706Z" fill="black" id="Vector_138"/>
<path d="M1178.17 305.145H1179.44V303.239H1178.17V305.145ZM1178.2 312.999H1179.41V306.412H1178.2V312.999Z" fill="black" id="Vector_139"/>
<path d="M1181.91 312.999H1183.12V303.187H1181.91V312.999Z" fill="black" id="Vector_140"/>
<path d="M1185.58 305.145H1186.85V303.239H1185.58V305.145ZM1185.61 312.999H1186.83V306.412H1185.61V312.999Z" fill="black" id="Vector_141"/>
<path d="M1193.8 311.878H1192.69C1191.69 311.878 1191.41 311.506 1191.41 310.599V307.506H1193.8V306.412H1191.41V303.533H1190.2V306.412H1188.48V307.506H1190.2V310.853C1190.2 312.278 1190.93 312.999 1192.39 312.999H1193.8V311.878Z" fill="black" id="Vector_142"/>
<path d="M1201.27 306.412H1200.03L1198.08 311.305L1196.13 306.412H1194.8L1197.45 312.893L1196.28 315.853H1197.49L1201.27 306.412Z" fill="black" id="Vector_143"/>
</g>
</g>
<g id="line2d_31">
<path d="M1033.61 327.666H1046.95H1060.28" id="Vector_144" stroke="#0173B2" stroke-linecap="square" stroke-width="2"/>
</g>
<g id="text_28">
<g id="Group_52">
<path d="M1072.41 332.333H1073.71V327.92H1077.11V326.705H1073.71V324.078H1079.6V322.866H1072.41V332.333Z" fill="black" id="Vector_145"/>
<path d="M1083.91 325.572C1082.08 325.572 1080.91 327.026 1080.91 329.039C1080.91 330.972 1082.11 332.493 1084.03 332.493C1086.09 332.493 1086.71 331.105 1086.85 330.572H1085.69C1085.58 330.745 1085.2 331.387 1084.03 331.387C1082.85 331.387 1082.2 330.439 1082.13 329.212H1086.89V329.026C1086.89 326.933 1085.69 325.572 1083.91 325.572ZM1083.91 326.612C1084.85 326.612 1085.41 327.199 1085.61 328.253H1082.17C1082.34 327.239 1082.91 326.612 1083.91 326.612Z" fill="black" id="Vector_146"/>
<path d="M1093.22 332.333H1094.44V325.745H1093.22V326.839C1093.04 326.505 1092.56 325.599 1091.26 325.599C1089.69 325.599 1088.48 326.878 1088.48 329.053C1088.48 331.226 1089.69 332.493 1091.26 332.493C1092.55 332.493 1093.05 331.639 1093.22 331.253V332.333ZM1093.25 329.053C1093.25 330.372 1092.61 331.387 1091.49 331.387C1090.35 331.387 1089.73 330.372 1089.73 329.053C1089.73 327.733 1090.35 326.72 1091.49 326.72C1092.61 326.72 1093.25 327.733 1093.25 329.053Z" fill="black" id="Vector_147"/>
<path d="M1101.4 331.212H1100.29C1099.29 331.212 1099.01 330.839 1099.01 329.933V326.839H1101.4V325.745H1099.01V322.866H1097.8V325.745H1096.08V326.839H1097.8V330.187C1097.8 331.612 1098.53 332.333 1099.99 332.333H1101.4V331.212Z" fill="black" id="Vector_148"/>
<path d="M1106.07 332.466C1107.88 332.466 1108.87 331.212 1108.87 329.72V325.745H1107.67V329.653C1107.67 330.653 1107.09 331.32 1106.07 331.32C1105 331.32 1104.47 330.653 1104.47 329.653V325.745H1103.24V329.72C1103.24 331.36 1104.2 332.466 1106.07 332.466Z" fill="black" id="Vector_149"/>
<path d="M1112.48 328.612C1112.48 327.453 1113.08 326.905 1114.61 326.905H1115.98V325.693H1114.72C1113.24 325.693 1112.65 326.439 1112.48 326.933V325.745H1111.27V332.333H1112.48V328.612Z" fill="black" id="Vector_150"/>
<path d="M1120.23 325.572C1118.4 325.572 1117.23 327.026 1117.23 329.039C1117.23 330.972 1118.43 332.493 1120.35 332.493C1122.41 332.493 1123.03 331.105 1123.17 330.572H1122.01C1121.9 330.745 1121.52 331.387 1120.35 331.387C1119.17 331.387 1118.52 330.439 1118.45 329.212H1123.21V329.026C1123.21 326.933 1122.01 325.572 1120.23 325.572ZM1120.23 326.612C1121.17 326.612 1121.73 327.199 1121.93 328.253H1118.49C1118.67 327.239 1119.23 326.612 1120.23 326.612Z" fill="black" id="Vector_151"/>
<path d="M1135.16 331.16H1130.54L1132.54 329.199C1133.71 328.066 1134.61 327.12 1134.61 325.626C1134.61 323.96 1133.44 322.705 1131.56 322.705C1129.68 322.705 1128.53 323.972 1128.53 325.72V326.345H1129.8V325.733C1129.8 324.653 1130.45 323.878 1131.56 323.878C1132.67 323.878 1133.32 324.572 1133.32 325.626C1133.32 326.653 1132.73 327.345 1131.71 328.372L1128.51 331.533V332.333H1135.16V331.16Z" fill="black" id="Vector_152"/>
<path d="M1140.36 322.705C1138.36 322.705 1137.05 323.987 1137.05 326.16V329.039C1137.05 331.32 1138.4 332.493 1140.36 332.493C1142.32 332.493 1143.67 331.32 1143.67 329.039V326.16C1143.67 323.987 1142.36 322.705 1140.36 322.705ZM1140.36 331.32C1139.01 331.32 1138.33 330.345 1138.33 329.026V326.172C1138.33 324.853 1139.01 323.878 1140.36 323.878C1141.71 323.878 1142.39 324.853 1142.39 326.172V329.026C1142.39 330.345 1141.71 331.32 1140.36 331.32Z" fill="black" id="Vector_153"/>
<path d="M1149.28 322.826H1148.32L1145.64 324.466V325.693L1147.98 324.333V332.333H1149.28V322.826Z" fill="black" id="Vector_154"/>
<path d="M1157.13 329.439C1157.97 328.345 1158.67 327.372 1158.67 325.933C1158.67 324.066 1157.44 322.705 1155.28 322.705C1153.14 322.705 1151.87 324.12 1151.87 325.933C1151.87 327.893 1153.13 329.105 1154.89 329.105C1155.41 329.105 1155.83 328.999 1156.14 328.826L1153.38 332.333H1154.92L1157.13 329.439ZM1153.16 325.933C1153.16 324.826 1153.89 323.878 1155.28 323.878C1156.61 323.878 1157.37 324.826 1157.37 325.933C1157.37 327.105 1156.56 328.012 1155.28 328.012C1153.89 328.012 1153.16 327.105 1153.16 325.933Z" fill="black" id="Vector_155"/>
<path d="M1164.24 322.705C1162.24 322.705 1160.93 323.987 1160.93 326.16V329.039C1160.93 331.32 1162.28 332.493 1164.24 332.493C1166.2 332.493 1167.55 331.32 1167.55 329.039V326.16C1167.55 323.987 1166.24 322.705 1164.24 322.705ZM1164.24 331.32C1162.89 331.32 1162.21 330.345 1162.21 329.026V326.172C1162.21 324.853 1162.89 323.878 1164.24 323.878C1165.59 323.878 1166.26 324.853 1166.26 326.172V329.026C1166.26 330.345 1165.59 331.32 1164.24 331.32Z" fill="black" id="Vector_156"/>
<path d="M1176.72 329.772C1176.72 328.439 1175.76 327.666 1175.03 327.453C1175.71 327.239 1176.53 326.599 1176.53 325.32C1176.53 323.826 1175.46 322.705 1173.49 322.705H1173.15C1171.19 322.705 1170.11 323.826 1170.11 325.32C1170.11 326.599 1170.93 327.239 1171.61 327.453C1170.88 327.666 1169.92 328.439 1169.92 329.772C1169.92 331.372 1171.13 332.493 1173.11 332.493H1173.46C1175.48 332.493 1176.72 331.372 1176.72 329.772ZM1173.49 323.853C1174.56 323.853 1175.25 324.453 1175.25 325.372C1175.25 326.293 1174.56 326.893 1173.49 326.893H1173.15C1172.08 326.893 1171.39 326.293 1171.39 325.372C1171.39 324.453 1172.08 323.853 1173.15 323.853H1173.49ZM1173.52 328.039C1174.65 328.039 1175.41 328.678 1175.41 329.693C1175.41 330.705 1174.65 331.345 1173.52 331.345H1173.12C1172 331.345 1171.23 330.705 1171.23 329.693C1171.23 328.678 1172 328.039 1173.12 328.039H1173.52Z" fill="black" id="Vector_157"/>
<path d="M1185.55 329.266C1185.55 327.305 1184.28 326.093 1182.52 326.093C1182 326.093 1181.59 326.199 1181.26 326.372L1184.03 322.866H1182.49L1180.28 325.76C1179.44 326.839 1178.75 327.826 1178.75 329.266C1178.75 331.133 1179.97 332.493 1182.13 332.493C1184.26 332.493 1185.55 331.078 1185.55 329.266ZM1184.25 329.266C1184.25 330.399 1183.52 331.32 1182.13 331.32C1180.8 331.32 1180.04 330.399 1180.04 329.266C1180.04 328.093 1180.85 327.187 1182.13 327.187C1183.52 327.187 1184.25 328.093 1184.25 329.266Z" fill="black" id="Vector_158"/>
<path d="M1194.27 329.266C1194.27 327.305 1193 326.093 1191.24 326.093C1190.72 326.093 1190.31 326.199 1189.98 326.372L1192.74 322.866H1191.21L1189 325.76C1188.16 326.839 1187.47 327.826 1187.47 329.266C1187.47 331.133 1188.69 332.493 1190.85 332.493C1192.98 332.493 1194.27 331.078 1194.27 329.266ZM1192.97 329.266C1192.97 330.399 1192.24 331.32 1190.85 331.32C1189.52 331.32 1188.76 330.399 1188.76 329.266C1188.76 328.093 1189.57 327.187 1190.85 327.187C1192.24 327.187 1192.97 328.093 1192.97 329.266Z" fill="black" id="Vector_159"/>
</g>
</g>
<g id="line2d_32">
<path d="M1033.61 346.999H1046.95H1060.28" id="Vector_160" stroke="#D55E00" stroke-linecap="square" stroke-width="2"/>
</g>
<g id="text_29">
<g id="Group_53">
<path d="M1072.41 351.666H1073.71V347.253H1077.11V346.039H1073.71V343.412H1079.6V342.199H1072.41V351.666Z" fill="black" id="Vector_161"/>
<path d="M1083.91 344.905C1082.08 344.905 1080.91 346.36 1080.91 348.372C1080.91 350.305 1082.11 351.826 1084.03 351.826C1086.09 351.826 1086.71 350.439 1086.85 349.905H1085.69C1085.58 350.078 1085.2 350.72 1084.03 350.72C1082.85 350.72 1082.2 349.772 1082.13 348.545H1086.89V348.36C1086.89 346.266 1085.69 344.905 1083.91 344.905ZM1083.91 345.945C1084.85 345.945 1085.41 346.533 1085.61 347.587H1082.17C1082.34 346.572 1082.91 345.945 1083.91 345.945Z" fill="black" id="Vector_162"/>
<path d="M1093.22 351.666H1094.44V345.078H1093.22V346.172C1093.04 345.839 1092.56 344.933 1091.26 344.933C1089.69 344.933 1088.48 346.212 1088.48 348.387C1088.48 350.56 1089.69 351.826 1091.26 351.826C1092.55 351.826 1093.05 350.972 1093.22 350.587V351.666ZM1093.25 348.387C1093.25 349.705 1092.61 350.72 1091.49 350.72C1090.35 350.72 1089.73 349.705 1089.73 348.387C1089.73 347.066 1090.35 346.053 1091.49 346.053C1092.61 346.053 1093.25 347.066 1093.25 348.387Z" fill="black" id="Vector_163"/>
<path d="M1101.4 350.545H1100.29C1099.29 350.545 1099.01 350.172 1099.01 349.266V346.172H1101.4V345.078H1099.01V342.199H1097.8V345.078H1096.08V346.172H1097.8V349.52C1097.8 350.945 1098.53 351.666 1099.99 351.666H1101.4V350.545Z" fill="black" id="Vector_164"/>
<path d="M1106.07 351.799C1107.88 351.799 1108.87 350.545 1108.87 349.053V345.078H1107.67V348.987C1107.67 349.987 1107.09 350.653 1106.07 350.653C1105 350.653 1104.47 349.987 1104.47 348.987V345.078H1103.24V349.053C1103.24 350.693 1104.2 351.799 1106.07 351.799Z" fill="black" id="Vector_165"/>
<path d="M1112.48 347.945C1112.48 346.787 1113.08 346.239 1114.61 346.239H1115.98V345.026H1114.72C1113.24 345.026 1112.65 345.772 1112.48 346.266V345.078H1111.27V351.666H1112.48V347.945Z" fill="black" id="Vector_166"/>
<path d="M1120.23 344.905C1118.4 344.905 1117.23 346.36 1117.23 348.372C1117.23 350.305 1118.43 351.826 1120.35 351.826C1122.41 351.826 1123.03 350.439 1123.17 349.905H1122.01C1121.9 350.078 1121.52 350.72 1120.35 350.72C1119.17 350.72 1118.52 349.772 1118.45 348.545H1123.21V348.36C1123.21 346.266 1122.01 344.905 1120.23 344.905ZM1120.23 345.945C1121.17 345.945 1121.73 346.533 1121.93 347.587H1118.49C1118.67 346.572 1119.23 345.945 1120.23 345.945Z" fill="black" id="Vector_167"/>
<path d="M1129.03 347.478H1130.09C1130.24 347.266 1130.69 346.599 1131.88 346.599C1133.11 346.599 1133.92 347.345 1133.92 348.56V348.693C1133.92 349.826 1133.09 350.653 1131.88 350.653C1130.4 350.653 1129.93 349.693 1129.83 349.053H1128.56C1128.67 350.493 1129.71 351.826 1131.88 351.826C1133.87 351.826 1135.2 350.533 1135.2 348.693V348.545C1135.2 346.56 1133.8 345.426 1132.17 345.426C1131.25 345.426 1130.63 345.745 1130.25 346.12V343.372H1134.84V342.199H1129.03V347.478Z" fill="black" id="Vector_168"/>
<path d="M1143.69 343.172V342.199H1137.05V343.372H1142.23L1137.59 351.666H1139L1143.69 343.172Z" fill="black" id="Vector_169"/>
<path d="M1152.03 349.078C1152.03 347.572 1151.1 346.905 1150.4 346.693C1150.97 346.439 1151.72 345.812 1151.72 344.639C1151.72 343.133 1150.6 342.039 1148.61 342.039C1146.55 342.039 1145.61 343.412 1145.55 344.626H1146.83C1146.97 343.826 1147.5 343.199 1148.63 343.199C1149.69 343.199 1150.44 343.745 1150.44 344.693C1150.44 345.653 1149.84 346.187 1148.83 346.187H1147.12V347.36H1148.79C1150.01 347.36 1150.72 347.933 1150.72 348.999C1150.72 350.053 1149.92 350.653 1148.65 350.653C1147.36 350.653 1146.72 349.893 1146.59 349.16H1145.29C1145.4 350.453 1146.41 351.826 1148.65 351.826C1150.79 351.826 1152.03 350.72 1152.03 349.078Z" fill="black" id="Vector_170"/>
<path d="M1160.75 348.599C1160.75 346.639 1159.48 345.426 1157.72 345.426C1157.2 345.426 1156.79 345.533 1156.46 345.705L1159.22 342.199H1157.69L1155.48 345.093C1154.64 346.172 1153.95 347.16 1153.95 348.599C1153.95 350.466 1155.17 351.826 1157.33 351.826C1159.46 351.826 1160.75 350.412 1160.75 348.599ZM1159.45 348.599C1159.45 349.733 1158.72 350.653 1157.33 350.653C1156 350.653 1155.24 349.733 1155.24 348.599C1155.24 347.426 1156.05 346.52 1157.33 346.52C1158.72 346.52 1159.45 347.426 1159.45 348.599Z" fill="black" id="Vector_171"/>
<path d="M1169.36 350.493H1164.75L1166.75 348.533C1167.91 347.399 1168.81 346.453 1168.81 344.96C1168.81 343.293 1167.64 342.039 1165.76 342.039C1163.88 342.039 1162.73 343.305 1162.73 345.053V345.678H1164V345.066C1164 343.987 1164.65 343.212 1165.76 343.212C1166.87 343.212 1167.52 343.905 1167.52 344.96C1167.52 345.987 1166.93 346.678 1165.91 347.705L1162.71 350.866V351.666H1169.36V350.493Z" fill="black" id="Vector_172"/>
<path d="M1177.71 348.599C1177.71 346.639 1176.44 345.426 1174.68 345.426C1174.16 345.426 1173.75 345.533 1173.42 345.705L1176.18 342.199H1174.65L1172.44 345.093C1171.6 346.172 1170.91 347.16 1170.91 348.599C1170.91 350.466 1172.13 351.826 1174.29 351.826C1176.42 351.826 1177.71 350.412 1177.71 348.599ZM1176.41 348.599C1176.41 349.733 1175.68 350.653 1174.29 350.653C1172.96 350.653 1172.2 349.733 1172.2 348.599C1172.2 347.426 1173.01 346.52 1174.29 346.52C1175.68 346.52 1176.41 347.426 1176.41 348.599Z" fill="black" id="Vector_173"/>
<path d="M1184.89 348.772C1185.73 347.678 1186.43 346.705 1186.43 345.266C1186.43 343.399 1185.2 342.039 1183.04 342.039C1180.91 342.039 1179.63 343.453 1179.63 345.266C1179.63 347.226 1180.89 348.439 1182.65 348.439C1183.17 348.439 1183.59 348.333 1183.91 348.16L1181.14 351.666H1182.68L1184.89 348.772ZM1180.92 345.266C1180.92 344.16 1181.65 343.212 1183.04 343.212C1184.37 343.212 1185.13 344.16 1185.13 345.266C1185.13 346.439 1184.32 347.345 1183.04 347.345C1181.65 347.345 1180.92 346.439 1180.92 345.266Z" fill="black" id="Vector_174"/>
</g>
</g>
<g id="line2d_33">
<path d="M1033.61 366.333H1046.95H1060.28" id="Vector_175" stroke="#949494" stroke-linecap="square" stroke-width="2"/>
</g>
<g id="text_30">
<g id="Group_54">
<path d="M1072.41 370.999H1073.71V366.587H1077.11V365.372H1073.71V362.745H1079.6V361.532H1072.41V370.999Z" fill="black" id="Vector_176"/>
<path d="M1083.91 364.239C1082.08 364.239 1080.91 365.693 1080.91 367.705C1080.91 369.639 1082.11 371.16 1084.03 371.16C1086.09 371.16 1086.71 369.772 1086.85 369.239H1085.69C1085.58 369.412 1085.2 370.053 1084.03 370.053C1082.85 370.053 1082.2 369.105 1082.13 367.878H1086.89V367.693C1086.89 365.599 1085.69 364.239 1083.91 364.239ZM1083.91 365.278C1084.85 365.278 1085.41 365.866 1085.61 366.92H1082.17C1082.34 365.905 1082.91 365.278 1083.91 365.278Z" fill="black" id="Vector_177"/>
<path d="M1093.22 370.999H1094.44V364.412H1093.22V365.505C1093.04 365.172 1092.56 364.266 1091.26 364.266C1089.69 364.266 1088.48 365.545 1088.48 367.72C1088.48 369.893 1089.69 371.16 1091.26 371.16C1092.55 371.16 1093.05 370.305 1093.22 369.92V370.999ZM1093.25 367.72C1093.25 369.039 1092.61 370.053 1091.49 370.053C1090.35 370.053 1089.73 369.039 1089.73 367.72C1089.73 366.399 1090.35 365.387 1091.49 365.387C1092.61 365.387 1093.25 366.399 1093.25 367.72Z" fill="black" id="Vector_178"/>
<path d="M1101.4 369.878H1100.29C1099.29 369.878 1099.01 369.505 1099.01 368.599V365.505H1101.4V364.412H1099.01V361.532H1097.8V364.412H1096.08V365.505H1097.8V368.853C1097.8 370.278 1098.53 370.999 1099.99 370.999H1101.4V369.878Z" fill="black" id="Vector_179"/>
<path d="M1106.07 371.132C1107.88 371.132 1108.87 369.878 1108.87 368.387V364.412H1107.67V368.32C1107.67 369.32 1107.09 369.987 1106.07 369.987C1105 369.987 1104.47 369.32 1104.47 368.32V364.412H1103.24V368.387C1103.24 370.026 1104.2 371.132 1106.07 371.132Z" fill="black" id="Vector_180"/>
<path d="M1112.48 367.278C1112.48 366.12 1113.08 365.572 1114.61 365.572H1115.98V364.36H1114.72C1113.24 364.36 1112.65 365.105 1112.48 365.599V364.412H1111.27V370.999H1112.48V367.278Z" fill="black" id="Vector_181"/>
<path d="M1120.23 364.239C1118.4 364.239 1117.23 365.693 1117.23 367.705C1117.23 369.639 1118.43 371.16 1120.35 371.16C1122.41 371.16 1123.03 369.772 1123.17 369.239H1122.01C1121.9 369.412 1121.52 370.053 1120.35 370.053C1119.17 370.053 1118.52 369.105 1118.45 367.878H1123.21V367.693C1123.21 365.599 1122.01 364.239 1120.23 364.239ZM1120.23 365.278C1121.17 365.278 1121.73 365.866 1121.93 366.92H1118.49C1118.67 365.905 1119.23 365.278 1120.23 365.278Z" fill="black" id="Vector_182"/>
<path d="M1135.01 362.505V361.532H1128.37V362.705H1133.54L1128.91 370.999H1130.32L1135.01 362.505Z" fill="black" id="Vector_183"/>
<path d="M1142.97 367.932C1142.97 365.972 1141.71 364.76 1139.95 364.76C1139.42 364.76 1139.01 364.866 1138.69 365.039L1141.45 361.532H1139.92L1137.71 364.426C1136.87 365.505 1136.17 366.493 1136.17 367.932C1136.17 369.799 1137.4 371.16 1139.56 371.16C1141.69 371.16 1142.97 369.745 1142.97 367.932ZM1141.68 367.932C1141.68 369.066 1140.95 369.987 1139.56 369.987C1138.22 369.987 1137.47 369.066 1137.47 367.932C1137.47 366.76 1138.28 365.853 1139.56 365.853C1140.95 365.853 1141.68 366.76 1141.68 367.932Z" fill="black" id="Vector_184"/>
<path d="M1151.8 368.439C1151.8 367.105 1150.84 366.332 1150.11 366.12C1150.79 365.905 1151.61 365.266 1151.61 363.987C1151.61 362.493 1150.54 361.372 1148.57 361.372H1148.23C1146.27 361.372 1145.19 362.493 1145.19 363.987C1145.19 365.266 1146.01 365.905 1146.69 366.12C1145.96 366.332 1145 367.105 1145 368.439C1145 370.039 1146.21 371.16 1148.19 371.16H1148.54C1150.56 371.16 1151.8 370.039 1151.8 368.439ZM1148.57 362.52C1149.64 362.52 1150.33 363.12 1150.33 364.039C1150.33 364.96 1149.64 365.56 1148.57 365.56H1148.23C1147.16 365.56 1146.47 364.96 1146.47 364.039C1146.47 363.12 1147.16 362.52 1148.23 362.52H1148.57ZM1148.6 366.705C1149.73 366.705 1150.49 367.345 1150.49 368.36C1150.49 369.372 1149.73 370.012 1148.6 370.012H1148.2C1147.08 370.012 1146.31 369.372 1146.31 368.36C1146.31 367.345 1147.08 366.705 1148.2 366.705H1148.6Z" fill="black" id="Vector_185"/>
<path d="M1160.47 368.412C1160.47 366.905 1159.54 366.239 1158.84 366.026C1159.41 365.772 1160.16 365.145 1160.16 363.972C1160.16 362.466 1159.04 361.372 1157.05 361.372C1154.99 361.372 1154.05 362.745 1153.99 363.96H1155.27C1155.41 363.16 1155.94 362.532 1157.07 362.532C1158.13 362.532 1158.88 363.078 1158.88 364.026C1158.88 364.987 1158.28 365.52 1157.27 365.52H1155.56V366.693H1157.23C1158.45 366.693 1159.16 367.266 1159.16 368.332C1159.16 369.387 1158.36 369.987 1157.09 369.987C1155.8 369.987 1155.16 369.226 1155.03 368.493H1153.73C1153.84 369.787 1154.85 371.16 1157.09 371.16C1159.23 371.16 1160.47 370.053 1160.47 368.412Z" fill="black" id="Vector_186"/>
<path d="M1169.03 368.412C1169.03 366.905 1168.1 366.239 1167.4 366.026C1167.97 365.772 1168.72 365.145 1168.72 363.972C1168.72 362.466 1167.6 361.372 1165.61 361.372C1163.55 361.372 1162.61 362.745 1162.55 363.96H1163.83C1163.97 363.16 1164.5 362.532 1165.63 362.532C1166.69 362.532 1167.44 363.078 1167.44 364.026C1167.44 364.987 1166.84 365.52 1165.83 365.52H1164.12V366.693H1165.79C1167.01 366.693 1167.72 367.266 1167.72 368.332C1167.72 369.387 1166.92 369.987 1165.65 369.987C1164.36 369.987 1163.72 369.226 1163.59 368.493H1162.29C1162.4 369.787 1163.41 371.16 1165.65 371.16C1167.79 371.16 1169.03 370.053 1169.03 368.412Z" fill="black" id="Vector_187"/>
<path d="M1177.49 362.505V361.532H1170.85V362.705H1176.02L1171.39 370.999H1172.8L1177.49 362.505Z" fill="black" id="Vector_188"/>
<path d="M1182.53 361.493H1181.57L1178.89 363.132V364.36L1181.24 362.999V370.999H1182.53V361.493Z" fill="black" id="Vector_189"/>
</g>
</g>
<g id="line2d_34">
<path d="M1033.61 385.666H1046.95H1060.28" id="Vector_190" stroke="#CC78BC" stroke-linecap="square" stroke-width="2"/>
</g>
<g id="text_31">
<g id="Group_55">
<path d="M1072.41 390.333H1073.71V385.92H1077.11V384.705H1073.71V382.078H1079.6V380.866H1072.41V390.333Z" fill="black" id="Vector_191"/>
<path d="M1083.91 383.572C1082.08 383.572 1080.91 385.026 1080.91 387.039C1080.91 388.972 1082.11 390.493 1084.03 390.493C1086.09 390.493 1086.71 389.105 1086.85 388.572H1085.69C1085.58 388.745 1085.2 389.387 1084.03 389.387C1082.85 389.387 1082.2 388.439 1082.13 387.212H1086.89V387.026C1086.89 384.933 1085.69 383.572 1083.91 383.572ZM1083.91 384.612C1084.85 384.612 1085.41 385.199 1085.61 386.253H1082.17C1082.34 385.239 1082.91 384.612 1083.91 384.612Z" fill="black" id="Vector_192"/>
<path d="M1093.22 390.333H1094.44V383.745H1093.22V384.839C1093.04 384.505 1092.56 383.599 1091.26 383.599C1089.69 383.599 1088.48 384.878 1088.48 387.053C1088.48 389.226 1089.69 390.493 1091.26 390.493C1092.55 390.493 1093.05 389.639 1093.22 389.253V390.333ZM1093.25 387.053C1093.25 388.372 1092.61 389.387 1091.49 389.387C1090.35 389.387 1089.73 388.372 1089.73 387.053C1089.73 385.733 1090.35 384.72 1091.49 384.72C1092.61 384.72 1093.25 385.733 1093.25 387.053Z" fill="black" id="Vector_193"/>
<path d="M1101.4 389.212H1100.29C1099.29 389.212 1099.01 388.839 1099.01 387.933V384.839H1101.4V383.745H1099.01V380.866H1097.8V383.745H1096.08V384.839H1097.8V388.187C1097.8 389.612 1098.53 390.333 1099.99 390.333H1101.4V389.212Z" fill="black" id="Vector_194"/>
<path d="M1106.07 390.466C1107.88 390.466 1108.87 389.212 1108.87 387.72V383.745H1107.67V387.653C1107.67 388.653 1107.09 389.32 1106.07 389.32C1105 389.32 1104.47 388.653 1104.47 387.653V383.745H1103.24V387.72C1103.24 389.36 1104.2 390.466 1106.07 390.466Z" fill="black" id="Vector_195"/>
<path d="M1112.48 386.612C1112.48 385.453 1113.08 384.905 1114.61 384.905H1115.98V383.693H1114.72C1113.24 383.693 1112.65 384.439 1112.48 384.933V383.745H1111.27V390.333H1112.48V386.612Z" fill="black" id="Vector_196"/>
<path d="M1120.23 383.572C1118.4 383.572 1117.23 385.026 1117.23 387.039C1117.23 388.972 1118.43 390.493 1120.35 390.493C1122.41 390.493 1123.03 389.105 1123.17 388.572H1122.01C1121.9 388.745 1121.52 389.387 1120.35 389.387C1119.17 389.387 1118.52 388.439 1118.45 387.212H1123.21V387.026C1123.21 384.933 1122.01 383.572 1120.23 383.572ZM1120.23 384.612C1121.17 384.612 1121.73 385.199 1121.93 386.253H1118.49C1118.67 385.239 1119.23 384.612 1120.23 384.612Z" fill="black" id="Vector_197"/>
<path d="M1135.16 389.16H1130.54L1132.54 387.199C1133.71 386.066 1134.61 385.12 1134.61 383.626C1134.61 381.96 1133.44 380.705 1131.56 380.705C1129.68 380.705 1128.53 381.972 1128.53 383.72V384.345H1129.8V383.733C1129.8 382.653 1130.45 381.878 1131.56 381.878C1132.67 381.878 1133.32 382.572 1133.32 383.626C1133.32 384.653 1132.73 385.345 1131.71 386.372L1128.51 389.533V390.333H1135.16V389.16Z" fill="black" id="Vector_198"/>
<path d="M1143.61 387.772C1143.61 386.439 1142.65 385.666 1141.92 385.453C1142.6 385.239 1143.42 384.599 1143.42 383.32C1143.42 381.826 1142.36 380.705 1140.38 380.705H1140.04C1138.08 380.705 1137 381.826 1137 383.32C1137 384.599 1137.82 385.239 1138.51 385.453C1137.77 385.666 1136.81 386.439 1136.81 387.772C1136.81 389.372 1138.02 390.493 1140 390.493H1140.36C1142.37 390.493 1143.61 389.372 1143.61 387.772ZM1140.38 381.853C1141.45 381.853 1142.15 382.453 1142.15 383.372C1142.15 384.293 1141.45 384.893 1140.38 384.893H1140.04C1138.97 384.893 1138.28 384.293 1138.28 383.372C1138.28 382.453 1138.97 381.853 1140.04 381.853H1140.38ZM1140.41 386.039C1141.55 386.039 1142.31 386.678 1142.31 387.693C1142.31 388.705 1141.55 389.345 1140.41 389.345H1140.01C1138.89 389.345 1138.12 388.705 1138.12 387.693C1138.12 386.678 1138.89 386.039 1140.01 386.039H1140.41Z" fill="black" id="Vector_199"/>
<path d="M1152.28 387.745C1152.28 386.239 1151.36 385.572 1150.65 385.36C1151.22 385.105 1151.97 384.478 1151.97 383.305C1151.97 381.799 1150.85 380.705 1148.87 380.705C1146.8 380.705 1145.87 382.078 1145.8 383.293H1147.08C1147.22 382.493 1147.76 381.866 1148.88 381.866C1149.95 381.866 1150.69 382.412 1150.69 383.36C1150.69 384.32 1150.09 384.853 1149.08 384.853H1147.37V386.026H1149.04C1150.27 386.026 1150.97 386.599 1150.97 387.666C1150.97 388.72 1150.17 389.32 1148.91 389.32C1147.61 389.32 1146.97 388.56 1146.84 387.826H1145.55C1145.65 389.12 1146.67 390.493 1148.91 390.493C1151.04 390.493 1152.28 389.387 1152.28 387.745Z" fill="black" id="Vector_200"/>
<path d="M1161.91 387.412V386.293H1159.89V380.866H1158.48L1153.84 386.705V387.412H1158.64V390.333H1159.89V387.412H1161.91ZM1155.55 386.293L1158.64 382.36V386.293H1155.55Z" fill="black" id="Vector_201"/>
<path d="M1169.92 381.839V380.866H1163.28V382.039H1168.45L1163.81 390.333H1165.22L1169.92 381.839Z" fill="black" id="Vector_202"/>
<path d="M1178.52 387.772C1178.52 386.439 1177.56 385.666 1176.83 385.453C1177.51 385.239 1178.33 384.599 1178.33 383.32C1178.33 381.826 1177.26 380.705 1175.29 380.705H1174.95C1172.99 380.705 1171.91 381.826 1171.91 383.32C1171.91 384.599 1172.73 385.239 1173.41 385.453C1172.68 385.666 1171.72 386.439 1171.72 387.772C1171.72 389.372 1172.93 390.493 1174.91 390.493H1175.26C1177.28 390.493 1178.52 389.372 1178.52 387.772ZM1175.29 381.853C1176.36 381.853 1177.05 382.453 1177.05 383.372C1177.05 384.293 1176.36 384.893 1175.29 384.893H1174.95C1173.88 384.893 1173.19 384.293 1173.19 383.372C1173.19 382.453 1173.88 381.853 1174.95 381.853H1175.29ZM1175.32 386.039C1176.45 386.039 1177.21 386.678 1177.21 387.693C1177.21 388.705 1176.45 389.345 1175.32 389.345H1174.92C1173.8 389.345 1173.03 388.705 1173.03 387.693C1173.03 386.678 1173.8 386.039 1174.92 386.039H1175.32Z" fill="black" id="Vector_203"/>
<path d="M1183.89 380.826H1182.93L1180.25 382.466V383.693L1182.6 382.333V390.333H1183.89V380.826Z" fill="black" id="Vector_204"/>
</g>
</g>
</g>
</g>
</g>
</g>
<text fill="#1A1A1A" font-family="Roboto" font-size="17" font-weight="bold" id="Effect of steering negatively (10) on different 'Analytics' features as a function of layer" letter-spacing="0em" style="white-space: pre" transform="translate(319 42)" xml:space="preserve"><tspan x="0" y="15.3105">
</tspan><tspan x="0" y="34.3105">Effect of steering negatively (10) on different 'Analytics' features as a function of layer</tspan></text>
<text fill="#4D4D4D" font-family="Roboto" font-size="13" id="Figure 00: Interventions are most effective when done in layers prior to those containing the say an acronym features." letter-spacing="0em" style="white-space: pre" xml:space="preserve"><tspan x="137" y="669.443">Figure 00: Interventions are most effective when done in layers prior to those containing the say an acronym features.</tspan></text>
</g>
<defs>
<clipPath id="clip0_2248_11172">
<rect fill="white" height="576" transform="translate(76 80)" width="1152"/>
</clipPath>
</defs>
</svg>