<?xml version="1.0" encoding="utf-8"?>
<svg fill="none" height="451" viewBox="0 0 841 451" width="841" xmlns="http://www.w3.org/2000/svg" xmlns:xlink="http://www.w3.org/1999/xlink">
<g clip-path="url(#clip0_1108_3729)" id="arithmetic-logit-perturb-svg">
<rect fill="white" height="451" width="841"/>
<g id="Frame 122">
<g id="axes_3">
<g id="patch_12">
<path d="M86 83.4H830V9H86V83.4Z" fill="white" id="Vector"/>
</g>
<g id="Clip path group">
<mask height="75" id="mask0_1108_3729" maskUnits="userSpaceOnUse" style="mask-type:luminance" width="744" x="86" y="9">
<g id="p1838338774">
<path d="M830 9H86V83.4H830V9Z" fill="white" id="Vector_2"/>
</g>
</mask>
<g mask="url(#mask0_1108_3729)">
<g id="Group">
<rect fill="url(#pattern0_1108_3729)" height="74.88" id="image097088ca24" transform="matrix(1 0 0 -1 86 83.7871)" width="744"/>
</g>
</g>
</g>
<g id="patch_13">
<path d="M86 83.4V9" id="Vector_3" stroke="black" stroke-linecap="square" stroke-width="1.06667"/>
</g>
<g id="patch_14">
<path d="M830 83.4V9" id="Vector_4" stroke="black" stroke-linecap="square" stroke-width="1.06667"/>
</g>
<g id="patch_15">
<path d="M86 83.4004H830" id="Vector_5" stroke="black" stroke-linecap="square" stroke-width="1.06667"/>
</g>
<g id="patch_16">
<path d="M86 9H830" id="Vector_6" stroke="black" stroke-linecap="square" stroke-width="1.06667"/>
</g>
</g>
<g id="axes_3_2">
<g id="patch_12_2">
<path d="M86 157.8H830V83.4004H86V157.8Z" fill="white" id="Vector_7"/>
</g>
<g id="Clip path group_2">
<mask height="75" id="mask1_1108_3729" maskUnits="userSpaceOnUse" style="mask-type:luminance" width="744" x="86" y="83">
<g id="p1838338774_2">
<path d="M830 83.4004H86V157.8H830V83.4004Z" fill="white" id="Vector_8"/>
</g>
</mask>
<g mask="url(#mask1_1108_3729)">
<g id="Group_2">
<rect fill="url(#pattern1_1108_3729)" height="74.88" id="imagef718b30c0d" transform="matrix(1 0 0 -1 86 157.8)" width="744"/>
</g>
</g>
</g>
<g id="patch_13_2">
<path d="M86 157.8V83.4004" id="Vector_9" stroke="black" stroke-linecap="square" stroke-width="1.06667"/>
</g>
<g id="patch_14_2">
<path d="M830 157.8V83.4004" id="Vector_10" stroke="black" stroke-linecap="square" stroke-width="1.06667"/>
</g>
<g id="patch_15_2">
<path d="M86 157.801H830" id="Vector_11" stroke="black" stroke-linecap="square" stroke-width="1.06667"/>
</g>
<g id="patch_16_2">
<path d="M86 83.4004H830" id="Vector_12" stroke="black" stroke-linecap="square" stroke-width="1.06667"/>
</g>
</g>
<g id="axes_5">
<g id="patch_22">
<path d="M86 232.2H830V157.8H86V232.2Z" fill="white" id="Vector_13"/>
</g>
<g id="Clip path group_3">
<mask height="76" id="mask2_1108_3729" maskUnits="userSpaceOnUse" style="mask-type:luminance" width="744" x="86" y="157">
<g id="p4280be88da">
<path d="M830 157.8H86V232.2H830V157.8Z" fill="white" id="Vector_14"/>
</g>
</mask>
<g mask="url(#mask2_1108_3729)">
<g id="Group_3">
<rect fill="url(#pattern2_1108_3729)" height="74.88" id="image2e17a87f43" transform="matrix(1 0 0 -1 86 232.199)" width="744"/>
</g>
</g>
</g>
<g id="patch_23">
<path d="M86 232.2V157.8" id="Vector_15" stroke="black" stroke-linecap="square" stroke-width="1.06667"/>
</g>
<g id="patch_24">
<path d="M830 232.2V157.8" id="Vector_16" stroke="black" stroke-linecap="square" stroke-width="1.06667"/>
</g>
<g id="patch_25">
<path d="M86 232.2H830" id="Vector_17" stroke="black" stroke-linecap="square" stroke-width="1.06667"/>
</g>
<g id="patch_26">
<path d="M86 157.8H830" id="Vector_18" stroke="black" stroke-linecap="square" stroke-width="1.06667"/>
</g>
</g>
<g id="axes_7">
<g id="patch_32">
<path d="M86 306.6H830V232.2H86V306.6Z" fill="white" id="Vector_19"/>
</g>
<g id="Clip path group_4">
<mask height="75" id="mask3_1108_3729" maskUnits="userSpaceOnUse" style="mask-type:luminance" width="744" x="86" y="232">
<g id="p11de75deb4">
<path d="M830 232.2H86V306.6H830V232.2Z" fill="white" id="Vector_20"/>
</g>
</mask>
<g mask="url(#mask3_1108_3729)">
<g id="Group_4">
<rect fill="url(#pattern3_1108_3729)" height="74.88" id="imaged784b881bd" transform="matrix(1 0 0 -1 86 306.601)" width="744"/>
</g>
</g>
</g>
<g id="patch_33">
<path d="M86 306.6V232.2" id="Vector_21" stroke="black" stroke-linecap="square" stroke-width="1.06667"/>
</g>
<g id="patch_34">
<path d="M830 306.6V232.2" id="Vector_22" stroke="black" stroke-linecap="square" stroke-width="1.06667"/>
</g>
<g id="patch_35">
<path d="M86 306.601H830" id="Vector_23" stroke="black" stroke-linecap="square" stroke-width="1.06667"/>
</g>
<g id="patch_36">
<path d="M86 232.2H830" id="Vector_24" stroke="black" stroke-linecap="square" stroke-width="1.06667"/>
</g>
</g>
<g id="Group 883">
<g id="axes_13">
<g id="patch_62">
<path d="M86 381H830V306.6H86V381Z" fill="white" id="Vector_25"/>
</g>
<g id="Clip path group_5">
<mask height="75" id="mask4_1108_3729" maskUnits="userSpaceOnUse" style="mask-type:luminance" width="744" x="86" y="306">
<g id="pdde7428723">
<path d="M830 306.6H86V381H830V306.6Z" fill="white" id="Vector_26"/>
</g>
</mask>
<g mask="url(#mask4_1108_3729)">
<g id="Group_5">
<rect fill="url(#pattern4_1108_3729)" height="74.88" id="image83379dfec7" transform="matrix(1 0 0 -1 86 380.999)" width="744"/>
</g>
</g>
</g>
<g id="patch_63">
<path d="M86 381V306.6" id="Vector_27" stroke="black" stroke-linecap="square" stroke-width="1.06667"/>
</g>
<g id="patch_64">
<path d="M830 381V306.6" id="Vector_28" stroke="black" stroke-linecap="square" stroke-width="1.06667"/>
</g>
<g id="patch_65">
<path d="M86 381H830" id="Vector_29" stroke="black" stroke-linecap="square" stroke-width="1.06667"/>
</g>
<g id="patch_66">
<path d="M86 306.6H830" id="Vector_30" stroke="black" stroke-linecap="square" stroke-width="1.06667"/>
</g>
</g>
<g id="matplotlib.axis_31">
<g id="xtick_1">
<g id="line2d_1">
<g id="Group_6">
<g id="Vector_31">
<path d="M89.3625 380.6V385.266V380.6Z" fill="black"/>
<path d="M89.3625 380.6V385.266" stroke="black" stroke-width="1.06667"/>
</g>
</g>
</g>
<g id="text_16">
<g id="Group_7">
<path d="M89.3583 391.209C88.6819 391.209 88.1729 391.543 87.8313 392.209C87.491 392.874 87.3208 393.876 87.3208 395.213C87.3208 396.545 87.491 397.545 87.8313 398.211C88.1729 398.878 88.6819 399.211 89.3583 399.211C90.0403 399.211 90.5514 398.878 90.8917 398.211C91.2333 397.545 91.4042 396.545 91.4042 395.213C91.4042 393.876 91.2333 392.874 90.8917 392.209C90.5514 391.543 90.0403 391.209 89.3583 391.209ZM89.3583 390.168C90.4486 390.168 91.2813 390.599 91.8563 391.461C92.4313 392.322 92.7188 393.573 92.7188 395.213C92.7188 396.849 92.4313 398.099 91.8563 398.961C91.2813 399.822 90.4486 400.253 89.3583 400.253C88.2694 400.253 87.4375 399.822 86.8625 398.961C86.2875 398.099 86 396.849 86 395.213C86 393.573 86.2875 392.322 86.8625 391.461C87.4375 390.599 88.2694 390.168 89.3583 390.168Z" fill="black" id="Vector_32"/>
</g>
</g>
</g>
<g id="xtick_2">
<g id="line2d_2">
<g id="Group_8">
<g id="Vector_33">
<path d="M163.762 380.6V385.266V380.6Z" fill="black"/>
<path d="M163.762 380.6V385.266" stroke="black" stroke-width="1.06667"/>
</g>
</g>
</g>
<g id="text_17">
<g id="Group_9">
<path d="M156.933 398.957H159.081V391.541L156.744 392.009V390.811L159.069 390.343H160.383V398.957H162.531V400.063H156.933V398.957Z" fill="black" id="Vector_34"/>
<path d="M168 391.209C167.323 391.209 166.814 391.543 166.473 392.209C166.132 392.874 165.962 393.876 165.962 395.213C165.962 396.545 166.132 397.545 166.473 398.211C166.814 398.878 167.323 399.211 168 399.211C168.682 399.211 169.193 398.878 169.533 398.211C169.875 397.545 170.046 396.545 170.046 395.213C170.046 393.876 169.875 392.874 169.533 392.209C169.193 391.543 168.682 391.209 168 391.209ZM168 390.168C169.09 390.168 169.923 390.599 170.498 391.461C171.073 392.322 171.36 393.573 171.36 395.213C171.36 396.849 171.073 398.099 170.498 398.961C169.923 399.822 169.09 400.253 168 400.253C166.911 400.253 166.079 399.822 165.504 398.961C164.929 398.099 164.641 396.849 164.641 395.213C164.641 393.573 164.929 392.322 165.504 391.461C166.079 390.599 166.911 390.168 168 390.168Z" fill="black" id="Vector_35"/>
</g>
</g>
</g>
<g id="xtick_3">
<g id="line2d_3">
<g id="Group_10">
<g id="Vector_36">
<path d="M238.163 380.6V385.266V380.6Z" fill="black"/>
<path d="M238.163 380.6V385.266" stroke="black" stroke-width="1.06667"/>
</g>
</g>
</g>
<g id="text_18">
<g id="Group_11">
<path d="M232.238 398.957H236.827V400.063H230.656V398.957C231.155 398.441 231.835 397.748 232.696 396.878C233.558 396.007 234.1 395.445 234.321 395.193C234.742 394.72 235.035 394.32 235.202 393.993C235.37 393.665 235.454 393.343 235.454 393.026C235.454 392.509 235.273 392.088 234.91 391.763C234.548 391.437 234.076 391.274 233.494 391.274C233.081 391.274 232.646 391.345 232.188 391.488C231.731 391.632 231.242 391.849 230.721 392.141V390.811C231.25 390.599 231.744 390.438 232.204 390.33C232.665 390.222 233.087 390.168 233.469 390.168C234.476 390.168 235.278 390.42 235.877 390.924C236.476 391.427 236.775 392.099 236.775 392.941C236.775 393.341 236.7 393.72 236.55 394.078C236.401 394.435 236.129 394.857 235.733 395.343C235.625 395.469 235.28 395.833 234.698 396.434C234.117 397.036 233.297 397.877 232.238 398.957Z" fill="black" id="Vector_37"/>
<path d="M242.4 391.209C241.723 391.209 241.214 391.543 240.873 392.209C240.532 392.874 240.362 393.876 240.362 395.213C240.362 396.545 240.532 397.545 240.873 398.211C241.214 398.878 241.723 399.211 242.4 399.211C243.082 399.211 243.593 398.878 243.933 398.211C244.275 397.545 244.446 396.545 244.446 395.213C244.446 393.876 244.275 392.874 243.933 392.209C243.593 391.543 243.082 391.209 242.4 391.209ZM242.4 390.168C243.49 390.168 244.323 390.599 244.898 391.461C245.473 392.322 245.76 393.573 245.76 395.213C245.76 396.849 245.473 398.099 244.898 398.961C244.323 399.822 243.49 400.253 242.4 400.253C241.311 400.253 240.479 399.822 239.904 398.961C239.329 398.099 239.042 396.849 239.042 395.213C239.042 393.573 239.329 392.322 239.904 391.461C240.479 390.599 241.311 390.168 242.4 390.168Z" fill="black" id="Vector_38"/>
</g>
</g>
</g>
<g id="xtick_4">
<g id="line2d_4">
<g id="Group_12">
<g id="Vector_39">
<path d="M312.562 380.6V385.266V380.6Z" fill="black"/>
<path d="M312.562 380.6V385.266" stroke="black" stroke-width="1.06667"/>
</g>
</g>
</g>
<g id="text_19">
<g id="Group_13">
<path d="M309.49 394.822C310.119 394.956 310.61 395.237 310.963 395.663C311.317 396.088 311.494 396.613 311.494 397.238C311.494 398.197 311.164 398.939 310.504 399.465C309.845 399.99 308.907 400.253 307.692 400.253C307.285 400.253 306.865 400.213 306.433 400.132C306.002 400.052 305.556 399.931 305.096 399.77V398.501C305.46 398.713 305.858 398.874 306.292 398.982C306.727 399.09 307.181 399.145 307.654 399.145C308.478 399.145 309.106 398.982 309.538 398.657C309.97 398.332 310.186 397.859 310.186 397.238C310.186 396.665 309.985 396.217 309.583 395.895C309.182 395.571 308.624 395.409 307.908 395.409H306.775V394.328H307.961C308.606 394.328 309.101 394.199 309.444 393.94C309.787 393.682 309.958 393.31 309.958 392.824C309.958 392.325 309.781 391.943 309.427 391.676C309.074 391.408 308.568 391.274 307.908 391.274C307.547 391.274 307.161 391.313 306.748 391.393C306.336 391.47 305.882 391.591 305.388 391.755V390.584C305.888 390.445 306.356 390.341 306.792 390.272C307.228 390.202 307.639 390.168 308.025 390.168C309.024 390.168 309.813 390.395 310.394 390.849C310.976 391.302 311.267 391.914 311.267 392.686C311.267 393.225 311.113 393.68 310.804 394.051C310.496 394.422 310.058 394.679 309.49 394.822Z" fill="black" id="Vector_40"/>
<path d="M316.8 391.209C316.123 391.209 315.614 391.543 315.273 392.209C314.932 392.874 314.762 393.876 314.762 395.213C314.762 396.545 314.932 397.545 315.273 398.211C315.614 398.878 316.123 399.211 316.8 399.211C317.482 399.211 317.993 398.878 318.333 398.211C318.675 397.545 318.846 396.545 318.846 395.213C318.846 393.876 318.675 392.874 318.333 392.209C317.993 391.543 317.482 391.209 316.8 391.209ZM316.8 390.168C317.89 390.168 318.723 390.599 319.298 391.461C319.873 392.322 320.16 393.573 320.16 395.213C320.16 396.849 319.873 398.099 319.298 398.961C318.723 399.822 317.89 400.253 316.8 400.253C315.711 400.253 314.879 399.822 314.304 398.961C313.729 398.099 313.441 396.849 313.441 395.213C313.441 393.573 313.729 392.322 314.304 391.461C314.879 390.599 315.711 390.168 316.8 390.168Z" fill="black" id="Vector_41"/>
</g>
</g>
</g>
<g id="xtick_5">
<g id="line2d_5">
<g id="Group_14">
<g id="Vector_42">
<path d="M386.963 380.6V385.266V380.6Z" fill="black"/>
<path d="M386.963 380.6V385.266" stroke="black" stroke-width="1.06667"/>
</g>
</g>
</g>
<g id="text_20">
<g id="Group_15">
<path d="M383.519 391.488L380.198 396.678H383.519V391.488ZM383.173 390.343H384.827V396.678H386.215V397.772H384.827V400.063H383.519V397.772H379.131V396.503L383.173 390.343Z" fill="black" id="Vector_43"/>
<path d="M391.2 391.209C390.523 391.209 390.014 391.543 389.673 392.209C389.333 392.874 389.162 393.876 389.162 395.213C389.162 396.545 389.333 397.545 389.673 398.211C390.014 398.878 390.523 399.211 391.2 399.211C391.882 399.211 392.393 398.878 392.733 398.211C393.075 397.545 393.246 396.545 393.246 395.213C393.246 393.876 393.075 392.874 392.733 392.209C392.393 391.543 391.882 391.209 391.2 391.209ZM391.2 390.168C392.29 390.168 393.123 390.599 393.698 391.461C394.273 392.322 394.56 393.573 394.56 395.213C394.56 396.849 394.273 398.099 393.698 398.961C393.123 399.822 392.29 400.253 391.2 400.253C390.111 400.253 389.279 399.822 388.704 398.961C388.129 398.099 387.842 396.849 387.842 395.213C387.842 393.573 388.129 392.322 388.704 391.461C389.279 390.599 390.111 390.168 391.2 390.168Z" fill="black" id="Vector_44"/>
</g>
</g>
</g>
<g id="xtick_6">
<g id="line2d_6">
<g id="Group_16">
<g id="Vector_45">
<path d="M461.363 380.6V385.266V380.6Z" fill="black"/>
<path d="M461.363 380.6V385.266" stroke="black" stroke-width="1.06667"/>
</g>
</g>
</g>
<g id="text_21">
<g id="Group_17">
<path d="M454.319 390.343H459.481V391.451H455.523V393.832C455.713 393.767 455.904 393.718 456.094 393.686C456.286 393.654 456.477 393.638 456.669 393.638C457.754 393.638 458.613 393.936 459.246 394.53C459.881 395.124 460.198 395.929 460.198 396.945C460.198 397.99 459.872 398.804 459.221 399.384C458.57 399.963 457.652 400.253 456.467 400.253C456.058 400.253 455.642 400.218 455.219 400.149C454.797 400.079 454.36 399.975 453.908 399.836V398.513C454.299 398.726 454.702 398.884 455.119 398.988C455.536 399.093 455.976 399.145 456.44 399.145C457.191 399.145 457.786 398.947 458.223 398.553C458.662 398.158 458.881 397.622 458.881 396.945C458.881 396.268 458.662 395.733 458.223 395.338C457.786 394.943 457.191 394.745 456.44 394.745C456.088 394.745 455.738 394.783 455.388 394.861C455.039 394.939 454.683 395.061 454.319 395.226V390.343Z" fill="black" id="Vector_46"/>
<path d="M465.6 391.209C464.923 391.209 464.414 391.543 464.073 392.209C463.732 392.874 463.562 393.876 463.562 395.213C463.562 396.545 463.732 397.545 464.073 398.211C464.414 398.878 464.923 399.211 465.6 399.211C466.282 399.211 466.793 398.878 467.133 398.211C467.475 397.545 467.646 396.545 467.646 395.213C467.646 393.876 467.475 392.874 467.133 392.209C466.793 391.543 466.282 391.209 465.6 391.209ZM465.6 390.168C466.69 390.168 467.523 390.599 468.098 391.461C468.673 392.322 468.96 393.573 468.96 395.213C468.96 396.849 468.673 398.099 468.098 398.961C467.523 399.822 466.69 400.253 465.6 400.253C464.511 400.253 463.679 399.822 463.104 398.961C462.529 398.099 462.241 396.849 462.241 395.213C462.241 393.573 462.529 392.322 463.104 391.461C463.679 390.599 464.511 390.168 465.6 390.168Z" fill="black" id="Vector_47"/>
</g>
</g>
</g>
<g id="xtick_7">
<g id="line2d_7">
<g id="Group_18">
<g id="Vector_48">
<path d="M535.762 380.6V385.266V380.6Z" fill="black"/>
<path d="M535.762 380.6V385.266" stroke="black" stroke-width="1.06667"/>
</g>
</g>
</g>
<g id="text_22">
<g id="Group_19">
<path d="M531.681 394.68C531.091 394.68 530.623 394.882 530.277 395.286C529.933 395.689 529.76 396.242 529.76 396.945C529.76 397.643 529.933 398.196 530.277 398.603C530.623 399.008 531.091 399.211 531.681 399.211C532.272 399.211 532.739 399.008 533.083 398.603C533.428 398.196 533.6 397.643 533.6 396.945C533.6 396.242 533.428 395.689 533.083 395.286C532.739 394.882 532.272 394.68 531.681 394.68ZM534.292 390.557V391.755C533.961 391.599 533.628 391.481 533.292 391.399C532.956 391.315 532.622 391.274 532.292 391.274C531.424 391.274 530.76 391.567 530.302 392.153C529.845 392.739 529.584 393.624 529.519 394.809C529.774 394.431 530.095 394.142 530.481 393.94C530.869 393.739 531.294 393.638 531.758 393.638C532.735 393.638 533.506 393.935 534.073 394.528C534.64 395.12 534.923 395.925 534.923 396.945C534.923 397.943 534.628 398.745 534.038 399.349C533.447 399.952 532.662 400.253 531.681 400.253C530.556 400.253 529.697 399.822 529.102 398.961C528.508 398.099 528.21 396.849 528.21 395.213C528.21 393.677 528.575 392.452 529.304 391.538C530.033 390.624 531.012 390.168 532.24 390.168C532.57 390.168 532.904 390.2 533.24 390.265C533.576 390.331 533.926 390.428 534.292 390.557Z" fill="black" id="Vector_49"/>
<path d="M540 391.209C539.323 391.209 538.814 391.543 538.473 392.209C538.132 392.874 537.962 393.876 537.962 395.213C537.962 396.545 538.132 397.545 538.473 398.211C538.814 398.878 539.323 399.211 540 399.211C540.682 399.211 541.193 398.878 541.533 398.211C541.875 397.545 542.046 396.545 542.046 395.213C542.046 393.876 541.875 392.874 541.533 392.209C541.193 391.543 540.682 391.209 540 391.209ZM540 390.168C541.09 390.168 541.923 390.599 542.498 391.461C543.073 392.322 543.36 393.573 543.36 395.213C543.36 396.849 543.073 398.099 542.498 398.961C541.923 399.822 541.09 400.253 540 400.253C538.911 400.253 538.079 399.822 537.504 398.961C536.929 398.099 536.641 396.849 536.641 395.213C536.641 393.573 536.929 392.322 537.504 391.461C538.079 390.599 538.911 390.168 540 390.168Z" fill="black" id="Vector_50"/>
</g>
</g>
</g>
<g id="xtick_8">
<g id="line2d_8">
<g id="Group_20">
<g id="Vector_51">
<path d="M610.163 380.6V385.266V380.6Z" fill="black"/>
<path d="M610.163 380.6V385.266" stroke="black" stroke-width="1.06667"/>
</g>
</g>
</g>
<g id="text_23">
<g id="Group_21">
<path d="M602.773 390.343H609.023V390.903L605.494 400.063H604.121L607.442 391.451H602.773V390.343Z" fill="black" id="Vector_52"/>
<path d="M614.4 391.209C613.723 391.209 613.214 391.543 612.873 392.209C612.532 392.874 612.362 393.876 612.362 395.213C612.362 396.545 612.532 397.545 612.873 398.211C613.214 398.878 613.723 399.211 614.4 399.211C615.082 399.211 615.593 398.878 615.933 398.211C616.275 397.545 616.446 396.545 616.446 395.213C616.446 393.876 616.275 392.874 615.933 392.209C615.593 391.543 615.082 391.209 614.4 391.209ZM614.4 390.168C615.49 390.168 616.323 390.599 616.898 391.461C617.473 392.322 617.76 393.573 617.76 395.213C617.76 396.849 617.473 398.099 616.898 398.961C616.323 399.822 615.49 400.253 614.4 400.253C613.311 400.253 612.479 399.822 611.904 398.961C611.329 398.099 611.042 396.849 611.042 395.213C611.042 393.573 611.329 392.322 611.904 391.461C612.479 390.599 613.311 390.168 614.4 390.168Z" fill="black" id="Vector_53"/>
</g>
</g>
</g>
<g id="xtick_9">
<g id="line2d_9">
<g id="Group_22">
<g id="Vector_54">
<path d="M684.562 380.6V385.266V380.6Z" fill="black"/>
<path d="M684.562 380.6V385.266" stroke="black" stroke-width="1.06667"/>
</g>
</g>
</g>
<g id="text_24">
<g id="Group_23">
<path d="M680.317 395.447C679.692 395.447 679.2 395.614 678.842 395.949C678.485 396.283 678.306 396.743 678.306 397.328C678.306 397.914 678.485 398.374 678.842 398.709C679.2 399.044 679.692 399.211 680.317 399.211C680.942 399.211 681.434 399.043 681.794 398.707C682.155 398.37 682.335 397.91 682.335 397.328C682.335 396.743 682.156 396.283 681.798 395.949C681.441 395.614 680.947 395.447 680.317 395.447ZM679.002 394.888C678.438 394.749 677.999 394.487 677.683 394.101C677.37 393.713 677.213 393.242 677.213 392.686C677.213 391.91 677.489 391.296 678.042 390.845C678.596 390.393 679.354 390.168 680.317 390.168C681.285 390.168 682.045 390.393 682.596 390.845C683.147 391.296 683.423 391.91 683.423 392.686C683.423 393.242 683.265 393.713 682.95 394.101C682.636 394.487 682.199 394.749 681.64 394.888C682.273 395.036 682.766 395.324 683.119 395.755C683.473 396.184 683.65 396.708 683.65 397.328C683.65 398.271 683.363 398.995 682.788 399.499C682.213 400.002 681.389 400.253 680.317 400.253C679.246 400.253 678.422 400.002 677.846 399.499C677.271 398.995 676.983 398.271 676.983 397.328C676.983 396.708 677.161 396.184 677.517 395.755C677.874 395.324 678.369 395.036 679.002 394.888ZM678.521 392.811C678.521 393.314 678.678 393.706 678.992 393.988C679.307 394.27 679.749 394.411 680.317 394.411C680.882 394.411 681.324 394.27 681.642 393.988C681.961 393.706 682.121 393.314 682.121 392.811C682.121 392.307 681.961 391.914 681.642 391.632C681.324 391.35 680.882 391.209 680.317 391.209C679.749 391.209 679.307 391.35 678.992 391.632C678.678 391.914 678.521 392.307 678.521 392.811Z" fill="black" id="Vector_55"/>
<path d="M688.8 391.209C688.123 391.209 687.614 391.543 687.273 392.209C686.932 392.874 686.762 393.876 686.762 395.213C686.762 396.545 686.932 397.545 687.273 398.211C687.614 398.878 688.123 399.211 688.8 399.211C689.482 399.211 689.993 398.878 690.333 398.211C690.675 397.545 690.846 396.545 690.846 395.213C690.846 393.876 690.675 392.874 690.333 392.209C689.993 391.543 689.482 391.209 688.8 391.209ZM688.8 390.168C689.89 390.168 690.723 390.599 691.298 391.461C691.873 392.322 692.16 393.573 692.16 395.213C692.16 396.849 691.873 398.099 691.298 398.961C690.723 399.822 689.89 400.253 688.8 400.253C687.711 400.253 686.879 399.822 686.304 398.961C685.729 398.099 685.441 396.849 685.441 395.213C685.441 393.573 685.729 392.322 686.304 391.461C686.879 390.599 687.711 390.168 688.8 390.168Z" fill="black" id="Vector_56"/>
</g>
</g>
</g>
<g id="xtick_10">
<g id="line2d_10">
<g id="Group_24">
<g id="Vector_57">
<path d="M758.963 380.6V385.266V380.6Z" fill="black"/>
<path d="M758.963 380.6V385.266" stroke="black" stroke-width="1.06667"/>
</g>
</g>
</g>
<g id="text_25">
<g id="Group_25">
<path d="M751.944 399.861V398.663C752.274 398.82 752.608 398.94 752.946 399.022C753.285 399.104 753.617 399.145 753.944 399.145C754.812 399.145 755.474 398.853 755.931 398.27C756.39 397.686 756.651 396.799 756.717 395.609C756.465 395.983 756.146 396.27 755.758 396.47C755.372 396.67 754.945 396.77 754.477 396.77C753.505 396.77 752.736 396.476 752.169 395.888C751.602 395.299 751.319 394.495 751.319 393.474C751.319 392.477 751.614 391.677 752.204 391.074C752.795 390.47 753.58 390.168 754.561 390.168C755.686 390.168 756.544 390.599 757.136 391.461C757.729 392.322 758.025 393.573 758.025 395.213C758.025 396.745 757.661 397.968 756.933 398.882C756.207 399.796 755.23 400.253 754.002 400.253C753.672 400.253 753.337 400.22 752.998 400.155C752.661 400.09 752.309 399.992 751.944 399.861ZM754.561 395.74C755.151 395.74 755.618 395.539 755.963 395.136C756.308 394.732 756.481 394.178 756.481 393.474C756.481 392.775 756.308 392.223 755.963 391.818C755.618 391.412 755.151 391.209 754.561 391.209C753.97 391.209 753.503 391.412 753.158 391.818C752.814 392.223 752.642 392.775 752.642 393.474C752.642 394.178 752.814 394.732 753.158 395.136C753.503 395.539 753.97 395.74 754.561 395.74Z" fill="black" id="Vector_58"/>
<path d="M763.2 391.209C762.523 391.209 762.014 391.543 761.673 392.209C761.333 392.874 761.162 393.876 761.162 395.213C761.162 396.545 761.333 397.545 761.673 398.211C762.014 398.878 762.523 399.211 763.2 399.211C763.882 399.211 764.393 398.878 764.733 398.211C765.075 397.545 765.246 396.545 765.246 395.213C765.246 393.876 765.075 392.874 764.733 392.209C764.393 391.543 763.882 391.209 763.2 391.209ZM763.2 390.168C764.29 390.168 765.123 390.599 765.698 391.461C766.273 392.322 766.56 393.573 766.56 395.213C766.56 396.849 766.273 398.099 765.698 398.961C765.123 399.822 764.29 400.253 763.2 400.253C762.111 400.253 761.279 399.822 760.704 398.961C760.129 398.099 759.842 396.849 759.842 395.213C759.842 393.573 760.129 392.322 760.704 391.461C761.279 390.599 762.111 390.168 763.2 390.168Z" fill="black" id="Vector_59"/>
</g>
</g>
</g>
</g>
</g>
</g>
<text fill="black" font-family="Roboto" font-size="15" id="Baseline logits" letter-spacing="0em" style="white-space: pre" xml:space="preserve"><tspan x="14.626" y="43.127">Baseline
</tspan><tspan x="24.5356" y="59.127">logits</tspan></text>
<text fill="black" font-family="Roboto" font-size="15" id="After Suppressing _6 + _9" letter-spacing="0em" style="white-space: pre" xml:space="preserve"><tspan x="26.5278" y="110.127">After </tspan><tspan x="1.61084" y="126.127">Suppressing
</tspan><tspan x="19.8188" y="142.127">_6 + _9</tspan></text>
<text fill="black" font-family="Roboto" font-size="15" id="After Suppressing _6" letter-spacing="0em" style="white-space: pre" xml:space="preserve"><tspan x="26.5278" y="185.127">After </tspan><tspan x="1.61084" y="201.127">Suppressing
</tspan><tspan x="35.3975" y="217.127">_6</tspan></text>
<text fill="black" font-family="Roboto" font-size="15" id="After Suppressing _9" letter-spacing="0em" style="white-space: pre" xml:space="preserve"><tspan x="26.5278" y="260.127">After </tspan><tspan x="1.61084" y="276.127">Suppressing
</tspan><tspan x="35.3975" y="292.127">_9</tspan></text>
<text fill="black" font-family="Roboto" font-size="15" id="After Suppressing sum = _95" letter-spacing="0em" style="white-space: pre" xml:space="preserve"><tspan x="26.5278" y="335.127">After </tspan><tspan x="1.61084" y="351.127">Suppressing
</tspan><tspan x="8.75195" y="367.127">sum = _95</tspan></text>
<text fill="black" font-family="Roboto" font-size="17" id="Target Prediction â [0,99]" letter-spacing="0em" style="white-space: pre" xml:space="preserve"><tspan x="363.96" y="416.811">Target Prediction ∊ [0,99]</tspan></text>
<g id="Frame 124">
<line id="Line 4" stroke="black" stroke-opacity="0.5" x1="160.5" x2="160.5" y1="381" y2="9"/>
<line id="Line 5" stroke="black" stroke-opacity="0.5" x1="234.87" x2="234.87" y1="381" y2="9"/>
<line id="Line 6" stroke="black" stroke-opacity="0.5" x1="309.24" x2="309.24" y1="381" y2="9"/>
<line id="Line 7" stroke="black" stroke-opacity="0.5" x1="383.61" x2="383.61" y1="381" y2="9"/>
<line id="Line 8" stroke="black" stroke-opacity="0.5" x1="457.98" x2="457.98" y1="381" y2="9"/>
<line id="Line 9" stroke="black" stroke-opacity="0.5" x1="532.35" x2="532.35" y1="381" y2="9"/>
<line id="Line 10" stroke="black" stroke-opacity="0.5" x1="606.72" x2="606.72" y1="381" y2="9"/>
<line id="Line 11" stroke="black" stroke-opacity="0.5" x1="681.09" x2="681.09" y1="381" y2="9"/>
<line id="Line 12" stroke="black" stroke-opacity="0.5" x1="755.46" x2="755.46" y1="381" y2="9"/>
</g>
<g id="Frame 114">
<text fill="#4D4D4D" font-family="Roboto" font-size="13" id="Figure 00: Target prediction logits for different interventions on âcalc: 36+59=â." letter-spacing="0em" style="white-space: pre" xml:space="preserve"><tspan x="0" y="446.443">Figure 00: Target prediction logits for different interventions on “calc: 36+59=”.</tspan></text>
</g>
</g>
<defs>
<pattern height="1" id="pattern0_1108_3729" patternContentUnits="objectBoundingBox" width="1">
<use transform="scale(0.00129032 0.0128205)" xlink:href="#image0_1108_3729"/>
</pattern>
<pattern height="1" id="pattern1_1108_3729" patternContentUnits="objectBoundingBox" width="1">
<use transform="scale(0.00129032 0.0128205)" xlink:href="#image1_1108_3729"/>
</pattern>
<pattern height="1" id="pattern2_1108_3729" patternContentUnits="objectBoundingBox" width="1">
<use transform="scale(0.00129032 0.0128205)" xlink:href="#image2_1108_3729"/>
</pattern>
<pattern height="1" id="pattern3_1108_3729" patternContentUnits="objectBoundingBox" width="1">
<use transform="scale(0.00129032 0.0128205)" xlink:href="#image3_1108_3729"/>
</pattern>
<pattern height="1" id="pattern4_1108_3729" patternContentUnits="objectBoundingBox" width="1">
<use transform="scale(0.00129032 0.0128205)" xlink:href="#image4_1108_3729"/>
</pattern>
<clipPath id="clip0_1108_3729">
<rect fill="white" height="451" width="841"/>
</clipPath>
<image data-name="image097088ca24.png" height="78" id="image0_1108_3729" preserveAspectRatio="none" width="775" xlink:href="./png/img_1a59de4a4fab6521.png"/>
<image data-name="imagef718b30c0d.png" height="78" id="image1_1108_3729" preserveAspectRatio="none" width="775" xlink:href="./png/img_cf8f0024194fdc6e.png"/>
<image data-name="image2e17a87f43.png" height="78" id="image2_1108_3729" preserveAspectRatio="none" width="775" xlink:href="./png/img_65bda67bd258c05a.png"/>
<image data-name="imaged784b881bd.png" height="78" id="image3_1108_3729" preserveAspectRatio="none" width="775" xlink:href="./png/img_174a1f50344a3995.png"/>
<image data-name="image83379dfec7.png" height="78" id="image4_1108_3729" preserveAspectRatio="none" width="775" xlink:href="./png/img_ee9253cdab6c8029.png"/>
</defs>
</svg>