<?xml version="1.0" encoding="utf-8"?>
<svg fill="none" height="863" viewBox="0 0 1304 863" width="1304" xmlns="http://www.w3.org/2000/svg">
<g id="crosscoder-patching-tutorial-svg">
<rect fill="white" height="863" width="1304"/>
<path d="M566 457H1111V594C1111 598.971 1106.97 603 1102 603H575C570.029 603 566 598.971 566 594V457Z" fill="#F6F6F3" id="Rectangle 446" stroke="white" stroke-width="2"/>
<path d="M566 319C566 314.029 570.029 310 575 310H1102C1106.97 310 1111 314.029 1111 319V456H566V319Z" fill="#F6F6F3" id="Rectangle 447" stroke="white" stroke-width="2"/>
<path d="M120 133L111.34 148L128.66 148L120 133ZM118.5 146.5L118.5 324L121.5 324L121.5 146.5L118.5 146.5Z" fill="#B8B6AD" id="Vector 532"/>
<path d="M234 388L242.66 403H225.34L234 388ZM235.5 401.5V404.351H232.5V401.5H235.5ZM204 435.851H139.649V432.851H204V435.851ZM139.649 435.851C129.626 435.851 121.5 443.977 121.5 454H118.5C118.5 442.32 127.969 432.851 139.649 432.851V435.851ZM235.5 404.351C235.5 421.748 221.397 435.851 204 435.851V432.851C219.74 432.851 232.5 420.091 232.5 404.351H235.5Z" fill="#B8B6AD" id="Vector 535"/>
<path d="M120 328L120 490" id="Vector 807" stroke="#B8B6AD" stroke-width="3"/>
<path d="M120 482L120 765" id="Vector 808" stroke="#B8B6AD" stroke-width="3"/>
<path d="M234 388V372C234 355.431 220.569 342 204 342H158" id="Vector 533" stroke="#B8B6AD" stroke-width="3"/>
<path d="M158.5 342H136" id="Vector 810" stroke="#B8B6AD" stroke-width="3"/>
<path d="M234 241V225C234 208.431 220.569 195 204 195H120" id="Vector 534" stroke="#B8B6AD" stroke-width="3"/>
<path d="M234 682V666C234 649.431 220.569 636 204 636H120" id="Vector 862" stroke="#B8B6AD" stroke-width="3"/>
<path d="M784 682V666C784 649.431 770.569 636 754 636H670" id="Vector 864" stroke="#B8B6AD" stroke-width="3"/>
<path d="M120 324.5V309V309C120 297.044 129.693 287.351 141.649 287.351H158" id="Vector 536" stroke="#B8B6AD" stroke-width="3"/>
<path d="M234 241L242.66 256H225.34L234 241ZM235.5 254.5V257.351H232.5V254.5H235.5ZM204 288.851H158V285.851H204V288.851ZM235.5 257.351C235.5 274.748 221.397 288.851 204 288.851V285.851C219.74 285.851 232.5 273.091 232.5 257.351H235.5Z" fill="#B8B6AD" id="Vector 811"/>
<path d="M784 682L792.66 697H775.34L784 682ZM785.5 695.5V698H782.5V695.5H785.5ZM754 729.5H695V726.5H754V729.5ZM695 729.5C682.021 729.5 671.5 740.021 671.5 753H668.5C668.5 738.364 680.364 726.5 695 726.5V729.5ZM785.5 698C785.5 715.397 771.397 729.5 754 729.5V726.5C769.74 726.5 782.5 713.74 782.5 698H785.5Z" fill="#B8B6AD" id="Vector 865"/>
<path d="M234 682L242.66 697H225.34L234 682ZM235.5 695.5V698H232.5V695.5H235.5ZM204 729.5H145V726.5H204V729.5ZM145 729.5C132.021 729.5 121.5 740.021 121.5 753H118.5C118.5 738.364 130.364 726.5 145 726.5V729.5ZM235.5 698C235.5 715.397 221.397 729.5 204 729.5V726.5C219.74 726.5 232.5 713.74 232.5 698H235.5Z" fill="#B8B6AD" id="Vector 879"/>
<path d="M234 535V519C234 502.431 220.569 489 204 489L158 489" id="Vector 537" stroke="#B8B6AD" stroke-width="3"/>
<path d="M158 489L135 489" id="Vector 809" stroke="#B8B6AD" stroke-width="3"/>
<path d="M234 535L242.66 550H225.34L234 535ZM235.5 548.5V551.351H232.5V548.5H235.5ZM204 582.851H139.649V579.851H204V582.851ZM139.649 582.851C129.626 582.851 121.5 590.977 121.5 601H118.5C118.5 589.32 127.969 579.851 139.649 579.851V582.851ZM235.5 551.351C235.5 568.748 221.397 582.851 204 582.851V579.851C219.74 579.851 232.5 567.091 232.5 551.351H235.5Z" fill="#B8B6AD" id="Vector 544"/>
<g id="CircuitNode">
<g id="Group 286">
<g id="Frame 88">
<rect fill="#E6E3D6" height="42" rx="5" width="105" x="159" y="367"/>
<rect height="42" rx="5" stroke="#B8B6AD" stroke-width="2" width="105" x="159" y="367"/>
<g id="MLP" style="mix-blend-mode:multiply">
<text fill="black" font-family="Roboto" font-size="19" letter-spacing="0em" style="white-space: pre" xml:space="preserve"><tspan x="166.092" y="394.494">MLP</tspan></text>
</g>
<g id="Ellipse 250" style="mix-blend-mode:multiply">
<rect fill="#F6F6F3" height="16" id="Rectangle 429" rx="4" stroke="#B8B6AD" stroke-width="2" width="16" x="214" y="380"/>
</g>
<g id="Ellipse 251" style="mix-blend-mode:multiply">
<rect fill="#F6F6F3" height="16" id="Rectangle 429_2" rx="4" stroke="#B8B6AD" stroke-width="2" width="16" x="240" y="380"/>
</g>
</g>
</g>
</g>
<g id="CircuitNode_2">
<g id="Group 286_2">
<g id="Frame 88_2">
<rect fill="#E6E3D6" height="42" rx="5" width="105" x="159" y="218"/>
<rect height="42" rx="5" stroke="#B8B6AD" stroke-width="2" width="105" x="159" y="218"/>
<g id="MLP_2" style="mix-blend-mode:multiply">
<text fill="black" font-family="Roboto" font-size="19" letter-spacing="0em" style="white-space: pre" xml:space="preserve"><tspan x="166.092" y="245.494">MLP</tspan></text>
</g>
<g id="Ellipse 250_2" style="mix-blend-mode:multiply">
<rect fill="#F6F6F3" height="16" id="Rectangle 429_3" rx="4" stroke="#B8B6AD" stroke-width="2" width="16" x="214" y="231"/>
</g>
<g id="Ellipse 251_2" style="mix-blend-mode:multiply">
<rect fill="#F6F6F3" height="16" id="Rectangle 429_4" rx="4" stroke="#B8B6AD" stroke-width="2" width="16" x="240" y="231"/>
</g>
</g>
</g>
</g>
<g id="CircuitNode_3">
<g id="Group 286_3">
<g id="Frame 88_3">
<rect fill="#E6E3D6" height="42" rx="5" width="105" x="159" y="659"/>
<rect height="42" rx="5" stroke="#B8B6AD" stroke-width="2" width="105" x="159" y="659"/>
<g id="MLP_3" style="mix-blend-mode:multiply">
<text fill="black" font-family="Roboto" font-size="19" letter-spacing="0em" style="white-space: pre" xml:space="preserve"><tspan x="166.092" y="686.494">MLP</tspan></text>
</g>
<g id="Ellipse 250_3" style="mix-blend-mode:multiply">
<rect fill="#F6F6F3" height="16" id="Rectangle 429_5" rx="4" stroke="#B8B6AD" stroke-width="2" width="16" x="214" y="672"/>
</g>
<g id="Ellipse 251_3" style="mix-blend-mode:multiply">
<rect fill="#F6F6F3" height="16" id="Rectangle 429_6" rx="4" stroke="#B8B6AD" stroke-width="2" width="16" x="240" y="672"/>
</g>
</g>
</g>
</g>
<g id="CircuitNode_4">
<g id="Group 286_4">
<g id="Frame 88_4">
<rect fill="#E6E3D6" height="42" rx="5" width="105" x="709" y="659"/>
<rect height="42" rx="5" stroke="#B8B6AD" stroke-width="2" width="105" x="709" y="659"/>
<g id="MLP_4" style="mix-blend-mode:multiply">
<text fill="black" font-family="Roboto" font-size="19" letter-spacing="0em" style="white-space: pre" xml:space="preserve"><tspan x="716.092" y="686.494">MLP</tspan></text>
</g>
<g id="Ellipse 250_4" style="mix-blend-mode:multiply">
<rect fill="#F6F6F3" height="16" id="Rectangle 429_7" rx="4" stroke="#B8B6AD" stroke-width="2" width="16" x="764" y="672"/>
</g>
<g id="Ellipse 251_4" style="mix-blend-mode:multiply">
<rect fill="#F6F6F3" height="16" id="Rectangle 429_8" rx="4" stroke="#B8B6AD" stroke-width="2" width="16" x="790" y="672"/>
</g>
</g>
</g>
</g>
<g id="CircuitNode_5">
<g id="Group 286_5">
<g id="Frame 88_5">
<rect fill="#E6E3D6" height="42" rx="5" width="105" x="159" y="513"/>
<rect height="42" rx="5" stroke="#B8B6AD" stroke-width="2" width="105" x="159" y="513"/>
<g id="MLP_5" style="mix-blend-mode:multiply">
<text fill="black" font-family="Roboto" font-size="19" letter-spacing="0em" style="white-space: pre" xml:space="preserve"><tspan x="166.092" y="540.494">MLP</tspan></text>
</g>
<g id="Ellipse 250_5" style="mix-blend-mode:multiply">
<rect fill="#F6F6F3" height="16" id="Rectangle 429_9" rx="4" stroke="#B8B6AD" stroke-width="2" width="16" x="214" y="526"/>
</g>
<g id="Ellipse 251_5" style="mix-blend-mode:multiply">
<rect fill="#F6F6F3" height="16" id="Rectangle 429_10" rx="4" stroke="#B8B6AD" stroke-width="2" width="16" x="240" y="526"/>
</g>
</g>
</g>
</g>
<text fill="black" font-family="Roboto" font-size="15" id="Residual stream" letter-spacing="0em" style="white-space: pre" xml:space="preserve"><tspan x="90.9282" y="783.127">Residual </tspan><tspan x="96.0698" y="799.127">stream</tspan></text>
<g id="Group 601">
<circle cx="119.5" cy="489.5" fill="#E6E3D6" id="Ellipse 1" r="16.5" stroke="#B8B6AD" stroke-width="2"/>
<text fill="#706D5C" font-family="Roboto" font-size="24" id="+" letter-spacing="0em" style="white-space: pre" xml:space="preserve"><tspan x="113.191" y="497.703">+</tspan></text>
</g>
<g id="Group 607">
<circle cx="119.5" cy="638.5" fill="#E6E3D6" id="Ellipse 1_2" r="16.5" stroke="#B8B6AD" stroke-width="2"/>
<text fill="#706D5C" font-family="Roboto" font-size="24" id="+_2" letter-spacing="0em" style="white-space: pre" xml:space="preserve"><tspan x="113.191" y="646.703">+</tspan></text>
</g>
<g id="Group 603">
<circle cx="119.5" cy="195.5" fill="#E6E3D6" id="Ellipse 1_3" r="16.5" stroke="#B8B6AD" stroke-width="2"/>
<text fill="#706D5C" font-family="Roboto" font-size="24" id="+_3" letter-spacing="0em" style="white-space: pre" xml:space="preserve"><tspan x="113.191" y="203.703">+</tspan></text>
</g>
<path d="M670 133L661.34 148L678.66 148L670 133ZM668.5 146.5L668.5 324L671.5 324L671.5 146.5L668.5 146.5Z" fill="#B8B6AD" id="Vector 813"/>
<path d="M670 328L670 490" id="Vector 817" stroke="#B8B6AD" stroke-width="3"/>
<path d="M670 482L670 765" id="Vector 818" stroke="#B8B6AD" stroke-width="3"/>
<path d="M670 324.5V309V309C670 297.044 679.693 287.351 691.649 287.351H708" id="Vector 822" stroke="#B8B6AD" stroke-width="3"/>
<path d="M784 241L792.66 256H775.34L784 241ZM785.5 254.5V257.351H782.5V254.5H785.5ZM754 288.851H708V285.851H754V288.851ZM785.5 257.351C785.5 274.748 771.397 288.851 754 288.851V285.851C769.74 285.851 782.5 273.091 782.5 257.351H785.5Z" fill="#B8B6AD" id="Vector 823"/>
<path d="M689 489L704 497.66L704 480.34L689 489ZM887 487.5L702.5 487.5L702.5 490.5L887 490.5L887 487.5Z" fill="#CC6500" id="Vector 827"/>
<path d="M935 511L935 470.206L935 307" id="Vector 868" stroke="#CC6500" stroke-width="3"/>
<text fill="black" font-family="Roboto" font-size="15" id="Residual stream_2" letter-spacing="0em" style="white-space: pre" xml:space="preserve"><tspan x="640.928" y="783.127">Residual </tspan><tspan x="646.07" y="799.127">stream</tspan></text>
<text fill="#788C5D" font-family="Roboto" font-size="15" id="copy" letter-spacing="0em" style="white-space: pre" xml:space="preserve"><tspan x="520" y="359.127">copy</tspan></text>
<text fill="#788C5D" font-family="Roboto" font-size="15" id="copy_2" letter-spacing="0em" style="white-space: pre" xml:space="preserve"><tspan x="520" y="507.127">copy</tspan></text>
<text fill="#CC6500" font-family="Roboto" font-size="15" id="copy_3" letter-spacing="0em" style="white-space: pre" xml:space="preserve"><tspan x="520" y="555.127">copy</tspan></text>
<text fill="black" font-family="Roboto" font-size="15" id="We add a multiple of the steered feature decoders to the MLP recordings" letter-spacing="0em" style="white-space: pre" xml:space="preserve"><tspan x="712" y="389.627">We add a multiple of the </tspan><tspan x="712" y="405.627">steered feature decoders </tspan><tspan x="712" y="421.627">to the MLP recordings</tspan></text>
<text fill="black" font-family="Roboto" font-size="15" id="In this example, the perturbation has no effect in prior layers because the encoder of the CLT feature being perturbed is in a later layer." letter-spacing="0em" style="white-space: pre" xml:space="preserve"><tspan x="842" y="650.127">In this example, the </tspan><tspan x="842" y="666.127">perturbation has no effect </tspan><tspan x="842" y="682.127">in prior layers because the </tspan><tspan x="842" y="698.127">encoder of the CLT feature </tspan><tspan x="842" y="714.127">being perturbed is in a later </tspan><tspan x="842" y="730.127">layer.</tspan></text>
<text fill="#262624" font-family="Roboto" font-size="14" id="Layer â â 1" letter-spacing="0em" style="white-space: pre" xml:space="preserve"><tspan x="15" y="494.285">Layer ℓ − 1</tspan></text>
<text fill="#262624" font-family="Roboto" font-size="14" id="Layer â â 1_2" letter-spacing="0em" style="white-space: pre" xml:space="preserve"><tspan x="1033" y="494.285">Layer ℓ − 1</tspan></text>
<text fill="#262624" font-family="Roboto" font-size="14" font-weight="bold" id="Layer â" letter-spacing="0em" style="white-space: pre" xml:space="preserve"><tspan x="15" y="344.285">Layer ℓ</tspan></text>
<text fill="#262624" font-family="Roboto" font-size="14" id="Layer â â 2" letter-spacing="0em" style="white-space: pre" xml:space="preserve"><tspan x="15" y="638.285">Layer ℓ − 2</tspan></text>
<text fill="#262624" font-family="Roboto" font-size="14" id="Layer â â 2_2" letter-spacing="0em" style="white-space: pre" xml:space="preserve"><tspan x="1033" y="638.285">Layer ℓ − 2</tspan></text>
<text fill="#262624" font-family="Roboto" font-size="14" id="LAYER â + 1" letter-spacing="0em" style="white-space: pre" xml:space="preserve"><tspan x="15" y="196.285">LAYER ℓ + 1</tspan></text>
<text fill="#262624" font-family="Roboto" font-size="14" font-weight="bold" id="Layer â_2" letter-spacing="0em" style="white-space: pre" xml:space="preserve"><tspan x="1033" y="344.285">Layer ℓ</tspan></text>
<text fill="#262624" font-family="Roboto" font-size="14" id="Layer â + 1" letter-spacing="0em" style="white-space: pre" xml:space="preserve"><tspan x="1033" y="196.285">Layer ℓ + 1</tspan></text>
<path d="M586.53 488.47C586.823 488.763 586.823 489.238 586.53 489.531L581.757 494.304C581.464 494.597 580.99 494.597 580.697 494.304C580.404 494.011 580.404 493.536 580.697 493.243L584.939 489L580.697 484.758C580.404 484.465 580.404 483.99 580.697 483.697C580.99 483.404 581.464 483.404 581.757 483.697L586.53 488.47ZM296 488.251L296.993 488.251L296.993 489.751L296 489.751L296 488.251ZM298.979 488.251L300.966 488.251L300.966 489.751L298.979 489.751L298.979 488.251ZM302.952 488.251L304.938 488.251L304.938 489.751L302.952 489.751L302.952 488.251ZM306.925 488.251L308.911 488.251L308.911 489.751L306.925 489.751L306.925 488.251ZM310.897 488.251L312.884 488.251L312.884 489.751L310.897 489.751L310.897 488.251ZM314.87 488.251L316.856 488.251L316.856 489.751L314.87 489.751L314.87 488.251ZM318.842 488.251L320.829 488.251L320.829 489.751L318.842 489.751L318.842 488.251ZM322.815 488.251L324.801 488.251L324.801 489.751L322.815 489.751L322.815 488.251ZM326.788 488.251L328.774 488.251L328.774 489.751L326.788 489.751L326.788 488.251ZM330.76 488.251L332.747 488.251L332.747 489.751L330.76 489.751L330.76 488.251ZM334.733 488.251L336.719 488.251L336.719 489.751L334.733 489.751L334.733 488.251ZM338.705 488.251L340.692 488.251L340.692 489.751L338.705 489.751L338.705 488.251ZM342.678 488.251L344.664 488.251L344.664 489.751L342.678 489.751L342.678 488.251ZM346.651 488.251L348.637 488.251L348.637 489.751L346.651 489.751L346.651 488.251ZM350.623 488.251L352.61 488.251L352.61 489.751L350.623 489.751L350.623 488.251ZM354.596 488.251L356.582 488.251L356.582 489.751L354.596 489.751L354.596 488.251ZM358.568 488.251L360.555 488.251L360.555 489.751L358.568 489.751L358.568 488.251ZM362.541 488.251L364.527 488.25L364.527 489.75L362.541 489.751L362.541 488.251ZM366.514 488.25L368.5 488.25L368.5 489.75L366.514 489.75L366.514 488.25ZM370.486 488.25L372.473 488.25L372.473 489.75L370.486 489.75L370.486 488.25ZM374.459 488.25L376.445 488.25L376.445 489.75L374.459 489.75L374.459 488.25ZM378.431 488.25L380.418 488.25L380.418 489.75L378.431 489.75L378.431 488.25ZM382.404 488.25L384.39 488.25L384.39 489.75L382.404 489.75L382.404 488.25ZM386.377 488.25L388.363 488.25L388.363 489.75L386.377 489.75L386.377 488.25ZM390.349 488.25L392.336 488.25L392.336 489.75L390.349 489.75L390.349 488.25ZM394.322 488.25L396.308 488.25L396.308 489.75L394.322 489.75L394.322 488.25ZM398.294 488.25L400.281 488.25L400.281 489.75L398.294 489.75L398.294 488.25ZM402.267 488.25L404.253 488.25L404.253 489.75L402.267 489.75L402.267 488.25ZM406.24 488.25L408.226 488.25L408.226 489.75L406.24 489.75L406.24 488.25ZM410.212 488.25L412.199 488.25L412.199 489.75L410.212 489.75L410.212 488.25ZM414.185 488.25L416.171 488.25L416.171 489.75L414.185 489.75L414.185 488.25ZM418.157 488.25L420.144 488.25L420.144 489.75L418.157 489.75L418.157 488.25ZM422.13 488.25L424.116 488.25L424.116 489.75L422.13 489.75L422.13 488.25ZM426.103 488.25L428.089 488.25L428.089 489.75L426.103 489.75L426.103 488.25ZM430.075 488.25L432.062 488.25L432.062 489.75L430.075 489.75L430.075 488.25ZM434.048 488.25L436.034 488.25L436.034 489.75L434.048 489.75L434.048 488.25ZM438.02 488.25L440.007 488.25L440.007 489.75L438.02 489.75L438.02 488.25ZM441.993 488.25L443.979 488.25L443.979 489.75L441.993 489.75L441.993 488.25ZM445.966 488.25L447.952 488.25L447.952 489.75L445.966 489.75L445.966 488.25ZM449.938 488.25L451.924 488.25L451.924 489.75L449.938 489.75L449.938 488.25ZM453.911 488.25L455.897 488.25L455.897 489.75L453.911 489.75L453.911 488.25ZM457.883 488.25L459.87 488.25L459.87 489.75L457.883 489.75L457.883 488.25ZM461.856 488.25L463.842 488.25L463.842 489.75L461.856 489.75L461.856 488.25ZM465.829 488.25L467.815 488.25L467.815 489.75L465.829 489.75L465.829 488.25ZM469.801 488.25L471.787 488.25L471.787 489.75L469.801 489.75L469.801 488.25ZM473.774 488.25L475.76 488.25L475.76 489.75L473.774 489.75L473.774 488.25ZM477.746 488.25L479.733 488.25L479.733 489.75L477.746 489.75L477.746 488.25ZM481.719 488.25L483.705 488.25L483.705 489.75L481.719 489.75L481.719 488.25ZM485.692 488.25L487.678 488.25L487.678 489.75L485.692 489.75L485.692 488.25ZM489.664 488.25L491.65 488.25L491.65 489.75L489.664 489.75L489.664 488.25ZM493.637 488.25L495.623 488.25L495.623 489.75L493.637 489.75L493.637 488.25ZM497.609 488.25L499.596 488.25L499.596 489.75L497.609 489.75L497.609 488.25ZM501.582 488.25L503.568 488.25L503.568 489.75L501.582 489.75L501.582 488.25ZM505.555 488.25L507.541 488.25L507.541 489.75L505.555 489.75L505.555 488.25ZM509.527 488.25L511.513 488.25L511.513 489.75L509.527 489.75L509.527 488.25ZM513.5 488.25L515.486 488.25L515.486 489.75L513.5 489.75L513.5 488.25ZM517.472 488.25L519.459 488.25L519.459 489.75L517.472 489.75L517.472 488.25ZM521.445 488.25L523.431 488.25L523.431 489.75L521.445 489.75L521.445 488.25ZM525.417 488.25L527.404 488.25L527.404 489.75L525.417 489.75L525.417 488.25ZM529.39 488.25L531.376 488.25L531.376 489.75L529.39 489.75L529.39 488.25ZM533.363 488.25L535.349 488.25L535.349 489.75L533.363 489.75L533.363 488.25ZM537.335 488.25L539.322 488.25L539.322 489.75L537.335 489.75L537.335 488.25ZM541.308 488.25L543.294 488.25L543.294 489.75L541.308 489.75L541.308 488.25ZM545.28 488.25L547.267 488.25L547.267 489.75L545.28 489.75L545.28 488.25ZM549.253 488.25L551.239 488.25L551.239 489.75L549.253 489.75L549.253 488.25ZM553.226 488.25L555.212 488.25L555.212 489.75L553.226 489.75L553.226 488.25ZM557.198 488.25L559.185 488.25L559.185 489.75L557.198 489.75L557.198 488.25ZM561.171 488.25L563.157 488.25L563.157 489.75L561.171 489.75L561.171 488.25ZM565.143 488.25L567.13 488.25L567.13 489.75L565.143 489.75L565.143 488.25ZM569.116 488.25L571.102 488.25L571.102 489.75L569.116 489.75L569.116 488.25ZM573.089 488.25L575.075 488.25L575.075 489.75L573.089 489.75L573.089 488.25ZM577.061 488.25L579.048 488.25L579.048 489.75L577.061 489.75L577.061 488.25ZM581.034 488.25L583.02 488.25L583.02 489.75L581.034 489.75L581.034 488.25ZM585.006 488.25L586 488.25L586 489.75L585.006 489.75L585.006 488.25Z" fill="#788C5D" id="Vector 870"/>
<path d="M586.53 340.47C586.823 340.763 586.823 341.238 586.53 341.531L581.757 346.304C581.464 346.597 580.99 346.597 580.697 346.304C580.404 346.011 580.404 345.536 580.697 345.243L584.939 341L580.697 336.758C580.404 336.465 580.404 335.99 580.697 335.697C580.99 335.404 581.464 335.404 581.757 335.697L586.53 340.47ZM296 340.251L296.993 340.251L296.993 341.751L296 341.751L296 340.251ZM298.979 340.251L300.966 340.251L300.966 341.751L298.979 341.751L298.979 340.251ZM302.952 340.251L304.938 340.251L304.938 341.751L302.952 341.751L302.952 340.251ZM306.925 340.251L308.911 340.251L308.911 341.751L306.925 341.751L306.925 340.251ZM310.897 340.251L312.884 340.251L312.884 341.751L310.897 341.751L310.897 340.251ZM314.87 340.251L316.856 340.251L316.856 341.751L314.87 341.751L314.87 340.251ZM318.842 340.251L320.829 340.251L320.829 341.751L318.842 341.751L318.842 340.251ZM322.815 340.251L324.801 340.251L324.801 341.751L322.815 341.751L322.815 340.251ZM326.788 340.251L328.774 340.251L328.774 341.751L326.788 341.751L326.788 340.251ZM330.76 340.251L332.747 340.251L332.747 341.751L330.76 341.751L330.76 340.251ZM334.733 340.251L336.719 340.251L336.719 341.751L334.733 341.751L334.733 340.251ZM338.705 340.251L340.692 340.251L340.692 341.751L338.705 341.751L338.705 340.251ZM342.678 340.251L344.664 340.251L344.664 341.751L342.678 341.751L342.678 340.251ZM346.651 340.251L348.637 340.251L348.637 341.751L346.651 341.751L346.651 340.251ZM350.623 340.251L352.61 340.251L352.61 341.751L350.623 341.751L350.623 340.251ZM354.596 340.251L356.582 340.251L356.582 341.751L354.596 341.751L354.596 340.251ZM358.568 340.251L360.555 340.251L360.555 341.751L358.568 341.751L358.568 340.251ZM362.541 340.251L364.527 340.25L364.527 341.75L362.541 341.751L362.541 340.251ZM366.514 340.25L368.5 340.25L368.5 341.75L366.514 341.75L366.514 340.25ZM370.486 340.25L372.473 340.25L372.473 341.75L370.486 341.75L370.486 340.25ZM374.459 340.25L376.445 340.25L376.445 341.75L374.459 341.75L374.459 340.25ZM378.431 340.25L380.418 340.25L380.418 341.75L378.431 341.75L378.431 340.25ZM382.404 340.25L384.39 340.25L384.39 341.75L382.404 341.75L382.404 340.25ZM386.377 340.25L388.363 340.25L388.363 341.75L386.377 341.75L386.377 340.25ZM390.349 340.25L392.336 340.25L392.336 341.75L390.349 341.75L390.349 340.25ZM394.322 340.25L396.308 340.25L396.308 341.75L394.322 341.75L394.322 340.25ZM398.294 340.25L400.281 340.25L400.281 341.75L398.294 341.75L398.294 340.25ZM402.267 340.25L404.253 340.25L404.253 341.75L402.267 341.75L402.267 340.25ZM406.24 340.25L408.226 340.25L408.226 341.75L406.24 341.75L406.24 340.25ZM410.212 340.25L412.199 340.25L412.199 341.75L410.212 341.75L410.212 340.25ZM414.185 340.25L416.171 340.25L416.171 341.75L414.185 341.75L414.185 340.25ZM418.157 340.25L420.144 340.25L420.144 341.75L418.157 341.75L418.157 340.25ZM422.13 340.25L424.116 340.25L424.116 341.75L422.13 341.75L422.13 340.25ZM426.103 340.25L428.089 340.25L428.089 341.75L426.103 341.75L426.103 340.25ZM430.075 340.25L432.062 340.25L432.062 341.75L430.075 341.75L430.075 340.25ZM434.048 340.25L436.034 340.25L436.034 341.75L434.048 341.75L434.048 340.25ZM438.02 340.25L440.007 340.25L440.007 341.75L438.02 341.75L438.02 340.25ZM441.993 340.25L443.979 340.25L443.979 341.75L441.993 341.75L441.993 340.25ZM445.966 340.25L447.952 340.25L447.952 341.75L445.966 341.75L445.966 340.25ZM449.938 340.25L451.924 340.25L451.924 341.75L449.938 341.75L449.938 340.25ZM453.911 340.25L455.897 340.25L455.897 341.75L453.911 341.75L453.911 340.25ZM457.883 340.25L459.87 340.25L459.87 341.75L457.883 341.75L457.883 340.25ZM461.856 340.25L463.842 340.25L463.842 341.75L461.856 341.75L461.856 340.25ZM465.829 340.25L467.815 340.25L467.815 341.75L465.829 341.75L465.829 340.25ZM469.801 340.25L471.787 340.25L471.787 341.75L469.801 341.75L469.801 340.25ZM473.774 340.25L475.76 340.25L475.76 341.75L473.774 341.75L473.774 340.25ZM477.746 340.25L479.733 340.25L479.733 341.75L477.746 341.75L477.746 340.25ZM481.719 340.25L483.705 340.25L483.705 341.75L481.719 341.75L481.719 340.25ZM485.692 340.25L487.678 340.25L487.678 341.75L485.692 341.75L485.692 340.25ZM489.664 340.25L491.65 340.25L491.65 341.75L489.664 341.75L489.664 340.25ZM493.637 340.25L495.623 340.25L495.623 341.75L493.637 341.75L493.637 340.25ZM497.609 340.25L499.596 340.25L499.596 341.75L497.609 341.75L497.609 340.25ZM501.582 340.25L503.568 340.25L503.568 341.75L501.582 341.75L501.582 340.25ZM505.555 340.25L507.541 340.25L507.541 341.75L505.555 341.75L505.555 340.25ZM509.527 340.25L511.513 340.25L511.513 341.75L509.527 341.75L509.527 340.25ZM513.5 340.25L515.486 340.25L515.486 341.75L513.5 341.75L513.5 340.25ZM517.472 340.25L519.459 340.25L519.459 341.75L517.472 341.75L517.472 340.25ZM521.445 340.25L523.431 340.25L523.431 341.75L521.445 341.75L521.445 340.25ZM525.417 340.25L527.404 340.25L527.404 341.75L525.417 341.75L525.417 340.25ZM529.39 340.25L531.376 340.25L531.376 341.75L529.39 341.75L529.39 340.25ZM533.363 340.25L535.349 340.25L535.349 341.75L533.363 341.75L533.363 340.25ZM537.335 340.25L539.322 340.25L539.322 341.75L537.335 341.75L537.335 340.25ZM541.308 340.25L543.294 340.25L543.294 341.75L541.308 341.75L541.308 340.25ZM545.28 340.25L547.267 340.25L547.267 341.75L545.28 341.75L545.28 340.25ZM549.253 340.25L551.239 340.25L551.239 341.75L549.253 341.75L549.253 340.25ZM553.226 340.25L555.212 340.25L555.212 341.75L553.226 341.75L553.226 340.25ZM557.198 340.25L559.185 340.25L559.185 341.75L557.198 341.75L557.198 340.25ZM561.171 340.25L563.157 340.25L563.157 341.75L561.171 341.75L561.171 340.25ZM565.143 340.25L567.13 340.25L567.13 341.75L565.143 341.75L565.143 340.25ZM569.116 340.25L571.102 340.25L571.102 341.75L569.116 341.75L569.116 340.25ZM573.089 340.25L575.075 340.25L575.075 341.75L573.089 341.75L573.089 340.25ZM577.061 340.25L579.048 340.25L579.048 341.75L577.061 341.75L577.061 340.25ZM581.034 340.25L583.02 340.25L583.02 341.75L581.034 341.75L581.034 340.25ZM585.006 340.25L586 340.25L586 341.75L585.006 341.75L585.006 340.25Z" fill="#788C5D" id="Vector 871"/>
<text fill="#1A1A1A" font-family="Roboto" font-size="17" font-weight="bold" id="Baseline pass" letter-spacing="0em" style="white-space: pre" transform="translate(15 14)" xml:space="preserve"><tspan x="0" y="15.3105">Baseline pass</tspan></text>
<text fill="#1A1A1A" font-family="Roboto" font-size="17" font-weight="bold" id="Intervention pass" letter-spacing="0em" style="white-space: pre" transform="translate(565 14)" xml:space="preserve"><tspan x="0" y="15.3105">Intervention pass</tspan></text>
<text fill="#4D4D4D" font-family="Roboto" font-size="17" id="We first do a forward pass of the base model, recording the outputs of each MLP layer." letter-spacing="0em" style="white-space: pre" transform="translate(15 39)" xml:space="preserve"><tspan x="0" y="15.3105">We first do a forward pass of the base model, </tspan><tspan x="0" y="34.3105">recording the outputs of each MLP layer.</tspan></text>
<text fill="#4D4D4D" font-family="Roboto" font-size="17" id="Pick a layer â to intervene on. We do a second forward pass. Up to layer â, we replace the output of each MLP with the recorded value plus a multiple of the steered feature decoders. After layer â, we run the base model as usual." letter-spacing="0em" style="white-space: pre" transform="translate(565 39)" xml:space="preserve"><tspan x="0" y="15.3105">Pick a layer ℓ to intervene on. We do a second forward pass. </tspan><tspan x="0" y="34.3105">Up to layer ℓ, we replace the output of each MLP with the </tspan><tspan x="0" y="53.3105">recorded value plus a multiple of the steered feature </tspan><tspan x="0" y="72.3105">decoders. After layer ℓ, we run the base model as usual.</tspan></text>
<g id="CircuitNode_6">
<g id="Group 286_6">
<g id="Frame 88_6">
<rect fill="#E6E3D6" height="46" rx="5" width="181" x="316" y="513"/>
<rect height="46" rx="5" stroke="#B8B6AD" stroke-width="2" width="181" x="316" y="513"/>
<text fill="black" font-family="Roboto" font-size="19" id="CLT" letter-spacing="0em" style="white-space: pre" xml:space="preserve"><tspan x="330" y="542.494">CLT</tspan></text>
<g id="Ellipse 244">
<circle cx="385" cy="536" fill="#F6F6F3" id="Ellipse 198" r="9" stroke="#B8B6AD" stroke-width="2"/>
</g>
<g id="Ellipse 247">
<circle cx="413" cy="536" fill="#F6F6F3" id="Ellipse 198_2" r="9" stroke="#B8B6AD" stroke-width="2"/>
</g>
<g id="Ellipse 248">
<circle cx="441" cy="536" fill="#F6F6F3" id="Ellipse 198_3" r="9" stroke="#B8B6AD" stroke-width="2"/>
</g>
<g id="Save">
<circle cx="471" cy="536" fill="#CC6500" id="Ellipse 260" r="16"/>
<g id="save_24dp_5F6368_FILL0_wght400_GRAD0_opsz24">
<path d="M480 531V543C480 543.55 479.804 544.021 479.413 544.413C479.021 544.804 478.55 545 478 545H464C463.45 545 462.979 544.804 462.588 544.413C462.196 544.021 462 543.55 462 543V529C462 528.45 462.196 527.979 462.588 527.588C462.979 527.196 463.45 527 464 527H476L480 531ZM478 531.85L475.15 529H464V543H478V531.85ZM471 542C471.833 542 472.542 541.708 473.125 541.125C473.708 540.542 474 539.833 474 539C474 538.167 473.708 537.458 473.125 536.875C472.542 536.292 471.833 536 471 536C470.167 536 469.458 536.292 468.875 536.875C468.292 537.458 468 538.167 468 539C468 539.833 468.292 540.542 468.875 541.125C469.458 541.708 470.167 542 471 542ZM465 534H474V530H465V534ZM464 531.85V543V529V531.85Z" fill="#F6F6F3" id="Vector"/>
</g>
</g>
</g>
</g>
</g>
<g id="Save_2">
<circle cx="915" cy="536" fill="#CC6500" id="Ellipse 260_2" r="16"/>
<g id="save_24dp_5F6368_FILL0_wght400_GRAD0_opsz24_2">
<path d="M924 531V543C924 543.55 923.804 544.021 923.413 544.413C923.021 544.804 922.55 545 922 545H908C907.45 545 906.979 544.804 906.588 544.413C906.196 544.021 906 543.55 906 543V529C906 528.45 906.196 527.979 906.588 527.588C906.979 527.196 907.45 527 908 527H920L924 531ZM922 531.85L919.15 529H908V543H922V531.85ZM915 542C915.833 542 916.542 541.708 917.125 541.125C917.708 540.542 918 539.833 918 539C918 538.167 917.708 537.458 917.125 536.875C916.542 536.292 915.833 536 915 536C914.167 536 913.458 536.292 912.875 536.875C912.292 537.458 912 538.167 912 539C912 539.833 912.292 540.542 912.875 541.125C913.458 541.708 914.167 542 915 542ZM909 534H918V530H909V534ZM908 531.85V543V529V531.85Z" fill="#F6F6F3" id="Vector_2"/>
</g>
</g>
<path d="M411 558L419.66 573H402.34L411 558ZM401 582.5H161V579.5H401V582.5ZM412.5 571C412.5 577.351 407.351 582.5 401 582.5V579.5C405.694 579.5 409.5 575.694 409.5 571H412.5Z" fill="#B8B6AD" id="Vector 545"/>
<path d="M262 489L247 480.34V497.66L262 489ZM228.561 501.561L237.132 492.99L235.01 490.868L226.439 499.439L228.561 501.561ZM243.142 490.5H248.5V487.5H243.142V490.5ZM237.132 492.99C238.726 491.396 240.888 490.5 243.142 490.5V487.5C240.092 487.5 237.167 488.712 235.01 490.868L237.132 492.99Z" fill="#788C5D" id="Vector 849"/>
<path d="M262 341L247 332.34V349.66L262 341ZM228.561 353.561L237.132 344.99L235.01 342.868L226.439 351.439L228.561 353.561ZM243.142 342.5H248.5V339.5H243.142V342.5ZM237.132 344.99C238.726 343.396 240.888 342.5 243.142 342.5V339.5C240.092 339.5 237.167 340.712 235.01 342.868L237.132 344.99Z" fill="#788C5D" id="Vector 869"/>
<path d="M262 194L247 185.34V202.66L262 194ZM228.561 206.561L237.132 197.99L235.01 195.868L226.439 204.439L228.561 206.561ZM243.142 195.5H248.5V192.5H243.142V195.5ZM237.132 197.99C238.726 196.396 240.888 195.5 243.142 195.5V192.5C240.092 192.5 237.167 193.712 235.01 195.868L237.132 197.99Z" fill="#788C5D" id="Vector 873"/>
<path d="M262 636L247 627.34V644.66L262 636ZM228.561 648.561L237.132 639.99L235.01 637.868L226.439 646.439L228.561 648.561ZM243.142 637.5H248.5V634.5H243.142V637.5ZM237.132 639.99C238.726 638.396 240.888 637.5 243.142 637.5V634.5C240.092 634.5 237.167 635.712 235.01 637.868L237.132 639.99Z" fill="#788C5D" id="Vector 874"/>
<path d="M651.5 489L636.5 480.34L636.5 497.66L651.5 489ZM617 490.5L638 490.5L638 487.5L617 487.5L617 490.5Z" fill="#788C5D" id="Vector 850"/>
<path d="M651.5 341L636.5 332.34L636.5 349.66L651.5 341ZM617 342.5L638 342.5L638 339.5L617 339.5L617 342.5Z" fill="#788C5D" id="Vector 866"/>
<g id="Save_3">
<rect fill="#788C5D" height="30" id="Rectangle 444" rx="6" width="30" x="591" y="474"/>
<g id="save_24dp_5F6368_FILL0_wght400_GRAD0_opsz24_3">
<path d="M615 484V496C615 496.55 614.804 497.021 614.413 497.413C614.021 497.804 613.55 498 613 498H599C598.45 498 597.979 497.804 597.588 497.413C597.196 497.021 597 496.55 597 496V482C597 481.45 597.196 480.979 597.588 480.588C597.979 480.196 598.45 480 599 480H611L615 484ZM613 484.85L610.15 482H599V496H613V484.85ZM606 495C606.833 495 607.542 494.708 608.125 494.125C608.708 493.542 609 492.833 609 492C609 491.167 608.708 490.458 608.125 489.875C607.542 489.292 606.833 489 606 489C605.167 489 604.458 489.292 603.875 489.875C603.292 490.458 603 491.167 603 492C603 492.833 603.292 493.542 603.875 494.125C604.458 494.708 605.167 495 606 495ZM600 487H609V483H600V487ZM599 484.85V496V482V484.85Z" fill="#F6F6F3" id="Vector_3"/>
</g>
</g>
<g id="Save_4">
<rect fill="#788C5D" height="30" id="Rectangle 444_2" rx="6" width="30" x="591" y="326"/>
<g id="save_24dp_5F6368_FILL0_wght400_GRAD0_opsz24_4">
<path d="M615 336V348C615 348.55 614.804 349.021 614.413 349.413C614.021 349.804 613.55 350 613 350H599C598.45 350 597.979 349.804 597.588 349.413C597.196 349.021 597 348.55 597 348V334C597 333.45 597.196 332.979 597.588 332.588C597.979 332.196 598.45 332 599 332H611L615 336ZM613 336.85L610.15 334H599V348H613V336.85ZM606 347C606.833 347 607.542 346.708 608.125 346.125C608.708 345.542 609 344.833 609 344C609 343.167 608.708 342.458 608.125 341.875C607.542 341.292 606.833 341 606 341C605.167 341 604.458 341.292 603.875 341.875C603.292 342.458 603 343.167 603 344C603 344.833 603.292 345.542 603.875 346.125C604.458 346.708 605.167 347 606 347ZM600 339H609V335H600V339ZM599 336.85V348V334V336.85Z" fill="#F6F6F3" id="Vector_4"/>
</g>
</g>
<g id="Save_5">
<rect fill="#788C5D" height="30" id="Rectangle 444_3" rx="6" width="30" x="266" y="326"/>
<g id="save_24dp_5F6368_FILL0_wght400_GRAD0_opsz24_5">
<path d="M290 336V348C290 348.55 289.804 349.021 289.413 349.413C289.021 349.804 288.55 350 288 350H274C273.45 350 272.979 349.804 272.588 349.413C272.196 349.021 272 348.55 272 348V334C272 333.45 272.196 332.979 272.588 332.588C272.979 332.196 273.45 332 274 332H286L290 336ZM288 336.85L285.15 334H274V348H288V336.85ZM281 347C281.833 347 282.542 346.708 283.125 346.125C283.708 345.542 284 344.833 284 344C284 343.167 283.708 342.458 283.125 341.875C282.542 341.292 281.833 341 281 341C280.167 341 279.458 341.292 278.875 341.875C278.292 342.458 278 343.167 278 344C278 344.833 278.292 345.542 278.875 346.125C279.458 346.708 280.167 347 281 347ZM275 339H284V335H275V339ZM274 336.85V348V334V336.85Z" fill="#F6F6F3" id="Vector_5"/>
</g>
</g>
<g id="Save_6">
<rect fill="#788C5D" height="30" id="Rectangle 444_4" rx="6" width="30" x="266" y="179"/>
<g id="save_24dp_5F6368_FILL0_wght400_GRAD0_opsz24_6">
<path d="M290 189V201C290 201.55 289.804 202.021 289.413 202.413C289.021 202.804 288.55 203 288 203H274C273.45 203 272.979 202.804 272.588 202.413C272.196 202.021 272 201.55 272 201V187C272 186.45 272.196 185.979 272.588 185.588C272.979 185.196 273.45 185 274 185H286L290 189ZM288 189.85L285.15 187H274V201H288V189.85ZM281 200C281.833 200 282.542 199.708 283.125 199.125C283.708 198.542 284 197.833 284 197C284 196.167 283.708 195.458 283.125 194.875C282.542 194.292 281.833 194 281 194C280.167 194 279.458 194.292 278.875 194.875C278.292 195.458 278 196.167 278 197C278 197.833 278.292 198.542 278.875 199.125C279.458 199.708 280.167 200 281 200ZM275 192H284V188H275V192ZM274 189.85V201V187V189.85Z" fill="#F6F6F3" id="Vector_6"/>
</g>
</g>
<g id="Save_7">
<rect fill="#788C5D" height="30" id="Rectangle 444_5" rx="6" width="30" x="266" y="621"/>
<g id="save_24dp_5F6368_FILL0_wght400_GRAD0_opsz24_7">
<path d="M290 631V643C290 643.55 289.804 644.021 289.413 644.413C289.021 644.804 288.55 645 288 645H274C273.45 645 272.979 644.804 272.588 644.413C272.196 644.021 272 643.55 272 643V629C272 628.45 272.196 627.979 272.588 627.588C272.979 627.196 273.45 627 274 627H286L290 631ZM288 631.85L285.15 629H274V643H288V631.85ZM281 642C281.833 642 282.542 641.708 283.125 641.125C283.708 640.542 284 639.833 284 639C284 638.167 283.708 637.458 283.125 636.875C282.542 636.292 281.833 636 281 636C280.167 636 279.458 636.292 278.875 636.875C278.292 637.458 278 638.167 278 639C278 639.833 278.292 640.542 278.875 641.125C279.458 641.708 280.167 642 281 642ZM275 634H284V630H275V634ZM274 631.85V643V629V631.85Z" fill="#F6F6F3" id="Vector_7"/>
</g>
</g>
<g id="Save_8">
<rect fill="#788C5D" height="30" id="Rectangle 444_6" rx="6" width="30" x="266" y="474"/>
<g id="save_24dp_5F6368_FILL0_wght400_GRAD0_opsz24_8">
<path d="M290 484V496C290 496.55 289.804 497.021 289.413 497.413C289.021 497.804 288.55 498 288 498H274C273.45 498 272.979 497.804 272.588 497.413C272.196 497.021 272 496.55 272 496V482C272 481.45 272.196 480.979 272.588 480.588C272.979 480.196 273.45 480 274 480H286L290 484ZM288 484.85L285.15 482H274V496H288V484.85ZM281 495C281.833 495 282.542 494.708 283.125 494.125C283.708 493.542 284 492.833 284 492C284 491.167 283.708 490.458 283.125 489.875C282.542 489.292 281.833 489 281 489C280.167 489 279.458 489.292 278.875 489.875C278.292 490.458 278 491.167 278 492C278 492.833 278.292 493.542 278.875 494.125C279.458 494.708 280.167 495 281 495ZM275 487H284V483H275V487ZM274 484.85V496V482V484.85Z" fill="#F6F6F3" id="Vector_8"/>
</g>
</g>
<rect height="45" id="Rectangle 445" rx="6" stroke="#CC6500" stroke-width="2" width="95" x="888" y="513"/>
<g id="Group 608">
<circle cx="669.5" cy="638.5" fill="#E6E3D6" id="Ellipse 1_4" r="16.5" stroke="#B8B6AD" stroke-width="2"/>
<text fill="#706D5C" font-family="Roboto" font-size="24" id="+_4" letter-spacing="0em" style="white-space: pre" xml:space="preserve"><tspan x="663.191" y="646.703">+</tspan></text>
</g>
<path d="M877.53 536.53C877.823 536.237 877.823 535.762 877.53 535.469L872.757 530.696C872.465 530.404 871.99 530.404 871.697 530.696C871.404 530.989 871.404 531.464 871.697 531.757L875.939 536L871.697 540.242C871.404 540.535 871.404 541.01 871.697 541.303C871.99 541.596 872.465 541.596 872.757 541.303L877.53 536.53ZM482.5 536.75L483.496 536.75L483.496 535.25L482.5 535.25L482.5 536.75ZM485.489 536.75L487.481 536.75L487.481 535.25L485.489 535.25L485.489 536.75ZM489.473 536.75L491.466 536.75L491.466 535.25L489.473 535.25L489.473 536.75ZM493.458 536.75L495.451 536.75L495.451 535.25L493.458 535.25L493.458 536.75ZM497.443 536.75L499.436 536.75L499.436 535.25L497.443 535.25L497.443 536.75ZM501.428 536.75L503.42 536.75L503.42 535.25L501.428 535.25L501.428 536.75ZM505.413 536.75L507.405 536.75L507.405 535.25L505.413 535.25L505.413 536.75ZM509.398 536.75L511.39 536.75L511.39 535.25L509.398 535.25L509.398 536.75ZM513.383 536.75L515.375 536.75L515.375 535.25L513.383 535.25L513.383 536.75ZM517.367 536.75L519.36 536.75L519.36 535.25L517.367 535.25L517.367 536.75ZM521.352 536.75L523.345 536.75L523.345 535.25L521.352 535.25L521.352 536.75ZM525.337 536.75L527.33 536.75L527.33 535.25L525.337 535.25L525.337 536.75ZM529.322 536.75L531.314 536.75L531.314 535.25L529.322 535.25L529.322 536.75ZM533.307 536.75L535.299 536.75L535.299 535.25L533.307 535.25L533.307 536.75ZM537.292 536.75L539.284 536.75L539.284 535.25L537.292 535.25L537.292 536.75ZM541.277 536.75L543.269 536.75L543.269 535.25L541.277 535.25L541.277 536.75ZM545.261 536.75L547.254 536.75L547.254 535.25L545.261 535.25L545.261 536.75ZM549.246 536.75L551.239 536.75L551.239 535.25L549.246 535.25L549.246 536.75ZM553.231 536.75L555.223 536.75L555.223 535.25L553.231 535.25L553.231 536.75ZM557.216 536.75L559.208 536.75L559.208 535.25L557.216 535.25L557.216 536.75ZM561.201 536.75L563.193 536.75L563.193 535.25L561.201 535.25L561.201 536.75ZM565.186 536.75L567.178 536.75L567.178 535.25L565.186 535.25L565.186 536.75ZM569.17 536.75L571.163 536.75L571.163 535.25L569.17 535.25L569.17 536.75ZM573.155 536.75L575.148 536.75L575.148 535.25L573.155 535.25L573.155 536.75ZM577.14 536.75L579.133 536.75L579.133 535.25L577.14 535.25L577.14 536.75ZM581.125 536.75L583.117 536.75L583.117 535.25L581.125 535.25L581.125 536.75ZM585.11 536.75L587.102 536.75L587.102 535.25L585.11 535.25L585.11 536.75ZM589.095 536.75L591.087 536.75L591.087 535.25L589.095 535.25L589.095 536.75ZM593.08 536.75L595.072 536.75L595.072 535.25L593.08 535.25L593.08 536.75ZM597.064 536.75L599.057 536.75L599.057 535.25L597.064 535.25L597.064 536.75ZM601.049 536.75L603.042 536.75L603.042 535.25L601.049 535.25L601.049 536.75ZM605.034 536.75L607.027 536.75L607.027 535.25L605.034 535.25L605.034 536.75ZM609.019 536.75L611.011 536.75L611.011 535.25L609.019 535.25L609.019 536.75ZM613.004 536.75L614.996 536.75L614.996 535.25L613.004 535.25L613.004 536.75ZM616.989 536.75L618.981 536.75L618.981 535.25L616.989 535.25L616.989 536.75ZM620.974 536.75L622.966 536.75L622.966 535.25L620.974 535.25L620.974 536.75ZM624.958 536.75L626.951 536.75L626.951 535.25L624.958 535.25L624.958 536.75ZM628.943 536.75L630.936 536.75L630.936 535.25L628.943 535.25L628.943 536.75ZM632.928 536.75L634.921 536.75L634.921 535.25L632.928 535.25L632.928 536.75ZM636.913 536.75L638.905 536.75L638.905 535.25L636.913 535.25L636.913 536.75ZM640.898 536.75L642.89 536.75L642.89 535.25L640.898 535.25L640.898 536.75ZM644.883 536.75L646.875 536.75L646.875 535.25L644.883 535.25L644.883 536.75ZM648.868 536.75L650.86 536.75L650.86 535.25L648.868 535.25L648.868 536.75ZM652.852 536.75L654.845 536.75L654.845 535.25L652.852 535.25L652.852 536.75ZM656.837 536.75L658.83 536.75L658.83 535.25L656.837 535.25L656.837 536.75ZM660.822 536.75L662.815 536.75L662.815 535.25L660.822 535.25L660.822 536.75ZM664.807 536.75L666.799 536.75L666.799 535.25L664.807 535.25L664.807 536.75ZM668.792 536.75L670.784 536.75L670.784 535.25L668.792 535.25L668.792 536.75ZM672.777 536.75L674.769 536.75L674.769 535.25L672.777 535.25L672.777 536.75ZM676.762 536.75L678.754 536.75L678.754 535.25L676.762 535.25L676.762 536.75ZM680.746 536.75L682.739 536.75L682.739 535.25L680.746 535.25L680.746 536.75ZM684.731 536.75L686.724 536.75L686.724 535.25L684.731 535.25L684.731 536.75ZM688.716 536.75L690.709 536.75L690.709 535.25L688.716 535.25L688.716 536.75ZM692.701 536.75L694.693 536.75L694.693 535.25L692.701 535.25L692.701 536.75ZM696.686 536.75L698.678 536.75L698.678 535.25L696.686 535.25L696.686 536.75ZM700.671 536.75L702.663 536.75L702.663 535.25L700.671 535.25L700.671 536.75ZM704.656 536.75L706.648 536.75L706.648 535.25L704.656 535.25L704.656 536.75ZM708.641 536.75L710.633 536.75L710.633 535.25L708.641 535.25L708.641 536.75ZM712.625 536.75L714.618 536.75L714.618 535.25L712.625 535.25L712.625 536.75ZM716.61 536.75L718.603 536.75L718.603 535.25L716.61 535.25L716.61 536.75ZM720.595 536.75L722.588 536.75L722.588 535.25L720.595 535.25L720.595 536.75ZM724.58 536.75L726.572 536.75L726.572 535.25L724.58 535.25L724.58 536.75ZM728.565 536.75L730.557 536.75L730.557 535.25L728.565 535.25L728.565 536.75ZM732.55 536.75L734.542 536.75L734.542 535.25L732.55 535.25L732.55 536.75ZM736.535 536.75L738.527 536.75L738.527 535.25L736.535 535.25L736.535 536.75ZM740.519 536.75L742.512 536.75L742.512 535.25L740.519 535.25L740.519 536.75ZM744.504 536.75L746.497 536.75L746.497 535.25L744.504 535.25L744.504 536.75ZM748.489 536.75L750.482 536.75L750.482 535.25L748.489 535.25L748.489 536.75ZM752.474 536.75L754.466 536.75L754.466 535.25L752.474 535.25L752.474 536.75ZM756.459 536.75L758.451 536.75L758.451 535.25L756.459 535.25L756.459 536.75ZM760.444 536.75L762.436 536.75L762.436 535.25L760.444 535.25L760.444 536.75ZM764.429 536.75L766.421 536.75L766.421 535.25L764.429 535.25L764.429 536.75ZM768.413 536.75L770.406 536.75L770.406 535.25L768.413 535.25L768.413 536.75ZM772.398 536.75L774.391 536.75L774.391 535.25L772.398 535.25L772.398 536.75ZM776.383 536.75L778.376 536.75L778.376 535.25L776.383 535.25L776.383 536.75ZM780.368 536.75L782.36 536.75L782.36 535.25L780.368 535.25L780.368 536.75ZM784.353 536.75L786.345 536.75L786.345 535.25L784.353 535.25L784.353 536.75ZM788.338 536.75L790.33 536.75L790.33 535.25L788.338 535.25L788.338 536.75ZM792.323 536.75L794.315 536.75L794.315 535.25L792.323 535.25L792.323 536.75ZM796.307 536.75L798.3 536.75L798.3 535.25L796.307 535.25L796.307 536.75ZM800.292 536.75L802.285 536.75L802.285 535.25L800.292 535.25L800.292 536.75ZM804.277 536.75L806.27 536.75L806.27 535.25L804.277 535.25L804.277 536.75ZM808.262 536.75L810.255 536.75L810.255 535.25L808.262 535.25L808.262 536.75ZM812.247 536.75L814.239 536.75L814.239 535.25L812.247 535.25L812.247 536.75ZM816.232 536.75L818.224 536.75L818.224 535.25L816.232 535.25L816.232 536.75ZM820.217 536.75L822.209 536.75L822.209 535.25L820.217 535.25L820.217 536.75ZM824.202 536.75L826.194 536.75L826.194 535.25L824.202 535.25L824.202 536.75ZM828.186 536.75L830.179 536.75L830.179 535.25L828.186 535.25L828.186 536.75ZM832.171 536.75L834.164 536.75L834.164 535.25L832.171 535.25L832.171 536.75ZM836.156 536.75L838.149 536.75L838.149 535.25L836.156 535.25L836.156 536.75ZM840.141 536.75L842.133 536.75L842.133 535.25L840.141 535.25L840.141 536.75ZM844.126 536.75L846.118 536.75L846.118 535.25L844.126 535.25L844.126 536.75ZM848.111 536.75L850.103 536.75L850.103 535.25L848.111 535.25L848.111 536.75ZM852.096 536.75L854.088 536.75L854.088 535.25L852.096 535.25L852.096 536.75ZM856.08 536.75L858.073 536.75L858.073 535.25L856.08 535.25L856.08 536.75ZM860.065 536.75L862.058 536.75L862.058 535.25L860.065 535.25L860.065 536.75ZM864.05 536.75L866.043 536.75L866.043 535.25L864.05 535.25L864.05 536.75ZM868.035 536.75L870.027 536.75L870.027 535.25L868.035 535.25L868.035 536.75ZM872.02 536.75L874.012 536.75L874.012 535.25L872.02 535.25L872.02 536.75ZM876.005 536.75L877 536.75L877 535.25L876.005 535.25L876.005 536.75Z" fill="#CC6500" id="Vector 861"/>
<text fill="black" font-family="Roboto" font-size="15" id="we donât use the crosscoder values after this layer" letter-spacing="0em" style="white-space: pre" xml:space="preserve"><tspan x="880.433" y="232.127">we don’t use the </tspan><tspan x="873.797" y="248.127">crosscoder values </tspan><tspan x="886.973" y="264.127">after this layer</tspan></text>
<g id="delete_24dp_5F6368_FILL0_wght400_GRAD0_opsz24 1">
<path d="M930 298C929.45 298 928.979 297.804 928.587 297.413C928.196 297.021 928 296.55 928 296V283H927V281H932V280H938V281H943V283H942V296C942 296.55 941.804 297.021 941.413 297.413C941.021 297.804 940.55 298 940 298H930ZM940 283H930V296H940V283ZM932 294H934V285H932V294ZM936 294H938V285H936V294Z" fill="#5F6368" id="Vector_9"/>
</g>
<g id="Group 611">
<circle cx="669.5" cy="489.5" fill="#E6E3D6" id="Ellipse 1_5" r="16.5" stroke="#B8B6AD" stroke-width="2"/>
<text fill="#706D5C" font-family="Roboto" font-size="24" id="+_5" letter-spacing="0em" style="white-space: pre" xml:space="preserve"><tspan x="663.191" y="497.703">+</tspan></text>
</g>
<g id="Group 602">
<circle cx="669.5" cy="341.5" fill="#E6E3D6" id="Ellipse 1_6" r="16.5" stroke="#B8B6AD" stroke-width="2"/>
<text fill="#706D5C" font-family="Roboto" font-size="24" id="+_6" letter-spacing="0em" style="white-space: pre" xml:space="preserve"><tspan x="663.191" y="349.703">+</tspan></text>
</g>
<g id="Group 612">
<circle cx="119.5" cy="341.5" fill="#E6E3D6" id="Ellipse 1_7" r="16.5" stroke="#B8B6AD" stroke-width="2"/>
<text fill="#706D5C" font-family="Roboto" font-size="24" id="+_7" letter-spacing="0em" style="white-space: pre" xml:space="preserve"><tspan x="113.191" y="349.703">+</tspan></text>
</g>
<path d="M784 241V225C784 208.431 770.569 195 754 195H670" id="Vector 821" stroke="#B8B6AD" stroke-width="3"/>
<path d="M670 151L670 324" id="Vector 875" stroke="#CC6500" stroke-dasharray="3 6" stroke-width="3"/>
<path d="M670 324.5V309V309C670 297.044 679.693 287.351 691.649 287.351H708" id="Vector 876" stroke="#CC6500" stroke-dasharray="3 6" stroke-width="3"/>
<path d="M784 241L792.66 256H775.34L784 241ZM708 285.851H709.533V288.851H708V285.851ZM715.667 285.851H718.733V288.851H715.667V285.851ZM724.867 285.851H727.933V288.851H724.867V285.851ZM734.067 285.851H737.133V288.851H734.067V285.851ZM743.267 285.851H746.333V288.851H743.267V285.851ZM752.467 285.851H754V288.851H752.467V285.851ZM754 285.851C754.501 285.851 754.999 285.838 755.493 285.813L755.648 288.809C755.102 288.837 754.553 288.851 754 288.851V285.851ZM761.38 284.887C762.347 284.628 763.293 284.32 764.217 283.966L765.292 286.766C764.271 287.158 763.224 287.499 762.155 287.785L761.38 284.887ZM769.523 281.257C770.358 280.713 771.163 280.127 771.935 279.501L773.825 281.832C772.972 282.523 772.082 283.171 771.159 283.772L769.523 281.257ZM776.15 275.286C776.776 274.514 777.362 273.709 777.906 272.874L780.42 274.51C779.82 275.433 779.172 276.323 778.48 277.176L776.15 275.286ZM780.615 267.568C780.969 266.644 781.277 265.698 781.536 264.731L784.434 265.506C784.148 266.575 783.807 267.622 783.415 268.643L780.615 267.568ZM782.462 258.844C782.487 258.35 782.5 257.852 782.5 257.351H785.5C785.5 257.904 785.486 258.453 785.458 258.999L782.462 258.844ZM782.5 257.351V255.988H785.5V257.351H782.5ZM782.5 250.538V247.813H785.5V250.538H782.5Z" fill="#CC6500" id="Vector 877"/>
<path d="M784 241V225C784 208.431 770.569 195 754 195H670" id="Vector 878" stroke="#CC6500" stroke-dasharray="3 6" stroke-width="3"/>
<path d="M935 510V504C935 495.716 928.284 489 920 489H861" id="Vector 826" stroke="#CC6500" stroke-width="3"/>
<path d="M689 341L704 349.66V332.34L689 341ZM798.369 339.5H702.5V342.5H798.369V339.5ZM936.58 511V489H933.58V511H936.58ZM936.58 489V371H933.58V489H936.58ZM905.08 339.5H798.369V342.5H905.08V339.5ZM936.58 371C936.58 353.603 922.477 339.5 905.08 339.5V342.5C920.82 342.5 933.58 355.26 933.58 371H936.58Z" fill="#CC6500" id="Vector 828"/>
<g id="CircuitNode_7">
<g id="Group 286_7">
<g id="Frame 88_7">
<rect fill="#E6E3D6" height="42" rx="5" width="105" x="709" y="218"/>
<rect height="42" rx="5" stroke="#B8B6AD" stroke-width="2" width="105" x="709" y="218"/>
<g id="MLP_6" style="mix-blend-mode:multiply">
<text fill="black" font-family="Roboto" font-size="19" letter-spacing="0em" style="white-space: pre" xml:space="preserve"><tspan x="716.092" y="245.494">MLP</tspan></text>
</g>
<g id="Ellipse 250_6" style="mix-blend-mode:multiply">
<rect fill="#F6F6F3" height="16" id="Rectangle 429_11" rx="4" stroke="#B8B6AD" stroke-width="2" width="16" x="764" y="231"/>
</g>
<g id="Ellipse 251_6" style="mix-blend-mode:multiply">
<rect fill="#F6F6F3" height="16" id="Rectangle 429_12" rx="4" stroke="#B8B6AD" stroke-width="2" width="16" x="790" y="231"/>
</g>
</g>
</g>
</g>
<g id="Group 606">
<circle cx="669.5" cy="195.5" fill="#E6E3D6" id="Ellipse 1_8" r="16.5" stroke="#B8B6AD" stroke-width="2"/>
<text fill="#706D5C" font-family="Roboto" font-size="24" id="+_8" letter-spacing="0em" style="white-space: pre" xml:space="preserve"><tspan x="663.191" y="203.703">+</tspan></text>
</g>
<g id="Group 613">
<text fill="black" font-family="Roboto" font-size="18" id="M" letter-spacing="0em" style="white-space: pre" xml:space="preserve"><tspan x="954" y="541.652">M</tspan></text>
<path d="M939 532L946.5 539.5" id="Vector 869_2" stroke="#141413"/>
<path d="M946.5 532L939 539.5" id="Vector 870_2" stroke="#141413"/>
</g>
<text fill="#4D4D4D" font-family="Roboto" font-size="13" id="Figure 00: A schematic of multiplicative patching." letter-spacing="0em" style="white-space: pre" xml:space="preserve"><tspan x="15" y="841.443">Figure 00: A schematic of multiplicative patching.</tspan></text>
</g>
</svg>