<?xml version="1.0" encoding="utf-8"?>
<svg fill="none" height="837" viewBox="0 0 1304 837" width="1304" xmlns="http://www.w3.org/2000/svg">
<g id="feature-overlap-svg">
<rect fill="white" height="837" width="1304"/>
<g clip-path="url(#clip0_1170_5472)" id="Frame">
<g id="Group">
<path d="M1254 73.4167H120.363V767.583H1254V73.4167Z" fill="#F1F1F1" id="Vector"/>
<g id="Group_2">
<g id="Group_3">
<text fill="black" font-family="Inter" font-size="20" id="300k features" letter-spacing="0em" style="white-space: pre" xml:space="preserve"><tspan x="167.731" y="789.401">300k features</tspan></text>
<path d="M233.727 767.583V73.4167" id="Vector_2" stroke="white"/>
</g>
<g id="Group_4">
<text fill="black" font-family="Inter" font-size="20" id="1m features" letter-spacing="0em" style="white-space: pre" xml:space="preserve"><tspan x="405.425" y="789.401">1m features</tspan></text>
<path d="M460.455 767.583V73.4167" id="Vector_3" stroke="white"/>
</g>
<g id="Group_5">
<text fill="black" font-family="Inter" font-size="20" id="3m features" letter-spacing="0em" style="white-space: pre" xml:space="preserve"><tspan x="630.434" y="789.401">3m features</tspan></text>
<path d="M687.182 767.583V73.4167" id="Vector_4" stroke="white"/>
</g>
<g id="Group_6">
<text fill="black" font-family="Inter" font-size="20" id="10m features" letter-spacing="0em" style="white-space: pre" xml:space="preserve"><tspan x="852.629" y="789.401">10m features</tspan></text>
<path d="M913.908 767.583V73.4167" id="Vector_5" stroke="white"/>
</g>
<g id="Group_7">
<text fill="black" font-family="Inter" font-size="20" id="30m features" letter-spacing="0em" style="white-space: pre" xml:space="preserve"><tspan x="1077.64" y="789.401">30m features</tspan></text>
<path d="M1140.64 767.583V73.4167" id="Vector_6" stroke="white"/>
</g>
</g>
<g id="Group_8">
<g id="Group_9">
<text fill="black" font-family="Inter" font-size="15" id="1" letter-spacing="0em" style="white-space: pre" xml:space="preserve"><tspan x="106.588" y="716.456">1</tspan></text>
<path d="M120.363 709.736H1254" id="Vector_7" stroke="white"/>
</g>
<g id="Group_10">
<text fill="black" font-family="Inter" font-size="15" id="2" letter-spacing="0em" style="white-space: pre" xml:space="preserve"><tspan x="104.478" y="600.762">2</tspan></text>
<path d="M120.361 594.042H1254" id="Vector_8" stroke="white"/>
</g>
<g id="Group_11">
<text fill="black" font-family="Inter" font-size="15" id="3" letter-spacing="0em" style="white-space: pre" xml:space="preserve"><tspan x="104.01" y="485.067">3</tspan></text>
<path d="M120.361 478.347H1254" id="Vector_9" stroke="white"/>
</g>
<g id="Group_12">
<text fill="black" font-family="Inter" font-size="15" id="4" letter-spacing="0em" style="white-space: pre" xml:space="preserve"><tspan x="103.936" y="369.373">4</tspan></text>
<path d="M120.361 362.653H1254" id="Vector_10" stroke="white"/>
</g>
<g id="Group_13">
<text fill="black" font-family="Inter" font-size="15" id="5" letter-spacing="0em" style="white-space: pre" xml:space="preserve"><tspan x="104.434" y="253.678">5</tspan></text>
<path d="M120.361 246.958H1254" id="Vector_11" stroke="white"/>
</g>
<g id="Group_14">
<text fill="black" font-family="Inter" font-size="15" id="6" letter-spacing="0em" style="white-space: pre" xml:space="preserve"><tspan x="104.2" y="137.984">6</tspan></text>
<path d="M120.361 131.264H1254" id="Vector_12" stroke="white"/>
</g>
<g id="Group_15">
<text fill="black" font-family="Inter" font-size="20" id="Number of prompts a given feature activates on" letter-spacing="0em" style="white-space: pre" transform="matrix(0 -1 1 0 29.6719 670.494)" xml:space="preserve"><tspan x="18.554" y="19.2727">Number of prompts a given feature activates on</tspan></text>
</g>
</g>
<g id="Group_16">
<text fill="black" font-family="Inter" font-size="24" id="Say âduringâ feature overlap over twelve prompts" letter-spacing="0em" style="white-space: pre" xml:space="preserve"><tspan x="409.774" y="45.7385">Say “during” feature overlap over twelve prompts</tspan></text>
</g>
<path d="M225.228 251.799C227.983 251.799 230.216 249.52 230.216 246.708C230.216 243.897 227.983 241.618 225.228 241.618C222.473 241.618 220.24 243.897 220.24 246.708C220.24 249.52 222.473 251.799 225.228 251.799Z" fill="black" id="Vector_13"/>
<path d="M241.631 139.551C244.385 139.551 246.619 137.272 246.619 134.461C246.619 131.649 244.385 129.37 241.631 129.37C238.876 129.37 236.643 131.649 236.643 134.461C236.643 137.272 238.876 139.551 241.631 139.551Z" fill="black" id="Vector_14"/>
<path d="M239.896 605.102C242.651 605.102 244.884 602.823 244.884 600.012C244.884 597.2 242.651 594.921 239.896 594.921C237.141 594.921 234.908 597.2 234.908 600.012C234.908 602.823 237.141 605.102 239.896 605.102Z" fill="black" id="Vector_15"/>
<path d="M242.101 243.243C244.856 243.243 247.089 240.964 247.089 238.153C247.089 235.341 244.856 233.062 242.101 233.062C239.346 233.062 237.113 235.341 237.113 238.153C237.113 240.964 239.346 243.243 242.101 243.243Z" fill="black" id="Vector_16"/>
<path d="M234.59 267.052C237.344 267.052 239.578 264.773 239.578 261.962C239.578 259.15 237.344 256.871 234.59 256.871C231.835 256.871 229.602 259.15 229.602 261.962C229.602 264.773 231.835 267.052 234.59 267.052Z" fill="black" id="Vector_17"/>
<path d="M225.873 371.068C228.628 371.068 230.861 368.789 230.861 365.977C230.861 363.166 228.628 360.887 225.873 360.887C223.118 360.887 220.885 363.166 220.885 365.977C220.885 368.789 223.118 371.068 225.873 371.068Z" fill="black" id="Vector_18"/>
<path d="M237.832 356.21C240.587 356.21 242.82 353.931 242.82 351.119C242.82 348.308 240.587 346.029 237.832 346.029C235.077 346.029 232.844 348.308 232.844 351.119C232.844 353.931 235.077 356.21 237.832 356.21Z" fill="black" id="Vector_19"/>
<path d="M221.732 599.996C224.487 599.996 226.72 597.717 226.72 594.905C226.72 592.094 224.487 589.815 221.732 589.815C218.977 589.815 216.744 592.094 216.744 594.905C216.744 597.717 218.977 599.996 221.732 599.996Z" fill="black" id="Vector_20"/>
<path d="M242.884 587.363C245.639 587.363 247.872 585.084 247.872 582.273C247.872 579.461 245.639 577.182 242.884 577.182C240.13 577.182 237.896 579.461 237.896 582.273C237.896 585.084 240.13 587.363 242.884 587.363Z" fill="black" id="Vector_21"/>
<path d="M236.402 616.27C239.157 616.27 241.39 613.991 241.39 611.18C241.39 608.368 239.157 606.089 236.402 606.089C233.647 606.089 231.414 608.368 231.414 611.18C231.414 613.991 233.647 616.27 236.402 616.27Z" fill="black" id="Vector_22"/>
<path d="M217.863 588.44C220.618 588.44 222.851 586.161 222.851 583.349C222.851 580.538 220.618 578.259 217.863 578.259C215.108 578.259 212.875 580.538 212.875 583.349C212.875 586.161 215.108 588.44 217.863 588.44Z" fill="black" id="Vector_23"/>
<path d="M239.383 721.305C242.137 721.305 244.371 719.026 244.371 716.215C244.371 713.403 242.137 711.124 239.383 711.124C236.628 711.124 234.395 713.403 234.395 716.215C234.395 719.026 236.628 721.305 239.383 721.305Z" fill="black" id="Vector_24"/>
<path d="M221.703 714.657C224.458 714.657 226.691 712.378 226.691 709.567C226.691 706.755 224.458 704.476 221.703 704.476C218.948 704.476 216.715 706.755 216.715 709.567C216.715 712.378 218.948 714.657 221.703 714.657Z" fill="black" id="Vector_25"/>
<path d="M243.824 703.886C246.579 703.886 248.812 701.607 248.812 698.796C248.812 695.984 246.579 693.705 243.824 693.705C241.069 693.705 238.836 695.984 238.836 698.796C238.836 701.607 241.069 703.886 243.824 703.886Z" fill="black" id="Vector_26"/>
<path d="M234.978 732.134C237.733 732.134 239.966 729.855 239.966 727.043C239.966 724.232 237.733 721.953 234.978 721.953C232.223 721.953 229.99 724.232 229.99 727.043C229.99 729.855 232.223 732.134 234.978 732.134Z" fill="black" id="Vector_27"/>
<path d="M253.927 593.967C256.682 593.967 258.915 591.688 258.915 588.876C258.915 586.065 256.682 583.786 253.927 583.786C251.173 583.786 248.939 586.065 248.939 588.876C248.939 591.688 251.173 593.967 253.927 593.967Z" fill="black" id="Vector_28"/>
<path d="M223.019 619.322C225.774 619.322 228.007 617.043 228.007 614.231C228.007 611.42 225.774 609.141 223.019 609.141C220.264 609.141 218.031 611.42 218.031 614.231C218.031 617.043 220.264 619.322 223.019 619.322Z" fill="black" id="Vector_29"/>
<path d="M225.865 575.938C228.62 575.938 230.853 573.659 230.853 570.848C230.853 568.036 228.62 565.757 225.865 565.757C223.11 565.757 220.877 568.036 220.877 570.848C220.877 573.659 223.11 575.938 225.865 575.938Z" fill="black" id="Vector_30"/>
<path d="M218.801 702.81C221.555 702.81 223.788 700.531 223.788 697.719C223.788 694.908 221.555 692.629 218.801 692.629C216.046 692.629 213.812 694.908 213.812 697.719C213.812 700.531 216.046 702.81 218.801 702.81Z" fill="black" id="Vector_31"/>
<path d="M254.283 711.414C257.038 711.414 259.271 709.135 259.271 706.324C259.271 703.512 257.038 701.233 254.283 701.233C251.528 701.233 249.295 703.512 249.295 706.324C249.295 709.135 251.528 711.414 254.283 711.414Z" fill="black" id="Vector_32"/>
<path d="M459.789 243.398C462.544 243.398 464.777 241.119 464.777 238.308C464.777 235.496 462.544 233.217 459.789 233.217C457.034 233.217 454.801 235.496 454.801 238.308C454.801 241.119 457.034 243.398 459.789 243.398Z" fill="black" id="Vector_33"/>
<path d="M451.992 484.275C454.747 484.275 456.98 481.995 456.98 479.184C456.98 476.373 454.747 474.094 451.992 474.094C449.237 474.094 447.004 476.373 447.004 479.184C447.004 481.995 449.237 484.275 451.992 484.275Z" fill="black" id="Vector_34"/>
<path d="M467.683 473.632C470.438 473.632 472.671 471.353 472.671 468.542C472.671 465.73 470.438 463.451 467.683 463.451C464.929 463.451 462.695 465.73 462.695 468.542C462.695 471.353 464.929 473.632 467.683 473.632Z" fill="black" id="Vector_35"/>
<path d="M461.701 723.41C464.456 723.41 466.689 721.131 466.689 718.319C466.689 715.508 464.456 713.229 461.701 713.229C458.946 713.229 456.713 715.508 456.713 718.319C456.713 721.131 458.946 723.41 461.701 723.41Z" fill="black" id="Vector_36"/>
<path d="M450.492 707.956C453.247 707.956 455.48 705.676 455.48 702.865C455.48 700.054 453.247 697.774 450.492 697.774C447.737 697.774 445.504 700.054 445.504 702.865C445.504 705.676 447.737 707.956 450.492 707.956Z" fill="black" id="Vector_37"/>
<path d="M474.775 711.33C477.53 711.33 479.763 709.051 479.763 706.239C479.763 703.428 477.53 701.149 474.775 701.149C472.02 701.149 469.787 703.428 469.787 706.239C469.787 709.051 472.02 711.33 474.775 711.33Z" fill="black" id="Vector_38"/>
<path d="M458.722 607.628C461.477 607.628 463.71 605.349 463.71 602.537C463.71 599.726 461.477 597.447 458.722 597.447C455.968 597.447 453.734 599.726 453.734 602.537C453.734 605.349 455.968 607.628 458.722 607.628Z" fill="black" id="Vector_39"/>
<path d="M453.427 589.175C456.182 589.175 458.415 586.896 458.415 584.084C458.415 581.273 456.182 578.994 453.427 578.994C450.673 578.994 448.439 581.273 448.439 584.084C448.439 586.896 450.673 589.175 453.427 589.175Z" fill="black" id="Vector_40"/>
<path d="M469.927 259.605C472.682 259.605 474.915 257.326 474.915 254.515C474.915 251.703 472.682 249.424 469.927 249.424C467.173 249.424 464.939 251.703 464.939 254.515C464.939 257.326 467.173 259.605 469.927 259.605Z" fill="black" id="Vector_41"/>
<path d="M457.054 359.79C459.809 359.79 462.042 357.511 462.042 354.7C462.042 351.888 459.809 349.609 457.054 349.609C454.3 349.609 452.066 351.888 452.066 354.7C452.066 357.511 454.3 359.79 457.054 359.79Z" fill="black" id="Vector_42"/>
<path d="M475.078 600.894C477.833 600.894 480.066 598.615 480.066 595.803C480.066 592.992 477.833 590.713 475.078 590.713C472.323 590.713 470.09 592.992 470.09 595.803C470.09 598.615 472.323 600.894 475.078 600.894Z" fill="black" id="Vector_43"/>
<path d="M463.15 498.213C465.905 498.213 468.138 495.934 468.138 493.123C468.138 490.311 465.905 488.032 463.15 488.032C460.395 488.032 458.162 490.311 458.162 493.123C458.162 495.934 460.395 498.213 463.15 498.213Z" fill="black" id="Vector_44"/>
<path d="M446.025 474.256C448.78 474.256 451.013 471.977 451.013 469.166C451.013 466.354 448.78 464.075 446.025 464.075C443.27 464.075 441.037 466.354 441.037 469.166C441.037 471.977 443.27 474.256 446.025 474.256Z" fill="black" id="Vector_45"/>
<path d="M447.576 610.466C450.331 610.466 452.564 608.187 452.564 605.376C452.564 602.564 450.331 600.285 447.576 600.285C444.821 600.285 442.588 602.564 442.588 605.376C442.588 608.187 444.821 610.466 447.576 610.466Z" fill="black" id="Vector_46"/>
<path d="M452.201 729.999C454.956 729.999 457.189 727.72 457.189 724.909C457.189 722.097 454.956 719.818 452.201 719.818C449.446 719.818 447.213 722.097 447.213 724.909C447.213 727.72 449.446 729.999 452.201 729.999Z" fill="black" id="Vector_47"/>
<path d="M478.767 478.232C481.522 478.232 483.755 475.953 483.755 473.141C483.755 470.33 481.522 468.051 478.767 468.051C476.013 468.051 473.779 470.33 473.779 473.141C473.779 475.953 476.013 478.232 478.767 478.232Z" fill="black" id="Vector_48"/>
<path d="M451.021 502.388C453.776 502.388 456.009 500.109 456.009 497.297C456.009 494.486 453.776 492.207 451.021 492.207C448.266 492.207 446.033 494.486 446.033 497.297C446.033 500.109 448.266 502.388 451.021 502.388Z" fill="black" id="Vector_49"/>
<path d="M454.431 696.424C457.186 696.424 459.419 694.145 459.419 691.333C459.419 688.522 457.186 686.243 454.431 686.243C451.677 686.243 449.443 688.522 449.443 691.333C449.443 694.145 451.677 696.424 454.431 696.424Z" fill="black" id="Vector_50"/>
<path d="M479.476 723.479C482.231 723.479 484.464 721.2 484.464 718.388C484.464 715.577 482.231 713.298 479.476 713.298C476.721 713.298 474.488 715.577 474.488 718.388C474.488 721.2 476.721 723.479 479.476 723.479Z" fill="black" id="Vector_51"/>
<path d="M439.822 723.976C442.577 723.976 444.81 721.697 444.81 718.885C444.81 716.074 442.577 713.795 439.822 713.795C437.067 713.795 434.834 716.074 434.834 718.885C434.834 721.697 437.067 723.976 439.822 723.976Z" fill="black" id="Vector_52"/>
<path d="M461.023 579.738C463.778 579.738 466.011 577.459 466.011 574.648C466.011 571.836 463.778 569.557 461.023 569.557C458.268 569.557 456.035 571.836 456.035 574.648C456.035 577.459 458.268 579.738 461.023 579.738Z" fill="black" id="Vector_53"/>
<path d="M468.285 691.622C471.04 691.622 473.273 689.343 473.273 686.532C473.273 683.72 471.04 681.441 468.285 681.441C465.53 681.441 463.297 683.72 463.297 686.532C463.297 689.343 465.53 691.622 468.285 691.622Z" fill="black" id="Vector_54"/>
<path d="M472.625 737.703C475.38 737.703 477.613 735.424 477.613 732.613C477.613 729.801 475.38 727.522 472.625 727.522C469.87 727.522 467.637 729.801 467.637 732.613C467.637 735.424 469.87 737.703 472.625 737.703Z" fill="black" id="Vector_55"/>
<path d="M434.365 708.193C437.12 708.193 439.353 705.914 439.353 703.102C439.353 700.291 437.12 698.012 434.365 698.012C431.61 698.012 429.377 700.291 429.377 703.102C429.377 705.914 431.61 708.193 434.365 708.193Z" fill="black" id="Vector_56"/>
<path d="M475.383 613.952C478.137 613.952 480.371 611.673 480.371 608.862C480.371 606.05 478.137 603.771 475.383 603.771C472.628 603.771 470.395 606.05 470.395 608.862C470.395 611.673 472.628 613.952 475.383 613.952Z" fill="black" id="Vector_57"/>
<path d="M437.996 600.454C440.751 600.454 442.984 598.174 442.984 595.363C442.984 592.552 440.751 590.272 437.996 590.272C435.241 590.272 433.008 592.552 433.008 595.363C433.008 598.174 435.241 600.454 437.996 600.454Z" fill="black" id="Vector_58"/>
<path d="M452.547 461.946C455.301 461.946 457.535 459.666 457.535 456.855C457.535 454.044 455.301 451.764 452.547 451.764C449.792 451.764 447.559 454.044 447.559 456.855C447.559 459.666 449.792 461.946 452.547 461.946Z" fill="black" id="Vector_59"/>
<path d="M483.965 698.936C486.719 698.936 488.953 696.657 488.953 693.845C488.953 691.034 486.719 688.755 483.965 688.755C481.21 688.755 478.977 691.034 478.977 693.845C478.977 696.657 481.21 698.936 483.965 698.936Z" fill="black" id="Vector_60"/>
<path d="M455.859 744.517C458.614 744.517 460.847 742.238 460.847 739.426C460.847 736.615 458.614 734.336 455.859 734.336C453.104 734.336 450.871 736.615 450.871 739.426C450.871 742.238 453.104 744.517 455.859 744.517Z" fill="black" id="Vector_61"/>
<path d="M441.357 690.353C444.112 690.353 446.345 688.074 446.345 685.263C446.345 682.451 444.112 680.172 441.357 680.172C438.602 680.172 436.369 682.451 436.369 685.263C436.369 688.074 438.602 690.353 441.357 690.353Z" fill="black" id="Vector_62"/>
<path d="M492.191 717.069C494.946 717.069 497.179 714.79 497.179 711.978C497.179 709.167 494.946 706.888 492.191 706.888C489.436 706.888 487.203 709.167 487.203 711.978C487.203 714.79 489.436 717.069 492.191 717.069Z" fill="black" id="Vector_63"/>
<path d="M436.588 737.98C439.342 737.98 441.576 735.701 441.576 732.89C441.576 730.078 439.342 727.799 436.588 727.799C433.833 727.799 431.6 730.078 431.6 732.89C431.6 735.701 433.833 737.98 436.588 737.98Z" fill="black" id="Vector_64"/>
<path d="M459.828 680.124C462.583 680.124 464.816 677.845 464.816 675.034C464.816 672.222 462.583 669.943 459.828 669.943C457.073 669.943 454.84 672.222 454.84 675.034C454.84 677.845 457.073 680.124 459.828 680.124Z" fill="black" id="Vector_65"/>
<path d="M486.734 738.503C489.489 738.503 491.722 736.224 491.722 733.413C491.722 730.601 489.489 728.322 486.734 728.322C483.979 728.322 481.746 730.601 481.746 733.413C481.746 736.224 483.979 738.503 486.734 738.503Z" fill="black" id="Vector_66"/>
<path d="M424.584 718.72C427.338 718.72 429.572 716.441 429.572 713.63C429.572 710.818 427.338 708.539 424.584 708.539C421.829 708.539 419.596 710.818 419.596 713.63C419.596 716.441 421.829 718.72 424.584 718.72Z" fill="black" id="Vector_67"/>
<path d="M482.457 684.392C485.212 684.392 487.445 682.113 487.445 679.301C487.445 676.49 485.212 674.211 482.457 674.211C479.702 674.211 477.469 676.49 477.469 679.301C477.469 682.113 479.702 684.392 482.457 684.392Z" fill="black" id="Vector_68"/>
<path d="M467.765 752.908C470.52 752.908 472.753 750.629 472.753 747.817C472.753 745.006 470.52 742.727 467.765 742.727C465.011 742.727 462.777 745.006 462.777 747.817C462.777 750.629 465.011 752.908 467.765 752.908Z" fill="black" id="Vector_69"/>
<path d="M692.754 258.603C695.508 258.603 697.742 256.324 697.742 253.512C697.742 250.701 695.508 248.422 692.754 248.422C689.999 248.422 687.766 250.701 687.766 253.512C687.766 256.324 689.999 258.603 692.754 258.603Z" fill="black" id="Vector_70"/>
<path d="M675.162 251.718C677.917 251.718 680.15 249.439 680.15 246.628C680.15 243.816 677.917 241.537 675.162 241.537C672.407 241.537 670.174 243.816 670.174 246.628C670.174 249.439 672.407 251.718 675.162 251.718Z" fill="black" id="Vector_71"/>
<path d="M684.226 590.996C686.981 590.996 689.214 588.717 689.214 585.905C689.214 583.094 686.981 580.815 684.226 580.815C681.471 580.815 679.238 583.094 679.238 585.905C679.238 588.717 681.471 590.996 684.226 590.996Z" fill="black" id="Vector_72"/>
<path d="M692.41 476.596C695.165 476.596 697.398 474.317 697.398 471.506C697.398 468.694 695.165 466.415 692.41 466.415C689.655 466.415 687.422 468.694 687.422 471.506C687.422 474.317 689.655 476.596 692.41 476.596Z" fill="black" id="Vector_73"/>
<path d="M691.297 722.419C694.051 722.419 696.285 720.14 696.285 717.329C696.285 714.517 694.051 712.238 691.297 712.238C688.542 712.238 686.309 714.517 686.309 717.329C686.309 720.14 688.542 722.419 691.297 722.419Z" fill="black" id="Vector_74"/>
<path d="M697.418 241.245C700.172 241.245 702.406 238.965 702.406 236.154C702.406 233.343 700.172 231.063 697.418 231.063C694.663 231.063 692.43 233.343 692.43 236.154C692.43 238.965 694.663 241.245 697.418 241.245Z" fill="black" id="Vector_75"/>
<path d="M688.211 269.371C690.965 269.371 693.199 267.092 693.199 264.281C693.199 261.469 690.965 259.19 688.211 259.19C685.456 259.19 683.223 261.469 683.223 264.281C683.223 267.092 685.456 269.371 688.211 269.371Z" fill="black" id="Vector_76"/>
<path d="M689.175 495.539C691.93 495.539 694.163 493.26 694.163 490.448C694.163 487.637 691.93 485.358 689.175 485.358C686.421 485.358 684.188 487.637 684.188 490.448C684.188 493.26 686.421 495.539 689.175 495.539Z" fill="black" id="Vector_77"/>
<path d="M674.822 475.266C677.577 475.266 679.81 472.986 679.81 470.175C679.81 467.364 677.577 465.084 674.822 465.084C672.067 465.084 669.834 467.364 669.834 470.175C669.834 472.986 672.067 475.266 674.822 475.266Z" fill="black" id="Vector_78"/>
<path d="M698.316 603.761C701.071 603.761 703.304 601.482 703.304 598.671C703.304 595.859 701.071 593.58 698.316 593.58C695.561 593.58 693.328 595.859 693.328 598.671C693.328 601.482 695.561 603.761 698.316 603.761Z" fill="black" id="Vector_79"/>
<path d="M673.873 605.566C676.628 605.566 678.861 603.287 678.861 600.476C678.861 597.664 676.628 595.385 673.873 595.385C671.118 595.385 668.885 597.664 668.885 600.476C668.885 603.287 671.118 605.566 673.873 605.566Z" fill="black" id="Vector_80"/>
<path d="M703.638 479.073C706.393 479.073 708.626 476.794 708.626 473.982C708.626 471.171 706.393 468.892 703.638 468.892C700.884 468.892 698.65 471.171 698.65 473.982C698.65 476.794 700.884 479.073 703.638 479.073Z" fill="black" id="Vector_81"/>
<path d="M678.277 500.581C681.032 500.581 683.265 498.302 683.265 495.491C683.265 492.679 681.032 490.4 678.277 490.4C675.522 490.4 673.289 492.679 673.289 495.491C673.289 498.302 675.522 500.581 678.277 500.581Z" fill="black" id="Vector_82"/>
<path d="M680.201 463.413C682.956 463.413 685.189 461.134 685.189 458.322C685.189 455.511 682.956 453.232 680.201 453.232C677.446 453.232 675.213 455.511 675.213 458.322C675.213 461.134 677.446 463.413 680.201 463.413Z" fill="black" id="Vector_83"/>
<path d="M692.193 582.549C694.948 582.549 697.181 580.27 697.181 577.459C697.181 574.647 694.948 572.368 692.193 572.368C689.438 572.368 687.205 574.647 687.205 577.459C687.205 580.27 689.438 582.549 692.193 582.549Z" fill="black" id="Vector_84"/>
<path d="M675.492 711.954C678.247 711.954 680.48 709.675 680.48 706.864C680.48 704.052 678.247 701.773 675.492 701.773C672.737 701.773 670.504 704.052 670.504 706.864C670.504 709.675 672.737 711.954 675.492 711.954Z" fill="black" id="Vector_85"/>
<path d="M699.394 706.429C702.149 706.429 704.382 704.15 704.382 701.339C704.382 698.527 702.149 696.248 699.394 696.248C696.639 696.248 694.406 698.527 694.406 701.339C694.406 704.15 696.639 706.429 699.394 706.429Z" fill="black" id="Vector_86"/>
<path d="M684.66 731.989C687.415 731.989 689.648 729.71 689.648 726.899C689.648 724.087 687.415 721.808 684.66 721.808C681.905 721.808 679.672 724.087 679.672 726.899C679.672 729.71 681.905 731.989 684.66 731.989Z" fill="black" id="Vector_87"/>
<path d="M675.22 699.745C677.975 699.745 680.208 697.466 680.208 694.654C680.208 691.843 677.975 689.564 675.22 689.564C672.466 689.564 670.232 691.843 670.232 694.654C670.232 697.466 672.466 699.745 675.22 699.745Z" fill="black" id="Vector_88"/>
<path d="M707.968 716.127C710.723 716.127 712.956 713.848 712.956 711.037C712.956 708.225 710.723 705.946 707.968 705.946C705.214 705.946 702.98 708.225 702.98 711.037C702.98 713.848 705.214 716.127 707.968 716.127Z" fill="black" id="Vector_89"/>
<path d="M671 730.774C673.755 730.774 675.988 728.495 675.988 725.684C675.988 722.872 673.755 720.593 671 720.593C668.245 720.593 666.012 722.872 666.012 725.684C666.012 728.495 668.245 730.774 671 730.774Z" fill="black" id="Vector_90"/>
<path d="M686.549 690.293C689.303 690.293 691.537 688.014 691.537 685.202C691.537 682.391 689.303 680.112 686.549 680.112C683.794 680.112 681.561 682.391 681.561 685.202C681.561 688.014 683.794 690.293 686.549 690.293Z" fill="black" id="Vector_91"/>
<path d="M706.435 731.899C709.19 731.899 711.423 729.62 711.423 726.809C711.423 723.997 709.19 721.718 706.435 721.718C703.68 721.718 701.447 723.997 701.447 726.809C701.447 729.62 703.68 731.899 706.435 731.899Z" fill="black" id="Vector_92"/>
<path d="M696.791 615.874C699.546 615.874 701.779 613.595 701.779 610.783C701.779 607.972 699.546 605.693 696.791 605.693C694.036 605.693 691.803 607.972 691.803 610.783C691.803 613.595 694.036 615.874 696.791 615.874Z" fill="black" id="Vector_93"/>
<path d="M666.82 594.666C669.575 594.666 671.808 592.387 671.808 589.575C671.808 586.764 669.575 584.485 666.82 584.485C664.065 584.485 661.832 586.764 661.832 589.575C661.832 592.387 664.065 594.666 666.82 594.666Z" fill="black" id="Vector_94"/>
<path d="M705.523 585.841C708.278 585.841 710.511 583.562 710.511 580.75C710.511 577.939 708.278 575.66 705.523 575.66C702.768 575.66 700.535 577.939 700.535 580.75C700.535 583.562 702.768 585.841 705.523 585.841Z" fill="black" id="Vector_95"/>
<path d="M707.902 492.374C710.657 492.374 712.89 490.095 712.89 487.284C712.89 484.472 710.657 482.193 707.902 482.193C705.147 482.193 702.914 484.472 702.914 487.284C702.914 490.095 705.147 492.374 707.902 492.374Z" fill="black" id="Vector_96"/>
<path d="M665.316 493.654C668.071 493.654 670.304 491.375 670.304 488.563C670.304 485.752 668.071 483.473 665.316 483.473C662.561 483.473 660.328 485.752 660.328 488.563C660.328 491.375 662.561 493.654 665.316 493.654Z" fill="black" id="Vector_97"/>
<path d="M681.113 361.665C683.868 361.665 686.101 359.386 686.101 356.575C686.101 353.763 683.868 351.484 681.113 351.484C678.358 351.484 676.125 353.763 676.125 356.575C676.125 359.386 678.358 361.665 681.113 361.665Z" fill="black" id="Vector_98"/>
<path d="M660.468 717.944C663.223 717.944 665.456 715.665 665.456 712.853C665.456 710.042 663.223 707.763 660.468 707.763C657.714 707.763 655.48 710.042 655.48 712.853C655.48 715.665 657.714 717.944 660.468 717.944Z" fill="black" id="Vector_99"/>
<path d="M703.744 691.535C706.499 691.535 708.732 689.256 708.732 686.445C708.732 683.633 706.499 681.354 703.744 681.354C700.989 681.354 698.756 683.633 698.756 686.445C698.756 689.256 700.989 691.535 703.744 691.535Z" fill="black" id="Vector_100"/>
<path d="M684.203 623.486C686.958 623.486 689.191 621.207 689.191 618.395C689.191 615.584 686.958 613.305 684.203 613.305C681.448 613.305 679.215 615.584 679.215 618.395C679.215 621.207 681.448 623.486 684.203 623.486Z" fill="black" id="Vector_101"/>
<path d="M695.017 458.666C697.772 458.666 700.005 456.387 700.005 453.575C700.005 450.764 697.772 448.485 695.017 448.485C692.263 448.485 690.029 450.764 690.029 453.575C690.029 456.387 692.263 458.666 695.017 458.666Z" fill="black" id="Vector_102"/>
<path d="M693.072 744.278C695.827 744.278 698.06 741.998 698.06 739.187C698.06 736.376 695.827 734.096 693.072 734.096C690.317 734.096 688.084 736.376 688.084 739.187C688.084 741.998 690.317 744.278 693.072 744.278Z" fill="black" id="Vector_103"/>
<path d="M660.892 698.735C663.647 698.735 665.88 696.456 665.88 693.645C665.88 690.833 663.647 688.554 660.892 688.554C658.138 688.554 655.904 690.833 655.904 693.645C655.904 696.456 658.138 698.735 660.892 698.735Z" fill="black" id="Vector_104"/>
<path d="M717.675 705.576C720.43 705.576 722.663 703.297 722.663 700.486C722.663 697.674 720.43 695.395 717.675 695.395C714.921 695.395 712.688 697.674 712.688 700.486C712.688 703.297 714.921 705.576 717.675 705.576Z" fill="black" id="Vector_105"/>
<path d="M670.652 579.307C673.407 579.307 675.64 577.027 675.64 574.216C675.64 571.405 673.407 569.125 670.652 569.125C667.897 569.125 665.664 571.405 665.664 574.216C665.664 577.027 667.897 579.307 670.652 579.307Z" fill="black" id="Vector_106"/>
<path d="M714.049 600.137C716.803 600.137 719.037 597.858 719.037 595.047C719.037 592.235 716.803 589.956 714.049 589.956C711.294 589.956 709.061 592.235 709.061 595.047C709.061 597.858 711.294 600.137 714.049 600.137Z" fill="black" id="Vector_107"/>
<path d="M672.777 745.048C675.532 745.048 677.765 742.769 677.765 739.957C677.765 737.146 675.532 734.867 672.777 734.867C670.022 734.867 667.789 737.146 667.789 739.957C667.789 742.769 670.022 745.048 672.777 745.048Z" fill="black" id="Vector_108"/>
<path d="M674.677 682.549C677.432 682.549 679.665 680.27 679.665 677.459C679.665 674.647 677.432 672.368 674.677 672.368C671.923 672.368 669.689 674.647 669.689 677.459C669.689 680.27 671.923 682.549 674.677 682.549Z" fill="black" id="Vector_109"/>
<path d="M719.925 727.602C722.68 727.602 724.913 725.323 724.913 722.512C724.913 719.701 722.68 717.421 719.925 717.421C717.171 717.421 714.938 719.701 714.938 722.512C714.938 725.323 717.171 727.602 719.925 727.602Z" fill="black" id="Vector_110"/>
<path d="M654.924 731.302C657.678 731.302 659.912 729.023 659.912 726.212C659.912 723.4 657.678 721.121 654.924 721.121C652.169 721.121 649.936 723.4 649.936 726.212C649.936 729.023 652.169 731.302 654.924 731.302Z" fill="black" id="Vector_111"/>
<path d="M697.338 678.453C700.092 678.453 702.326 676.173 702.326 673.362C702.326 670.551 700.092 668.271 697.338 668.271C694.583 668.271 692.35 670.551 692.35 673.362C692.35 676.173 694.583 678.453 697.338 678.453Z" fill="black" id="Vector_112"/>
<path d="M907.406 709.237C910.161 709.237 912.394 706.958 912.394 704.147C912.394 701.335 910.161 699.056 907.406 699.056C904.651 699.056 902.418 701.335 902.418 704.147C902.418 706.958 904.651 709.237 907.406 709.237Z" fill="black" id="Vector_113"/>
<path d="M925.832 713.245C928.587 713.245 930.82 710.966 930.82 708.155C930.82 705.343 928.587 703.064 925.832 703.064C923.077 703.064 920.844 705.343 920.844 708.155C920.844 710.966 923.077 713.245 925.832 713.245Z" fill="black" id="Vector_114"/>
<path d="M914.558 590.48C917.313 590.48 919.546 588.201 919.546 585.39C919.546 582.578 917.313 580.299 914.558 580.299C911.804 580.299 909.57 582.578 909.57 585.39C909.57 588.201 911.804 590.48 914.558 590.48Z" fill="black" id="Vector_115"/>
<path d="M918.564 490.699C921.319 490.699 923.552 488.42 923.552 485.608C923.552 482.797 921.319 480.518 918.564 480.518C915.809 480.518 913.576 482.797 913.576 485.608C913.576 488.42 915.809 490.699 918.564 490.699Z" fill="black" id="Vector_116"/>
<path d="M922.129 608.088C924.883 608.088 927.117 605.809 927.117 602.998C927.117 600.186 924.883 597.907 922.129 597.907C919.374 597.907 917.141 600.186 917.141 602.998C917.141 605.809 919.374 608.088 922.129 608.088Z" fill="black" id="Vector_117"/>
<path d="M905.443 727.125C908.198 727.125 910.431 724.846 910.431 722.034C910.431 719.223 908.198 716.944 905.443 716.944C902.688 716.944 900.455 719.223 900.455 722.034C900.455 724.846 902.688 727.125 905.443 727.125Z" fill="black" id="Vector_118"/>
<path d="M910.252 697.879C913.006 697.879 915.24 695.6 915.24 692.788C915.24 689.977 913.006 687.698 910.252 687.698C907.497 687.698 905.264 689.977 905.264 692.788C905.264 695.6 907.497 697.879 910.252 697.879Z" fill="black" id="Vector_119"/>
<path d="M906.144 364.209C908.899 364.209 911.132 361.93 911.132 359.118C911.132 356.307 908.899 354.028 906.144 354.028C903.389 354.028 901.156 356.307 901.156 359.118C901.156 361.93 903.389 364.209 906.144 364.209Z" fill="black" id="Vector_120"/>
<path d="M924.937 362.856C927.692 362.856 929.925 360.577 929.925 357.766C929.925 354.954 927.692 352.675 924.937 352.675C922.182 352.675 919.949 354.954 919.949 357.766C919.949 360.577 922.182 362.856 924.937 362.856Z" fill="black" id="Vector_121"/>
<path d="M902.043 481.456C904.797 481.456 907.031 479.177 907.031 476.366C907.031 473.554 904.797 471.275 902.043 471.275C899.288 471.275 897.055 473.554 897.055 476.366C897.055 479.177 899.288 481.456 902.043 481.456Z" fill="black" id="Vector_122"/>
<path d="M909.109 381.952C911.864 381.952 914.097 379.673 914.097 376.861C914.097 374.05 911.864 371.771 909.109 371.771C906.354 371.771 904.121 374.05 904.121 376.861C904.121 379.673 906.354 381.952 909.109 381.952Z" fill="black" id="Vector_123"/>
<path d="M899.183 599.299C901.938 599.299 904.171 597.02 904.171 594.209C904.171 591.397 901.938 589.118 899.183 589.118C896.429 589.118 894.195 591.397 894.195 594.209C894.195 597.02 896.429 599.299 899.183 599.299Z" fill="black" id="Vector_124"/>
<path d="M925.478 474.141C928.233 474.141 930.466 471.861 930.466 469.05C930.466 466.239 928.233 463.959 925.478 463.959C922.723 463.959 920.49 466.239 920.49 469.05C920.49 471.861 922.723 474.141 925.478 474.141Z" fill="black" id="Vector_125"/>
<path d="M912.64 500.744C915.395 500.744 917.628 498.464 917.628 495.653C917.628 492.842 915.395 490.562 912.64 490.562C909.886 490.562 907.652 492.842 907.652 495.653C907.652 498.464 909.886 500.744 912.64 500.744Z" fill="black" id="Vector_126"/>
<path d="M930.361 724.549C933.116 724.549 935.349 722.27 935.349 719.459C935.349 716.647 933.116 714.368 930.361 714.368C927.606 714.368 925.373 716.647 925.373 719.459C925.373 722.27 927.606 724.549 930.361 724.549Z" fill="black" id="Vector_127"/>
<path d="M894.039 721.195C896.794 721.195 899.027 718.916 899.027 716.104C899.027 713.293 896.794 711.014 894.039 711.014C891.284 711.014 889.051 713.293 889.051 716.104C889.051 718.916 891.284 721.195 894.039 721.195Z" fill="black" id="Vector_128"/>
<path d="M923.435 694.03C926.19 694.03 928.423 691.751 928.423 688.939C928.423 686.128 926.19 683.849 923.435 683.849C920.68 683.849 918.447 686.128 918.447 688.939C918.447 691.751 920.68 694.03 923.435 694.03Z" fill="black" id="Vector_129"/>
<path d="M923.092 737.509C925.846 737.509 928.08 735.23 928.08 732.419C928.08 729.607 925.846 727.328 923.092 727.328C920.337 727.328 918.104 729.607 918.104 732.419C918.104 735.23 920.337 737.509 923.092 737.509Z" fill="black" id="Vector_130"/>
<path d="M889.945 705.906C892.7 705.906 894.933 703.627 894.933 700.815C894.933 698.004 892.7 695.725 889.945 695.725C887.19 695.725 884.957 698.004 884.957 700.815C884.957 703.627 887.19 705.906 889.945 705.906Z" fill="black" id="Vector_131"/>
<path d="M937.763 702.171C940.518 702.171 942.751 699.892 942.751 697.081C942.751 694.269 940.518 691.99 937.763 691.99C935.009 691.99 932.775 694.269 932.775 697.081C932.775 699.892 935.009 702.171 937.763 702.171Z" fill="black" id="Vector_132"/>
<path d="M906.597 742.621C909.352 742.621 911.585 740.342 911.585 737.531C911.585 734.719 909.352 732.44 906.597 732.44C903.843 732.44 901.609 734.719 901.609 737.531C901.609 740.342 903.843 742.621 906.597 742.621Z" fill="black" id="Vector_133"/>
<path d="M925.254 586.207C928.008 586.207 930.242 583.927 930.242 581.116C930.242 578.305 928.008 576.025 925.254 576.025C922.499 576.025 920.266 578.305 920.266 581.116C920.266 583.927 922.499 586.207 925.254 586.207Z" fill="black" id="Vector_134"/>
<path d="M915.781 618.44C918.536 618.44 920.769 616.161 920.769 613.35C920.769 610.538 918.536 608.259 915.781 608.259C913.026 608.259 910.793 610.538 910.793 613.35C910.793 616.161 913.026 618.44 915.781 618.44Z" fill="black" id="Vector_135"/>
<path d="M897.24 586.389C899.995 586.389 902.228 584.11 902.228 581.298C902.228 578.487 899.995 576.208 897.24 576.208C894.485 576.208 892.252 578.487 892.252 581.298C892.252 584.11 894.485 586.389 897.24 586.389Z" fill="black" id="Vector_136"/>
<path d="M898.092 689.471C900.846 689.471 903.08 687.192 903.08 684.38C903.08 681.569 900.846 679.29 898.092 679.29C895.337 679.29 893.104 681.569 893.104 684.38C893.104 687.192 895.337 689.471 898.092 689.471Z" fill="black" id="Vector_137"/>
<path d="M936.015 594.883C938.77 594.883 941.003 592.604 941.003 589.792C941.003 586.981 938.77 584.702 936.015 584.702C933.261 584.702 931.027 586.981 931.027 589.792C931.027 592.604 933.261 594.883 936.015 594.883Z" fill="black" id="Vector_138"/>
<path d="M901.226 619.985C903.981 619.985 906.214 617.706 906.214 614.895C906.214 612.083 903.981 609.804 901.226 609.804C898.471 609.804 896.238 612.083 896.238 614.895C896.238 617.706 898.471 619.985 901.226 619.985Z" fill="black" id="Vector_139"/>
<path d="M907.013 574.07C909.768 574.07 912.001 571.791 912.001 568.98C912.001 566.168 909.768 563.889 907.013 563.889C904.259 563.889 902.025 566.168 902.025 568.98C902.025 571.791 904.259 574.07 907.013 574.07Z" fill="black" id="Vector_140"/>
<path d="M937.904 611.508C940.659 611.508 942.892 609.229 942.892 606.417C942.892 603.606 940.659 601.327 937.904 601.327C935.149 601.327 932.916 603.606 932.916 606.417C932.916 609.229 935.149 611.508 937.904 611.508Z" fill="black" id="Vector_141"/>
<path d="M887.529 609.304C890.284 609.304 892.517 607.025 892.517 604.214C892.517 601.402 890.284 599.123 887.529 599.123C884.774 599.123 882.541 601.402 882.541 604.214C882.541 607.025 884.774 609.304 887.529 609.304Z" fill="black" id="Vector_142"/>
<path d="M900.886 469.301C903.641 469.301 905.874 467.022 905.874 464.211C905.874 461.399 903.641 459.12 900.886 459.12C898.132 459.12 895.898 461.399 895.898 464.211C895.898 467.022 898.132 469.301 900.886 469.301Z" fill="black" id="Vector_143"/>
<path d="M934.732 483.164C937.487 483.164 939.72 480.885 939.72 478.073C939.72 475.262 937.487 472.983 934.732 472.983C931.977 472.983 929.744 475.262 929.744 478.073C929.744 480.885 931.977 483.164 934.732 483.164Z" fill="black" id="Vector_144"/>
<path d="M898.927 500.564C901.682 500.564 903.915 498.285 903.915 495.474C903.915 492.662 901.682 490.383 898.927 490.383C896.173 490.383 893.939 492.662 893.939 495.474C893.939 498.285 896.173 500.564 898.927 500.564Z" fill="black" id="Vector_145"/>
<path d="M944.097 720.265C946.852 720.265 949.085 717.986 949.085 715.175C949.085 712.363 946.852 710.084 944.097 710.084C941.343 710.084 939.109 712.363 939.109 715.175C939.109 717.986 941.343 720.265 944.097 720.265Z" fill="black" id="Vector_146"/>
<path d="M888.668 734.59C891.422 734.59 893.656 732.311 893.656 729.499C893.656 726.688 891.422 724.409 888.668 724.409C885.913 724.409 883.68 726.688 883.68 729.499C883.68 732.311 885.913 734.59 888.668 734.59Z" fill="black" id="Vector_147"/>
<path d="M924.843 571.222C927.598 571.222 929.831 568.943 929.831 566.132C929.831 563.32 927.598 561.041 924.843 561.041C922.089 561.041 919.855 563.32 919.855 566.132C919.855 568.943 922.089 571.222 924.843 571.222Z" fill="black" id="Vector_148"/>
<path d="M916.775 681.348C919.53 681.348 921.763 679.069 921.763 676.258C921.763 673.446 919.53 671.167 916.775 671.167C914.02 671.167 911.787 673.446 911.787 676.258C911.787 679.069 914.02 681.348 916.775 681.348Z" fill="black" id="Vector_149"/>
<path d="M936.89 740.411C939.645 740.411 941.878 738.132 941.878 735.321C941.878 732.509 939.645 730.23 936.89 730.23C934.136 730.23 931.902 732.509 931.902 735.321C931.902 738.132 934.136 740.411 936.89 740.411Z" fill="black" id="Vector_150"/>
<path d="M878.853 714.84C881.608 714.84 883.841 712.56 883.841 709.749C883.841 706.938 881.608 704.658 878.853 704.658C876.098 704.658 873.865 706.938 873.865 709.749C873.865 712.56 876.098 714.84 878.853 714.84Z" fill="black" id="Vector_151"/>
<path d="M927.209 627.32C929.963 627.32 932.197 625.041 932.197 622.229C932.197 619.418 929.963 617.139 927.209 617.139C924.454 617.139 922.221 619.418 922.221 622.229C922.221 625.041 924.454 627.32 927.209 627.32Z" fill="black" id="Vector_152"/>
<path d="M883.449 589.76C886.204 589.76 888.437 587.481 888.437 584.67C888.437 581.858 886.204 579.579 883.449 579.579C880.694 579.579 878.461 581.858 878.461 584.67C878.461 587.481 880.694 589.76 883.449 589.76Z" fill="black" id="Vector_153"/>
<path d="M942.215 581.96C944.969 581.96 947.203 579.681 947.203 576.869C947.203 574.058 944.969 571.779 942.215 571.779C939.46 571.779 937.227 574.058 937.227 576.869C937.227 579.681 939.46 581.96 942.215 581.96Z" fill="black" id="Vector_154"/>
<path d="M938.265 687.673C941.02 687.673 943.253 685.393 943.253 682.582C943.253 679.771 941.02 677.491 938.265 677.491C935.511 677.491 933.277 679.771 933.277 682.582C933.277 685.393 935.511 687.673 938.265 687.673Z" fill="black" id="Vector_155"/>
<path d="M917.162 752.503C919.917 752.503 922.15 750.224 922.15 747.413C922.15 744.601 919.917 742.322 917.162 742.322C914.407 742.322 912.174 744.601 912.174 747.413C912.174 750.224 914.407 752.503 917.162 752.503Z" fill="black" id="Vector_156"/>
<path d="M883.724 691.227C886.479 691.227 888.712 688.948 888.712 686.137C888.712 683.325 886.479 681.046 883.724 681.046C880.97 681.046 878.736 683.325 878.736 686.137C878.736 688.948 880.97 691.227 883.724 691.227Z" fill="black" id="Vector_157"/>
<path d="M952.273 707.887C955.028 707.887 957.261 705.608 957.261 702.796C957.261 699.985 955.028 697.706 952.273 697.706C949.518 697.706 947.285 699.985 947.285 702.796C947.285 705.608 949.518 707.887 952.273 707.887Z" fill="black" id="Vector_158"/>
<path d="M892.515 749.175C895.27 749.175 897.503 746.896 897.503 744.084C897.503 741.273 895.27 738.994 892.515 738.994C889.761 738.994 887.527 741.273 887.527 744.084C887.527 746.896 889.761 749.175 892.515 749.175Z" fill="black" id="Vector_159"/>
<path d="M903.308 674.644C906.063 674.644 908.296 672.364 908.296 669.553C908.296 666.742 906.063 664.462 903.308 664.462C900.554 664.462 898.32 666.742 898.32 669.553C898.32 672.364 900.554 674.644 903.308 674.644Z" fill="black" id="Vector_160"/>
<path d="M1139.84 723.466C1142.59 723.466 1144.82 721.186 1144.82 718.375C1144.82 715.564 1142.59 713.284 1139.84 713.284C1137.08 713.284 1134.85 715.564 1134.85 718.375C1134.85 721.186 1137.08 723.466 1139.84 723.466Z" fill="black" id="Vector_161"/>
<path d="M1132.57 705.723C1135.33 705.723 1137.56 703.444 1137.56 700.633C1137.56 697.821 1135.33 695.542 1132.57 695.542C1129.82 695.542 1127.58 697.821 1127.58 700.633C1127.58 703.444 1129.82 705.723 1132.57 705.723Z" fill="black" id="Vector_162"/>
<path d="M1155.36 714.927C1158.12 714.927 1160.35 712.648 1160.35 709.836C1160.35 707.025 1158.12 704.746 1155.36 704.746C1152.61 704.746 1150.37 707.025 1150.37 709.836C1150.37 712.648 1152.61 714.927 1155.36 714.927Z" fill="black" id="Vector_163"/>
<path d="M1137.19 607.065C1139.95 607.065 1142.18 604.786 1142.18 601.975C1142.18 599.163 1139.95 596.884 1137.19 596.884C1134.44 596.884 1132.2 599.163 1132.2 601.975C1132.2 604.786 1134.44 607.065 1137.19 607.065Z" fill="black" id="Vector_164"/>
<path d="M1135.82 587.888C1138.57 587.888 1140.81 585.609 1140.81 582.798C1140.81 579.986 1138.57 577.707 1135.82 577.707C1133.07 577.707 1130.83 579.986 1130.83 582.798C1130.83 585.609 1133.07 587.888 1135.82 587.888Z" fill="black" id="Vector_165"/>
<path d="M1135.61 490.44C1138.37 490.44 1140.6 488.161 1140.6 485.349C1140.6 482.538 1138.37 480.259 1135.61 480.259C1132.86 480.259 1130.63 482.538 1130.63 485.349C1130.63 488.161 1132.86 490.44 1135.61 490.44Z" fill="black" id="Vector_166"/>
<path d="M1132.52 249.469C1135.27 249.469 1137.51 247.19 1137.51 244.378C1137.51 241.567 1135.27 239.288 1132.52 239.288C1129.76 239.288 1127.53 241.567 1127.53 244.378C1127.53 247.19 1129.76 249.469 1132.52 249.469Z" fill="black" id="Vector_167"/>
<path d="M1154.57 603.996C1157.32 603.996 1159.56 601.717 1159.56 598.906C1159.56 596.094 1157.32 593.815 1154.57 593.815C1151.82 593.815 1149.58 596.094 1149.58 598.906C1149.58 601.717 1151.82 603.996 1154.57 603.996Z" fill="black" id="Vector_168"/>
<path d="M1125.71 607.446C1128.46 607.446 1130.7 605.167 1130.7 602.356C1130.7 599.544 1128.46 597.265 1125.71 597.265C1122.95 597.265 1120.72 599.544 1120.72 602.356C1120.72 605.167 1122.95 607.446 1125.71 607.446Z" fill="black" id="Vector_169"/>
<path d="M1145.19 580.295C1147.95 580.295 1150.18 578.016 1150.18 575.205C1150.18 572.393 1147.95 570.114 1145.19 570.114C1142.44 570.114 1140.21 572.393 1140.21 575.205C1140.21 578.016 1142.44 580.295 1145.19 580.295Z" fill="black" id="Vector_170"/>
<path d="M1138.28 471.405C1141.03 471.405 1143.27 469.126 1143.27 466.314C1143.27 463.503 1141.03 461.224 1138.28 461.224C1135.52 461.224 1133.29 463.503 1133.29 466.314C1133.29 469.126 1135.52 471.405 1138.28 471.405Z" fill="black" id="Vector_171"/>
<path d="M1153.23 491.22C1155.99 491.22 1158.22 488.941 1158.22 486.129C1158.22 483.318 1155.99 481.039 1153.23 481.039C1150.48 481.039 1148.25 483.318 1148.25 486.129C1148.25 488.941 1150.48 491.22 1153.23 491.22Z" fill="black" id="Vector_172"/>
<path d="M1124.32 488.316C1127.07 488.316 1129.3 486.037 1129.3 483.225C1129.3 480.414 1127.07 478.135 1124.32 478.135C1121.56 478.135 1119.33 480.414 1119.33 483.225C1119.33 486.037 1121.56 488.316 1124.32 488.316Z" fill="black" id="Vector_173"/>
<path d="M1149.02 466.024C1151.77 466.024 1154.01 463.745 1154.01 460.934C1154.01 458.122 1151.77 455.843 1149.02 455.843C1146.26 455.843 1144.03 458.122 1144.03 460.934C1144.03 463.745 1146.26 466.024 1149.02 466.024Z" fill="black" id="Vector_174"/>
<path d="M1129.07 727.545C1131.82 727.545 1134.05 725.266 1134.05 722.454C1134.05 719.643 1131.82 717.364 1129.07 717.364C1126.31 717.364 1124.08 719.643 1124.08 722.454C1124.08 725.266 1126.31 727.545 1129.07 727.545Z" fill="black" id="Vector_175"/>
<path d="M1139.1 695.488C1141.85 695.488 1144.09 693.209 1144.09 690.397C1144.09 687.586 1141.85 685.307 1139.1 685.307C1136.34 685.307 1134.11 687.586 1134.11 690.397C1134.11 693.209 1136.34 695.488 1139.1 695.488Z" fill="black" id="Vector_176"/>
<path d="M1157.08 727.871C1159.83 727.871 1162.07 725.592 1162.07 722.78C1162.07 719.969 1159.83 717.69 1157.08 717.69C1154.32 717.69 1152.09 719.969 1152.09 722.78C1152.09 725.592 1154.32 727.871 1157.08 727.871Z" fill="black" id="Vector_177"/>
<path d="M1118.46 718.675C1121.21 718.675 1123.45 716.396 1123.45 713.584C1123.45 710.773 1121.21 708.494 1118.46 708.494C1115.7 708.494 1113.47 710.773 1113.47 713.584C1113.47 716.396 1115.7 718.675 1118.46 718.675Z" fill="black" id="Vector_178"/>
<path d="M1153.68 694.207C1156.43 694.207 1158.67 691.928 1158.67 689.116C1158.67 686.305 1156.43 684.026 1153.68 684.026C1150.92 684.026 1148.69 686.305 1148.69 689.116C1148.69 691.928 1150.92 694.207 1153.68 694.207Z" fill="black" id="Vector_179"/>
<path d="M1152.17 616.827C1154.93 616.827 1157.16 614.548 1157.16 611.737C1157.16 608.925 1154.93 606.646 1152.17 606.646C1149.42 606.646 1147.19 608.925 1147.19 611.737C1147.19 614.548 1149.42 616.827 1152.17 616.827Z" fill="black" id="Vector_180"/>
<path d="M1147.09 740.01C1149.85 740.01 1152.08 737.731 1152.08 734.919C1152.08 732.108 1149.85 729.829 1147.09 729.829C1144.34 729.829 1142.11 732.108 1142.11 734.919C1142.11 737.731 1144.34 740.01 1147.09 740.01Z" fill="black" id="Vector_181"/>
<path d="M1118.41 595.6C1121.16 595.6 1123.4 593.32 1123.4 590.509C1123.4 587.698 1121.16 585.418 1118.41 585.418C1115.65 585.418 1113.42 587.698 1113.42 590.509C1113.42 593.32 1115.65 595.6 1118.41 595.6Z" fill="black" id="Vector_182"/>
<path d="M1159.42 583.802C1162.17 583.802 1164.4 581.523 1164.4 578.712C1164.4 575.9 1162.17 573.621 1159.42 573.621C1156.66 573.621 1154.43 575.9 1154.43 578.712C1154.43 581.523 1156.66 583.802 1159.42 583.802Z" fill="black" id="Vector_183"/>
<path d="M1138.93 625.105C1141.68 625.105 1143.92 622.826 1143.92 620.015C1143.92 617.203 1141.68 614.924 1138.93 614.924C1136.17 614.924 1133.94 617.203 1133.94 620.015C1133.94 622.826 1136.17 625.105 1138.93 625.105Z" fill="black" id="Vector_184"/>
<path d="M1122.07 579.285C1124.82 579.285 1127.06 577.006 1127.06 574.195C1127.06 571.383 1124.82 569.104 1122.07 569.104C1119.32 569.104 1117.08 571.383 1117.08 574.195C1117.08 577.006 1119.32 579.285 1122.07 579.285Z" fill="black" id="Vector_185"/>
<path d="M1168.83 598.54C1171.58 598.54 1173.82 596.261 1173.82 593.45C1173.82 590.638 1171.58 588.359 1168.83 588.359C1166.07 588.359 1163.84 590.638 1163.84 593.45C1163.84 596.261 1166.07 598.54 1168.83 598.54Z" fill="black" id="Vector_186"/>
<path d="M1121.19 621.709C1123.95 621.709 1126.18 619.43 1126.18 616.619C1126.18 613.807 1123.95 611.528 1121.19 611.528C1118.44 611.528 1116.2 613.807 1116.2 616.619C1116.2 619.43 1118.44 621.709 1121.19 621.709Z" fill="black" id="Vector_187"/>
<path d="M1137.33 568.029C1140.08 568.029 1142.32 565.75 1142.32 562.939C1142.32 560.127 1140.08 557.848 1137.33 557.848C1134.57 557.848 1132.34 560.127 1132.34 562.939C1132.34 565.75 1134.57 568.029 1137.33 568.029Z" fill="black" id="Vector_188"/>
<path d="M1148.21 503.235C1150.97 503.235 1153.2 500.956 1153.2 498.145C1153.2 495.333 1150.97 493.054 1148.21 493.054C1145.46 493.054 1143.23 495.333 1143.23 498.145C1143.23 500.956 1145.46 503.235 1148.21 503.235Z" fill="black" id="Vector_189"/>
<path d="M1116.86 702.018C1119.61 702.018 1121.85 699.739 1121.85 696.927C1121.85 694.116 1119.61 691.837 1116.86 691.837C1114.1 691.837 1111.87 694.116 1111.87 696.927C1111.87 699.739 1114.1 702.018 1116.86 702.018Z" fill="black" id="Vector_190"/>
<path d="M1167.19 705.135C1169.94 705.135 1172.18 702.856 1172.18 700.044C1172.18 697.233 1169.94 694.954 1167.19 694.954C1164.43 694.954 1162.2 697.233 1162.2 700.044C1162.2 702.856 1164.43 705.135 1167.19 705.135Z" fill="black" id="Vector_191"/>
<path d="M1129.22 742.534C1131.97 742.534 1134.2 740.255 1134.2 737.444C1134.2 734.632 1131.97 732.353 1129.22 732.353C1126.46 732.353 1124.23 734.632 1124.23 737.444C1124.23 740.255 1126.46 742.534 1129.22 742.534Z" fill="black" id="Vector_192"/>
<path d="M1127.83 686.403C1130.58 686.403 1132.82 684.124 1132.82 681.312C1132.82 678.501 1130.58 676.222 1127.83 676.222C1125.07 676.222 1122.84 678.501 1122.84 681.312C1122.84 684.124 1125.07 686.403 1127.83 686.403Z" fill="black" id="Vector_193"/>
<path d="M1170.93 724.749C1173.68 724.749 1175.91 722.47 1175.91 719.659C1175.91 716.847 1173.68 714.568 1170.93 714.568C1168.17 714.568 1165.94 716.847 1165.94 719.659C1165.94 722.47 1168.17 724.749 1170.93 724.749Z" fill="black" id="Vector_194"/>
<path d="M1166.28 618.352C1169.03 618.352 1171.26 616.073 1171.26 613.261C1171.26 610.45 1169.03 608.171 1166.28 608.171C1163.52 608.171 1161.29 610.45 1161.29 613.261C1161.29 616.073 1163.52 618.352 1166.28 618.352Z" fill="black" id="Vector_195"/>
<path d="M1108.33 605.665C1111.09 605.665 1113.32 603.386 1113.32 600.575C1113.32 597.763 1111.09 595.484 1108.33 595.484C1105.58 595.484 1103.35 597.763 1103.35 600.575C1103.35 603.386 1105.58 605.665 1108.33 605.665Z" fill="black" id="Vector_196"/>
<path d="M1158.29 569.47C1161.05 569.47 1163.28 567.191 1163.28 564.379C1163.28 561.568 1161.05 559.289 1158.29 559.289C1155.54 559.289 1153.31 561.568 1153.31 564.379C1153.31 567.191 1155.54 569.47 1158.29 569.47Z" fill="black" id="Vector_197"/>
<path d="M1150.43 633.484C1153.19 633.484 1155.42 631.205 1155.42 628.393C1155.42 625.582 1153.19 623.303 1150.43 623.303C1147.68 623.303 1145.44 625.582 1145.44 628.393C1145.44 631.205 1147.68 633.484 1150.43 633.484Z" fill="black" id="Vector_198"/>
<path d="M1112.03 731.483C1114.79 731.483 1117.02 729.204 1117.02 726.393C1117.02 723.581 1114.79 721.302 1112.03 721.302C1109.28 721.302 1107.05 723.581 1107.05 726.393C1107.05 729.204 1109.28 731.483 1112.03 731.483Z" fill="black" id="Vector_199"/>
<path d="M1148.16 680.978C1150.91 680.978 1153.15 678.699 1153.15 675.888C1153.15 673.076 1150.91 670.797 1148.16 670.797C1145.41 670.797 1143.17 673.076 1143.17 675.888C1143.17 678.699 1145.41 680.978 1148.16 680.978Z" fill="black" id="Vector_200"/>
<path d="M1160.61 744.23C1163.36 744.23 1165.59 741.951 1165.59 739.14C1165.59 736.328 1163.36 734.049 1160.61 734.049C1157.85 734.049 1155.62 736.328 1155.62 739.14C1155.62 741.951 1157.85 744.23 1160.61 744.23Z" fill="black" id="Vector_201"/>
<path d="M1104.89 709.853C1107.65 709.853 1109.88 707.574 1109.88 704.762C1109.88 701.951 1107.65 699.672 1104.89 699.672C1102.14 699.672 1099.91 701.951 1099.91 704.762C1099.91 707.574 1102.14 709.853 1104.89 709.853Z" fill="black" id="Vector_202"/>
<path d="M1169.13 690.645C1171.89 690.645 1174.12 688.366 1174.12 685.555C1174.12 682.743 1171.89 680.464 1169.13 680.464C1166.38 680.464 1164.14 682.743 1164.14 685.555C1164.14 688.366 1166.38 690.645 1169.13 690.645Z" fill="black" id="Vector_203"/>
<path d="M1138.81 753.587C1141.57 753.587 1143.8 751.308 1143.8 748.497C1143.8 745.685 1141.57 743.406 1138.81 743.406C1136.06 743.406 1133.82 745.685 1133.82 748.497C1133.82 751.308 1136.06 753.587 1138.81 753.587Z" fill="black" id="Vector_204"/>
<path d="M1113.2 686.592C1115.96 686.592 1118.19 684.312 1118.19 681.501C1118.19 678.69 1115.96 676.41 1113.2 676.41C1110.45 676.41 1108.21 678.69 1108.21 681.501C1108.21 684.312 1110.45 686.592 1113.2 686.592Z" fill="black" id="Vector_205"/>
<path d="M1180.48 713.217C1183.24 713.217 1185.47 710.938 1185.47 708.127C1185.47 705.315 1183.24 703.036 1180.48 703.036C1177.73 703.036 1175.5 705.315 1175.5 708.127C1175.5 710.938 1177.73 713.217 1180.48 713.217Z" fill="black" id="Vector_206"/>
<path d="M1114.3 746.599C1117.06 746.599 1119.29 744.32 1119.29 741.509C1119.29 738.697 1117.06 736.418 1114.3 736.418C1111.55 736.418 1109.31 738.697 1109.31 741.509C1109.31 744.32 1111.55 746.599 1114.3 746.599Z" fill="black" id="Vector_207"/>
<path d="M1135.36 672.661C1138.11 672.661 1140.34 670.382 1140.34 667.57C1140.34 664.759 1138.11 662.48 1135.36 662.48C1132.6 662.48 1130.37 664.759 1130.37 667.57C1130.37 670.382 1132.6 672.661 1135.36 672.661Z" fill="black" id="Vector_208"/>
</g>
</g>
<text fill="black" font-family="Roboto" font-size="20" id="This 300k CLT feature activates on six of the twelve prompts" letter-spacing="0em" style="white-space: pre" xml:space="preserve"><tspan x="302" y="100.836">This 300k CLT feature activates on </tspan><tspan x="302" y="122.836">six of the twelve prompts</tspan></text>
<path d="M243.097 124.491C242.826 124.544 242.563 124.368 242.509 124.097L241.637 119.682C241.583 119.411 241.76 119.148 242.031 119.095C242.301 119.041 242.564 119.218 242.618 119.488L243.394 123.413L247.318 122.637C247.589 122.583 247.852 122.76 247.905 123.031C247.959 123.301 247.782 123.564 247.512 123.618L243.097 124.491ZM269.753 100L269.753 100.5L269.753 100ZM242.585 123.722L252.722 108.59L253.553 109.147L243.415 124.278L242.585 123.722ZM269.753 99.5L296 99.5L296 100.5L269.753 100.5L269.753 99.5ZM252.722 108.59C256.528 102.909 262.915 99.5 269.753 99.5L269.753 100.5C263.249 100.5 257.173 103.743 253.553 109.147L252.722 108.59Z" fill="#706D5C" id="Vector 800" opacity="0.6"/>
<text fill="black" font-family="Roboto" font-size="20" id="On the largest CLT, almost half of the âduringâ features only activate on a single prompt." letter-spacing="0em" style="white-space: pre" xml:space="preserve"><tspan x="788" y="272.336">On the largest CLT, almost half of </tspan><tspan x="788" y="294.336">the “during” features only activate </tspan><tspan x="788" y="316.336">on a single prompt.</tspan></text>
<path d="M1093.35 730.646C1093.55 730.842 1093.55 731.158 1093.35 731.354L1090.17 734.536C1089.98 734.731 1089.66 734.731 1089.46 734.536C1089.27 734.34 1089.27 734.024 1089.46 733.828L1092.29 731L1089.46 728.172C1089.27 727.976 1089.27 727.66 1089.46 727.464C1089.66 727.269 1089.98 727.269 1090.17 727.464L1093.35 730.646ZM1093 731.5L995 731.5L995 730.5L1093 730.5L1093 731.5ZM974.5 711L974.5 324L975.5 324L975.5 711L974.5 711ZM995 731.5C983.678 731.5 974.5 722.322 974.5 711L975.5 711C975.5 721.77 984.231 730.5 995 730.5L995 731.5Z" fill="#706D5C" id="Vector 801" opacity="0.6"/>
<text fill="#4D4D4D" font-family="Roboto" font-size="13" id="Figure 00: Feature splitting increases with CLT scale." letter-spacing="0em" style="white-space: pre" xml:space="preserve"><tspan x="31" y="832.443">Figure 00: Feature splitting increases with CLT scale.</tspan></text>
</g>
<defs>
<clipPath id="clip0_1170_5472">
<rect fill="white" height="833" transform="translate(7 4)" width="1247"/>
</clipPath>
</defs>
</svg>