<?xml version="1.0" encoding="utf-8"?>
<svg fill="none" height="661" viewBox="0 0 790 661" width="790" xmlns="http://www.w3.org/2000/svg">
<g clip-path="url(#clip0_790_1689)" id="ndag-interventions-svg">
<rect fill="white" height="661" width="790"/>
<g id="baseline">
<g id="Union">
<mask fill="white" id="path-1-inside-1_790_1689">
<path d="M0 8C0 3.58172 3.58172 0 8 0H372C376.418 0 380 3.58172 380 8V388H0V8Z"/>
</mask>
<path d="M0 8C0 3.58172 3.58172 0 8 0H372C376.418 0 380 3.58172 380 8V388H0V8Z" fill="#F6F6F3"/>
<path d="M380 388V389H381V388H380ZM0 388H-1V389H0V388ZM8 1H372V-1H8V1ZM379 8V388H381V8H379ZM380 387H0V389H380V387ZM1 388V8H-1V388H1ZM372 1C375.866 1 379 4.13401 379 8H381C381 3.02944 376.971 -1 372 -1V1ZM8 -1C3.02944 -1 -1 3.02944 -1 8H1C1 4.13401 4.13401 1 8 1V-1Z" fill="#D0CEC8" mask="url(#path-1-inside-1_790_1689)"/>
</g>
<g id="Union_2">
<mask fill="white" id="path-3-inside-2_790_1689">
<path d="M0 8C0 3.58172 3.58172 0 8 0H372C376.418 0 380 3.58172 380 8V388H0V8Z"/>
</mask>
<path d="M0 8C0 3.58172 3.58172 0 8 0H372C376.418 0 380 3.58172 380 8V388H0V8Z" fill="#F6F6F3"/>
<path d="M380 388V389H381V388H380ZM0 388H-1V389H0V388ZM8 1H372V-1H8V1ZM379 8V388H381V8H379ZM380 387H0V389H380V387ZM1 388V8H-1V388H1ZM372 1C375.866 1 379 4.13401 379 8H381C381 3.02944 376.971 -1 372 -1V1ZM8 -1C3.02944 -1 -1 3.02944 -1 8H1C1 4.13401 4.13401 1 8 1V-1Z" fill="#D0CEC8" mask="url(#path-3-inside-2_790_1689)"/>
</g>
<path d="M0.5 387.5H378.5V619C378.5 623.142 375.142 626.5 371 626.5H7.99999C3.85785 626.5 0.5 623.142 0.5 619V387.5Z" id="Rectangle 373" stroke="#B8B6AD"/>
<text fill="black" font-family="Roboto Mono" font-size="17" id="The National Digital Analytics Group (âªN" letter-spacing="0em" style="white-space: pre" xml:space="preserve"><tspan x="21" y="450.603">The National Digital Analytics </tspan><tspan x="21" y="470.603">Group (⇪N</tspan></text>
<text fill="#706D5C" font-family="Roboto" font-size="12" font-weight="bold" id="Top Outputs" letter-spacing="0em" style="white-space: pre" xml:space="preserve"><tspan x="21" y="518.102">TOP OUTPUTS</tspan></text>
<text fill="#706D5C" font-family="Roboto" font-size="12" font-weight="bold" id="Prompt" letter-spacing="0em" style="white-space: pre" xml:space="preserve"><tspan x="21" y="422.102">PROMPT</tspan></text>
<path d="M292 69L283.34 84L300.66 84L292 69ZM293.5 177L293.5 82.5L290.5 82.5L290.5 177H293.5Z" fill="#633636" id="Vector 245"/>
<path d="M184.731 162.396L193.572 177.341L176.252 177.451L184.731 162.396ZM183.769 207.01L183.394 175.906L186.394 175.886L186.768 206.99L183.769 207.01Z" fill="#633636" id="Vector 262"/>
<path d="M185.115 162.396L176.455 177.347L193.776 177.445L185.115 162.396ZM186.615 181.509L186.615 175.904L183.615 175.887L183.615 181.491L186.615 181.509Z" fill="#633636" id="Vector 261"/>
<path d="M185.166 230.659L185.319 202.457C185.343 198.055 188.917 194.5 193.319 194.5L239.5 194.5" id="Vector 246" stroke="#633636" stroke-width="3"/>
<path d="M185.29 122.66V105.5C185.29 101.082 188.872 97.5 193.29 97.5H284C288.418 97.5 292 93.9183 292 89.5V73.5" id="Vector 263" stroke="#633636" stroke-width="3"/>
<path d="M70.166 230.659L70.166 202.463C70.166 198.059 73.7255 194.499 78.1294 194.499L127.514 194.491L176.965 194.483C181.343 194.482 184.892 190.962 184.928 186.585L185.058 170.999" id="Vector 260" stroke="#633636" stroke-width="3"/>
<path d="M70.166 230.659L70.166 202.463C70.166 198.059 73.7255 194.499 78.1294 194.499L127.514 194.491L176.965 194.483C181.343 194.482 184.892 190.962 184.928 186.585L185.058 170.999" id="Vector 264" stroke="#633636" stroke-width="3"/>
<path d="M70.166 230.659L70.2983 202.462C70.319 198.059 73.8946 194.5 78.2982 194.5H284C288.418 194.5 292 190.918 292 186.5V171" id="Vector 265" stroke="#633636" stroke-width="3"/>
<path d="M293 269L284.34 283.956L301.66 284.043L293 269ZM294.5 347.04L294.5 282.507L291.5 282.492L291.5 347.025L294.5 347.04Z" fill="#633636" id="Vector 248"/>
<path d="M73 269L64.3396 283.956L81.6604 284.043L73 269ZM74.5 347.04L74.5 282.507L71.5 282.492L71.5 347.025L74.5 347.04Z" fill="#633636" id="Vector 259"/>
<path d="M184 268.93L175.34 283.887L192.66 283.973L184 268.93ZM185.5 346.54L185.5 282.438L182.5 282.423L182.5 346.525L185.5 346.54Z" fill="#633636" id="Vector 249"/>
<rect fill="#E6E3D6" height="45" id="image" rx="7" stroke="#706D5C" stroke-width="2" width="83" x="32" y="322"/>
<text fill="black" font-family="Roboto" font-size="17" id="Digital" letter-spacing="0em" style="white-space: pre" xml:space="preserve"><tspan x="49.5439" y="350.311">Digital</tspan></text>
<rect fill="#E6E3D6" height="45" id="image_2" rx="7" stroke="#706D5C" stroke-width="2" width="83" x="143" y="322"/>
<text fill="black" font-family="Roboto" font-size="17" id="Analytics" letter-spacing="0em" style="white-space: pre" xml:space="preserve"><tspan x="149.353" y="350.311">Analytics</tspan></text>
<rect fill="#E6E3D6" height="45" id="image_3" rx="7" stroke="#706D5C" stroke-width="2" width="83" x="252" y="322"/>
<text fill="black" font-family="Roboto" font-size="17" id="Group" letter-spacing="0em" style="white-space: pre" xml:space="preserve"><tspan x="270.598" y="350.311">Group</tspan></text>
<rect fill="#E6E3D6" height="45" id="image_4" rx="7" stroke="#706D5C" stroke-width="2" width="83" x="143" y="216"/>
<rect fill="#E6E3D6" height="45" id="image_5" rx="7" stroke="#706D5C" stroke-width="2" width="83" x="32" y="216"/>
<text fill="black" font-family="Roboto" font-size="17" id="say â_Aâ" letter-spacing="0em" style="white-space: pre" xml:space="preserve"><tspan x="154.493" y="243.311">say “_A”</tspan></text>
<text fill="black" font-family="Roboto" font-size="17" id="say â_Aâ_2" letter-spacing="0em" style="white-space: pre" xml:space="preserve"><tspan x="154.493" y="243.311">say “_A”</tspan></text>
<text fill="black" font-family="Roboto" font-size="17" id="say âD_â" letter-spacing="0em" style="white-space: pre" xml:space="preserve"><tspan x="42.9614" y="243.311">say “D_”</tspan></text>
<rect fill="#E6E3D6" height="45" id="image_6" rx="7" stroke="#706D5C" stroke-width="2" width="103" x="136" y="116"/>
<rect fill="#E6E3D6" height="45" id="image_7" rx="7" stroke="#706D5C" stroke-width="2" width="83" x="251" y="23"/>
<text fill="black" font-family="Roboto" font-size="17" id="say â_DA_â" letter-spacing="0em" style="white-space: pre" xml:space="preserve"><tspan x="147.173" y="142.811">say “_DA_”</tspan></text>
<text fill="black" font-family="Roboto" font-size="17" id="say DAG" letter-spacing="0em" style="white-space: pre" xml:space="preserve"><tspan x="260.142" y="50.3105">say DAG</tspan></text>
<path d="M292 241.999L292 172.5" id="Vector 252" stroke="#633636" stroke-width="3"/>
<rect fill="#E6E3D6" height="45" id="image_8" rx="7" stroke="#706D5C" stroke-width="2" width="83" x="252" y="216"/>
<text fill="black" font-family="Roboto" font-size="17" id="say â_Gâ" letter-spacing="0em" style="white-space: pre" xml:space="preserve"><tspan x="262.746" y="243.311">say “_G”</tspan></text>
<g id="LogitProb" opacity="0.98">
<g id="Frame 91">
<rect fill="#EAE7DF" height="31" rx="2" width="43" x="21" y="531"/>
<text fill="black" font-family="Roboto Mono" font-size="17" id="Washington" letter-spacing="0em" style="white-space: pre" xml:space="preserve"><tspan x="27" y="553.103">DAG</tspan></text>
</g>
<text fill="#666666" font-family="Roboto" font-size="13" id="20%" letter-spacing="0em" style="white-space: pre" xml:space="preserve"><tspan x="72" y="550.943">99%</tspan></text>
</g>
<g id="LogitProb_2">
<g id="Frame 91_2">
<rect fill="#EAE7DF" height="31" rx="2" width="43" x="147" y="531"/>
<text fill="black" font-family="Roboto Mono" font-size="17" id="Washington_2" letter-spacing="0em" style="white-space: pre" xml:space="preserve"><tspan x="153" y="553.103">DAQ</tspan></text>
</g>
<text fill="#666666" font-family="Roboto" font-size="13" id="20%_2" letter-spacing="0em" style="white-space: pre" xml:space="preserve"><tspan x="198" y="550.943">0.01%</tspan></text>
</g>
<text fill="#666666" font-family="Roboto" font-size="13" id="100%" letter-spacing="0em" opacity="0.7" style="white-space: pre" xml:space="preserve"><tspan x="146.541" y="109.943">100%</tspan></text>
<text fill="#666666" font-family="Roboto" font-size="13" id="100%_2" letter-spacing="0em" opacity="0.7" style="white-space: pre" xml:space="preserve"><tspan x="215.541" y="36.9434">100%</tspan></text>
<text fill="#666666" font-family="Roboto" font-size="13" id="100%_3" letter-spacing="0em" opacity="0.7" style="white-space: pre" xml:space="preserve"><tspan x="257.541" y="209.943">100%</tspan></text>
<text fill="#666666" font-family="Roboto" font-size="13" id="100%_4" letter-spacing="0em" opacity="0.7" style="white-space: pre" xml:space="preserve"><tspan x="257.541" y="315.943">100%</tspan></text>
<text fill="#666666" font-family="Roboto" font-size="13" id="100%_5" letter-spacing="0em" opacity="0.7" style="white-space: pre" xml:space="preserve"><tspan x="147.541" y="209.943">100%</tspan></text>
<text fill="#666666" font-family="Roboto" font-size="13" id="100%_6" letter-spacing="0em" opacity="0.7" style="white-space: pre" xml:space="preserve"><tspan x="32.541" y="209.943">100%</tspan></text>
<text fill="#666666" font-family="Roboto" font-size="13" id="100%_7" letter-spacing="0em" opacity="0.7" style="white-space: pre" xml:space="preserve"><tspan x="148.541" y="315.943">100%</tspan></text>
<text fill="#666666" font-family="Roboto" font-size="13" id="100%_8" letter-spacing="0em" opacity="0.7" style="white-space: pre" xml:space="preserve"><tspan x="37.541" y="315.943">100%</tspan></text>
<text fill="#706D5C" font-family="Styrene B LC" font-size="12" font-weight="bold" id="Baseline" letter-spacing="0em" style="white-space: pre" xml:space="preserve"><tspan x="14" y="26.53">BASELINE</tspan></text>
</g>
<g id="suppress">
<g id="Union_3">
<mask fill="white" id="path-53-inside-3_790_1689">
<path d="M410 8C410 3.58172 413.582 0 418 0H782C786.418 0 790 3.58172 790 8V388H410V8Z"/>
</mask>
<path d="M410 8C410 3.58172 413.582 0 418 0H782C786.418 0 790 3.58172 790 8V388H410V8Z" fill="#F6F6F3"/>
<path d="M790 388V389H791V388H790ZM410 388H409V389H410V388ZM418 1H782V-1H418V1ZM789 8V388H791V8H789ZM790 387H410V389H790V387ZM411 388V8H409V388H411ZM782 1C785.866 1 789 4.13401 789 8H791C791 3.02944 786.971 -1 782 -1V1ZM418 -1C413.029 -1 409 3.02944 409 8H411C411 4.13401 414.134 1 418 1V-1Z" fill="#D0CEC8" mask="url(#path-53-inside-3_790_1689)"/>
</g>
<path d="M703 269L694.34 283.956L711.66 284.043L703 269ZM704.5 347.04L704.5 282.507L701.5 282.492L701.5 347.025L704.5 347.04Z" fill="#633636" id="Vector 248_2"/>
<path d="M410.5 387.5H788.5V619C788.5 623.142 785.142 626.5 781 626.5H418C413.858 626.5 410.5 623.142 410.5 619V387.5Z" id="Rectangle 373_2" stroke="#B8B6AD"/>
<text fill="black" font-family="Roboto Mono" font-size="17" id="The National Digital Analytics Group (âªN_2" letter-spacing="0em" style="white-space: pre" xml:space="preserve"><tspan x="431" y="450.603">The National Digital Analytics </tspan><tspan x="431" y="470.603">Group (⇪N</tspan></text>
<text fill="#706D5C" font-family="Roboto" font-size="12" font-weight="bold" id="Top Outputs_2" letter-spacing="0em" style="white-space: pre" xml:space="preserve"><tspan x="431" y="518.102">TOP OUTPUTS</tspan></text>
<text fill="#706D5C" font-family="Roboto" font-size="12" font-weight="bold" id="Prompt_2" letter-spacing="0em" style="white-space: pre" xml:space="preserve"><tspan x="431" y="422.102">PROMPT</tspan></text>
<path d="M595.115 162.396L586.455 177.347L603.776 177.445L595.115 162.396ZM596.615 181.509L596.615 175.904L593.615 175.887L593.615 181.491L596.615 181.509Z" fill="#633636" id="Vector 267"/>
<path d="M595.362 215L595.362 202.465C595.362 198.06 598.923 194.5 603.327 194.5L650.721 194.5L669 194.5" id="Vector 268" opacity="0.66" stroke="#633636" stroke-width="3"/>
<path d="M480.166 230.659L480.166 202.463C480.166 198.059 483.725 194.499 488.129 194.499L537.514 194.491L586.965 194.483C591.343 194.482 594.892 190.962 594.928 186.585L595.058 170.999" id="Vector 270" stroke="#633636" stroke-width="3"/>
<path d="M484.422 269L475.761 283.956L493.082 284.043L484.422 269ZM485.922 347.04L485.922 282.507L482.922 282.492L482.922 347.025L485.922 347.04Z" fill="#633636" id="Vector 273"/>
<path d="M595.326 268.93L586.666 283.887L603.986 283.973L595.326 268.93ZM596.826 346.54L596.826 282.438L593.826 282.423L593.826 346.525L596.826 346.54Z" fill="#633636" id="Vector 274"/>
<rect fill="#E6E3D6" height="45" id="image_9" rx="7" stroke="#706D5C" stroke-width="2" width="83" x="442" y="322"/>
<text fill="black" font-family="Roboto" font-size="17" id="Digital_2" letter-spacing="0em" style="white-space: pre" xml:space="preserve"><tspan x="459.544" y="350.311">Digital</tspan></text>
<rect fill="#E6E3D6" height="45" id="image_10" rx="7" stroke="#706D5C" stroke-width="2" width="83" x="553" y="322"/>
<text fill="black" font-family="Roboto" font-size="17" id="Analytics_2" letter-spacing="0em" style="white-space: pre" xml:space="preserve"><tspan x="559.353" y="350.311">Analytics</tspan></text>
<text fill="black" font-family="Roboto" font-size="17" id="Group_2" letter-spacing="0em" style="white-space: pre" xml:space="preserve"><tspan x="680.598" y="350.311">Group</tspan></text>
<rect fill="#E6E3D6" height="45" id="image_11" opacity="0.6" rx="7" stroke="#706D5C" stroke-width="2" width="83" x="553" y="216"/>
<text fill="black" font-family="Roboto" font-size="17" id="say â_Aâ_3" letter-spacing="0em" opacity="0.6" style="white-space: pre" xml:space="preserve"><tspan x="564.493" y="243.311">say “_A”</tspan></text>
<rect fill="#E6E3D6" height="45" id="image_12" opacity="0.1" rx="7" stroke="#706D5C" stroke-width="2" width="83" x="661" y="23"/>
<text fill="black" font-family="Roboto" font-size="17" id="say DAG_2" letter-spacing="0em" opacity="0.1" style="white-space: pre" xml:space="preserve"><tspan x="670.142" y="49.8105">say DAG</tspan></text>
<path d="M702 215L702 173" id="Vector 275" opacity="0.1" stroke="#633636" stroke-width="3"/>
<rect fill="#E6E3D6" height="45" id="image_13" opacity="0.1" rx="7" stroke="#706D5C" stroke-width="2" width="83" x="662" y="216"/>
<text fill="black" font-family="Roboto" font-size="17" id="say â_Gâ_2" letter-spacing="0em" opacity="0.1" style="white-space: pre" xml:space="preserve"><tspan x="672.746" y="243.311">say “_G”</tspan></text>
<text fill="#666666" font-family="Roboto" font-size="13" id="105%" letter-spacing="0em" opacity="0.7" style="white-space: pre" xml:space="preserve"><tspan x="554.541" y="109.943">105%</tspan></text>
<text fill="#666666" font-family="Roboto" font-size="13" id="0%" letter-spacing="0em" opacity="0.7" style="white-space: pre" xml:space="preserve"><tspan x="641.166" y="36.9434">0%</tspan></text>
<text fill="#666666" font-family="Roboto" font-size="13" id="0%_2" letter-spacing="0em" opacity="0.7" style="white-space: pre" xml:space="preserve"><tspan x="682.166" y="209.943">0%</tspan></text>
<text fill="#666666" font-family="Roboto" font-size="13" id="100%_9" letter-spacing="0em" opacity="0.7" style="white-space: pre" xml:space="preserve"><tspan x="667.541" y="315.943">100%</tspan></text>
<text fill="#666666" font-family="Roboto" font-size="13" id="66%" letter-spacing="0em" opacity="0.7" style="white-space: pre" xml:space="preserve"><tspan x="564.854" y="209.943">66%</tspan></text>
<text fill="#666666" font-family="Roboto" font-size="13" id="89%" letter-spacing="0em" opacity="0.7" style="white-space: pre" xml:space="preserve"><tspan x="444.854" y="209.943">89%</tspan></text>
<text fill="#666666" font-family="Roboto" font-size="13" id="100%_10" letter-spacing="0em" opacity="0.7" style="white-space: pre" xml:space="preserve"><tspan x="558.541" y="315.943">100%</tspan></text>
<text fill="#666666" font-family="Roboto" font-size="13" id="100%_11" letter-spacing="0em" opacity="0.7" style="white-space: pre" xml:space="preserve"><tspan x="447.541" y="315.943">100%</tspan></text>
<text fill="#706D5C" font-family="Styrene B LC" font-size="12" font-weight="bold" id="Suppress Group" letter-spacing="0em" style="white-space: pre" xml:space="preserve"><tspan x="424" y="26.53">SUPPRESS GROUP</tspan></text>
<g id="LogitProb_3" opacity="0.98">
<g id="Frame 91_3">
<rect fill="#EAE7DF" height="31" rx="2" width="43" x="431" y="531"/>
<text fill="black" font-family="Roboto Mono" font-size="17" id="Washington_3" letter-spacing="0em" style="white-space: pre" xml:space="preserve"><tspan x="437" y="553.103">ADA</tspan></text>
</g>
<text fill="#666666" font-family="Roboto" font-size="13" id="20%_3" letter-spacing="0em" style="white-space: pre" xml:space="preserve"><tspan x="482" y="550.943">85%</tspan></text>
</g>
<g id="LogitProb_4">
<g id="Frame 91_4">
<rect fill="#EAE7DF" height="31" rx="2" width="43" x="560" y="531"/>
<text fill="black" font-family="Roboto Mono" font-size="17" id="Washington_4" letter-spacing="0em" style="white-space: pre" xml:space="preserve"><tspan x="566" y="553.103">DAM</tspan></text>
</g>
<text fill="#666666" font-family="Roboto" font-size="13" id="20%_4" letter-spacing="0em" style="white-space: pre" xml:space="preserve"><tspan x="611" y="550.943">4%</tspan></text>
</g>
<g id="LogitProb_5">
<g id="Frame 91_5">
<rect fill="#EAE7DF" height="31" rx="2" width="43" x="695" y="531"/>
<text fill="black" font-family="Roboto Mono" font-size="17" id="Washington_5" letter-spacing="0em" style="white-space: pre" xml:space="preserve"><tspan x="701" y="553.103">DAN</tspan></text>
</g>
<text fill="#666666" font-family="Roboto" font-size="13" id="20%_5" letter-spacing="0em" style="white-space: pre" xml:space="preserve"><tspan x="746" y="550.943">3%</tspan></text>
</g>
<g id="LogitProb_6">
<g id="Frame 91_6">
<rect fill="#EAE7DF" height="31" rx="2" width="33" x="431" y="573"/>
<text fill="black" font-family="Roboto Mono" font-size="17" id="Washington_6" letter-spacing="0em" style="white-space: pre" xml:space="preserve"><tspan x="437" y="595.103">DA</tspan></text>
</g>
<text fill="#666666" font-family="Roboto" font-size="13" id="20%_6" letter-spacing="0em" style="white-space: pre" xml:space="preserve"><tspan x="472" y="592.943">2%</tspan></text>
</g>
<g id="LogitProb_7">
<g id="Frame 91_7">
<rect fill="#EAE7DF" height="31" rx="2" width="43" x="560" y="573"/>
<text fill="black" font-family="Roboto Mono" font-size="17" id="Washington_7" letter-spacing="0em" style="white-space: pre" xml:space="preserve"><tspan x="566" y="595.103">DAQ</tspan></text>
</g>
<text fill="#666666" font-family="Roboto" font-size="13" id="20%_7" letter-spacing="0em" style="white-space: pre" xml:space="preserve"><tspan x="611" y="592.943">1%</tspan></text>
</g>
<g id="LogitProb_8">
<g id="Frame 91_8">
<rect fill="#EAE7DF" height="31" rx="2" width="43" x="695" y="573"/>
<text fill="black" font-family="Roboto Mono" font-size="17" id="Washington_8" letter-spacing="0em" style="white-space: pre" xml:space="preserve"><tspan x="701" y="595.103">DAG</tspan></text>
</g>
<text fill="#666666" font-family="Roboto" font-size="13" id="20%_8" letter-spacing="0em" style="white-space: pre" xml:space="preserve"><tspan x="746" y="592.943">1%</tspan></text>
</g>
<g id="Group 415" opacity="0.1">
<rect fill="#E6E3D6" height="45" id="image_14" rx="7" stroke="#706D5C" stroke-width="2" width="83" x="661" y="322"/>
<text fill="black" font-family="Roboto" font-size="17" id="Group_3" letter-spacing="0em" style="white-space: pre" xml:space="preserve"><tspan x="683.598" y="351.311">Group</tspan></text>
</g>
<g id="InterventionPill">
<rect fill="#CC6500" height="25" rx="12.5" width="52" x="677" y="332"/>
<text fill="white" font-family="Roboto" font-size="20" id="+Z" letter-spacing="0em" style="white-space: pre" xml:space="preserve"><tspan x="685.369" y="351.336">−1×</tspan></text>
</g>
<path d="M702 69L693.34 84L710.66 84L702 69ZM703.5 177L703.5 82.5L700.5 82.5L700.5 177H703.5Z" fill="#633636" id="Vector 245_2"/>
<path d="M595.29 122.66V105.5C595.29 101.082 598.872 97.5 603.29 97.5H694C698.418 97.5 702 93.9183 702 89.5V73.5" id="Vector 263_2" stroke="#633636" stroke-width="3"/>
<rect fill="#E6E3D6" height="45" id="image_15" rx="7" stroke="#706D5C" stroke-width="2" width="103" x="546" y="116"/>
<text fill="black" font-family="Roboto" font-size="17" id="say â_DA_â_2" letter-spacing="0em" style="white-space: pre" xml:space="preserve"><tspan x="557.173" y="143.311">say “_DA_”</tspan></text>
<path d="M480.166 230.659L480.298 202.462C480.319 198.059 483.895 194.5 488.298 194.5H694C698.418 194.5 702 190.918 702 186.5V171" id="Vector 265_2" stroke="#633636" stroke-width="3"/>
<rect fill="#E6E3D6" height="45" id="image_16" rx="7" stroke="#706D5C" stroke-width="2" width="83" x="442" y="216"/>
<text fill="black" font-family="Roboto" font-size="17" id="say âD_â_2" letter-spacing="0em" style="white-space: pre" xml:space="preserve"><tspan x="452.961" y="243.311">say “D_”</tspan></text>
</g>
<g id="Figure 00: Suppressing the word âGroupâ in the fictional organizationâs name causes 18L to output other acronyms with âDAâ in them.">
<text fill="#4D4D4D" font-family="Roboto" font-size="13" letter-spacing="0em" style="white-space: pre" xml:space="preserve"><tspan x="0" y="656.443">Figure 00:</tspan><tspan x="60.2266" y="656.443">Suppressing the word “Group” in the fictional organization’s name causes 18L to output other acronyms with “DA” in them.</tspan></text>
<text fill="#4D4D4D" font-family="Roboto" font-size="13" font-weight="bold" letter-spacing="0em" style="white-space: pre" xml:space="preserve"><tspan x="56.9893" y="656.443"> </tspan></text>
</g>
</g>
<defs>
<clipPath id="clip0_790_1689">
<rect fill="white" height="661" width="790"/>
</clipPath>
</defs>
</svg>