<?xml version="1.0" encoding="utf-8"?>
<svg fill="none" height="770" viewBox="0 0 768 770" width="768" xmlns="http://www.w3.org/2000/svg" xmlns:xlink="http://www.w3.org/1999/xlink">
<g id="not-easy-fourier-features-svg">
<rect fill="white" height="769.746" width="768"/>
<g clip-path="url(#clip0_2142_3582)" id="logit effects">
<text fill="#1A1A1A" font-family="Roboto" font-size="25" font-weight="bold" id="snh35_simple-__b1061164" letter-spacing="0em" style="white-space: pre" transform="translate(0 20)" xml:space="preserve"><tspan x="267.706" y="21.0449">“Simple numbers”</tspan></text>
<g id="figure_1">
<g id="axes_1">
<g id="patch_2">
<path d="M33.4146 196.2H738.546V55H33.4146V196.2Z" fill="white" id="Vector"/>
</g>
<g id="Clip path group">
<mask height="142" id="mask0_2142_3582" maskUnits="userSpaceOnUse" style="mask-type:luminance" width="706" x="33" y="55">
<g id="p9b9baf322e">
<path d="M738.546 55H33.4146V196.2H738.546V55Z" fill="white" id="Vector_2"/>
</g>
</mask>
<g mask="url(#mask0_2142_3582)">
<g id="Group">
<rect fill="url(#pattern0_2142_3582)" height="142.08" id="image0cdd80dbb2" transform="matrix(1 0 0 -1 33.4146 196.199)" width="705.6"/>
</g>
</g>
</g>
<g id="matplotlib.axis_1">
<g id="xtick_1">
<g id="line2d_1">
<g id="Group_2">
<g id="Vector_3">
<path d="M36.9402 196.199V200.866V196.199Z" fill="#666664"/>
<path d="M36.9402 196.199V200.866" stroke="#666664" stroke-width="1.06667"/>
</g>
</g>
</g>
<g id="text_1">
<g id="Group_3">
<path d="M24.1401 217.373H31.286V216.358H24.1401V217.373Z" fill="#666664" id="Vector_4"/>
<path d="M36.4852 205.718C34.4852 205.718 33.179 207 33.179 209.173V212.052C33.179 214.333 34.5269 215.506 36.4852 215.506C38.4456 215.506 39.7935 214.333 39.7935 212.052V209.173C39.7935 207 38.4852 205.718 36.4852 205.718ZM36.4852 214.333C35.1394 214.333 34.4602 213.358 34.4602 212.039V209.185C34.4602 207.866 35.1394 206.891 36.4852 206.891C37.8331 206.891 38.5123 207.866 38.5123 209.185V212.039C38.5123 213.358 37.8331 214.333 36.4852 214.333Z" fill="#666664" id="Vector_5"/>
<path d="M45.7118 205.718C43.7118 205.718 42.4055 207 42.4055 209.173V212.052C42.4055 214.333 43.7534 215.506 45.7118 215.506C47.6722 215.506 49.0201 214.333 49.0201 212.052V209.173C49.0201 207 47.7118 205.718 45.7118 205.718ZM45.7118 214.333C44.3659 214.333 43.6868 213.358 43.6868 212.039V209.185C43.6868 207.866 44.3659 206.891 45.7118 206.891C47.0597 206.891 47.7389 207.866 47.7389 209.185V212.039C47.7389 213.358 47.0597 214.333 45.7118 214.333Z" fill="#666664" id="Vector_6"/>
</g>
</g>
</g>
<g id="xtick_2">
<g id="line2d_2">
<g id="Group_4">
<g id="Vector_7">
<path d="M107.453 196.199V200.866V196.199Z" fill="#666664"/>
<path d="M107.453 196.199V200.866" stroke="#666664" stroke-width="1.06667"/>
</g>
</g>
</g>
<g id="text_2">
<g id="Group_5">
<path d="M96.3 217.373H103.446V216.358H96.3V217.373Z" fill="#666664" id="Vector_8"/>
<path d="M108.339 205.839H107.378L104.699 207.479V208.706L107.045 207.346V215.346H108.339V205.839Z" fill="#666664" id="Vector_9"/>
<path d="M114.578 205.718C112.578 205.718 111.272 207 111.272 209.173V212.052C111.272 214.333 112.62 215.506 114.578 215.506C116.539 215.506 117.887 214.333 117.887 212.052V209.173C117.887 207 116.578 205.718 114.578 205.718ZM114.578 214.333C113.233 214.333 112.553 213.358 112.553 212.039V209.185C112.553 207.866 113.233 206.891 114.578 206.891C115.926 206.891 116.606 207.866 116.606 209.185V212.039C116.606 213.358 115.926 214.333 114.578 214.333Z" fill="#666664" id="Vector_10"/>
</g>
</g>
</g>
<g id="xtick_3">
<g id="line2d_3">
<g id="Group_6">
<g id="Vector_11">
<path d="M177.966 196.199V200.866V196.199Z" fill="#666664"/>
<path d="M177.966 196.199V200.866" stroke="#666664" stroke-width="1.06667"/>
</g>
</g>
</g>
<g id="text_3">
<g id="Group_7">
<path d="M165.66 217.373H172.806V216.358H165.66V217.373Z" fill="#666664" id="Vector_12"/>
<path d="M181.047 214.173H176.432L178.432 212.212C179.593 211.079 180.499 210.133 180.499 208.639C180.499 206.973 179.326 205.719 177.447 205.719C175.565 205.719 174.42 206.985 174.42 208.733V209.358H175.686V208.746C175.686 207.667 176.338 206.892 177.447 206.892C178.553 206.892 179.205 207.585 179.205 208.639C179.205 209.667 178.62 210.358 177.593 211.385L174.393 214.546V215.346H181.047V214.173Z" fill="#666664" id="Vector_13"/>
<path d="M186.245 205.718C184.245 205.718 182.939 207 182.939 209.173V212.052C182.939 214.333 184.287 215.506 186.245 215.506C188.206 215.506 189.554 214.333 189.554 212.052V209.173C189.554 207 188.245 205.718 186.245 205.718ZM186.245 214.333C184.899 214.333 184.22 213.358 184.22 212.039V209.185C184.22 207.866 184.899 206.891 186.245 206.891C187.593 206.891 188.272 207.866 188.272 209.185V212.039C188.272 213.358 187.593 214.333 186.245 214.333Z" fill="#666664" id="Vector_14"/>
</g>
</g>
</g>
<g id="xtick_4">
<g id="line2d_4">
<g id="Group_8">
<g id="Vector_15">
<path d="M248.479 196.199V200.866V196.199Z" fill="#666664"/>
<path d="M248.479 196.199V200.866" stroke="#666664" stroke-width="1.06667"/>
</g>
</g>
</g>
<g id="text_4">
<g id="Group_9">
<path d="M236.013 217.373H243.159V216.358H236.013V217.373Z" fill="#666664" id="Vector_16"/>
<path d="M251.345 212.758C251.345 211.252 250.425 210.585 249.718 210.373C250.291 210.118 251.039 209.491 251.039 208.318C251.039 206.812 249.918 205.718 247.933 205.718C245.866 205.718 244.933 207.091 244.866 208.306H246.145C246.291 207.506 246.825 206.879 247.945 206.879C249.012 206.879 249.758 207.425 249.758 208.373C249.758 209.333 249.158 209.866 248.145 209.866H246.439V211.039H248.106C249.333 211.039 250.039 211.612 250.039 212.679C250.039 213.733 249.239 214.333 247.972 214.333C246.679 214.333 246.039 213.573 245.906 212.839H244.612C244.718 214.133 245.733 215.506 247.972 215.506C250.106 215.506 251.345 214.4 251.345 212.758Z" fill="#666664" id="Vector_17"/>
<path d="M256.918 205.718C254.918 205.718 253.612 207 253.612 209.173V212.052C253.612 214.333 254.959 215.506 256.918 215.506C258.878 215.506 260.226 214.333 260.226 212.052V209.173C260.226 207 258.918 205.718 256.918 205.718ZM256.918 214.333C255.572 214.333 254.893 213.358 254.893 212.039V209.185C254.893 207.866 255.572 206.891 256.918 206.891C258.266 206.891 258.945 207.866 258.945 209.185V212.039C258.945 213.358 258.266 214.333 256.918 214.333Z" fill="#666664" id="Vector_18"/>
</g>
</g>
</g>
<g id="xtick_5">
<g id="line2d_5">
<g id="Group_10">
<g id="Vector_19">
<path d="M318.993 196.199V200.866V196.199Z" fill="#666664"/>
<path d="M318.993 196.199V200.866" stroke="#666664" stroke-width="1.06667"/>
</g>
</g>
</g>
<g id="text_5">
<g id="Group_11">
<path d="M306.22 217.373H313.366V216.358H306.22V217.373Z" fill="#666664" id="Vector_20"/>
<path d="M322.619 212.425V211.306H320.606V205.879H319.192L314.552 211.719V212.425H319.352V215.346H320.606V212.425H322.619ZM316.258 211.306L319.352 207.373V211.306H316.258Z" fill="#666664" id="Vector_21"/>
<path d="M327.738 205.718C325.738 205.718 324.432 207 324.432 209.173V212.052C324.432 214.333 325.78 215.506 327.738 215.506C329.699 215.506 331.046 214.333 331.046 212.052V209.173C331.046 207 329.738 205.718 327.738 205.718ZM327.738 214.333C326.392 214.333 325.713 213.358 325.713 212.039V209.185C325.713 207.866 326.392 206.891 327.738 206.891C329.086 206.891 329.765 207.866 329.765 209.185V212.039C329.765 213.358 329.086 214.333 327.738 214.333Z" fill="#666664" id="Vector_22"/>
</g>
</g>
</g>
<g id="xtick_6">
<g id="line2d_6">
<g id="Group_12">
<g id="Vector_23">
<path d="M389.506 196.199V200.866V196.199Z" fill="#666664"/>
<path d="M389.506 196.199V200.866" stroke="#666664" stroke-width="1.06667"/>
</g>
</g>
</g>
<g id="text_6">
<g id="Group_13">
<path d="M376.98 217.373H384.126V216.358H376.98V217.373Z" fill="#666664" id="Vector_24"/>
<path d="M386.233 211.158H387.3C387.446 210.945 387.9 210.279 389.085 210.279C390.312 210.279 391.125 211.025 391.125 212.239V212.373C391.125 213.506 390.3 214.333 389.085 214.333C387.606 214.333 387.139 213.373 387.033 212.733H385.766C385.873 214.173 386.912 215.506 389.085 215.506C391.073 215.506 392.406 214.212 392.406 212.373V212.225C392.406 210.239 391.006 209.106 389.379 209.106C388.458 209.106 387.833 209.425 387.458 209.8V207.052H392.046V205.879H386.233V211.158Z" fill="#666664" id="Vector_25"/>
<path d="M398.005 205.718C396.005 205.718 394.698 207 394.698 209.173V212.052C394.698 214.333 396.046 215.506 398.005 215.506C399.965 215.506 401.313 214.333 401.313 212.052V209.173C401.313 207 400.005 205.718 398.005 205.718ZM398.005 214.333C396.659 214.333 395.98 213.358 395.98 212.039V209.185C395.98 207.866 396.659 206.891 398.005 206.891C399.353 206.891 400.032 207.866 400.032 209.185V212.039C400.032 213.358 399.353 214.333 398.005 214.333Z" fill="#666664" id="Vector_26"/>
</g>
</g>
</g>
<g id="xtick_7">
<g id="line2d_7">
<g id="Group_14">
<g id="Vector_27">
<path d="M460.019 196.199V200.866V196.199Z" fill="#666664"/>
<path d="M460.019 196.199V200.866" stroke="#666664" stroke-width="1.06667"/>
</g>
</g>
</g>
<g id="text_7">
<g id="Group_15">
<path d="M447.472 217.373H454.618V216.358H447.472V217.373Z" fill="#666664" id="Vector_28"/>
<path d="M462.965 212.279C462.965 210.318 461.698 209.106 459.938 209.106C459.417 209.106 459.004 209.212 458.684 209.385L461.444 205.879H459.911L457.698 208.773C456.859 209.852 456.165 210.839 456.165 212.279C456.165 214.145 457.392 215.506 459.55 215.506C461.684 215.506 462.965 214.091 462.965 212.279ZM461.671 212.279C461.671 213.412 460.938 214.333 459.55 214.333C458.217 214.333 457.459 213.412 457.459 212.279C457.459 211.106 458.271 210.2 459.55 210.2C460.938 210.2 461.671 211.106 461.671 212.279Z" fill="#666664" id="Vector_29"/>
<path d="M468.537 205.718C466.537 205.718 465.231 207 465.231 209.173V212.052C465.231 214.333 466.579 215.506 468.537 215.506C470.497 215.506 471.845 214.333 471.845 212.052V209.173C471.845 207 470.537 205.718 468.537 205.718ZM468.537 214.333C467.191 214.333 466.512 213.358 466.512 212.039V209.185C466.512 207.866 467.191 206.891 468.537 206.891C469.885 206.891 470.564 207.866 470.564 209.185V212.039C470.564 213.358 469.885 214.333 468.537 214.333Z" fill="#666664" id="Vector_30"/>
</g>
</g>
</g>
<g id="xtick_8">
<g id="line2d_8">
<g id="Group_16">
<g id="Vector_31">
<path d="M530.532 196.199V200.866V196.199Z" fill="#666664"/>
<path d="M530.532 196.199V200.866" stroke="#666664" stroke-width="1.06667"/>
</g>
</g>
</g>
<g id="text_8">
<g id="Group_17">
<path d="M518.226 217.373H525.372V216.358H518.226V217.373Z" fill="#666664" id="Vector_32"/>
<path d="M533.465 206.852V205.879H526.825V207.052H531.998L527.358 215.346H528.771L533.465 206.852Z" fill="#666664" id="Vector_33"/>
<path d="M538.811 205.718C536.811 205.718 535.505 207 535.505 209.173V212.052C535.505 214.333 536.853 215.506 538.811 215.506C540.771 215.506 542.119 214.333 542.119 212.052V209.173C542.119 207 540.811 205.718 538.811 205.718ZM538.811 214.333C537.465 214.333 536.786 213.358 536.786 212.039V209.185C536.786 207.866 537.465 206.891 538.811 206.891C540.159 206.891 540.838 207.866 540.838 209.185V212.039C540.838 213.358 540.159 214.333 538.811 214.333Z" fill="#666664" id="Vector_34"/>
</g>
</g>
</g>
<g id="xtick_9">
<g id="line2d_9">
<g id="Group_18">
<g id="Vector_35">
<path d="M601.045 196.199V200.866V196.199Z" fill="#666664"/>
<path d="M601.045 196.199V200.866" stroke="#666664" stroke-width="1.06667"/>
</g>
</g>
</g>
<g id="text_9">
<g id="Group_19">
<path d="M588.392 217.373H595.538V216.358H588.392V217.373Z" fill="#666664" id="Vector_36"/>
<path d="M603.991 212.785C603.991 211.452 603.031 210.679 602.297 210.466C602.979 210.252 603.804 209.612 603.804 208.333C603.804 206.839 602.737 205.718 600.764 205.718H600.418C598.458 205.718 597.379 206.839 597.379 208.333C597.379 209.612 598.204 210.252 598.885 210.466C598.152 210.679 597.191 211.452 597.191 212.785C597.191 214.385 598.404 215.506 600.379 215.506H600.737C602.752 215.506 603.991 214.385 603.991 212.785ZM600.764 206.866C601.831 206.866 602.524 207.466 602.524 208.385C602.524 209.306 601.831 209.906 600.764 209.906H600.418C599.352 209.906 598.658 209.306 598.658 208.385C598.658 207.466 599.352 206.866 600.418 206.866H600.764ZM600.791 211.052C601.924 211.052 602.685 211.691 602.685 212.706C602.685 213.718 601.924 214.358 600.791 214.358H600.391C599.27 214.358 598.497 213.718 598.497 212.706C598.497 211.691 599.27 211.052 600.391 211.052H600.791Z" fill="#666664" id="Vector_37"/>
<path d="M609.671 205.718C607.671 205.718 606.364 207 606.364 209.173V212.052C606.364 214.333 607.712 215.506 609.671 215.506C611.631 215.506 612.979 214.333 612.979 212.052V209.173C612.979 207 611.671 205.718 609.671 205.718ZM609.671 214.333C608.325 214.333 607.646 213.358 607.646 212.039V209.185C607.646 207.866 608.325 206.891 609.671 206.891C611.018 206.891 611.698 207.866 611.698 209.185V212.039C611.698 213.358 611.018 214.333 609.671 214.333Z" fill="#666664" id="Vector_38"/>
</g>
</g>
</g>
<g id="xtick_10">
<g id="line2d_10">
<g id="Group_20">
<g id="Vector_39">
<path d="M671.558 196.199V200.866V196.199Z" fill="#666664"/>
<path d="M671.558 196.199V200.866" stroke="#666664" stroke-width="1.06667"/>
</g>
</g>
</g>
<g id="text_10">
<g id="Group_21">
<path d="M659.011 217.373H666.157V216.358H659.011V217.373Z" fill="#666664" id="Vector_40"/>
<path d="M672.971 212.452C673.811 211.358 674.504 210.385 674.504 208.946C674.504 207.079 673.277 205.719 671.117 205.719C668.984 205.719 667.704 207.133 667.704 208.946C667.704 210.906 668.971 212.119 670.731 212.119C671.25 212.119 671.665 212.012 671.984 211.839L669.223 215.346H670.756L672.971 212.452ZM668.998 208.946C668.998 207.839 669.731 206.892 671.117 206.892C672.45 206.892 673.211 207.839 673.211 208.946C673.211 210.119 672.398 211.025 671.117 211.025C669.731 211.025 668.998 210.119 668.998 208.946Z" fill="#666664" id="Vector_41"/>
<path d="M680.077 205.718C678.077 205.718 676.77 207 676.77 209.173V212.052C676.77 214.333 678.118 215.506 680.077 215.506C682.037 215.506 683.385 214.333 683.385 212.052V209.173C683.385 207 682.077 205.718 680.077 205.718ZM680.077 214.333C678.731 214.333 678.052 213.358 678.052 212.039V209.185C678.052 207.866 678.731 206.891 680.077 206.891C681.424 206.891 682.104 207.866 682.104 209.185V212.039C682.104 213.358 681.424 214.333 680.077 214.333Z" fill="#666664" id="Vector_42"/>
</g>
</g>
</g>
</g>
<g id="matplotlib.axis_2">
<g id="ytick_1">
<g id="text_11">
<g id="Group_22">
<path d="M3.95835 184.42C1.95835 184.42 0.6521 185.701 0.6521 187.874V190.753C0.6521 193.034 2.00002 194.207 3.95835 194.207C5.91877 194.207 7.26668 193.034 7.26668 190.753V187.874C7.26668 185.701 5.95835 184.42 3.95835 184.42ZM3.95835 193.034C2.61252 193.034 1.93335 192.059 1.93335 190.74V187.886C1.93335 186.567 2.61252 185.592 3.95835 185.592C5.30627 185.592 5.98543 186.567 5.98543 187.886V190.74C5.98543 192.059 5.30627 193.034 3.95835 193.034Z" fill="#666664" id="Vector_43"/>
<path d="M9.15991 196.074H16.3057V195.06H9.15991V196.074Z" fill="#666664" id="Vector_44"/>
<path d="M21.0134 196.074H28.1593V195.06H21.0134V196.074Z" fill="#666664" id="Vector_45"/>
</g>
</g>
</g>
<g id="ytick_2">
<g id="text_12">
<g id="Group_23">
<path d="M6.94574 170.42H5.98532L3.30615 172.059V173.286L5.65199 171.926V179.926H6.94574V170.42Z" fill="#666664" id="Vector_46"/>
<path d="M9.1604 181.953H16.3062V180.939H9.1604V181.953Z" fill="#666664" id="Vector_47"/>
<path d="M21.0137 181.953H28.1595V180.939H21.0137V181.953Z" fill="#666664" id="Vector_48"/>
</g>
</g>
</g>
<g id="ytick_3">
<g id="text_13">
<g id="Group_24">
<path d="M7.98742 164.634H3.37284L5.37284 162.673C6.53325 161.54 7.4395 160.594 7.4395 159.1C7.4395 157.434 6.26659 156.18 4.38742 156.18C2.50617 156.18 1.36034 157.446 1.36034 159.194V159.819H2.627V159.207C2.627 158.127 3.27909 157.352 4.38742 157.352C5.49367 157.352 6.14575 158.046 6.14575 159.1C6.14575 160.127 5.56034 160.819 4.53325 161.846L1.33325 165.007V165.807H7.98742V164.634Z" fill="#666664" id="Vector_49"/>
<path d="M9.16064 167.834H16.3065V166.819H9.16064V167.834Z" fill="#666664" id="Vector_50"/>
<path d="M21.0142 167.834H28.16V166.819H21.0142V167.834Z" fill="#666664" id="Vector_51"/>
</g>
</g>
</g>
<g id="ytick_4">
<g id="text_14">
<g id="Group_25">
<path d="M7.61248 149.1C7.61248 147.593 6.69165 146.927 5.9854 146.714C6.55832 146.46 7.30623 145.833 7.30623 144.66C7.30623 143.154 6.1854 142.06 4.19998 142.06C2.13332 142.06 1.19998 143.433 1.13332 144.648H2.41248C2.55832 143.848 3.09165 143.221 4.21248 143.221C5.27915 143.221 6.02498 143.766 6.02498 144.714C6.02498 145.675 5.42498 146.208 4.41248 146.208H2.70623V147.381H4.3729C5.59998 147.381 6.30623 147.954 6.30623 149.021C6.30623 150.075 5.50623 150.675 4.23957 150.675C2.94582 150.675 2.30623 149.914 2.1729 149.181H0.87915C0.9854 150.475 1.99998 151.848 4.23957 151.848C6.3729 151.848 7.61248 150.741 7.61248 149.1Z" fill="#666664" id="Vector_52"/>
<path d="M9.15991 153.715H16.3057V152.7H9.15991V153.715Z" fill="#666664" id="Vector_53"/>
<path d="M21.0134 153.715H28.1593V152.7H21.0134V153.715Z" fill="#666664" id="Vector_54"/>
</g>
</g>
</g>
<g id="ytick_5">
<g id="text_15">
<g id="Group_26">
<path d="M8.06667 134.646V133.527H6.05417V128.1H4.63958L0 133.939V134.646H4.8V137.566H6.05417V134.646H8.06667ZM1.70625 133.527L4.8 129.593V133.527H1.70625Z" fill="#666664" id="Vector_55"/>
<path d="M9.16089 139.594H16.3067V138.579H9.16089V139.594Z" fill="#666664" id="Vector_56"/>
<path d="M21.0142 139.594H28.16V138.579H21.0142V139.594Z" fill="#666664" id="Vector_57"/>
</g>
</g>
</g>
<g id="ytick_6">
<g id="text_16">
<g id="Group_27">
<path d="M1.41466 119.26H2.48133C2.62716 119.047 3.08133 118.38 4.26675 118.38C5.49383 118.38 6.30633 119.126 6.30633 120.341V120.474C6.30633 121.607 5.48133 122.435 4.26675 122.435C2.78758 122.435 2.32091 121.474 2.21466 120.835H0.947998C1.05425 122.274 2.09383 123.607 4.26675 123.607C6.25425 123.607 7.58758 122.314 7.58758 120.474V120.326C7.58758 118.341 6.18758 117.207 4.5605 117.207C3.63966 117.207 3.01466 117.526 2.63966 117.901V115.153H7.22717V113.98H1.41466V119.26Z" fill="#666664" id="Vector_58"/>
<path d="M9.16138 125.475H16.3072V124.46H9.16138V125.475Z" fill="#666664" id="Vector_59"/>
<path d="M21.0146 125.475H28.1605V124.46H21.0146V125.475Z" fill="#666664" id="Vector_60"/>
</g>
</g>
</g>
<g id="ytick_7">
<g id="text_17">
<g id="Group_28">
<path d="M7.6125 106.259C7.6125 104.299 6.34583 103.086 4.58542 103.086C4.06458 103.086 3.65208 103.193 3.33125 103.365L6.09167 99.8592H4.55833L2.34583 102.753C1.50625 103.832 0.8125 104.82 0.8125 106.259C0.8125 108.126 2.03958 109.486 4.19792 109.486C6.33125 109.486 7.6125 108.072 7.6125 106.259ZM6.31875 106.259C6.31875 107.393 5.58542 108.313 4.19792 108.313C2.86458 108.313 2.10625 107.393 2.10625 106.259C2.10625 105.086 2.91875 104.18 4.19792 104.18C5.58542 104.18 6.31875 105.086 6.31875 106.259Z" fill="#666664" id="Vector_61"/>
<path d="M9.15967 111.354H16.3055V110.339H9.15967V111.354Z" fill="#666664" id="Vector_62"/>
<path d="M21.0129 111.354H28.1588V110.339H21.0129V111.354Z" fill="#666664" id="Vector_63"/>
</g>
</g>
</g>
<g id="ytick_8">
<g id="text_18">
<g id="Group_29">
<path d="M7.83953 86.7133V85.7404H1.19995V86.9133H6.37287L1.73328 95.207H3.14578L7.83953 86.7133Z" fill="#666664" id="Vector_64"/>
<path d="M9.16089 97.2344H16.3067V96.2198H9.16089V97.2344Z" fill="#666664" id="Vector_65"/>
<path d="M21.0142 97.2344H28.16V96.2198H21.0142V97.2344Z" fill="#666664" id="Vector_66"/>
</g>
</g>
</g>
<g id="ytick_9">
<g id="text_19">
<g id="Group_30">
<path d="M7.5063 78.5253C7.5063 77.1919 6.54588 76.419 5.81255 76.2065C6.4938 75.9919 7.3188 75.3523 7.3188 74.0732C7.3188 72.5794 6.25213 71.4586 4.27922 71.4586H3.93338C1.97297 71.4586 0.893799 72.5794 0.893799 74.0732C0.893799 75.3523 1.7188 75.9919 2.40005 76.2065C1.66672 76.419 0.706299 77.1919 0.706299 78.5253C0.706299 80.1253 1.9188 81.2461 3.8938 81.2461H4.25213C6.26672 81.2461 7.5063 80.1253 7.5063 78.5253ZM4.27922 72.6065C5.34588 72.6065 6.03963 73.2065 6.03963 74.1253C6.03963 75.0461 5.34588 75.6461 4.27922 75.6461H3.93338C2.86672 75.6461 2.17297 75.0461 2.17297 74.1253C2.17297 73.2065 2.86672 72.6065 3.93338 72.6065H4.27922ZM4.3063 76.7919C5.43963 76.7919 6.20005 77.4315 6.20005 78.4461C6.20005 79.4586 5.43963 80.0982 4.3063 80.0982H3.9063C2.78547 80.0982 2.01255 79.4586 2.01255 78.4461C2.01255 77.4315 2.78547 76.7919 3.9063 76.7919H4.3063Z" fill="#666664" id="Vector_67"/>
<path d="M9.1604 83.1133H16.3062V82.0987H9.1604V83.1133Z" fill="#666664" id="Vector_68"/>
<path d="M21.0137 83.1133H28.1595V82.0987H21.0137V83.1133Z" fill="#666664" id="Vector_69"/>
</g>
</g>
</g>
<g id="ytick_10">
<g id="text_20">
<g id="Group_31">
<path d="M6.07917 64.073C6.91875 62.9793 7.6125 62.0064 7.6125 60.5668C7.6125 58.7001 6.38542 57.3397 4.225 57.3397C2.09167 57.3397 0.8125 58.7543 0.8125 60.5668C0.8125 62.5272 2.07917 63.7397 3.83958 63.7397C4.35833 63.7397 4.77292 63.6335 5.09167 63.4605L2.33125 66.9668H3.86458L6.07917 64.073ZM2.10625 60.5668C2.10625 59.4605 2.83958 58.5126 4.225 58.5126C5.55833 58.5126 6.31875 59.4605 6.31875 60.5668C6.31875 61.7397 5.50625 62.646 4.225 62.646C2.83958 62.646 2.10625 61.7397 2.10625 60.5668Z" fill="#666664" id="Vector_70"/>
<path d="M9.15967 68.9941H16.3055V67.9796H9.15967V68.9941Z" fill="#666664" id="Vector_71"/>
<path d="M21.0129 68.9941H28.1588V67.9796H21.0129V68.9941Z" fill="#666664" id="Vector_72"/>
</g>
</g>
</g>
</g>
<g id="line2d_21">
<g id="Clip path group_2">
<mask height="142" id="mask1_2142_3582" maskUnits="userSpaceOnUse" style="mask-type:luminance" width="706" x="33" y="55">
<g id="p9b9baf322e_2">
<path d="M738.546 55H33.4146V196.2H738.546V55Z" fill="white" id="Vector_73"/>
</g>
</mask>
<g mask="url(#mask1_2142_3582)">
<path d="M103.928 196.2V55" id="Vector_74" stroke="#666664" stroke-linecap="square" stroke-width="1.33333"/>
</g>
</g>
</g>
<g id="line2d_22">
<g id="Clip path group_3">
<mask height="142" id="mask2_2142_3582" maskUnits="userSpaceOnUse" style="mask-type:luminance" width="706" x="33" y="55">
<g id="p9b9baf322e_3">
<path d="M738.546 55H33.4146V196.2H738.546V55Z" fill="white" id="Vector_75"/>
</g>
</mask>
<g mask="url(#mask2_2142_3582)">
<path d="M174.441 196.2V55" id="Vector_76" stroke="#666664" stroke-linecap="square" stroke-width="1.33333"/>
</g>
</g>
</g>
<g id="line2d_23">
<g id="Clip path group_4">
<mask height="142" id="mask3_2142_3582" maskUnits="userSpaceOnUse" style="mask-type:luminance" width="706" x="33" y="55">
<g id="p9b9baf322e_4">
<path d="M738.546 55H33.4146V196.2H738.546V55Z" fill="white" id="Vector_77"/>
</g>
</mask>
<g mask="url(#mask3_2142_3582)">
<path d="M244.954 196.2V55" id="Vector_78" stroke="#666664" stroke-linecap="square" stroke-width="1.33333"/>
</g>
</g>
</g>
<g id="line2d_24">
<g id="Clip path group_5">
<mask height="142" id="mask4_2142_3582" maskUnits="userSpaceOnUse" style="mask-type:luminance" width="706" x="33" y="55">
<g id="p9b9baf322e_5">
<path d="M738.546 55H33.4146V196.2H738.546V55Z" fill="white" id="Vector_79"/>
</g>
</mask>
<g mask="url(#mask4_2142_3582)">
<path d="M315.467 196.2V55" id="Vector_80" stroke="#666664" stroke-linecap="square" stroke-width="1.33333"/>
</g>
</g>
</g>
<g id="line2d_25">
<g id="Clip path group_6">
<mask height="142" id="mask5_2142_3582" maskUnits="userSpaceOnUse" style="mask-type:luminance" width="706" x="33" y="55">
<g id="p9b9baf322e_6">
<path d="M738.546 55H33.4146V196.2H738.546V55Z" fill="white" id="Vector_81"/>
</g>
</mask>
<g mask="url(#mask5_2142_3582)">
<path d="M385.98 196.2V55" id="Vector_82" stroke="#666664" stroke-linecap="square" stroke-width="1.33333"/>
</g>
</g>
</g>
<g id="line2d_26">
<g id="Clip path group_7">
<mask height="142" id="mask6_2142_3582" maskUnits="userSpaceOnUse" style="mask-type:luminance" width="706" x="33" y="55">
<g id="p9b9baf322e_7">
<path d="M738.546 55H33.4146V196.2H738.546V55Z" fill="white" id="Vector_83"/>
</g>
</mask>
<g mask="url(#mask6_2142_3582)">
<path d="M456.493 196.2V55" id="Vector_84" stroke="#666664" stroke-linecap="square" stroke-width="1.33333"/>
</g>
</g>
</g>
<g id="line2d_27">
<g id="Clip path group_8">
<mask height="142" id="mask7_2142_3582" maskUnits="userSpaceOnUse" style="mask-type:luminance" width="706" x="33" y="55">
<g id="p9b9baf322e_8">
<path d="M738.546 55H33.4146V196.2H738.546V55Z" fill="white" id="Vector_85"/>
</g>
</mask>
<g mask="url(#mask7_2142_3582)">
<path d="M527.006 196.2V55" id="Vector_86" stroke="#666664" stroke-linecap="square" stroke-width="1.33333"/>
</g>
</g>
</g>
<g id="line2d_28">
<g id="Clip path group_9">
<mask height="142" id="mask8_2142_3582" maskUnits="userSpaceOnUse" style="mask-type:luminance" width="706" x="33" y="55">
<g id="p9b9baf322e_9">
<path d="M738.546 55H33.4146V196.2H738.546V55Z" fill="white" id="Vector_87"/>
</g>
</mask>
<g mask="url(#mask8_2142_3582)">
<path d="M597.52 196.2V55" id="Vector_88" stroke="#666664" stroke-linecap="square" stroke-width="1.33333"/>
</g>
</g>
</g>
<g id="line2d_29">
<g id="Clip path group_10">
<mask height="142" id="mask9_2142_3582" maskUnits="userSpaceOnUse" style="mask-type:luminance" width="706" x="33" y="55">
<g id="p9b9baf322e_10">
<path d="M738.546 55H33.4146V196.2H738.546V55Z" fill="white" id="Vector_89"/>
</g>
</mask>
<g mask="url(#mask9_2142_3582)">
<path d="M668.033 196.2V55" id="Vector_90" stroke="#666664" stroke-linecap="square" stroke-width="1.33333"/>
</g>
</g>
</g>
<g id="patch_3">
<path d="M33.4146 196.2V55" id="Vector_91" stroke="#666664" stroke-linecap="square" stroke-width="1.06667"/>
</g>
<g id="patch_4">
<path d="M738.546 196.2V55" id="Vector_92" stroke="#666664" stroke-linecap="square" stroke-width="1.06667"/>
</g>
<g id="patch_5">
<path d="M33.4146 196.199H738.546" id="Vector_93" stroke="#666664" stroke-linecap="square" stroke-width="1.06667"/>
</g>
<g id="patch_6">
<path d="M33.4146 55H738.546" id="Vector_94" stroke="#666664" stroke-linecap="square" stroke-width="1.06667"/>
</g>
</g>
</g>
</g>
<g clip-path="url(#clip1_2142_3582)" id="logit effects_2">
<text fill="#1A1A1A" font-family="Roboto" font-size="25" font-weight="bold" id="snh35_9__b14367779" letter-spacing="0em" style="white-space: pre" transform="translate(0 247.373)" xml:space="preserve"><tspan x="356.756" y="21.0449">9_</tspan></text>
<g id="figure_1_2">
<g id="axes_1_2">
<g id="patch_2_2">
<path d="M33.4146 423.573H738.546V282.373H33.4146V423.573Z" fill="white" id="Vector_95"/>
</g>
<g id="Clip path group_11">
<mask height="142" id="mask10_2142_3582" maskUnits="userSpaceOnUse" style="mask-type:luminance" width="706" x="33" y="282">
<g id="pae121e23a6">
<path d="M738.546 282.373H33.4146V423.573H738.546V282.373Z" fill="white" id="Vector_96"/>
</g>
</mask>
<g mask="url(#mask10_2142_3582)">
<g id="Group_32">
<rect fill="url(#pattern1_2142_3582)" height="142.08" id="imagececc3e9765" transform="matrix(1 0 0 -1 33.4146 423.572)" width="705.6"/>
</g>
</g>
</g>
<g id="matplotlib.axis_1_2">
<g id="xtick_1_2">
<g id="line2d_1_2">
<g id="Group_33">
<g id="Vector_97">
<path d="M36.9402 423.572V428.239V423.572Z" fill="#666664"/>
<path d="M36.9402 423.572V428.239" stroke="#666664" stroke-width="1.06667"/>
</g>
</g>
</g>
<g id="text_1_2">
<g id="Group_34">
<path d="M24.1401 444.746H31.286V443.732H24.1401V444.746Z" fill="#666664" id="Vector_98"/>
<path d="M36.4852 433.091C34.4852 433.091 33.179 434.373 33.179 436.546V439.425C33.179 441.706 34.5269 442.879 36.4852 442.879C38.4456 442.879 39.7935 441.706 39.7935 439.425V436.546C39.7935 434.373 38.4852 433.091 36.4852 433.091ZM36.4852 441.706C35.1394 441.706 34.4602 440.731 34.4602 439.412V436.558C34.4602 435.239 35.1394 434.264 36.4852 434.264C37.8331 434.264 38.5123 435.239 38.5123 436.558V439.412C38.5123 440.731 37.8331 441.706 36.4852 441.706Z" fill="#666664" id="Vector_99"/>
<path d="M45.7118 433.091C43.7118 433.091 42.4055 434.373 42.4055 436.546V439.425C42.4055 441.706 43.7534 442.879 45.7118 442.879C47.6722 442.879 49.0201 441.706 49.0201 439.425V436.546C49.0201 434.373 47.7118 433.091 45.7118 433.091ZM45.7118 441.706C44.3659 441.706 43.6868 440.731 43.6868 439.412V436.558C43.6868 435.239 44.3659 434.264 45.7118 434.264C47.0597 434.264 47.7389 435.239 47.7389 436.558V439.412C47.7389 440.731 47.0597 441.706 45.7118 441.706Z" fill="#666664" id="Vector_100"/>
</g>
</g>
</g>
<g id="xtick_2_2">
<g id="line2d_2_2">
<g id="Group_35">
<g id="Vector_101">
<path d="M107.453 423.572V428.239V423.572Z" fill="#666664"/>
<path d="M107.453 423.572V428.239" stroke="#666664" stroke-width="1.06667"/>
</g>
</g>
</g>
<g id="text_2_2">
<g id="Group_36">
<path d="M96.3 444.746H103.446V443.732H96.3V444.746Z" fill="#666664" id="Vector_102"/>
<path d="M108.339 433.212H107.378L104.699 434.852V436.079L107.045 434.719V442.719H108.339V433.212Z" fill="#666664" id="Vector_103"/>
<path d="M114.578 433.091C112.578 433.091 111.272 434.373 111.272 436.546V439.425C111.272 441.706 112.62 442.879 114.578 442.879C116.539 442.879 117.887 441.706 117.887 439.425V436.546C117.887 434.373 116.578 433.091 114.578 433.091ZM114.578 441.706C113.233 441.706 112.553 440.731 112.553 439.412V436.558C112.553 435.239 113.233 434.264 114.578 434.264C115.926 434.264 116.606 435.239 116.606 436.558V439.412C116.606 440.731 115.926 441.706 114.578 441.706Z" fill="#666664" id="Vector_104"/>
</g>
</g>
</g>
<g id="xtick_3_2">
<g id="line2d_3_2">
<g id="Group_37">
<g id="Vector_105">
<path d="M177.966 423.572V428.239V423.572Z" fill="#666664"/>
<path d="M177.966 423.572V428.239" stroke="#666664" stroke-width="1.06667"/>
</g>
</g>
</g>
<g id="text_3_2">
<g id="Group_38">
<path d="M165.66 444.746H172.806V443.732H165.66V444.746Z" fill="#666664" id="Vector_106"/>
<path d="M181.047 441.546H176.432L178.432 439.585C179.593 438.452 180.499 437.506 180.499 436.012C180.499 434.346 179.326 433.092 177.447 433.092C175.565 433.092 174.42 434.358 174.42 436.106V436.731H175.686V436.119C175.686 435.04 176.338 434.265 177.447 434.265C178.553 434.265 179.205 434.958 179.205 436.012C179.205 437.04 178.62 437.731 177.593 438.758L174.393 441.919V442.719H181.047V441.546Z" fill="#666664" id="Vector_107"/>
<path d="M186.245 433.091C184.245 433.091 182.939 434.373 182.939 436.546V439.425C182.939 441.706 184.287 442.879 186.245 442.879C188.206 442.879 189.554 441.706 189.554 439.425V436.546C189.554 434.373 188.245 433.091 186.245 433.091ZM186.245 441.706C184.899 441.706 184.22 440.731 184.22 439.412V436.558C184.22 435.239 184.899 434.264 186.245 434.264C187.593 434.264 188.272 435.239 188.272 436.558V439.412C188.272 440.731 187.593 441.706 186.245 441.706Z" fill="#666664" id="Vector_108"/>
</g>
</g>
</g>
<g id="xtick_4_2">
<g id="line2d_4_2">
<g id="Group_39">
<g id="Vector_109">
<path d="M248.479 423.572V428.239V423.572Z" fill="#666664"/>
<path d="M248.479 423.572V428.239" stroke="#666664" stroke-width="1.06667"/>
</g>
</g>
</g>
<g id="text_4_2">
<g id="Group_40">
<path d="M236.013 444.746H243.159V443.732H236.013V444.746Z" fill="#666664" id="Vector_110"/>
<path d="M251.345 440.131C251.345 438.625 250.425 437.958 249.718 437.746C250.291 437.491 251.039 436.864 251.039 435.691C251.039 434.185 249.918 433.091 247.933 433.091C245.866 433.091 244.933 434.464 244.866 435.679H246.145C246.291 434.879 246.825 434.252 247.945 434.252C249.012 434.252 249.758 434.798 249.758 435.746C249.758 436.706 249.158 437.239 248.145 437.239H246.439V438.412H248.106C249.333 438.412 250.039 438.985 250.039 440.052C250.039 441.106 249.239 441.706 247.972 441.706C246.679 441.706 246.039 440.946 245.906 440.212H244.612C244.718 441.506 245.733 442.879 247.972 442.879C250.106 442.879 251.345 441.773 251.345 440.131Z" fill="#666664" id="Vector_111"/>
<path d="M256.918 433.091C254.918 433.091 253.612 434.373 253.612 436.546V439.425C253.612 441.706 254.959 442.879 256.918 442.879C258.878 442.879 260.226 441.706 260.226 439.425V436.546C260.226 434.373 258.918 433.091 256.918 433.091ZM256.918 441.706C255.572 441.706 254.893 440.731 254.893 439.412V436.558C254.893 435.239 255.572 434.264 256.918 434.264C258.266 434.264 258.945 435.239 258.945 436.558V439.412C258.945 440.731 258.266 441.706 256.918 441.706Z" fill="#666664" id="Vector_112"/>
</g>
</g>
</g>
<g id="xtick_5_2">
<g id="line2d_5_2">
<g id="Group_41">
<g id="Vector_113">
<path d="M318.993 423.572V428.239V423.572Z" fill="#666664"/>
<path d="M318.993 423.572V428.239" stroke="#666664" stroke-width="1.06667"/>
</g>
</g>
</g>
<g id="text_5_2">
<g id="Group_42">
<path d="M306.22 444.746H313.366V443.732H306.22V444.746Z" fill="#666664" id="Vector_114"/>
<path d="M322.619 439.798V438.679H320.606V433.252H319.192L314.552 439.092V439.798H319.352V442.719H320.606V439.798H322.619ZM316.258 438.679L319.352 434.746V438.679H316.258Z" fill="#666664" id="Vector_115"/>
<path d="M327.738 433.091C325.738 433.091 324.432 434.373 324.432 436.546V439.425C324.432 441.706 325.78 442.879 327.738 442.879C329.699 442.879 331.046 441.706 331.046 439.425V436.546C331.046 434.373 329.738 433.091 327.738 433.091ZM327.738 441.706C326.392 441.706 325.713 440.731 325.713 439.412V436.558C325.713 435.239 326.392 434.264 327.738 434.264C329.086 434.264 329.765 435.239 329.765 436.558V439.412C329.765 440.731 329.086 441.706 327.738 441.706Z" fill="#666664" id="Vector_116"/>
</g>
</g>
</g>
<g id="xtick_6_2">
<g id="line2d_6_2">
<g id="Group_43">
<g id="Vector_117">
<path d="M389.506 423.572V428.239V423.572Z" fill="#666664"/>
<path d="M389.506 423.572V428.239" stroke="#666664" stroke-width="1.06667"/>
</g>
</g>
</g>
<g id="text_6_2">
<g id="Group_44">
<path d="M376.98 444.746H384.126V443.732H376.98V444.746Z" fill="#666664" id="Vector_118"/>
<path d="M386.233 438.531H387.3C387.446 438.318 387.9 437.652 389.085 437.652C390.312 437.652 391.125 438.398 391.125 439.612V439.746C391.125 440.879 390.3 441.706 389.085 441.706C387.606 441.706 387.139 440.746 387.033 440.106H385.766C385.873 441.546 386.912 442.879 389.085 442.879C391.073 442.879 392.406 441.585 392.406 439.746V439.598C392.406 437.612 391.006 436.479 389.379 436.479C388.458 436.479 387.833 436.798 387.458 437.173V434.425H392.046V433.252H386.233V438.531Z" fill="#666664" id="Vector_119"/>
<path d="M398.005 433.091C396.005 433.091 394.698 434.373 394.698 436.546V439.425C394.698 441.706 396.046 442.879 398.005 442.879C399.965 442.879 401.313 441.706 401.313 439.425V436.546C401.313 434.373 400.005 433.091 398.005 433.091ZM398.005 441.706C396.659 441.706 395.98 440.731 395.98 439.412V436.558C395.98 435.239 396.659 434.264 398.005 434.264C399.353 434.264 400.032 435.239 400.032 436.558V439.412C400.032 440.731 399.353 441.706 398.005 441.706Z" fill="#666664" id="Vector_120"/>
</g>
</g>
</g>
<g id="xtick_7_2">
<g id="line2d_7_2">
<g id="Group_45">
<g id="Vector_121">
<path d="M460.019 423.572V428.239V423.572Z" fill="#666664"/>
<path d="M460.019 423.572V428.239" stroke="#666664" stroke-width="1.06667"/>
</g>
</g>
</g>
<g id="text_7_2">
<g id="Group_46">
<path d="M447.472 444.746H454.618V443.732H447.472V444.746Z" fill="#666664" id="Vector_122"/>
<path d="M462.965 439.652C462.965 437.691 461.698 436.479 459.938 436.479C459.417 436.479 459.004 436.585 458.684 436.758L461.444 433.252H459.911L457.698 436.146C456.859 437.225 456.165 438.212 456.165 439.652C456.165 441.518 457.392 442.879 459.55 442.879C461.684 442.879 462.965 441.464 462.965 439.652ZM461.671 439.652C461.671 440.785 460.938 441.706 459.55 441.706C458.217 441.706 457.459 440.785 457.459 439.652C457.459 438.479 458.271 437.573 459.55 437.573C460.938 437.573 461.671 438.479 461.671 439.652Z" fill="#666664" id="Vector_123"/>
<path d="M468.537 433.091C466.537 433.091 465.231 434.373 465.231 436.546V439.425C465.231 441.706 466.579 442.879 468.537 442.879C470.497 442.879 471.845 441.706 471.845 439.425V436.546C471.845 434.373 470.537 433.091 468.537 433.091ZM468.537 441.706C467.191 441.706 466.512 440.731 466.512 439.412V436.558C466.512 435.239 467.191 434.264 468.537 434.264C469.885 434.264 470.564 435.239 470.564 436.558V439.412C470.564 440.731 469.885 441.706 468.537 441.706Z" fill="#666664" id="Vector_124"/>
</g>
</g>
</g>
<g id="xtick_8_2">
<g id="line2d_8_2">
<g id="Group_47">
<g id="Vector_125">
<path d="M530.532 423.572V428.239V423.572Z" fill="#666664"/>
<path d="M530.532 423.572V428.239" stroke="#666664" stroke-width="1.06667"/>
</g>
</g>
</g>
<g id="text_8_2">
<g id="Group_48">
<path d="M518.226 444.746H525.372V443.732H518.226V444.746Z" fill="#666664" id="Vector_126"/>
<path d="M533.465 434.225V433.252H526.825V434.425H531.998L527.358 442.719H528.771L533.465 434.225Z" fill="#666664" id="Vector_127"/>
<path d="M538.811 433.091C536.811 433.091 535.505 434.373 535.505 436.546V439.425C535.505 441.706 536.853 442.879 538.811 442.879C540.771 442.879 542.119 441.706 542.119 439.425V436.546C542.119 434.373 540.811 433.091 538.811 433.091ZM538.811 441.706C537.465 441.706 536.786 440.731 536.786 439.412V436.558C536.786 435.239 537.465 434.264 538.811 434.264C540.159 434.264 540.838 435.239 540.838 436.558V439.412C540.838 440.731 540.159 441.706 538.811 441.706Z" fill="#666664" id="Vector_128"/>
</g>
</g>
</g>
<g id="xtick_9_2">
<g id="line2d_9_2">
<g id="Group_49">
<g id="Vector_129">
<path d="M601.045 423.572V428.239V423.572Z" fill="#666664"/>
<path d="M601.045 423.572V428.239" stroke="#666664" stroke-width="1.06667"/>
</g>
</g>
</g>
<g id="text_9_2">
<g id="Group_50">
<path d="M588.392 444.746H595.538V443.732H588.392V444.746Z" fill="#666664" id="Vector_130"/>
<path d="M603.991 440.158C603.991 438.825 603.031 438.052 602.297 437.839C602.979 437.625 603.804 436.985 603.804 435.706C603.804 434.212 602.737 433.091 600.764 433.091H600.418C598.458 433.091 597.379 434.212 597.379 435.706C597.379 436.985 598.204 437.625 598.885 437.839C598.152 438.052 597.191 438.825 597.191 440.158C597.191 441.758 598.404 442.879 600.379 442.879H600.737C602.752 442.879 603.991 441.758 603.991 440.158ZM600.764 434.239C601.831 434.239 602.524 434.839 602.524 435.758C602.524 436.679 601.831 437.279 600.764 437.279H600.418C599.352 437.279 598.658 436.679 598.658 435.758C598.658 434.839 599.352 434.239 600.418 434.239H600.764ZM600.791 438.425C601.924 438.425 602.685 439.064 602.685 440.079C602.685 441.091 601.924 441.731 600.791 441.731H600.391C599.27 441.731 598.497 441.091 598.497 440.079C598.497 439.064 599.27 438.425 600.391 438.425H600.791Z" fill="#666664" id="Vector_131"/>
<path d="M609.671 433.091C607.671 433.091 606.364 434.373 606.364 436.546V439.425C606.364 441.706 607.712 442.879 609.671 442.879C611.631 442.879 612.979 441.706 612.979 439.425V436.546C612.979 434.373 611.671 433.091 609.671 433.091ZM609.671 441.706C608.325 441.706 607.646 440.731 607.646 439.412V436.558C607.646 435.239 608.325 434.264 609.671 434.264C611.018 434.264 611.698 435.239 611.698 436.558V439.412C611.698 440.731 611.018 441.706 609.671 441.706Z" fill="#666664" id="Vector_132"/>
</g>
</g>
</g>
<g id="xtick_10_2">
<g id="line2d_10_2">
<g id="Group_51">
<g id="Vector_133">
<path d="M671.558 423.572V428.239V423.572Z" fill="#666664"/>
<path d="M671.558 423.572V428.239" stroke="#666664" stroke-width="1.06667"/>
</g>
</g>
</g>
<g id="text_10_2">
<g id="Group_52">
<path d="M659.011 444.746H666.157V443.732H659.011V444.746Z" fill="#666664" id="Vector_134"/>
<path d="M672.971 439.825C673.811 438.731 674.504 437.758 674.504 436.319C674.504 434.452 673.277 433.092 671.117 433.092C668.984 433.092 667.704 434.506 667.704 436.319C667.704 438.279 668.971 439.492 670.731 439.492C671.25 439.492 671.665 439.385 671.984 439.212L669.223 442.719H670.756L672.971 439.825ZM668.998 436.319C668.998 435.212 669.731 434.265 671.117 434.265C672.45 434.265 673.211 435.212 673.211 436.319C673.211 437.492 672.398 438.398 671.117 438.398C669.731 438.398 668.998 437.492 668.998 436.319Z" fill="#666664" id="Vector_135"/>
<path d="M680.077 433.091C678.077 433.091 676.77 434.373 676.77 436.546V439.425C676.77 441.706 678.118 442.879 680.077 442.879C682.037 442.879 683.385 441.706 683.385 439.425V436.546C683.385 434.373 682.077 433.091 680.077 433.091ZM680.077 441.706C678.731 441.706 678.052 440.731 678.052 439.412V436.558C678.052 435.239 678.731 434.264 680.077 434.264C681.424 434.264 682.104 435.239 682.104 436.558V439.412C682.104 440.731 681.424 441.706 680.077 441.706Z" fill="#666664" id="Vector_136"/>
</g>
</g>
</g>
</g>
<g id="matplotlib.axis_2_2">
<g id="ytick_1_2">
<g id="text_11_2">
<g id="Group_53">
<path d="M3.95835 411.793C1.95835 411.793 0.6521 413.074 0.6521 415.247V418.126C0.6521 420.407 2.00002 421.58 3.95835 421.58C5.91877 421.58 7.26668 420.407 7.26668 418.126V415.247C7.26668 413.074 5.95835 411.793 3.95835 411.793ZM3.95835 420.407C2.61252 420.407 1.93335 419.432 1.93335 418.113V415.259C1.93335 413.94 2.61252 412.965 3.95835 412.965C5.30627 412.965 5.98543 413.94 5.98543 415.259V418.113C5.98543 419.432 5.30627 420.407 3.95835 420.407Z" fill="#666664" id="Vector_137"/>
<path d="M9.15991 423.447H16.3057V422.433H9.15991V423.447Z" fill="#666664" id="Vector_138"/>
<path d="M21.0134 423.447H28.1593V422.433H21.0134V423.447Z" fill="#666664" id="Vector_139"/>
</g>
</g>
</g>
<g id="ytick_2_2">
<g id="text_12_2">
<g id="Group_54">
<path d="M6.94574 397.793H5.98532L3.30615 399.432V400.659L5.65199 399.299V407.299H6.94574V397.793Z" fill="#666664" id="Vector_140"/>
<path d="M9.1604 409.326H16.3062V408.312H9.1604V409.326Z" fill="#666664" id="Vector_141"/>
<path d="M21.0137 409.326H28.1595V408.312H21.0137V409.326Z" fill="#666664" id="Vector_142"/>
</g>
</g>
</g>
<g id="ytick_3_2">
<g id="text_13_2">
<g id="Group_55">
<path d="M7.98742 392.007H3.37284L5.37284 390.046C6.53325 388.913 7.4395 387.967 7.4395 386.473C7.4395 384.807 6.26659 383.553 4.38742 383.553C2.50617 383.553 1.36034 384.819 1.36034 386.567V387.192H2.627V386.58C2.627 385.501 3.27909 384.726 4.38742 384.726C5.49367 384.726 6.14575 385.419 6.14575 386.473C6.14575 387.501 5.56034 388.192 4.53325 389.219L1.33325 392.38V393.18H7.98742V392.007Z" fill="#666664" id="Vector_143"/>
<path d="M9.16064 395.207H16.3065V394.192H9.16064V395.207Z" fill="#666664" id="Vector_144"/>
<path d="M21.0142 395.207H28.16V394.192H21.0142V395.207Z" fill="#666664" id="Vector_145"/>
</g>
</g>
</g>
<g id="ytick_4_2">
<g id="text_14_2">
<g id="Group_56">
<path d="M7.61248 376.473C7.61248 374.967 6.69165 374.3 5.9854 374.087C6.55832 373.833 7.30623 373.206 7.30623 372.033C7.30623 370.527 6.1854 369.433 4.19998 369.433C2.13332 369.433 1.19998 370.806 1.13332 372.021H2.41248C2.55832 371.221 3.09165 370.594 4.21248 370.594C5.27915 370.594 6.02498 371.139 6.02498 372.087C6.02498 373.048 5.42498 373.581 4.41248 373.581H2.70623V374.754H4.3729C5.59998 374.754 6.30623 375.327 6.30623 376.394C6.30623 377.448 5.50623 378.048 4.23957 378.048C2.94582 378.048 2.30623 377.287 2.1729 376.554H0.87915C0.9854 377.848 1.99998 379.221 4.23957 379.221C6.3729 379.221 7.61248 378.114 7.61248 376.473Z" fill="#666664" id="Vector_146"/>
<path d="M9.15991 381.088H16.3057V380.073H9.15991V381.088Z" fill="#666664" id="Vector_147"/>
<path d="M21.0134 381.088H28.1593V380.073H21.0134V381.088Z" fill="#666664" id="Vector_148"/>
</g>
</g>
</g>
<g id="ytick_5_2">
<g id="text_15_2">
<g id="Group_57">
<path d="M8.06667 362.019V360.9H6.05417V355.473H4.63958L0 361.312V362.019H4.8V364.939H6.05417V362.019H8.06667ZM1.70625 360.9L4.8 356.967V360.9H1.70625Z" fill="#666664" id="Vector_149"/>
<path d="M9.16089 366.967H16.3067V365.952H9.16089V366.967Z" fill="#666664" id="Vector_150"/>
<path d="M21.0142 366.967H28.16V365.952H21.0142V366.967Z" fill="#666664" id="Vector_151"/>
</g>
</g>
</g>
<g id="ytick_6_2">
<g id="text_16_2">
<g id="Group_58">
<path d="M1.41466 346.633H2.48133C2.62716 346.42 3.08133 345.753 4.26675 345.753C5.49383 345.753 6.30633 346.499 6.30633 347.714V347.847C6.30633 348.98 5.48133 349.808 4.26675 349.808C2.78758 349.808 2.32091 348.847 2.21466 348.208H0.947998C1.05425 349.647 2.09383 350.98 4.26675 350.98C6.25425 350.98 7.58758 349.687 7.58758 347.847V347.699C7.58758 345.714 6.18758 344.58 4.5605 344.58C3.63966 344.58 3.01466 344.899 2.63966 345.274V342.526H7.22717V341.353H1.41466V346.633Z" fill="#666664" id="Vector_152"/>
<path d="M9.16138 352.848H16.3072V351.833H9.16138V352.848Z" fill="#666664" id="Vector_153"/>
<path d="M21.0146 352.848H28.1605V351.833H21.0146V352.848Z" fill="#666664" id="Vector_154"/>
</g>
</g>
</g>
<g id="ytick_7_2">
<g id="text_17_2">
<g id="Group_59">
<path d="M7.6125 333.632C7.6125 331.672 6.34583 330.459 4.58542 330.459C4.06458 330.459 3.65208 330.566 3.33125 330.739L6.09167 327.232H4.55833L2.34583 330.126C1.50625 331.205 0.8125 332.193 0.8125 333.632C0.8125 335.499 2.03958 336.859 4.19792 336.859C6.33125 336.859 7.6125 335.445 7.6125 333.632ZM6.31875 333.632C6.31875 334.766 5.58542 335.686 4.19792 335.686C2.86458 335.686 2.10625 334.766 2.10625 333.632C2.10625 332.459 2.91875 331.553 4.19792 331.553C5.58542 331.553 6.31875 332.459 6.31875 333.632Z" fill="#666664" id="Vector_155"/>
<path d="M9.15967 338.727H16.3055V337.712H9.15967V338.727Z" fill="#666664" id="Vector_156"/>
<path d="M21.0129 338.727H28.1588V337.712H21.0129V338.727Z" fill="#666664" id="Vector_157"/>
</g>
</g>
</g>
<g id="ytick_8_2">
<g id="text_18_2">
<g id="Group_60">
<path d="M7.83953 314.086V313.113H1.19995V314.286H6.37287L1.73328 322.58H3.14578L7.83953 314.086Z" fill="#666664" id="Vector_158"/>
<path d="M9.16089 324.607H16.3067V323.593H9.16089V324.607Z" fill="#666664" id="Vector_159"/>
<path d="M21.0142 324.607H28.16V323.593H21.0142V324.607Z" fill="#666664" id="Vector_160"/>
</g>
</g>
</g>
<g id="ytick_9_2">
<g id="text_19_2">
<g id="Group_61">
<path d="M7.5063 305.898C7.5063 304.565 6.54588 303.792 5.81255 303.58C6.4938 303.365 7.3188 302.725 7.3188 301.446C7.3188 299.952 6.25213 298.832 4.27922 298.832H3.93338C1.97297 298.832 0.893799 299.952 0.893799 301.446C0.893799 302.725 1.7188 303.365 2.40005 303.58C1.66672 303.792 0.706299 304.565 0.706299 305.898C0.706299 307.498 1.9188 308.619 3.8938 308.619H4.25213C6.26672 308.619 7.5063 307.498 7.5063 305.898ZM4.27922 299.98C5.34588 299.98 6.03963 300.58 6.03963 301.498C6.03963 302.419 5.34588 303.019 4.27922 303.019H3.93338C2.86672 303.019 2.17297 302.419 2.17297 301.498C2.17297 300.58 2.86672 299.98 3.93338 299.98H4.27922ZM4.3063 304.165C5.43963 304.165 6.20005 304.805 6.20005 305.819C6.20005 306.832 5.43963 307.471 4.3063 307.471H3.9063C2.78547 307.471 2.01255 306.832 2.01255 305.819C2.01255 304.805 2.78547 304.165 3.9063 304.165H4.3063Z" fill="#666664" id="Vector_161"/>
<path d="M9.1604 310.486H16.3062V309.472H9.1604V310.486Z" fill="#666664" id="Vector_162"/>
<path d="M21.0137 310.486H28.1595V309.472H21.0137V310.486Z" fill="#666664" id="Vector_163"/>
</g>
</g>
</g>
<g id="ytick_10_2">
<g id="text_20_2">
<g id="Group_62">
<path d="M6.07917 291.446C6.91875 290.352 7.6125 289.379 7.6125 287.94C7.6125 286.073 6.38542 284.713 4.225 284.713C2.09167 284.713 0.8125 286.127 0.8125 287.94C0.8125 289.9 2.07917 291.113 3.83958 291.113C4.35833 291.113 4.77292 291.007 5.09167 290.834L2.33125 294.34H3.86458L6.07917 291.446ZM2.10625 287.94C2.10625 286.834 2.83958 285.886 4.225 285.886C5.55833 285.886 6.31875 286.834 6.31875 287.94C6.31875 289.113 5.50625 290.019 4.225 290.019C2.83958 290.019 2.10625 289.113 2.10625 287.94Z" fill="#666664" id="Vector_164"/>
<path d="M9.15967 296.367H16.3055V295.353H9.15967V296.367Z" fill="#666664" id="Vector_165"/>
<path d="M21.0129 296.367H28.1588V295.353H21.0129V296.367Z" fill="#666664" id="Vector_166"/>
</g>
</g>
</g>
</g>
<g id="line2d_21_2">
<g id="Clip path group_12">
<mask height="142" id="mask11_2142_3582" maskUnits="userSpaceOnUse" style="mask-type:luminance" width="706" x="33" y="282">
<g id="pae121e23a6_2">
<path d="M738.546 282.373H33.4146V423.573H738.546V282.373Z" fill="white" id="Vector_167"/>
</g>
</mask>
<g mask="url(#mask11_2142_3582)">
<path d="M103.928 423.573V282.373" id="Vector_168" stroke="#666664" stroke-linecap="square" stroke-width="1.33333"/>
</g>
</g>
</g>
<g id="line2d_22_2">
<g id="Clip path group_13">
<mask height="142" id="mask12_2142_3582" maskUnits="userSpaceOnUse" style="mask-type:luminance" width="706" x="33" y="282">
<g id="pae121e23a6_3">
<path d="M738.546 282.373H33.4146V423.573H738.546V282.373Z" fill="white" id="Vector_169"/>
</g>
</mask>
<g mask="url(#mask12_2142_3582)">
<path d="M174.441 423.573V282.373" id="Vector_170" stroke="#666664" stroke-linecap="square" stroke-width="1.33333"/>
</g>
</g>
</g>
<g id="line2d_23_2">
<g id="Clip path group_14">
<mask height="142" id="mask13_2142_3582" maskUnits="userSpaceOnUse" style="mask-type:luminance" width="706" x="33" y="282">
<g id="pae121e23a6_4">
<path d="M738.546 282.373H33.4146V423.573H738.546V282.373Z" fill="white" id="Vector_171"/>
</g>
</mask>
<g mask="url(#mask13_2142_3582)">
<path d="M244.954 423.573V282.373" id="Vector_172" stroke="#666664" stroke-linecap="square" stroke-width="1.33333"/>
</g>
</g>
</g>
<g id="line2d_24_2">
<g id="Clip path group_15">
<mask height="142" id="mask14_2142_3582" maskUnits="userSpaceOnUse" style="mask-type:luminance" width="706" x="33" y="282">
<g id="pae121e23a6_5">
<path d="M738.546 282.373H33.4146V423.573H738.546V282.373Z" fill="white" id="Vector_173"/>
</g>
</mask>
<g mask="url(#mask14_2142_3582)">
<path d="M315.467 423.573V282.373" id="Vector_174" stroke="#666664" stroke-linecap="square" stroke-width="1.33333"/>
</g>
</g>
</g>
<g id="line2d_25_2">
<g id="Clip path group_16">
<mask height="142" id="mask15_2142_3582" maskUnits="userSpaceOnUse" style="mask-type:luminance" width="706" x="33" y="282">
<g id="pae121e23a6_6">
<path d="M738.546 282.373H33.4146V423.573H738.546V282.373Z" fill="white" id="Vector_175"/>
</g>
</mask>
<g mask="url(#mask15_2142_3582)">
<path d="M385.98 423.573V282.373" id="Vector_176" stroke="#666664" stroke-linecap="square" stroke-width="1.33333"/>
</g>
</g>
</g>
<g id="line2d_26_2">
<g id="Clip path group_17">
<mask height="142" id="mask16_2142_3582" maskUnits="userSpaceOnUse" style="mask-type:luminance" width="706" x="33" y="282">
<g id="pae121e23a6_7">
<path d="M738.546 282.373H33.4146V423.573H738.546V282.373Z" fill="white" id="Vector_177"/>
</g>
</mask>
<g mask="url(#mask16_2142_3582)">
<path d="M456.493 423.573V282.373" id="Vector_178" stroke="#666664" stroke-linecap="square" stroke-width="1.33333"/>
</g>
</g>
</g>
<g id="line2d_27_2">
<g id="Clip path group_18">
<mask height="142" id="mask17_2142_3582" maskUnits="userSpaceOnUse" style="mask-type:luminance" width="706" x="33" y="282">
<g id="pae121e23a6_8">
<path d="M738.546 282.373H33.4146V423.573H738.546V282.373Z" fill="white" id="Vector_179"/>
</g>
</mask>
<g mask="url(#mask17_2142_3582)">
<path d="M527.006 423.573V282.373" id="Vector_180" stroke="#666664" stroke-linecap="square" stroke-width="1.33333"/>
</g>
</g>
</g>
<g id="line2d_28_2">
<g id="Clip path group_19">
<mask height="142" id="mask18_2142_3582" maskUnits="userSpaceOnUse" style="mask-type:luminance" width="706" x="33" y="282">
<g id="pae121e23a6_9">
<path d="M738.546 282.373H33.4146V423.573H738.546V282.373Z" fill="white" id="Vector_181"/>
</g>
</mask>
<g mask="url(#mask18_2142_3582)">
<path d="M597.52 423.573V282.373" id="Vector_182" stroke="#666664" stroke-linecap="square" stroke-width="1.33333"/>
</g>
</g>
</g>
<g id="line2d_29_2">
<g id="Clip path group_20">
<mask height="142" id="mask19_2142_3582" maskUnits="userSpaceOnUse" style="mask-type:luminance" width="706" x="33" y="282">
<g id="pae121e23a6_10">
<path d="M738.546 282.373H33.4146V423.573H738.546V282.373Z" fill="white" id="Vector_183"/>
</g>
</mask>
<g mask="url(#mask19_2142_3582)">
<path d="M668.033 423.573V282.373" id="Vector_184" stroke="#666664" stroke-linecap="square" stroke-width="1.33333"/>
</g>
</g>
</g>
<g id="patch_3_2">
<path d="M33.4146 423.573V282.373" id="Vector_185" stroke="#666664" stroke-linecap="square" stroke-width="1.06667"/>
</g>
<g id="patch_4_2">
<path d="M738.546 423.573V282.373" id="Vector_186" stroke="#666664" stroke-linecap="square" stroke-width="1.06667"/>
</g>
<g id="patch_5_2">
<path d="M33.4146 423.572H738.546" id="Vector_187" stroke="#666664" stroke-linecap="square" stroke-width="1.06667"/>
</g>
<g id="patch_6_2">
<path d="M33.4146 282.373H738.546" id="Vector_188" stroke="#666664" stroke-linecap="square" stroke-width="1.06667"/>
</g>
</g>
</g>
</g>
<g clip-path="url(#clip2_2142_3582)" id="logit effects_3">
<text fill="#1A1A1A" font-family="Roboto" font-size="25" font-weight="bold" id="snh35_95__b18845922" letter-spacing="0em" style="white-space: pre" transform="translate(0 474.746)" xml:space="preserve"><tspan x="349.578" y="21.0449">95_</tspan></text>
<g id="figure_1_3">
<g id="patch_1">
<path d="M0 701.746H768V509.746H0V701.746Z" fill="white" id="Vector_189"/>
</g>
<g id="axes_1_3">
<g id="patch_2_3">
<path d="M48.4688 665.346H753.6V524.146H48.4688V665.346Z" fill="white" id="Vector_190"/>
</g>
<g id="Clip path group_21">
<mask height="142" id="mask20_2142_3582" maskUnits="userSpaceOnUse" style="mask-type:luminance" width="706" x="48" y="524">
<g id="p46a3aaa138">
<path d="M753.6 524.146H48.4688V665.346H753.6V524.146Z" fill="white" id="Vector_191"/>
</g>
</mask>
<g mask="url(#mask20_2142_3582)">
<g id="Group_63">
<rect fill="url(#pattern2_2142_3582)" height="142.08" id="image3c9ed91746" transform="matrix(1 0 0 -1 48.4688 665.346)" width="705.6"/>
</g>
</g>
</g>
<g id="matplotlib.axis_1_3">
<g id="xtick_1_3">
<g id="line2d_1_3">
<g id="Group_64">
<g id="Vector_192">
<path d="M51.9944 665.346V670.012V665.346Z" fill="#666664"/>
<path d="M51.9944 665.346V670.012" stroke="#666664" stroke-width="1.06667"/>
</g>
</g>
</g>
<g id="text_1_3">
<g id="Group_65">
<path d="M39.1943 686.52H46.3402V685.505H39.1943V686.52Z" fill="#666664" id="Vector_193"/>
<path d="M51.5394 674.865C49.5394 674.865 48.2332 676.146 48.2332 678.319V681.198C48.2332 683.479 49.5811 684.652 51.5394 684.652C53.4998 684.652 54.8477 683.479 54.8477 681.198V678.319C54.8477 676.146 53.5394 674.865 51.5394 674.865ZM51.5394 683.479C50.1936 683.479 49.5144 682.504 49.5144 681.186V678.332C49.5144 677.013 50.1936 676.038 51.5394 676.038C52.8873 676.038 53.5665 677.013 53.5665 678.332V681.186C53.5665 682.504 52.8873 683.479 51.5394 683.479Z" fill="#666664" id="Vector_194"/>
<path d="M60.766 674.865C58.766 674.865 57.4597 676.146 57.4597 678.319V681.198C57.4597 683.479 58.8076 684.652 60.766 684.652C62.7264 684.652 64.0743 683.479 64.0743 681.198V678.319C64.0743 676.146 62.766 674.865 60.766 674.865ZM60.766 683.479C59.4201 683.479 58.741 682.504 58.741 681.186V678.332C58.741 677.013 59.4201 676.038 60.766 676.038C62.1139 676.038 62.7931 677.013 62.7931 678.332V681.186C62.7931 682.504 62.1139 683.479 60.766 683.479Z" fill="#666664" id="Vector_195"/>
</g>
</g>
</g>
<g id="xtick_2_3">
<g id="line2d_2_3">
<g id="Group_66">
<g id="Vector_196">
<path d="M122.507 665.346V670.012V665.346Z" fill="#666664"/>
<path d="M122.507 665.346V670.012" stroke="#666664" stroke-width="1.06667"/>
</g>
</g>
</g>
<g id="text_2_3">
<g id="Group_67">
<path d="M111.354 686.52H118.5V685.505H111.354V686.52Z" fill="#666664" id="Vector_197"/>
<path d="M123.393 674.986H122.433L119.753 676.626V677.853L122.099 676.492V684.492H123.393V674.986Z" fill="#666664" id="Vector_198"/>
<path d="M129.633 674.865C127.633 674.865 126.326 676.146 126.326 678.319V681.198C126.326 683.479 127.674 684.652 129.633 684.652C131.593 684.652 132.941 683.479 132.941 681.198V678.319C132.941 676.146 131.633 674.865 129.633 674.865ZM129.633 683.479C128.287 683.479 127.608 682.504 127.608 681.186V678.332C127.608 677.013 128.287 676.038 129.633 676.038C130.981 676.038 131.66 677.013 131.66 678.332V681.186C131.66 682.504 130.981 683.479 129.633 683.479Z" fill="#666664" id="Vector_199"/>
</g>
</g>
</g>
<g id="xtick_3_3">
<g id="line2d_3_3">
<g id="Group_68">
<g id="Vector_200">
<path d="M193.021 665.346V670.012V665.346Z" fill="#666664"/>
<path d="M193.021 665.346V670.012" stroke="#666664" stroke-width="1.06667"/>
</g>
</g>
</g>
<g id="text_3_3">
<g id="Group_69">
<path d="M180.714 686.52H187.86V685.505H180.714V686.52Z" fill="#666664" id="Vector_201"/>
<path d="M196.101 683.319H191.486L193.486 681.359C194.647 680.226 195.553 679.28 195.553 677.786C195.553 676.119 194.38 674.865 192.501 674.865C190.62 674.865 189.474 676.132 189.474 677.88V678.505H190.741V677.892C190.741 676.813 191.393 676.038 192.501 676.038C193.607 676.038 194.259 676.732 194.259 677.786C194.259 678.813 193.674 679.505 192.647 680.532L189.447 683.692V684.492H196.101V683.319Z" fill="#666664" id="Vector_202"/>
<path d="M201.299 674.865C199.299 674.865 197.993 676.146 197.993 678.319V681.198C197.993 683.479 199.341 684.652 201.299 684.652C203.26 684.652 204.608 683.479 204.608 681.198V678.319C204.608 676.146 203.299 674.865 201.299 674.865ZM201.299 683.479C199.954 683.479 199.274 682.504 199.274 681.186V678.332C199.274 677.013 199.954 676.038 201.299 676.038C202.647 676.038 203.326 677.013 203.326 678.332V681.186C203.326 682.504 202.647 683.479 201.299 683.479Z" fill="#666664" id="Vector_203"/>
</g>
</g>
</g>
<g id="xtick_4_3">
<g id="line2d_4_3">
<g id="Group_70">
<g id="Vector_204">
<path d="M263.534 665.346V670.012V665.346Z" fill="#666664"/>
<path d="M263.534 665.346V670.012" stroke="#666664" stroke-width="1.06667"/>
</g>
</g>
</g>
<g id="text_4_3">
<g id="Group_71">
<path d="M251.067 686.52H258.213V685.505H251.067V686.52Z" fill="#666664" id="Vector_205"/>
<path d="M266.4 681.904C266.4 680.398 265.479 679.732 264.773 679.519C265.345 679.265 266.093 678.638 266.093 677.465C266.093 675.959 264.973 674.865 262.987 674.865C260.92 674.865 259.987 676.238 259.92 677.452H261.2C261.345 676.652 261.879 676.025 263 676.025C264.066 676.025 264.812 676.571 264.812 677.519C264.812 678.479 264.212 679.013 263.2 679.013H261.493V680.186H263.16C264.387 680.186 265.093 680.759 265.093 681.825C265.093 682.879 264.293 683.479 263.027 683.479C261.733 683.479 261.093 682.719 260.96 681.986H259.666C259.773 683.279 260.787 684.652 263.027 684.652C265.16 684.652 266.4 683.546 266.4 681.904Z" fill="#666664" id="Vector_206"/>
<path d="M271.972 674.865C269.972 674.865 268.666 676.146 268.666 678.319V681.198C268.666 683.479 270.014 684.652 271.972 684.652C273.932 684.652 275.28 683.479 275.28 681.198V678.319C275.28 676.146 273.972 674.865 271.972 674.865ZM271.972 683.479C270.626 683.479 269.947 682.504 269.947 681.186V678.332C269.947 677.013 270.626 676.038 271.972 676.038C273.32 676.038 273.999 677.013 273.999 678.332V681.186C273.999 682.504 273.32 683.479 271.972 683.479Z" fill="#666664" id="Vector_207"/>
</g>
</g>
</g>
<g id="xtick_5_3">
<g id="line2d_5_3">
<g id="Group_72">
<g id="Vector_208">
<path d="M334.047 665.346V670.012V665.346Z" fill="#666664"/>
<path d="M334.047 665.346V670.012" stroke="#666664" stroke-width="1.06667"/>
</g>
</g>
</g>
<g id="text_5_3">
<g id="Group_73">
<path d="M321.274 686.52H328.42V685.505H321.274V686.52Z" fill="#666664" id="Vector_209"/>
<path d="M337.673 681.571V680.453H335.661V675.026H334.246L329.606 680.865V681.571H334.406V684.492H335.661V681.571H337.673ZM331.313 680.453L334.406 676.519V680.453H331.313Z" fill="#666664" id="Vector_210"/>
<path d="M342.792 674.865C340.792 674.865 339.486 676.146 339.486 678.319V681.198C339.486 683.479 340.834 684.652 342.792 684.652C344.753 684.652 346.101 683.479 346.101 681.198V678.319C346.101 676.146 344.792 674.865 342.792 674.865ZM342.792 683.479C341.447 683.479 340.767 682.504 340.767 681.186V678.332C340.767 677.013 341.447 676.038 342.792 676.038C344.14 676.038 344.819 677.013 344.819 678.332V681.186C344.819 682.504 344.14 683.479 342.792 683.479Z" fill="#666664" id="Vector_211"/>
</g>
</g>
</g>
<g id="xtick_6_3">
<g id="line2d_6_3">
<g id="Group_74">
<g id="Vector_212">
<path d="M404.56 665.346V670.012V665.346Z" fill="#666664"/>
<path d="M404.56 665.346V670.012" stroke="#666664" stroke-width="1.06667"/>
</g>
</g>
</g>
<g id="text_6_3">
<g id="Group_75">
<path d="M392.034 686.52H399.18V685.505H392.034V686.52Z" fill="#666664" id="Vector_213"/>
<path d="M401.287 680.304H402.354C402.5 680.092 402.954 679.425 404.139 679.425C405.366 679.425 406.179 680.171 406.179 681.386V681.519C406.179 682.652 405.354 683.479 404.139 683.479C402.66 683.479 402.193 682.519 402.087 681.879H400.821C400.927 683.319 401.966 684.652 404.139 684.652C406.127 684.652 407.46 683.359 407.46 681.519V681.371C407.46 679.386 406.06 678.252 404.433 678.252C403.512 678.252 402.887 678.571 402.512 678.946V676.198H407.1V675.025H401.287V680.304Z" fill="#666664" id="Vector_214"/>
<path d="M413.059 674.865C411.059 674.865 409.753 676.146 409.753 678.319V681.198C409.753 683.479 411.101 684.652 413.059 684.652C415.019 684.652 416.367 683.479 416.367 681.198V678.319C416.367 676.146 415.059 674.865 413.059 674.865ZM413.059 683.479C411.713 683.479 411.034 682.504 411.034 681.186V678.332C411.034 677.013 411.713 676.038 413.059 676.038C414.407 676.038 415.086 677.013 415.086 678.332V681.186C415.086 682.504 414.407 683.479 413.059 683.479Z" fill="#666664" id="Vector_215"/>
</g>
</g>
</g>
<g id="xtick_7_3">
<g id="line2d_7_3">
<g id="Group_76">
<g id="Vector_216">
<path d="M475.073 665.346V670.012V665.346Z" fill="#666664"/>
<path d="M475.073 665.346V670.012" stroke="#666664" stroke-width="1.06667"/>
</g>
</g>
</g>
<g id="text_7_3">
<g id="Group_77">
<path d="M462.526 686.52H469.672V685.505H462.526V686.52Z" fill="#666664" id="Vector_217"/>
<path d="M478.019 681.425C478.019 679.465 476.752 678.252 474.992 678.252C474.471 678.252 474.059 678.359 473.738 678.532L476.498 675.025H474.965L472.752 677.919C471.913 678.998 471.219 679.986 471.219 681.425C471.219 683.292 472.446 684.652 474.604 684.652C476.738 684.652 478.019 683.238 478.019 681.425ZM476.725 681.425C476.725 682.559 475.992 683.479 474.604 683.479C473.271 683.479 472.513 682.559 472.513 681.425C472.513 680.252 473.325 679.346 474.604 679.346C475.992 679.346 476.725 680.252 476.725 681.425Z" fill="#666664" id="Vector_218"/>
<path d="M483.591 674.865C481.591 674.865 480.285 676.146 480.285 678.319V681.198C480.285 683.479 481.633 684.652 483.591 684.652C485.552 684.652 486.899 683.479 486.899 681.198V678.319C486.899 676.146 485.591 674.865 483.591 674.865ZM483.591 683.479C482.245 683.479 481.566 682.504 481.566 681.186V678.332C481.566 677.013 482.245 676.038 483.591 676.038C484.939 676.038 485.618 677.013 485.618 678.332V681.186C485.618 682.504 484.939 683.479 483.591 683.479Z" fill="#666664" id="Vector_219"/>
</g>
</g>
</g>
<g id="xtick_8_3">
<g id="line2d_8_3">
<g id="Group_78">
<g id="Vector_220">
<path d="M545.586 665.346V670.012V665.346Z" fill="#666664"/>
<path d="M545.586 665.346V670.012" stroke="#666664" stroke-width="1.06667"/>
</g>
</g>
</g>
<g id="text_8_3">
<g id="Group_79">
<path d="M533.28 686.52H540.426V685.505H533.28V686.52Z" fill="#666664" id="Vector_221"/>
<path d="M548.519 675.998V675.026H541.879V676.198H547.052L542.412 684.492H543.825L548.519 675.998Z" fill="#666664" id="Vector_222"/>
<path d="M553.865 674.865C551.865 674.865 550.559 676.146 550.559 678.319V681.198C550.559 683.479 551.907 684.652 553.865 684.652C555.826 684.652 557.173 683.479 557.173 681.198V678.319C557.173 676.146 555.865 674.865 553.865 674.865ZM553.865 683.479C552.519 683.479 551.84 682.504 551.84 681.186V678.332C551.84 677.013 552.519 676.038 553.865 676.038C555.213 676.038 555.892 677.013 555.892 678.332V681.186C555.892 682.504 555.213 683.479 553.865 683.479Z" fill="#666664" id="Vector_223"/>
</g>
</g>
</g>
<g id="xtick_9_3">
<g id="line2d_9_3">
<g id="Group_80">
<g id="Vector_224">
<path d="M616.099 665.346V670.012V665.346Z" fill="#666664"/>
<path d="M616.099 665.346V670.012" stroke="#666664" stroke-width="1.06667"/>
</g>
</g>
</g>
<g id="text_9_3">
<g id="Group_81">
<path d="M603.446 686.52H610.592V685.505H603.446V686.52Z" fill="#666664" id="Vector_225"/>
<path d="M619.045 681.932C619.045 680.598 618.085 679.825 617.352 679.613C618.033 679.398 618.858 678.759 618.858 677.479C618.858 675.986 617.791 674.865 615.818 674.865H615.472C613.512 674.865 612.433 675.986 612.433 677.479C612.433 678.759 613.258 679.398 613.939 679.613C613.206 679.825 612.245 680.598 612.245 681.932C612.245 683.532 613.458 684.652 615.433 684.652H615.791C617.806 684.652 619.045 683.532 619.045 681.932ZM615.818 676.013C616.885 676.013 617.579 676.613 617.579 677.532C617.579 678.452 616.885 679.052 615.818 679.052H615.472C614.406 679.052 613.712 678.452 613.712 677.532C613.712 676.613 614.406 676.013 615.472 676.013H615.818ZM615.845 680.198C616.979 680.198 617.739 680.838 617.739 681.852C617.739 682.865 616.979 683.504 615.845 683.504H615.445C614.325 683.504 613.552 682.865 613.552 681.852C613.552 680.838 614.325 680.198 615.445 680.198H615.845Z" fill="#666664" id="Vector_226"/>
<path d="M624.725 674.865C622.725 674.865 621.418 676.146 621.418 678.319V681.198C621.418 683.479 622.766 684.652 624.725 684.652C626.685 684.652 628.033 683.479 628.033 681.198V678.319C628.033 676.146 626.725 674.865 624.725 674.865ZM624.725 683.479C623.379 683.479 622.7 682.504 622.7 681.186V678.332C622.7 677.013 623.379 676.038 624.725 676.038C626.073 676.038 626.752 677.013 626.752 678.332V681.186C626.752 682.504 626.073 683.479 624.725 683.479Z" fill="#666664" id="Vector_227"/>
</g>
</g>
</g>
<g id="xtick_10_3">
<g id="line2d_10_3">
<g id="Group_82">
<g id="Vector_228">
<path d="M686.613 665.346V670.012V665.346Z" fill="#666664"/>
<path d="M686.613 665.346V670.012" stroke="#666664" stroke-width="1.06667"/>
</g>
</g>
</g>
<g id="text_10_3">
<g id="Group_83">
<path d="M674.066 686.52H681.212V685.505H674.066V686.52Z" fill="#666664" id="Vector_229"/>
<path d="M688.025 681.598C688.865 680.505 689.559 679.532 689.559 678.092C689.559 676.226 688.331 674.865 686.171 674.865C684.038 674.865 682.759 676.28 682.759 678.092C682.759 680.053 684.025 681.265 685.786 681.265C686.304 681.265 686.719 681.159 687.038 680.986L684.277 684.492H685.811L688.025 681.598ZM684.052 678.092C684.052 676.986 684.786 676.038 686.171 676.038C687.504 676.038 688.265 676.986 688.265 678.092C688.265 679.265 687.452 680.171 686.171 680.171C684.786 680.171 684.052 679.265 684.052 678.092Z" fill="#666664" id="Vector_230"/>
<path d="M695.131 674.865C693.131 674.865 691.824 676.146 691.824 678.319V681.198C691.824 683.479 693.172 684.652 695.131 684.652C697.091 684.652 698.439 683.479 698.439 681.198V678.319C698.439 676.146 697.131 674.865 695.131 674.865ZM695.131 683.479C693.785 683.479 693.106 682.504 693.106 681.186V678.332C693.106 677.013 693.785 676.038 695.131 676.038C696.479 676.038 697.158 677.013 697.158 678.332V681.186C697.158 682.504 696.479 683.479 695.131 683.479Z" fill="#666664" id="Vector_231"/>
</g>
</g>
</g>
</g>
<g id="matplotlib.axis_2_3">
<g id="ytick_1_3">
<g id="text_11_3">
<g id="Group_84">
<path d="M19.0125 653.566C17.0125 653.566 15.7063 654.847 15.7063 657.02V659.899C15.7063 662.181 17.0542 663.354 19.0125 663.354C20.973 663.354 22.3209 662.181 22.3209 659.899V657.02C22.3209 654.847 21.0125 653.566 19.0125 653.566ZM19.0125 662.181C17.6667 662.181 16.9875 661.206 16.9875 659.887V657.033C16.9875 655.714 17.6667 654.739 19.0125 654.739C20.3605 654.739 21.0396 655.714 21.0396 657.033V659.887C21.0396 661.206 20.3605 662.181 19.0125 662.181Z" fill="#666664" id="Vector_232"/>
<path d="M24.2141 665.221H31.3599V664.206H24.2141V665.221Z" fill="#666664" id="Vector_233"/>
<path d="M36.0676 665.221H43.2135V664.206H36.0676V665.221Z" fill="#666664" id="Vector_234"/>
</g>
</g>
</g>
<g id="ytick_2_3">
<g id="text_12_3">
<g id="Group_85">
<path d="M21.9999 639.566H21.0395L18.3604 641.206V642.433L20.7062 641.072V649.072H21.9999V639.566Z" fill="#666664" id="Vector_235"/>
<path d="M24.2146 651.1H31.3604V650.085H24.2146V651.1Z" fill="#666664" id="Vector_236"/>
<path d="M36.0679 651.1H43.2137V650.085H36.0679V651.1Z" fill="#666664" id="Vector_237"/>
</g>
</g>
</g>
<g id="ytick_3_3">
<g id="text_13_3">
<g id="Group_86">
<path d="M23.0416 633.78H18.427L20.427 631.82C21.5875 630.686 22.4937 629.741 22.4937 628.247C22.4937 626.58 21.3208 625.326 19.4416 625.326C17.5604 625.326 16.4145 626.593 16.4145 628.341V628.966H17.6812V628.353C17.6812 627.274 18.3333 626.499 19.4416 626.499C20.5479 626.499 21.2 627.193 21.2 628.247C21.2 629.274 20.6145 629.966 19.5875 630.993L16.3875 634.153V634.953H23.0416V633.78Z" fill="#666664" id="Vector_238"/>
<path d="M24.2148 636.98H31.3607V635.966H24.2148V636.98Z" fill="#666664" id="Vector_239"/>
<path d="M36.0684 636.98H43.2142V635.966H36.0684V636.98Z" fill="#666664" id="Vector_240"/>
</g>
</g>
</g>
<g id="ytick_4_3">
<g id="text_14_3">
<g id="Group_87">
<path d="M22.6667 618.246C22.6667 616.74 21.7459 616.073 21.0396 615.861C21.6125 615.607 22.3604 614.98 22.3604 613.807C22.3604 612.3 21.2396 611.207 19.2542 611.207C17.1875 611.207 16.2542 612.58 16.1875 613.794H17.4667C17.6125 612.994 18.1458 612.367 19.2667 612.367C20.3333 612.367 21.0792 612.913 21.0792 613.861C21.0792 614.821 20.4792 615.355 19.4667 615.355H17.7604V616.527H19.4271C20.6542 616.527 21.3604 617.1 21.3604 618.167C21.3604 619.221 20.5604 619.821 19.2938 619.821C18 619.821 17.3604 619.061 17.2271 618.327H15.9333C16.0396 619.621 17.0542 620.994 19.2938 620.994C21.4271 620.994 22.6667 619.888 22.6667 618.246Z" fill="#666664" id="Vector_241"/>
<path d="M24.2141 622.861H31.3599V621.847H24.2141V622.861Z" fill="#666664" id="Vector_242"/>
<path d="M36.0676 622.861H43.2135V621.847H36.0676V622.861Z" fill="#666664" id="Vector_243"/>
</g>
</g>
</g>
<g id="ytick_5_3">
<g id="text_15_3">
<g id="Group_88">
<path d="M23.1209 603.792V602.673H21.1084V597.246H19.6938L15.0542 603.086V603.792H19.8542V606.713H21.1084V603.792H23.1209ZM16.7604 602.673L19.8542 598.74V602.673H16.7604Z" fill="#666664" id="Vector_244"/>
<path d="M24.2151 608.74H31.3609V607.726H24.2151V608.74Z" fill="#666664" id="Vector_245"/>
<path d="M36.0684 608.74H43.2142V607.726H36.0684V608.74Z" fill="#666664" id="Vector_246"/>
</g>
</g>
</g>
<g id="ytick_6_3">
<g id="text_16_3">
<g id="Group_89">
<path d="M16.4689 588.406H17.5355C17.6814 588.193 18.1355 587.527 19.3209 587.527C20.548 587.527 21.3605 588.273 21.3605 589.487V589.621C21.3605 590.754 20.5355 591.581 19.3209 591.581C17.8418 591.581 17.3751 590.621 17.2689 589.981H16.0022C16.1084 591.421 17.148 592.754 19.3209 592.754C21.3084 592.754 22.6418 591.46 22.6418 589.621V589.473C22.6418 587.487 21.2418 586.354 19.6147 586.354C18.6939 586.354 18.0689 586.673 17.6939 587.048V584.3H22.2814V583.127H16.4689V588.406Z" fill="#666664" id="Vector_247"/>
<path d="M24.2156 594.621H31.3614V593.607H24.2156V594.621Z" fill="#666664" id="Vector_248"/>
<path d="M36.0688 594.621H43.2147V593.607H36.0688V594.621Z" fill="#666664" id="Vector_249"/>
</g>
</g>
</g>
<g id="ytick_7_3">
<g id="text_17_3">
<g id="Group_90">
<path d="M22.6667 575.406C22.6667 573.445 21.4 572.233 19.6396 572.233C19.1188 572.233 18.7063 572.339 18.3854 572.512L21.1459 569.006H19.6125L17.4 571.899C16.5604 572.979 15.8667 573.966 15.8667 575.406C15.8667 577.272 17.0938 578.633 19.2521 578.633C21.3854 578.633 22.6667 577.218 22.6667 575.406ZM21.3729 575.406C21.3729 576.539 20.6396 577.46 19.2521 577.46C17.9188 577.46 17.1604 576.539 17.1604 575.406C17.1604 574.233 17.9729 573.327 19.2521 573.327C20.6396 573.327 21.3729 574.233 21.3729 575.406Z" fill="#666664" id="Vector_250"/>
<path d="M24.2139 580.5H31.3597V579.485H24.2139V580.5Z" fill="#666664" id="Vector_251"/>
<path d="M36.0671 580.5H43.213V579.485H36.0671V580.5Z" fill="#666664" id="Vector_252"/>
</g>
</g>
</g>
<g id="ytick_8_3">
<g id="text_18_3">
<g id="Group_91">
<path d="M22.8937 555.86V554.887H16.2542V556.06H21.4271L16.7875 564.354H18.2L22.8937 555.86Z" fill="#666664" id="Vector_253"/>
<path d="M24.2151 566.381H31.3609V565.366H24.2151V566.381Z" fill="#666664" id="Vector_254"/>
<path d="M36.0684 566.381H43.2142V565.366H36.0684V566.381Z" fill="#666664" id="Vector_255"/>
</g>
</g>
</g>
<g id="ytick_9_3">
<g id="text_19_3">
<g id="Group_92">
<path d="M22.5605 547.672C22.5605 546.338 21.6001 545.565 20.8667 545.353C21.548 545.138 22.373 544.499 22.373 543.22C22.373 541.726 21.3063 540.605 19.3334 540.605H18.9876C17.0272 540.605 15.948 541.726 15.948 543.22C15.948 544.499 16.773 545.138 17.4542 545.353C16.7209 545.565 15.7605 546.338 15.7605 547.672C15.7605 549.272 16.973 550.393 18.948 550.393H19.3063C21.3209 550.393 22.5605 549.272 22.5605 547.672ZM19.3334 541.753C20.4001 541.753 21.0938 542.353 21.0938 543.272C21.0938 544.193 20.4001 544.793 19.3334 544.793H18.9876C17.9209 544.793 17.2272 544.193 17.2272 543.272C17.2272 542.353 17.9209 541.753 18.9876 541.753H19.3334ZM19.3605 545.938C20.4938 545.938 21.2542 546.578 21.2542 547.593C21.2542 548.605 20.4938 549.245 19.3605 549.245H18.9605C17.8397 549.245 17.0667 548.605 17.0667 547.593C17.0667 546.578 17.8397 545.938 18.9605 545.938H19.3605Z" fill="#666664" id="Vector_256"/>
<path d="M24.2146 552.26H31.3604V551.245H24.2146V552.26Z" fill="#666664" id="Vector_257"/>
<path d="M36.0679 552.26H43.2137V551.245H36.0679V552.26Z" fill="#666664" id="Vector_258"/>
</g>
</g>
</g>
<g id="ytick_10_3">
<g id="text_20_3">
<g id="Group_93">
<path d="M21.1334 533.22C21.9729 532.126 22.6667 531.153 22.6667 529.713C22.6667 527.847 21.4396 526.486 19.2792 526.486C17.1459 526.486 15.8667 527.901 15.8667 529.713C15.8667 531.674 17.1334 532.886 18.8938 532.886C19.4125 532.886 19.8271 532.78 20.1459 532.607L17.3854 536.113H18.9188L21.1334 533.22ZM17.1604 529.713C17.1604 528.607 17.8938 527.659 19.2792 527.659C20.6125 527.659 21.3729 528.607 21.3729 529.713C21.3729 530.886 20.5604 531.792 19.2792 531.792C17.8938 531.792 17.1604 530.886 17.1604 529.713Z" fill="#666664" id="Vector_259"/>
<path d="M24.2139 538.141H31.3597V537.126H24.2139V538.141Z" fill="#666664" id="Vector_260"/>
<path d="M36.0671 538.141H43.213V537.126H36.0671V538.141Z" fill="#666664" id="Vector_261"/>
</g>
</g>
</g>
</g>
<g id="line2d_21_3">
<g id="Clip path group_22">
<mask height="142" id="mask21_2142_3582" maskUnits="userSpaceOnUse" style="mask-type:luminance" width="706" x="48" y="524">
<g id="p46a3aaa138_2">
<path d="M753.6 524.146H48.4688V665.346H753.6V524.146Z" fill="white" id="Vector_262"/>
</g>
</mask>
<g mask="url(#mask21_2142_3582)">
<path d="M118.982 665.346V524.146" id="Vector_263" stroke="#666664" stroke-linecap="square" stroke-width="1.33333"/>
</g>
</g>
</g>
<g id="line2d_22_3">
<g id="Clip path group_23">
<mask height="142" id="mask22_2142_3582" maskUnits="userSpaceOnUse" style="mask-type:luminance" width="706" x="48" y="524">
<g id="p46a3aaa138_3">
<path d="M753.6 524.146H48.4688V665.346H753.6V524.146Z" fill="white" id="Vector_264"/>
</g>
</mask>
<g mask="url(#mask22_2142_3582)">
<path d="M189.495 665.346V524.146" id="Vector_265" stroke="#666664" stroke-linecap="square" stroke-width="1.33333"/>
</g>
</g>
</g>
<g id="line2d_23_3">
<g id="Clip path group_24">
<mask height="142" id="mask23_2142_3582" maskUnits="userSpaceOnUse" style="mask-type:luminance" width="706" x="48" y="524">
<g id="p46a3aaa138_4">
<path d="M753.6 524.146H48.4688V665.346H753.6V524.146Z" fill="white" id="Vector_266"/>
</g>
</mask>
<g mask="url(#mask23_2142_3582)">
<path d="M260.008 665.346V524.146" id="Vector_267" stroke="#666664" stroke-linecap="square" stroke-width="1.33333"/>
</g>
</g>
</g>
<g id="line2d_24_3">
<g id="Clip path group_25">
<mask height="142" id="mask24_2142_3582" maskUnits="userSpaceOnUse" style="mask-type:luminance" width="706" x="48" y="524">
<g id="p46a3aaa138_5">
<path d="M753.6 524.146H48.4688V665.346H753.6V524.146Z" fill="white" id="Vector_268"/>
</g>
</mask>
<g mask="url(#mask24_2142_3582)">
<path d="M330.521 665.346V524.146" id="Vector_269" stroke="#666664" stroke-linecap="square" stroke-width="1.33333"/>
</g>
</g>
</g>
<g id="line2d_25_3">
<g id="Clip path group_26">
<mask height="142" id="mask25_2142_3582" maskUnits="userSpaceOnUse" style="mask-type:luminance" width="706" x="48" y="524">
<g id="p46a3aaa138_6">
<path d="M753.6 524.146H48.4688V665.346H753.6V524.146Z" fill="white" id="Vector_270"/>
</g>
</mask>
<g mask="url(#mask25_2142_3582)">
<path d="M401.034 665.346V524.146" id="Vector_271" stroke="#666664" stroke-linecap="square" stroke-width="1.33333"/>
</g>
</g>
</g>
<g id="line2d_26_3">
<g id="Clip path group_27">
<mask height="142" id="mask26_2142_3582" maskUnits="userSpaceOnUse" style="mask-type:luminance" width="706" x="48" y="524">
<g id="p46a3aaa138_7">
<path d="M753.6 524.146H48.4688V665.346H753.6V524.146Z" fill="white" id="Vector_272"/>
</g>
</mask>
<g mask="url(#mask26_2142_3582)">
<path d="M471.547 665.346V524.146" id="Vector_273" stroke="#666664" stroke-linecap="square" stroke-width="1.33333"/>
</g>
</g>
</g>
<g id="line2d_27_3">
<g id="Clip path group_28">
<mask height="142" id="mask27_2142_3582" maskUnits="userSpaceOnUse" style="mask-type:luminance" width="706" x="48" y="524">
<g id="p46a3aaa138_8">
<path d="M753.6 524.146H48.4688V665.346H753.6V524.146Z" fill="white" id="Vector_274"/>
</g>
</mask>
<g mask="url(#mask27_2142_3582)">
<path d="M542.061 665.346V524.146" id="Vector_275" stroke="#666664" stroke-linecap="square" stroke-width="1.33333"/>
</g>
</g>
</g>
<g id="line2d_28_3">
<g id="Clip path group_29">
<mask height="142" id="mask28_2142_3582" maskUnits="userSpaceOnUse" style="mask-type:luminance" width="706" x="48" y="524">
<g id="p46a3aaa138_9">
<path d="M753.6 524.146H48.4688V665.346H753.6V524.146Z" fill="white" id="Vector_276"/>
</g>
</mask>
<g mask="url(#mask28_2142_3582)">
<path d="M612.574 665.346V524.146" id="Vector_277" stroke="#666664" stroke-linecap="square" stroke-width="1.33333"/>
</g>
</g>
</g>
<g id="line2d_29_3">
<g id="Clip path group_30">
<mask height="142" id="mask29_2142_3582" maskUnits="userSpaceOnUse" style="mask-type:luminance" width="706" x="48" y="524">
<g id="p46a3aaa138_10">
<path d="M753.6 524.146H48.4688V665.346H753.6V524.146Z" fill="white" id="Vector_278"/>
</g>
</mask>
<g mask="url(#mask29_2142_3582)">
<path d="M683.087 665.346V524.146" id="Vector_279" stroke="#666664" stroke-linecap="square" stroke-width="1.33333"/>
</g>
</g>
</g>
<g id="patch_3_3">
<path d="M48.4688 665.346V524.146" id="Vector_280" stroke="#666664" stroke-linecap="square" stroke-width="1.06667"/>
</g>
<g id="patch_4_3">
<path d="M753.6 665.346V524.146" id="Vector_281" stroke="#666664" stroke-linecap="square" stroke-width="1.06667"/>
</g>
<g id="patch_5_3">
<path d="M48.4688 665.346H753.6" id="Vector_282" stroke="#666664" stroke-linecap="square" stroke-width="1.06667"/>
</g>
<g id="patch_6_3">
<path d="M48.4688 524.146H753.6" id="Vector_283" stroke="#666664" stroke-linecap="square" stroke-width="1.06667"/>
</g>
</g>
</g>
</g>
<text fill="#4D4D4D" font-family="Roboto" font-size="13" id="Figure 00: Output weight plots for CLT features that arenât as easily described by Fourier components." letter-spacing="0em" style="white-space: pre" xml:space="preserve"><tspan x="0" y="745.189">Figure 00: Output weight plots for CLT features that aren’t as easily described by Fourier components.</tspan></text>
</g>
<defs>
<pattern height="1" id="pattern0_2142_3582" patternContentUnits="objectBoundingBox" width="1">
<use transform="scale(0.00136054 0.00675676)" xlink:href="#image0_2142_3582"/>
</pattern>
<pattern height="1" id="pattern1_2142_3582" patternContentUnits="objectBoundingBox" width="1">
<use transform="scale(0.00136054 0.00675676)" xlink:href="#image1_2142_3582"/>
</pattern>
<pattern height="1" id="pattern2_2142_3582" patternContentUnits="objectBoundingBox" width="1">
<use transform="scale(0.00136054 0.00675676)" xlink:href="#image2_2142_3582"/>
</pattern>
<clipPath id="clip0_2142_3582">
<rect fill="white" height="197.373" transform="translate(0 20)" width="739"/>
</clipPath>
<clipPath id="clip1_2142_3582">
<rect fill="white" height="197.373" transform="translate(0 247.373)" width="739"/>
</clipPath>
<clipPath id="clip2_2142_3582">
<rect fill="white" height="227" transform="translate(0 474.746)" width="768"/>
</clipPath>
<image data-name="image0cdd80dbb2.png" height="148" id="image0_2142_3582" preserveAspectRatio="none" width="735" xlink:href="./png/img_3d440f1baa71272a.png"/>
<image data-name="imagececc3e9765.png" height="148" id="image1_2142_3582" preserveAspectRatio="none" width="735" xlink:href="./png/img_a128b7f3d6e92cb5.png"/>
<image data-name="image3c9ed91746.png" height="148" id="image2_2142_3582" preserveAspectRatio="none" width="735" xlink:href="./png/img_57234d673972050c.png"/>
</defs>
</svg>