<?xml version="1.0" encoding="utf-8"?>
<svg fill="none" height="563" viewBox="0 0 1304 563" width="1304" xmlns="http://www.w3.org/2000/svg" xmlns:xlink="http://www.w3.org/1999/xlink">
<g clip-path="url(#clip0_2076_5674)" id="overview-breakup-1-svg">
<rect fill="white" height="563" width="1304"/>
<g id="Group 716">
<g id="Vector 1312" opacity="0.8">
<path d="M567 310V315.628C567 328.397 559.846 340.089 548.477 345.901L513.523 363.771C502.154 369.584 495 381.276 495 394.044V399" id="Vector 600" opacity="0.7" stroke="#B8B6AD" stroke-width="0.5"/>
</g>
<g id="Vector 1313" opacity="0.8">
<path d="M592 310V313.142C592 327.18 583.373 339.774 570.284 344.845L518.716 364.827C505.627 369.898 497 382.493 497 396.53V399" id="Vector 600_2" opacity="0.7" stroke="#B8B6AD" stroke-width="0.5"/>
</g>
<g id="Vector 1314" opacity="0.8">
<path d="M544 310V319.448C544 330.14 538.97 340.21 530.421 346.632L508.579 363.04C500.03 369.462 495 379.532 495 390.224V399" id="Vector 600_3" opacity="0.7" stroke="#B8B6AD" stroke-width="0.5"/>
</g>
<g id="Vector 1315" opacity="0.8">
<path d="M520 310V325.977C520 332.789 517.954 339.444 514.126 345.079L500.874 364.593C497.046 370.228 495 376.883 495 383.695V399" id="Vector 600_4" opacity="0.7" stroke="#B8B6AD" stroke-width="0.5"/>
</g>
<g id="Vector 1316" opacity="0.8">
<path d="M496 310V336.431L495 373.241V399" id="Vector 600_5" opacity="0.7" stroke="#B8B6AD" stroke-width="0.5"/>
</g>
<g id="Vector 1317" opacity="0.8">
<path d="M567 310V336.431L566 373.241V399" id="Vector 600_6" opacity="0.7" stroke="#B8B6AD" stroke-width="0.5"/>
</g>
<g id="Vector 1318" opacity="0.8">
<path d="M543 310V336.431L542 373.241V399" id="Vector 600_7" opacity="0.7" stroke="#B8B6AD" stroke-width="0.5"/>
</g>
<g id="Vector 1319" opacity="0.8">
<path d="M521 310V336.431L520 373.241V399" id="Vector 600_8" opacity="0.7" stroke="#B8B6AD" stroke-width="0.5"/>
</g>
<g id="Vector 1320" opacity="0.8">
<path d="M520 310V315.628C520 328.397 527.154 340.089 538.523 345.901L573.477 363.771C584.846 369.584 592 381.276 592 394.044V399" id="Vector 600_9" opacity="0.7" stroke="#B8B6AD" stroke-width="0.5"/>
</g>
<g id="Vector 1321" opacity="0.8">
<path d="M520 310V320.093C520 330.42 524.694 340.187 532.757 346.639L553.243 363.033C561.306 369.485 566 379.252 566 389.58V399" id="Vector 600_10" opacity="0.7" stroke="#B8B6AD" stroke-width="0.5"/>
</g>
<g id="Vector 1322" opacity="0.8">
<path d="M520 310V327.045C520 333.188 521.664 339.215 524.815 344.488L537.185 365.184C540.336 370.457 542 376.485 542 382.627V399" id="Vector 600_11" opacity="0.7" stroke="#B8B6AD" stroke-width="0.5"/>
</g>
<g id="Vector 1323" opacity="0.8">
<path d="M497 310V313.142C497 327.18 505.627 339.774 518.716 344.845L570.284 364.827C583.373 369.898 592 382.493 592 396.53V399" id="Vector 600_12" opacity="0.7" stroke="#B8B6AD" stroke-width="0.5"/>
</g>
<g id="Vector 1324" opacity="0.8">
<path d="M497 310V315.896C497 328.524 503.999 340.112 515.175 345.989L548.825 363.683C560.001 369.561 567 381.148 567 393.776V399" id="Vector 600_13" opacity="0.7" stroke="#B8B6AD" stroke-width="0.5"/>
</g>
<g id="Vector 1325" opacity="0.8">
<path d="M497 310V319.873C497 330.325 501.807 340.196 510.036 346.641L530.964 363.031C539.193 369.476 544 379.347 544 389.799V399" id="Vector 600_14" opacity="0.7" stroke="#B8B6AD" stroke-width="0.5"/>
</g>
<g id="Vector 1326" opacity="0.8">
<path d="M497 310V326.682C497 333.053 498.79 339.296 502.166 344.699L514.834 364.973C518.21 370.376 520 376.619 520 382.99V399" id="Vector 600_15" opacity="0.7" stroke="#B8B6AD" stroke-width="0.5"/>
</g>
<g id="Vector 1327" opacity="0.8">
<path d="M544 310V326.326C544 332.92 542.082 339.372 538.481 344.896L525.519 364.776C521.918 370.3 520 376.752 520 383.346V399" id="Vector 600_16" opacity="0.7" stroke="#B8B6AD" stroke-width="0.5"/>
</g>
<g id="Vector 1328" opacity="0.8">
<path d="M544 310V327.045C544 333.188 545.664 339.215 548.815 344.488L561.185 365.184C564.336 370.457 566 376.485 566 382.627V399" id="Vector 600_17" opacity="0.7" stroke="#B8B6AD" stroke-width="0.5"/>
</g>
<g id="Vector 1329" opacity="0.8">
<path d="M591 310V325.977C591 332.789 588.954 339.444 585.126 345.079L571.874 364.593C568.046 370.228 566 376.883 566 383.695V399" id="Vector 600_18" opacity="0.7" stroke="#B8B6AD" stroke-width="0.5"/>
</g>
<g id="Vector 1330" opacity="0.8">
<path d="M591 310V319.448C591 330.14 585.97 340.21 577.421 346.632L555.579 363.04C547.03 369.462 542 379.532 542 390.224V399" id="Vector 600_19" opacity="0.7" stroke="#B8B6AD" stroke-width="0.5"/>
</g>
<g id="Vector 1331" opacity="0.8">
<path d="M567 310V325.977C567 332.789 564.954 339.444 561.126 345.079L547.874 364.593C544.046 370.228 542 376.883 542 383.695V399" id="Vector 600_20" opacity="0.7" stroke="#B8B6AD" stroke-width="0.5"/>
</g>
<g id="Vector 1332" opacity="0.8">
<path d="M567 310V319.873C567 330.325 562.193 340.196 553.964 346.641L533.036 363.031C524.807 369.476 520 379.347 520 389.799V399" id="Vector 600_21" opacity="0.7" stroke="#B8B6AD" stroke-width="0.5"/>
</g>
<g id="Vector 1333" opacity="0.8">
<path d="M591 310V315.761C591 328.46 583.923 340.1 572.649 345.945L538.351 363.727C527.077 369.572 520 381.213 520 393.912V399" id="Vector 600_22" opacity="0.7" stroke="#B8B6AD" stroke-width="0.5"/>
</g>
<g id="Vector 1334" opacity="0.8">
<path d="M544 310V319.658C544 330.232 548.919 340.204 557.31 346.638L578.69 363.034C587.081 369.469 592 379.44 592 390.014V399" id="Vector 600_23" opacity="0.7" stroke="#B8B6AD" stroke-width="0.5"/>
</g>
<g id="Vector 1335" opacity="0.8">
<path d="M567 310V325.977C567 332.789 569.046 339.444 572.874 345.079L586.126 364.593C589.954 370.228 592 376.883 592 383.695V399" id="Vector 600_24" opacity="0.7" stroke="#B8B6AD" stroke-width="0.5"/>
</g>
<g id="Vector 1336" opacity="0.8">
<path d="M591 310V336.431L592 373.241V399" id="Vector 600_25" opacity="0.7" stroke="#B8B6AD" stroke-width="0.5"/>
</g>
</g>
<g id="Group 723">
<g id="Vector 1312_2" opacity="0.8">
<path d="M567 228V264.522C567 273.645 563.334 282.385 556.826 288.777L505.174 339.514C498.666 345.907 495 354.647 495 363.77V399" id="Vector 600_26" opacity="0.7" stroke="#B8B6AD" stroke-width="0.5"/>
</g>
<g id="Vector 1313_2" opacity="0.8">
<path d="M592 228V261.708C592 272.452 586.922 282.564 578.303 288.98L510.697 339.311C502.078 345.727 497 355.839 497 366.584V399" id="Vector 600_27" opacity="0.7" stroke="#B8B6AD" stroke-width="0.5"/>
</g>
<g id="Vector 1314_2" opacity="0.8">
<path d="M544 228V268.156C544 275.076 541.889 281.831 537.948 287.519L501.052 340.772C497.111 346.46 495 353.216 495 360.135V399" id="Vector 600_28" opacity="0.7" stroke="#B8B6AD" stroke-width="0.5"/>
</g>
<g id="Vector 1315_2" opacity="0.8">
<path d="M520 228V272.951C520 276.811 519.343 280.643 518.056 284.283L496.944 344.009C495.657 347.648 495 351.48 495 355.34V399" id="Vector 600_29" opacity="0.7" stroke="#B8B6AD" stroke-width="0.5"/>
</g>
<g id="Vector 1316_2" opacity="0.8">
<path d="M496 228V278.784L495 349.508V399" id="Vector 600_30" opacity="0.7" stroke="#B8B6AD" stroke-width="0.5"/>
</g>
<g id="Vector 1317_2" opacity="0.8">
<path d="M567 228V278.784L566 349.508V399" id="Vector 600_31" opacity="0.7" stroke="#B8B6AD" stroke-width="0.5"/>
</g>
<g id="Vector 1318_2" opacity="0.8">
<path d="M543 228V278.784L542 349.508V399" id="Vector 600_32" opacity="0.7" stroke="#B8B6AD" stroke-width="0.5"/>
</g>
<g id="Vector 1319_2" opacity="0.8">
<path d="M521 228V278.784L520 349.508V399" id="Vector 600_33" opacity="0.7" stroke="#B8B6AD" stroke-width="0.5"/>
</g>
<g id="Vector 1320_2" opacity="0.8">
<path d="M520 228V264.522C520 273.645 523.666 282.385 530.174 288.777L581.826 339.514C588.334 345.907 592 354.647 592 363.77V399" id="Vector 600_34" opacity="0.7" stroke="#B8B6AD" stroke-width="0.5"/>
</g>
<g id="Vector 1321_2" opacity="0.8">
<path d="M520 228V268.699C520 275.28 521.91 281.72 525.498 287.237L560.502 341.054C564.09 346.571 566 353.011 566 359.592V399" id="Vector 600_35" opacity="0.7" stroke="#B8B6AD" stroke-width="0.5"/>
</g>
<g id="Vector 1322_2" opacity="0.8">
<path d="M520 228V273.618C520 277.042 520.517 280.447 521.534 283.716L540.466 344.575C541.483 347.845 542 351.25 542 354.674V399" id="Vector 600_36" opacity="0.7" stroke="#B8B6AD" stroke-width="0.5"/>
</g>
<g id="Vector 1323_2" opacity="0.8">
<path d="M497 228V261.708C497 272.452 502.078 282.564 510.697 288.98L578.303 339.311C586.922 345.727 592 355.839 592 366.584V399" id="Vector 600_37" opacity="0.7" stroke="#B8B6AD" stroke-width="0.5"/>
</g>
<g id="Vector 1324_2" opacity="0.8">
<path d="M497 228V264.803C497 273.759 500.534 282.354 506.835 288.72L557.165 339.571C563.466 345.937 567 354.532 567 363.489V399" id="Vector 600_38" opacity="0.7" stroke="#B8B6AD" stroke-width="0.5"/>
</g>
<g id="Vector 1325_2" opacity="0.8">
<path d="M497 228V268.516C497 275.212 498.977 281.758 502.683 287.335L538.317 340.957C542.023 346.533 544 353.08 544 359.775V399" id="Vector 600_39" opacity="0.7" stroke="#B8B6AD" stroke-width="0.5"/>
</g>
<g id="Vector 1326_2" opacity="0.8">
<path d="M497 228V273.394C497 276.965 497.562 280.513 498.667 283.909L518.333 344.383C519.438 347.778 520 351.327 520 354.898V399" id="Vector 600_40" opacity="0.7" stroke="#B8B6AD" stroke-width="0.5"/>
</g>
<g id="Vector 1327_2" opacity="0.8">
<path d="M544 228V273.172C544 276.888 543.391 280.579 542.197 284.098L521.803 344.194C520.609 347.713 520 351.404 520 355.12V399" id="Vector 600_41" opacity="0.7" stroke="#B8B6AD" stroke-width="0.5"/>
</g>
<g id="Vector 1328_2" opacity="0.8">
<path d="M544 228V273.618C544 277.042 544.517 280.447 545.534 283.716L564.466 344.575C565.483 347.845 566 351.25 566 354.674V399" id="Vector 600_42" opacity="0.7" stroke="#B8B6AD" stroke-width="0.5"/>
</g>
<g id="Vector 1329_2" opacity="0.8">
<path d="M591 228V272.951C591 276.811 590.343 280.643 589.056 284.283L567.944 344.009C566.657 347.648 566 351.48 566 355.34V399" id="Vector 600_43" opacity="0.7" stroke="#B8B6AD" stroke-width="0.5"/>
</g>
<g id="Vector 1330_2" opacity="0.8">
<path d="M591 228V268.156C591 275.076 588.889 281.831 584.948 287.519L548.052 340.772C544.111 346.46 542 353.216 542 360.135V399" id="Vector 600_44" opacity="0.7" stroke="#B8B6AD" stroke-width="0.5"/>
</g>
<g id="Vector 1331_2" opacity="0.8">
<path d="M567 228V272.951C567 276.811 566.343 280.643 565.056 284.283L543.944 344.009C542.657 347.648 542 351.48 542 355.34V399" id="Vector 600_45" opacity="0.7" stroke="#B8B6AD" stroke-width="0.5"/>
</g>
<g id="Vector 1332_2" opacity="0.8">
<path d="M567 228V268.516C567 275.212 565.023 281.758 561.317 287.335L525.683 340.957C521.977 346.533 520 353.08 520 359.775V399" id="Vector 600_46" opacity="0.7" stroke="#B8B6AD" stroke-width="0.5"/>
</g>
<g id="Vector 1333_2" opacity="0.8">
<path d="M591 228V264.662C591 273.702 587.4 282.37 580.995 288.75L530.005 339.542C523.6 345.922 520 354.59 520 363.63V399" id="Vector 600_47" opacity="0.7" stroke="#B8B6AD" stroke-width="0.5"/>
</g>
<g id="Vector 1334_2" opacity="0.8">
<path d="M544 228V268.335C544 275.144 546.044 281.795 549.867 287.429L586.133 340.863C589.956 346.496 592 353.148 592 359.956V399" id="Vector 600_48" opacity="0.7" stroke="#B8B6AD" stroke-width="0.5"/>
</g>
<g id="Vector 1335_2" opacity="0.8">
<path d="M567 228V272.951C567 276.811 567.657 280.643 568.944 284.283L590.056 344.009C591.343 347.648 592 351.48 592 355.34V399" id="Vector 600_49" opacity="0.7" stroke="#B8B6AD" stroke-width="0.5"/>
</g>
<g id="Vector 1336_2" opacity="0.8">
<path d="M591 228V278.784L592 349.508V399" id="Vector 600_50" opacity="0.7" stroke="#B8B6AD" stroke-width="0.5"/>
</g>
</g>
<g id="Group 724">
<g id="Vector 1312_3" opacity="0.8">
<path d="M701 228V264.522C701 273.645 697.334 282.385 690.826 288.777L639.174 339.514C632.666 345.907 629 354.647 629 363.77V399" id="Vector 600_51" opacity="0.7" stroke="#B8B6AD" stroke-width="0.5"/>
</g>
<g id="Vector 1313_3" opacity="0.8">
<path d="M726 228V261.708C726 272.452 720.922 282.564 712.303 288.98L644.697 339.311C636.078 345.727 631 355.839 631 366.584V399" id="Vector 600_52" opacity="0.7" stroke="#B8B6AD" stroke-width="0.5"/>
</g>
<g id="Vector 1314_3" opacity="0.8">
<path d="M678 228V268.156C678 275.076 675.889 281.831 671.948 287.519L635.052 340.772C631.111 346.46 629 353.216 629 360.135V399" id="Vector 600_53" opacity="0.7" stroke="#B8B6AD" stroke-width="0.5"/>
</g>
<g id="Vector 1315_3" opacity="0.8">
<path d="M654 228V272.951C654 276.811 653.343 280.643 652.056 284.283L630.944 344.009C629.657 347.648 629 351.48 629 355.34V399" id="Vector 600_54" opacity="0.7" stroke="#B8B6AD" stroke-width="0.5"/>
</g>
<g id="Vector 1316_3" opacity="0.8">
<path d="M630 228V278.784L629 349.508V399" id="Vector 600_55" opacity="0.7" stroke="#B8B6AD" stroke-width="0.5"/>
</g>
<g id="Vector 1317_3" opacity="0.8">
<path d="M701 228V278.784L700 349.508V399" id="Vector 600_56" opacity="0.7" stroke="#B8B6AD" stroke-width="0.5"/>
</g>
<g id="Vector 1318_3" opacity="0.8">
<path d="M677 228V278.784L676 349.508V399" id="Vector 600_57" opacity="0.7" stroke="#B8B6AD" stroke-width="0.5"/>
</g>
<g id="Vector 1319_3" opacity="0.8">
<path d="M655 228V278.784L654 349.508V399" id="Vector 600_58" opacity="0.7" stroke="#B8B6AD" stroke-width="0.5"/>
</g>
<g id="Vector 1320_3" opacity="0.8">
<path d="M654 228V264.522C654 273.645 657.666 282.385 664.174 288.777L715.826 339.514C722.334 345.907 726 354.647 726 363.77V399" id="Vector 600_59" opacity="0.7" stroke="#B8B6AD" stroke-width="0.5"/>
</g>
<g id="Vector 1321_3" opacity="0.8">
<path d="M654 228V268.699C654 275.28 655.91 281.72 659.498 287.237L694.502 341.054C698.09 346.571 700 353.011 700 359.592V399" id="Vector 600_60" opacity="0.7" stroke="#B8B6AD" stroke-width="0.5"/>
</g>
<g id="Vector 1322_3" opacity="0.8">
<path d="M654 228V273.618C654 277.042 654.517 280.447 655.534 283.716L674.466 344.575C675.483 347.845 676 351.25 676 354.674V399" id="Vector 600_61" opacity="0.7" stroke="#B8B6AD" stroke-width="0.5"/>
</g>
<g id="Vector 1323_3" opacity="0.8">
<path d="M631 228V261.708C631 272.452 636.078 282.564 644.697 288.98L712.303 339.311C720.922 345.727 726 355.839 726 366.584V399" id="Vector 600_62" opacity="0.7" stroke="#B8B6AD" stroke-width="0.5"/>
</g>
<g id="Vector 1324_3" opacity="0.8">
<path d="M631 228V264.803C631 273.759 634.534 282.354 640.835 288.72L691.165 339.571C697.466 345.937 701 354.532 701 363.489V399" id="Vector 600_63" opacity="0.7" stroke="#B8B6AD" stroke-width="0.5"/>
</g>
<g id="Vector 1325_3" opacity="0.8">
<path d="M631 228V268.516C631 275.212 632.977 281.758 636.683 287.335L672.317 340.957C676.023 346.533 678 353.08 678 359.775V399" id="Vector 600_64" opacity="0.7" stroke="#B8B6AD" stroke-width="0.5"/>
</g>
<g id="Vector 1326_3" opacity="0.8">
<path d="M631 228V273.394C631 276.965 631.562 280.513 632.667 283.909L652.333 344.383C653.438 347.778 654 351.327 654 354.898V399" id="Vector 600_65" opacity="0.7" stroke="#B8B6AD" stroke-width="0.5"/>
</g>
<g id="Vector 1327_3" opacity="0.8">
<path d="M678 228V273.172C678 276.888 677.391 280.579 676.197 284.098L655.803 344.194C654.609 347.713 654 351.404 654 355.12V399" id="Vector 600_66" opacity="0.7" stroke="#B8B6AD" stroke-width="0.5"/>
</g>
<g id="Vector 1328_3" opacity="0.8">
<path d="M678 228V273.618C678 277.042 678.517 280.447 679.534 283.716L698.466 344.575C699.483 347.845 700 351.25 700 354.674V399" id="Vector 600_67" opacity="0.7" stroke="#B8B6AD" stroke-width="0.5"/>
</g>
<g id="Vector 1329_3" opacity="0.8">
<path d="M725 228V272.951C725 276.811 724.343 280.643 723.056 284.283L701.944 344.009C700.657 347.648 700 351.48 700 355.34V399" id="Vector 600_68" opacity="0.7" stroke="#B8B6AD" stroke-width="0.5"/>
</g>
<g id="Vector 1330_3" opacity="0.8">
<path d="M725 228V268.156C725 275.076 722.889 281.831 718.948 287.519L682.052 340.772C678.111 346.46 676 353.216 676 360.135V399" id="Vector 600_69" opacity="0.7" stroke="#B8B6AD" stroke-width="0.5"/>
</g>
<g id="Vector 1331_3" opacity="0.8">
<path d="M701 228V272.951C701 276.811 700.343 280.643 699.056 284.283L677.944 344.009C676.657 347.648 676 351.48 676 355.34V399" id="Vector 600_70" opacity="0.7" stroke="#B8B6AD" stroke-width="0.5"/>
</g>
<g id="Vector 1332_3" opacity="0.8">
<path d="M701 228V268.516C701 275.212 699.023 281.758 695.317 287.335L659.683 340.957C655.977 346.533 654 353.08 654 359.775V399" id="Vector 600_71" opacity="0.7" stroke="#B8B6AD" stroke-width="0.5"/>
</g>
<g id="Vector 1333_3" opacity="0.8">
<path d="M725 228V264.662C725 273.702 721.4 282.37 714.995 288.75L664.005 339.542C657.6 345.922 654 354.59 654 363.63V399" id="Vector 600_72" opacity="0.7" stroke="#B8B6AD" stroke-width="0.5"/>
</g>
<g id="Vector 1334_3" opacity="0.8">
<path d="M678 228V268.335C678 275.144 680.044 281.795 683.867 287.429L720.133 340.863C723.956 346.496 726 353.148 726 359.956V399" id="Vector 600_73" opacity="0.7" stroke="#B8B6AD" stroke-width="0.5"/>
</g>
<g id="Vector 1335_3" opacity="0.8">
<path d="M701 228V272.951C701 276.811 701.657 280.643 702.944 284.283L724.056 344.009C725.343 347.648 726 351.48 726 355.34V399" id="Vector 600_74" opacity="0.7" stroke="#B8B6AD" stroke-width="0.5"/>
</g>
<g id="Vector 1336_3" opacity="0.8">
<path d="M725 228V278.784L726 349.508V399" id="Vector 600_75" opacity="0.7" stroke="#B8B6AD" stroke-width="0.5"/>
</g>
</g>
<g id="Group 725">
<g id="Vector 1312_4" opacity="0.8">
<path d="M842 228V264.522C842 273.645 838.334 282.385 831.826 288.777L780.174 339.514C773.666 345.907 770 354.647 770 363.77V399" id="Vector 600_76" opacity="0.7" stroke="#B8B6AD" stroke-width="0.5"/>
</g>
<g id="Vector 1313_4" opacity="0.8">
<path d="M867 228V261.708C867 272.452 861.922 282.564 853.303 288.98L785.697 339.311C777.078 345.727 772 355.839 772 366.584V399" id="Vector 600_77" opacity="0.7" stroke="#B8B6AD" stroke-width="0.5"/>
</g>
<g id="Vector 1314_4" opacity="0.8">
<path d="M819 228V268.156C819 275.076 816.889 281.831 812.948 287.519L776.052 340.772C772.111 346.46 770 353.216 770 360.135V399" id="Vector 600_78" opacity="0.7" stroke="#B8B6AD" stroke-width="0.5"/>
</g>
<g id="Vector 1315_4" opacity="0.8">
<path d="M795 228V272.951C795 276.811 794.343 280.643 793.056 284.283L771.944 344.009C770.657 347.648 770 351.48 770 355.34V399" id="Vector 600_79" opacity="0.7" stroke="#B8B6AD" stroke-width="0.5"/>
</g>
<g id="Vector 1316_4" opacity="0.8">
<path d="M771 228V278.784L770 349.508V399" id="Vector 600_80" opacity="0.7" stroke="#B8B6AD" stroke-width="0.5"/>
</g>
<g id="Vector 1317_4" opacity="0.8">
<path d="M842 228V278.784L841 349.508V399" id="Vector 600_81" opacity="0.7" stroke="#B8B6AD" stroke-width="0.5"/>
</g>
<g id="Vector 1318_4" opacity="0.8">
<path d="M818 228V278.784L817 349.508V399" id="Vector 600_82" opacity="0.7" stroke="#B8B6AD" stroke-width="0.5"/>
</g>
<g id="Vector 1319_4" opacity="0.8">
<path d="M796 228V278.784L795 349.508V399" id="Vector 600_83" opacity="0.7" stroke="#B8B6AD" stroke-width="0.5"/>
</g>
<g id="Vector 1320_4" opacity="0.8">
<path d="M795 228V264.522C795 273.645 798.666 282.385 805.174 288.777L856.826 339.514C863.334 345.907 867 354.647 867 363.77V399" id="Vector 600_84" opacity="0.7" stroke="#B8B6AD" stroke-width="0.5"/>
</g>
<g id="Vector 1321_4" opacity="0.8">
<path d="M795 228V268.699C795 275.28 796.91 281.72 800.498 287.237L835.502 341.054C839.09 346.571 841 353.011 841 359.592V399" id="Vector 600_85" opacity="0.7" stroke="#B8B6AD" stroke-width="0.5"/>
</g>
<g id="Vector 1322_4" opacity="0.8">
<path d="M795 228V273.618C795 277.042 795.517 280.447 796.534 283.716L815.466 344.575C816.483 347.845 817 351.25 817 354.674V399" id="Vector 600_86" opacity="0.7" stroke="#B8B6AD" stroke-width="0.5"/>
</g>
<g id="Vector 1323_4" opacity="0.8">
<path d="M772 228V261.708C772 272.452 777.078 282.564 785.697 288.98L853.303 339.311C861.922 345.727 867 355.839 867 366.584V399" id="Vector 600_87" opacity="0.7" stroke="#B8B6AD" stroke-width="0.5"/>
</g>
<g id="Vector 1324_4" opacity="0.8">
<path d="M772 228V264.803C772 273.759 775.534 282.354 781.835 288.72L832.165 339.571C838.466 345.937 842 354.532 842 363.489V399" id="Vector 600_88" opacity="0.7" stroke="#B8B6AD" stroke-width="0.5"/>
</g>
<g id="Vector 1325_4" opacity="0.8">
<path d="M772 228V268.516C772 275.212 773.977 281.758 777.683 287.335L813.317 340.957C817.023 346.533 819 353.08 819 359.775V399" id="Vector 600_89" opacity="0.7" stroke="#B8B6AD" stroke-width="0.5"/>
</g>
<g id="Vector 1326_4" opacity="0.8">
<path d="M772 228V273.394C772 276.965 772.562 280.513 773.667 283.909L793.333 344.383C794.438 347.778 795 351.327 795 354.898V399" id="Vector 600_90" opacity="0.7" stroke="#B8B6AD" stroke-width="0.5"/>
</g>
<g id="Vector 1327_4" opacity="0.8">
<path d="M819 228V273.172C819 276.888 818.391 280.579 817.197 284.098L796.803 344.194C795.609 347.713 795 351.404 795 355.12V399" id="Vector 600_91" opacity="0.7" stroke="#B8B6AD" stroke-width="0.5"/>
</g>
<g id="Vector 1328_4" opacity="0.8">
<path d="M819 228V273.618C819 277.042 819.517 280.447 820.534 283.716L839.466 344.575C840.483 347.845 841 351.25 841 354.674V399" id="Vector 600_92" opacity="0.7" stroke="#B8B6AD" stroke-width="0.5"/>
</g>
<g id="Vector 1329_4" opacity="0.8">
<path d="M866 228V272.951C866 276.811 865.343 280.643 864.056 284.283L842.944 344.009C841.657 347.648 841 351.48 841 355.34V399" id="Vector 600_93" opacity="0.7" stroke="#B8B6AD" stroke-width="0.5"/>
</g>
<g id="Vector 1330_4" opacity="0.8">
<path d="M866 228V268.156C866 275.076 863.889 281.831 859.948 287.519L823.052 340.772C819.111 346.46 817 353.216 817 360.135V399" id="Vector 600_94" opacity="0.7" stroke="#B8B6AD" stroke-width="0.5"/>
</g>
<g id="Vector 1331_4" opacity="0.8">
<path d="M842 228V272.951C842 276.811 841.343 280.643 840.056 284.283L818.944 344.009C817.657 347.648 817 351.48 817 355.34V399" id="Vector 600_95" opacity="0.7" stroke="#B8B6AD" stroke-width="0.5"/>
</g>
<g id="Vector 1332_4" opacity="0.8">
<path d="M842 228V268.516C842 275.212 840.023 281.758 836.317 287.335L800.683 340.957C796.977 346.533 795 353.08 795 359.775V399" id="Vector 600_96" opacity="0.7" stroke="#B8B6AD" stroke-width="0.5"/>
</g>
<g id="Vector 1333_4" opacity="0.8">
<path d="M866 228V264.662C866 273.702 862.4 282.37 855.995 288.75L805.005 339.542C798.6 345.922 795 354.59 795 363.63V399" id="Vector 600_97" opacity="0.7" stroke="#B8B6AD" stroke-width="0.5"/>
</g>
<g id="Vector 1334_4" opacity="0.8">
<path d="M819 228V268.335C819 275.144 821.044 281.795 824.867 287.429L861.133 340.863C864.956 346.496 867 353.148 867 359.956V399" id="Vector 600_98" opacity="0.7" stroke="#B8B6AD" stroke-width="0.5"/>
</g>
<g id="Vector 1335_4" opacity="0.8">
<path d="M842 228V272.951C842 276.811 842.657 280.643 843.944 284.283L865.056 344.009C866.343 347.648 867 351.48 867 355.34V399" id="Vector 600_99" opacity="0.7" stroke="#B8B6AD" stroke-width="0.5"/>
</g>
<g id="Vector 1336_4" opacity="0.8">
<path d="M866 228V278.784L867 349.508V399" id="Vector 600_100" opacity="0.7" stroke="#B8B6AD" stroke-width="0.5"/>
</g>
</g>
<g id="Group 718">
<g id="Vector 1312_5" opacity="0.8">
<path d="M701 310V315.628C701 328.397 693.846 340.089 682.477 345.901L647.523 363.771C636.154 369.584 629 381.276 629 394.044V399" id="Vector 600_101" opacity="0.7" stroke="#B8B6AD" stroke-width="0.5"/>
</g>
<g id="Vector 1313_5" opacity="0.8">
<path d="M726 310V313.142C726 327.18 717.373 339.774 704.284 344.845L652.716 364.827C639.627 369.898 631 382.493 631 396.53V399" id="Vector 600_102" opacity="0.7" stroke="#B8B6AD" stroke-width="0.5"/>
</g>
<g id="Vector 1314_5" opacity="0.8">
<path d="M678 310V319.448C678 330.14 672.97 340.21 664.421 346.632L642.579 363.04C634.03 369.462 629 379.532 629 390.224V399" id="Vector 600_103" opacity="0.7" stroke="#B8B6AD" stroke-width="0.5"/>
</g>
<g id="Vector 1315_5" opacity="0.8">
<path d="M654 310V325.977C654 332.789 651.954 339.444 648.126 345.079L634.874 364.593C631.046 370.228 629 376.883 629 383.695V399" id="Vector 600_104" opacity="0.7" stroke="#B8B6AD" stroke-width="0.5"/>
</g>
<g id="Vector 1316_5" opacity="0.8">
<path d="M630 310V336.431L629 373.241V399" id="Vector 600_105" opacity="0.7" stroke="#B8B6AD" stroke-width="0.5"/>
</g>
<g id="Vector 1317_5" opacity="0.8">
<path d="M701 310V336.431L700 373.241V399" id="Vector 600_106" opacity="0.7" stroke="#B8B6AD" stroke-width="0.5"/>
</g>
<g id="Vector 1318_5" opacity="0.8">
<path d="M677 310V336.431L676 373.241V399" id="Vector 600_107" opacity="0.7" stroke="#B8B6AD" stroke-width="0.5"/>
</g>
<g id="Vector 1319_5" opacity="0.8">
<path d="M655 310V336.431L654 373.241V399" id="Vector 600_108" opacity="0.7" stroke="#B8B6AD" stroke-width="0.5"/>
</g>
<g id="Vector 1320_5" opacity="0.8">
<path d="M654 310V315.628C654 328.397 661.154 340.089 672.523 345.901L707.477 363.771C718.846 369.584 726 381.276 726 394.044V399" id="Vector 600_109" opacity="0.7" stroke="#B8B6AD" stroke-width="0.5"/>
</g>
<g id="Vector 1321_5" opacity="0.8">
<path d="M654 310V320.093C654 330.42 658.694 340.187 666.757 346.639L687.243 363.033C695.306 369.485 700 379.252 700 389.58V399" id="Vector 600_110" opacity="0.7" stroke="#B8B6AD" stroke-width="0.5"/>
</g>
<g id="Vector 1322_5" opacity="0.8">
<path d="M654 310V327.045C654 333.188 655.664 339.215 658.815 344.488L671.185 365.184C674.336 370.457 676 376.485 676 382.627V399" id="Vector 600_111" opacity="0.7" stroke="#B8B6AD" stroke-width="0.5"/>
</g>
<g id="Vector 1323_5" opacity="0.8">
<path d="M631 310V313.142C631 327.18 639.627 339.774 652.716 344.845L704.284 364.827C717.373 369.898 726 382.493 726 396.53V399" id="Vector 600_112" opacity="0.7" stroke="#B8B6AD" stroke-width="0.5"/>
</g>
<g id="Vector 1324_5" opacity="0.8">
<path d="M631 310V315.896C631 328.524 637.999 340.112 649.175 345.989L682.825 363.683C694.001 369.561 701 381.148 701 393.776V399" id="Vector 600_113" opacity="0.7" stroke="#B8B6AD" stroke-width="0.5"/>
</g>
<g id="Vector 1325_5" opacity="0.8">
<path d="M631 310V319.873C631 330.325 635.807 340.196 644.036 346.641L664.964 363.031C673.193 369.476 678 379.347 678 389.799V399" id="Vector 600_114" opacity="0.7" stroke="#B8B6AD" stroke-width="0.5"/>
</g>
<g id="Vector 1326_5" opacity="0.8">
<path d="M631 310V326.682C631 333.053 632.79 339.296 636.166 344.699L648.834 364.973C652.21 370.376 654 376.619 654 382.99V399" id="Vector 600_115" opacity="0.7" stroke="#B8B6AD" stroke-width="0.5"/>
</g>
<g id="Vector 1327_5" opacity="0.8">
<path d="M678 310V326.326C678 332.92 676.082 339.372 672.481 344.896L659.519 364.776C655.918 370.3 654 376.752 654 383.346V399" id="Vector 600_116" opacity="0.7" stroke="#B8B6AD" stroke-width="0.5"/>
</g>
<g id="Vector 1328_5" opacity="0.8">
<path d="M678 310V327.045C678 333.188 679.664 339.215 682.815 344.488L695.185 365.184C698.336 370.457 700 376.485 700 382.627V399" id="Vector 600_117" opacity="0.7" stroke="#B8B6AD" stroke-width="0.5"/>
</g>
<g id="Vector 1329_5" opacity="0.8">
<path d="M725 310V325.977C725 332.789 722.954 339.444 719.126 345.079L705.874 364.593C702.046 370.228 700 376.883 700 383.695V399" id="Vector 600_118" opacity="0.7" stroke="#B8B6AD" stroke-width="0.5"/>
</g>
<g id="Vector 1330_5" opacity="0.8">
<path d="M725 310V319.448C725 330.14 719.97 340.21 711.421 346.632L689.579 363.04C681.03 369.462 676 379.532 676 390.224V399" id="Vector 600_119" opacity="0.7" stroke="#B8B6AD" stroke-width="0.5"/>
</g>
<g id="Vector 1331_5" opacity="0.8">
<path d="M701 310V325.977C701 332.789 698.954 339.444 695.126 345.079L681.874 364.593C678.046 370.228 676 376.883 676 383.695V399" id="Vector 600_120" opacity="0.7" stroke="#B8B6AD" stroke-width="0.5"/>
</g>
<g id="Vector 1332_5" opacity="0.8">
<path d="M701 310V319.873C701 330.325 696.193 340.196 687.964 346.641L667.036 363.031C658.807 369.476 654 379.347 654 389.799V399" id="Vector 600_121" opacity="0.7" stroke="#B8B6AD" stroke-width="0.5"/>
</g>
<g id="Vector 1333_5" opacity="0.8">
<path d="M725 310V315.761C725 328.46 717.923 340.1 706.649 345.945L672.351 363.727C661.077 369.572 654 381.213 654 393.912V399" id="Vector 600_122" opacity="0.7" stroke="#B8B6AD" stroke-width="0.5"/>
</g>
<g id="Vector 1334_5" opacity="0.8">
<path d="M678 310V319.658C678 330.232 682.919 340.204 691.31 346.638L712.69 363.034C721.081 369.469 726 379.44 726 390.014V399" id="Vector 600_123" opacity="0.7" stroke="#B8B6AD" stroke-width="0.5"/>
</g>
<g id="Vector 1335_5" opacity="0.8">
<path d="M701 310V325.977C701 332.789 703.046 339.444 706.874 345.079L720.126 364.593C723.954 370.228 726 376.883 726 383.695V399" id="Vector 600_124" opacity="0.7" stroke="#B8B6AD" stroke-width="0.5"/>
</g>
<g id="Vector 1336_5" opacity="0.8">
<path d="M725 310V336.431L726 373.241V399" id="Vector 600_125" opacity="0.7" stroke="#B8B6AD" stroke-width="0.5"/>
</g>
</g>
<g id="Group 720">
<g id="Vector 1312_6" opacity="0.8">
<path d="M842 310V315.628C842 328.397 834.846 340.089 823.477 345.901L788.523 363.771C777.154 369.584 770 381.276 770 394.044V399" id="Vector 600_126" opacity="0.7" stroke="#B8B6AD" stroke-width="0.5"/>
</g>
<g id="Vector 1313_6" opacity="0.8">
<path d="M867 310V313.142C867 327.18 858.373 339.774 845.284 344.845L793.716 364.827C780.627 369.898 772 382.493 772 396.53V399" id="Vector 600_127" opacity="0.7" stroke="#B8B6AD" stroke-width="0.5"/>
</g>
<g id="Vector 1314_6" opacity="0.8">
<path d="M819 310V319.448C819 330.14 813.97 340.21 805.421 346.632L783.579 363.04C775.03 369.462 770 379.532 770 390.224V399" id="Vector 600_128" opacity="0.7" stroke="#B8B6AD" stroke-width="0.5"/>
</g>
<g id="Vector 1315_6" opacity="0.8">
<path d="M795 310V325.977C795 332.789 792.954 339.444 789.126 345.079L775.874 364.593C772.046 370.228 770 376.883 770 383.695V399" id="Vector 600_129" opacity="0.7" stroke="#B8B6AD" stroke-width="0.5"/>
</g>
<g id="Vector 1316_6" opacity="0.8">
<path d="M771 310V336.431L770 373.241V399" id="Vector 600_130" opacity="0.7" stroke="#B8B6AD" stroke-width="0.5"/>
</g>
<g id="Vector 1317_6" opacity="0.8">
<path d="M842 310V336.431L841 373.241V399" id="Vector 600_131" opacity="0.7" stroke="#B8B6AD" stroke-width="0.5"/>
</g>
<g id="Vector 1318_6" opacity="0.8">
<path d="M818 310V336.431L817 373.241V399" id="Vector 600_132" opacity="0.7" stroke="#B8B6AD" stroke-width="0.5"/>
</g>
<g id="Vector 1319_6" opacity="0.8">
<path d="M796 310V336.431L795 373.241V399" id="Vector 600_133" opacity="0.7" stroke="#B8B6AD" stroke-width="0.5"/>
</g>
<g id="Vector 1320_6" opacity="0.8">
<path d="M795 310V315.628C795 328.397 802.154 340.089 813.523 345.901L848.477 363.771C859.846 369.584 867 381.276 867 394.044V399" id="Vector 600_134" opacity="0.7" stroke="#B8B6AD" stroke-width="0.5"/>
</g>
<g id="Vector 1321_6" opacity="0.8">
<path d="M795 310V320.093C795 330.42 799.694 340.187 807.757 346.639L828.243 363.033C836.306 369.485 841 379.252 841 389.58V399" id="Vector 600_135" opacity="0.7" stroke="#B8B6AD" stroke-width="0.5"/>
</g>
<g id="Vector 1322_6" opacity="0.8">
<path d="M795 310V327.045C795 333.188 796.664 339.215 799.815 344.488L812.185 365.184C815.336 370.457 817 376.485 817 382.627V399" id="Vector 600_136" opacity="0.7" stroke="#B8B6AD" stroke-width="0.5"/>
</g>
<g id="Vector 1323_6" opacity="0.8">
<path d="M772 310V313.142C772 327.18 780.627 339.774 793.716 344.845L845.284 364.827C858.373 369.898 867 382.493 867 396.53V399" id="Vector 600_137" opacity="0.7" stroke="#B8B6AD" stroke-width="0.5"/>
</g>
<g id="Vector 1324_6" opacity="0.8">
<path d="M772 310V315.896C772 328.524 778.999 340.112 790.175 345.989L823.825 363.683C835.001 369.561 842 381.148 842 393.776V399" id="Vector 600_138" opacity="0.7" stroke="#B8B6AD" stroke-width="0.5"/>
</g>
<g id="Vector 1325_6" opacity="0.8">
<path d="M772 310V319.873C772 330.325 776.807 340.196 785.036 346.641L805.964 363.031C814.193 369.476 819 379.347 819 389.799V399" id="Vector 600_139" opacity="0.7" stroke="#B8B6AD" stroke-width="0.5"/>
</g>
<g id="Vector 1326_6" opacity="0.8">
<path d="M772 310V326.682C772 333.053 773.79 339.296 777.166 344.699L789.834 364.973C793.21 370.376 795 376.619 795 382.99V399" id="Vector 600_140" opacity="0.7" stroke="#B8B6AD" stroke-width="0.5"/>
</g>
<g id="Vector 1327_6" opacity="0.8">
<path d="M819 310V326.326C819 332.92 817.082 339.372 813.481 344.896L800.519 364.776C796.918 370.3 795 376.752 795 383.346V399" id="Vector 600_141" opacity="0.7" stroke="#B8B6AD" stroke-width="0.5"/>
</g>
<g id="Vector 1328_6" opacity="0.8">
<path d="M819 310V327.045C819 333.188 820.664 339.215 823.815 344.488L836.185 365.184C839.336 370.457 841 376.485 841 382.627V399" id="Vector 600_142" opacity="0.7" stroke="#B8B6AD" stroke-width="0.5"/>
</g>
<g id="Vector 1329_6" opacity="0.8">
<path d="M866 310V325.977C866 332.789 863.954 339.444 860.126 345.079L846.874 364.593C843.046 370.228 841 376.883 841 383.695V399" id="Vector 600_143" opacity="0.7" stroke="#B8B6AD" stroke-width="0.5"/>
</g>
<g id="Vector 1330_6" opacity="0.8">
<path d="M866 310V319.448C866 330.14 860.97 340.21 852.421 346.632L830.579 363.04C822.03 369.462 817 379.532 817 390.224V399" id="Vector 600_144" opacity="0.7" stroke="#B8B6AD" stroke-width="0.5"/>
</g>
<g id="Vector 1331_6" opacity="0.8">
<path d="M842 310V325.977C842 332.789 839.954 339.444 836.126 345.079L822.874 364.593C819.046 370.228 817 376.883 817 383.695V399" id="Vector 600_145" opacity="0.7" stroke="#B8B6AD" stroke-width="0.5"/>
</g>
<g id="Vector 1332_6" opacity="0.8">
<path d="M842 310V319.873C842 330.325 837.193 340.196 828.964 346.641L808.036 363.031C799.807 369.476 795 379.347 795 389.799V399" id="Vector 600_146" opacity="0.7" stroke="#B8B6AD" stroke-width="0.5"/>
</g>
<g id="Vector 1333_6" opacity="0.8">
<path d="M866 310V315.761C866 328.46 858.923 340.1 847.649 345.945L813.351 363.727C802.077 369.572 795 381.213 795 393.912V399" id="Vector 600_147" opacity="0.7" stroke="#B8B6AD" stroke-width="0.5"/>
</g>
<g id="Vector 1334_6" opacity="0.8">
<path d="M819 310V319.658C819 330.232 823.919 340.204 832.31 346.638L853.69 363.034C862.081 369.469 867 379.44 867 390.014V399" id="Vector 600_148" opacity="0.7" stroke="#B8B6AD" stroke-width="0.5"/>
</g>
<g id="Vector 1335_6" opacity="0.8">
<path d="M842 310V325.977C842 332.789 844.046 339.444 847.874 345.079L861.126 364.593C864.954 370.228 867 376.883 867 383.695V399" id="Vector 600_149" opacity="0.7" stroke="#B8B6AD" stroke-width="0.5"/>
</g>
<g id="Vector 1336_6" opacity="0.8">
<path d="M866 310V336.431L867 373.241V399" id="Vector 600_150" opacity="0.7" stroke="#B8B6AD" stroke-width="0.5"/>
</g>
</g>
<g id="Group 717">
<g id="Vector 1312_7" opacity="0.8">
<path d="M567 221V226.628C567 239.397 559.846 251.089 548.477 256.901L513.523 274.771C502.154 280.584 495 292.276 495 305.044V310" id="Vector 600_151" opacity="0.7" stroke="#B8B6AD" stroke-width="0.5"/>
</g>
<g id="Vector 1313_7" opacity="0.8">
<path d="M592 221V224.142C592 238.18 583.373 250.774 570.284 255.845L518.716 275.827C505.627 280.898 497 293.493 497 307.53V310" id="Vector 600_152" opacity="0.7" stroke="#B8B6AD" stroke-width="0.5"/>
</g>
<g id="Vector 1314_7" opacity="0.8">
<path d="M544 221V230.448C544 241.14 538.97 251.21 530.421 257.632L508.579 274.04C500.03 280.462 495 290.532 495 301.224V310" id="Vector 600_153" opacity="0.7" stroke="#B8B6AD" stroke-width="0.5"/>
</g>
<g id="Vector 1315_7" opacity="0.8">
<path d="M520 221V236.977C520 243.789 517.954 250.444 514.126 256.079L500.874 275.593C497.046 281.228 495 287.883 495 294.695V310" id="Vector 600_154" opacity="0.7" stroke="#B8B6AD" stroke-width="0.5"/>
</g>
<g id="Vector 1316_7" opacity="0.8">
<path d="M496 221V247.431L495 284.241V310" id="Vector 600_155" opacity="0.7" stroke="#B8B6AD" stroke-width="0.5"/>
</g>
<g id="Vector 1317_7" opacity="0.8">
<path d="M567 221V247.431L566 284.241V310" id="Vector 600_156" opacity="0.7" stroke="#B8B6AD" stroke-width="0.5"/>
</g>
<g id="Vector 1318_7" opacity="0.8">
<path d="M543 221V247.431L542 284.241V310" id="Vector 600_157" opacity="0.7" stroke="#B8B6AD" stroke-width="0.5"/>
</g>
<g id="Vector 1319_7" opacity="0.8">
<path d="M521 221V247.431L520 284.241V310" id="Vector 600_158" opacity="0.7" stroke="#B8B6AD" stroke-width="0.5"/>
</g>
<g id="Vector 1320_7" opacity="0.8">
<path d="M520 221V226.628C520 239.397 527.154 251.089 538.523 256.901L573.477 274.771C584.846 280.584 592 292.276 592 305.044V310" id="Vector 600_159" opacity="0.7" stroke="#B8B6AD" stroke-width="0.5"/>
</g>
<g id="Vector 1321_7" opacity="0.8">
<path d="M520 221V231.093C520 241.42 524.694 251.187 532.757 257.639L553.243 274.033C561.306 280.485 566 290.252 566 300.58V310" id="Vector 600_160" opacity="0.7" stroke="#B8B6AD" stroke-width="0.5"/>
</g>
<g id="Vector 1322_7" opacity="0.8">
<path d="M520 221V238.045C520 244.188 521.664 250.215 524.815 255.488L537.185 276.184C540.336 281.457 542 287.485 542 293.627V310" id="Vector 600_161" opacity="0.7" stroke="#B8B6AD" stroke-width="0.5"/>
</g>
<g id="Vector 1323_7" opacity="0.8">
<path d="M497 221V224.142C497 238.18 505.627 250.774 518.716 255.845L570.284 275.827C583.373 280.898 592 293.493 592 307.53V310" id="Vector 600_162" opacity="0.7" stroke="#B8B6AD" stroke-width="0.5"/>
</g>
<g id="Vector 1324_7" opacity="0.8">
<path d="M497 221V226.896C497 239.524 503.999 251.112 515.175 256.989L548.825 274.683C560.001 280.561 567 292.148 567 304.776V310" id="Vector 600_163" opacity="0.7" stroke="#B8B6AD" stroke-width="0.5"/>
</g>
<g id="Vector 1325_7" opacity="0.8">
<path d="M497 221V230.873C497 241.325 501.807 251.196 510.036 257.641L530.964 274.031C539.193 280.476 544 290.347 544 300.799V310" id="Vector 600_164" opacity="0.7" stroke="#B8B6AD" stroke-width="0.5"/>
</g>
<g id="Vector 1326_7" opacity="0.8">
<path d="M497 221V237.682C497 244.053 498.79 250.296 502.166 255.699L514.834 275.973C518.21 281.376 520 287.619 520 293.99V310" id="Vector 600_165" opacity="0.7" stroke="#B8B6AD" stroke-width="0.5"/>
</g>
<g id="Vector 1327_7" opacity="0.8">
<path d="M544 221V237.326C544 243.92 542.082 250.372 538.481 255.896L525.519 275.776C521.918 281.3 520 287.752 520 294.346V310" id="Vector 600_166" opacity="0.7" stroke="#B8B6AD" stroke-width="0.5"/>
</g>
<g id="Vector 1328_7" opacity="0.8">
<path d="M544 221V238.045C544 244.188 545.664 250.215 548.815 255.488L561.185 276.184C564.336 281.457 566 287.485 566 293.627V310" id="Vector 600_167" opacity="0.7" stroke="#B8B6AD" stroke-width="0.5"/>
</g>
<g id="Vector 1329_7" opacity="0.8">
<path d="M591 221V236.977C591 243.789 588.954 250.444 585.126 256.079L571.874 275.593C568.046 281.228 566 287.883 566 294.695V310" id="Vector 600_168" opacity="0.7" stroke="#B8B6AD" stroke-width="0.5"/>
</g>
<g id="Vector 1330_7" opacity="0.8">
<path d="M591 221V230.448C591 241.14 585.97 251.21 577.421 257.632L555.579 274.04C547.03 280.462 542 290.532 542 301.224V310" id="Vector 600_169" opacity="0.7" stroke="#B8B6AD" stroke-width="0.5"/>
</g>
<g id="Vector 1331_7" opacity="0.8">
<path d="M567 221V236.977C567 243.789 564.954 250.444 561.126 256.079L547.874 275.593C544.046 281.228 542 287.883 542 294.695V310" id="Vector 600_170" opacity="0.7" stroke="#B8B6AD" stroke-width="0.5"/>
</g>
<g id="Vector 1332_7" opacity="0.8">
<path d="M567 221V230.873C567 241.325 562.193 251.196 553.964 257.641L533.036 274.031C524.807 280.476 520 290.347 520 300.799V310" id="Vector 600_171" opacity="0.7" stroke="#B8B6AD" stroke-width="0.5"/>
</g>
<g id="Vector 1333_7" opacity="0.8">
<path d="M591 221V226.761C591 239.46 583.923 251.1 572.649 256.945L538.351 274.727C527.077 280.572 520 292.213 520 304.912V310" id="Vector 600_172" opacity="0.7" stroke="#B8B6AD" stroke-width="0.5"/>
</g>
<g id="Vector 1334_7" opacity="0.8">
<path d="M544 221V230.658C544 241.232 548.919 251.204 557.31 257.638L578.69 274.034C587.081 280.469 592 290.44 592 301.014V310" id="Vector 600_173" opacity="0.7" stroke="#B8B6AD" stroke-width="0.5"/>
</g>
<g id="Vector 1335_7" opacity="0.8">
<path d="M567 221V236.977C567 243.789 569.046 250.444 572.874 256.079L586.126 275.593C589.954 281.228 592 287.883 592 294.695V310" id="Vector 600_174" opacity="0.7" stroke="#B8B6AD" stroke-width="0.5"/>
</g>
<g id="Vector 1336_7" opacity="0.8">
<path d="M591 221V247.431L592 284.241V310" id="Vector 600_175" opacity="0.7" stroke="#B8B6AD" stroke-width="0.5"/>
</g>
</g>
<g id="Group 719">
<g id="Vector 1312_8" opacity="0.8">
<path d="M701 221V226.628C701 239.397 693.846 251.089 682.477 256.901L647.523 274.771C636.154 280.584 629 292.276 629 305.044V310" id="Vector 600_176" opacity="0.7" stroke="#B8B6AD" stroke-width="0.5"/>
</g>
<g id="Vector 1313_8" opacity="0.8">
<path d="M726 221V224.142C726 238.18 717.373 250.774 704.284 255.845L652.716 275.827C639.627 280.898 631 293.493 631 307.53V310" id="Vector 600_177" opacity="0.7" stroke="#B8B6AD" stroke-width="0.5"/>
</g>
<g id="Vector 1314_8" opacity="0.8">
<path d="M678 221V230.448C678 241.14 672.97 251.21 664.421 257.632L642.579 274.04C634.03 280.462 629 290.532 629 301.224V310" id="Vector 600_178" opacity="0.7" stroke="#B8B6AD" stroke-width="0.5"/>
</g>
<g id="Vector 1315_8" opacity="0.8">
<path d="M654 221V236.977C654 243.789 651.954 250.444 648.126 256.079L634.874 275.593C631.046 281.228 629 287.883 629 294.695V310" id="Vector 600_179" opacity="0.7" stroke="#B8B6AD" stroke-width="0.5"/>
</g>
<g id="Vector 1316_8" opacity="0.8">
<path d="M630 221V247.431L629 284.241V310" id="Vector 600_180" opacity="0.7" stroke="#B8B6AD" stroke-width="0.5"/>
</g>
<g id="Vector 1317_8" opacity="0.8">
<path d="M701 221V247.431L700 284.241V310" id="Vector 600_181" opacity="0.7" stroke="#B8B6AD" stroke-width="0.5"/>
</g>
<g id="Vector 1318_8" opacity="0.8">
<path d="M677 221V247.431L676 284.241V310" id="Vector 600_182" opacity="0.7" stroke="#B8B6AD" stroke-width="0.5"/>
</g>
<g id="Vector 1319_8" opacity="0.8">
<path d="M655 221V247.431L654 284.241V310" id="Vector 600_183" opacity="0.7" stroke="#B8B6AD" stroke-width="0.5"/>
</g>
<g id="Vector 1320_8" opacity="0.8">
<path d="M654 221V226.628C654 239.397 661.154 251.089 672.523 256.901L707.477 274.771C718.846 280.584 726 292.276 726 305.044V310" id="Vector 600_184" opacity="0.7" stroke="#B8B6AD" stroke-width="0.5"/>
</g>
<g id="Vector 1321_8" opacity="0.8">
<path d="M654 221V231.093C654 241.42 658.694 251.187 666.757 257.639L687.243 274.033C695.306 280.485 700 290.252 700 300.58V310" id="Vector 600_185" opacity="0.7" stroke="#B8B6AD" stroke-width="0.5"/>
</g>
<g id="Vector 1322_8" opacity="0.8">
<path d="M654 221V238.045C654 244.188 655.664 250.215 658.815 255.488L671.185 276.184C674.336 281.457 676 287.485 676 293.627V310" id="Vector 600_186" opacity="0.7" stroke="#B8B6AD" stroke-width="0.5"/>
</g>
<g id="Vector 1323_8" opacity="0.8">
<path d="M631 221V224.142C631 238.18 639.627 250.774 652.716 255.845L704.284 275.827C717.373 280.898 726 293.493 726 307.53V310" id="Vector 600_187" opacity="0.7" stroke="#B8B6AD" stroke-width="0.5"/>
</g>
<g id="Vector 1324_8" opacity="0.8">
<path d="M631 221V226.896C631 239.524 637.999 251.112 649.175 256.989L682.825 274.683C694.001 280.561 701 292.148 701 304.776V310" id="Vector 600_188" opacity="0.7" stroke="#B8B6AD" stroke-width="0.5"/>
</g>
<g id="Vector 1325_8" opacity="0.8">
<path d="M631 221V230.873C631 241.325 635.807 251.196 644.036 257.641L664.964 274.031C673.193 280.476 678 290.347 678 300.799V310" id="Vector 600_189" opacity="0.7" stroke="#B8B6AD" stroke-width="0.5"/>
</g>
<g id="Vector 1326_8" opacity="0.8">
<path d="M631 221V237.682C631 244.053 632.79 250.296 636.166 255.699L648.834 275.973C652.21 281.376 654 287.619 654 293.99V310" id="Vector 600_190" opacity="0.7" stroke="#B8B6AD" stroke-width="0.5"/>
</g>
<g id="Vector 1327_8" opacity="0.8">
<path d="M678 221V237.326C678 243.92 676.082 250.372 672.481 255.896L659.519 275.776C655.918 281.3 654 287.752 654 294.346V310" id="Vector 600_191" opacity="0.7" stroke="#B8B6AD" stroke-width="0.5"/>
</g>
<g id="Vector 1328_8" opacity="0.8">
<path d="M678 221V238.045C678 244.188 679.664 250.215 682.815 255.488L695.185 276.184C698.336 281.457 700 287.485 700 293.627V310" id="Vector 600_192" opacity="0.7" stroke="#B8B6AD" stroke-width="0.5"/>
</g>
<g id="Vector 1329_8" opacity="0.8">
<path d="M725 221V236.977C725 243.789 722.954 250.444 719.126 256.079L705.874 275.593C702.046 281.228 700 287.883 700 294.695V310" id="Vector 600_193" opacity="0.7" stroke="#B8B6AD" stroke-width="0.5"/>
</g>
<g id="Vector 1330_8" opacity="0.8">
<path d="M725 221V230.448C725 241.14 719.97 251.21 711.421 257.632L689.579 274.04C681.03 280.462 676 290.532 676 301.224V310" id="Vector 600_194" opacity="0.7" stroke="#B8B6AD" stroke-width="0.5"/>
</g>
<g id="Vector 1331_8" opacity="0.8">
<path d="M701 221V236.977C701 243.789 698.954 250.444 695.126 256.079L681.874 275.593C678.046 281.228 676 287.883 676 294.695V310" id="Vector 600_195" opacity="0.7" stroke="#B8B6AD" stroke-width="0.5"/>
</g>
<g id="Vector 1332_8" opacity="0.8">
<path d="M701 221V230.873C701 241.325 696.193 251.196 687.964 257.641L667.036 274.031C658.807 280.476 654 290.347 654 300.799V310" id="Vector 600_196" opacity="0.7" stroke="#B8B6AD" stroke-width="0.5"/>
</g>
<g id="Vector 1333_8" opacity="0.8">
<path d="M725 221V226.761C725 239.46 717.923 251.1 706.649 256.945L672.351 274.727C661.077 280.572 654 292.213 654 304.912V310" id="Vector 600_197" opacity="0.7" stroke="#B8B6AD" stroke-width="0.5"/>
</g>
<g id="Vector 1334_8" opacity="0.8">
<path d="M678 221V230.658C678 241.232 682.919 251.204 691.31 257.638L712.69 274.034C721.081 280.469 726 290.44 726 301.014V310" id="Vector 600_198" opacity="0.7" stroke="#B8B6AD" stroke-width="0.5"/>
</g>
<g id="Vector 1335_8" opacity="0.8">
<path d="M701 221V236.977C701 243.789 703.046 250.444 706.874 256.079L720.126 275.593C723.954 281.228 726 287.883 726 294.695V310" id="Vector 600_199" opacity="0.7" stroke="#B8B6AD" stroke-width="0.5"/>
</g>
<g id="Vector 1336_8" opacity="0.8">
<path d="M725 221V247.431L726 284.241V310" id="Vector 600_200" opacity="0.7" stroke="#B8B6AD" stroke-width="0.5"/>
</g>
</g>
<g id="Group 721">
<g id="Vector 1312_9" opacity="0.8">
<path d="M842 221V226.628C842 239.397 834.846 251.089 823.477 256.901L788.523 274.771C777.154 280.584 770 292.276 770 305.044V310" id="Vector 600_201" opacity="0.7" stroke="#B8B6AD" stroke-width="0.5"/>
</g>
<g id="Vector 1313_9" opacity="0.8">
<path d="M867 221V224.142C867 238.18 858.373 250.774 845.284 255.845L793.716 275.827C780.627 280.898 772 293.493 772 307.53V310" id="Vector 600_202" opacity="0.7" stroke="#B8B6AD" stroke-width="0.5"/>
</g>
<g id="Vector 1314_9" opacity="0.8">
<path d="M819 221V230.448C819 241.14 813.97 251.21 805.421 257.632L783.579 274.04C775.03 280.462 770 290.532 770 301.224V310" id="Vector 600_203" opacity="0.7" stroke="#B8B6AD" stroke-width="0.5"/>
</g>
<g id="Vector 1315_9" opacity="0.8">
<path d="M795 221V236.977C795 243.789 792.954 250.444 789.126 256.079L775.874 275.593C772.046 281.228 770 287.883 770 294.695V310" id="Vector 600_204" opacity="0.7" stroke="#B8B6AD" stroke-width="0.5"/>
</g>
<g id="Vector 1316_9" opacity="0.8">
<path d="M771 221V247.431L770 284.241V310" id="Vector 600_205" opacity="0.7" stroke="#B8B6AD" stroke-width="0.5"/>
</g>
<g id="Vector 1317_9" opacity="0.8">
<path d="M842 221V247.431L841 284.241V310" id="Vector 600_206" opacity="0.7" stroke="#B8B6AD" stroke-width="0.5"/>
</g>
<g id="Vector 1318_9" opacity="0.8">
<path d="M818 221V247.431L817 284.241V310" id="Vector 600_207" opacity="0.7" stroke="#B8B6AD" stroke-width="0.5"/>
</g>
<g id="Vector 1319_9" opacity="0.8">
<path d="M796 221V247.431L795 284.241V310" id="Vector 600_208" opacity="0.7" stroke="#B8B6AD" stroke-width="0.5"/>
</g>
<g id="Vector 1320_9" opacity="0.8">
<path d="M795 221V226.628C795 239.397 802.154 251.089 813.523 256.901L848.477 274.771C859.846 280.584 867 292.276 867 305.044V310" id="Vector 600_209" opacity="0.7" stroke="#B8B6AD" stroke-width="0.5"/>
</g>
<g id="Vector 1321_9" opacity="0.8">
<path d="M795 221V231.093C795 241.42 799.694 251.187 807.757 257.639L828.243 274.033C836.306 280.485 841 290.252 841 300.58V310" id="Vector 600_210" opacity="0.7" stroke="#B8B6AD" stroke-width="0.5"/>
</g>
<g id="Vector 1322_9" opacity="0.8">
<path d="M795 221V238.045C795 244.188 796.664 250.215 799.815 255.488L812.185 276.184C815.336 281.457 817 287.485 817 293.627V310" id="Vector 600_211" opacity="0.7" stroke="#B8B6AD" stroke-width="0.5"/>
</g>
<g id="Vector 1323_9" opacity="0.8">
<path d="M772 221V224.142C772 238.18 780.627 250.774 793.716 255.845L845.284 275.827C858.373 280.898 867 293.493 867 307.53V310" id="Vector 600_212" opacity="0.7" stroke="#B8B6AD" stroke-width="0.5"/>
</g>
<g id="Vector 1324_9" opacity="0.8">
<path d="M772 221V226.896C772 239.524 778.999 251.112 790.175 256.989L823.825 274.683C835.001 280.561 842 292.148 842 304.776V310" id="Vector 600_213" opacity="0.7" stroke="#B8B6AD" stroke-width="0.5"/>
</g>
<g id="Vector 1325_9" opacity="0.8">
<path d="M772 221V230.873C772 241.325 776.807 251.196 785.036 257.641L805.964 274.031C814.193 280.476 819 290.347 819 300.799V310" id="Vector 600_214" opacity="0.7" stroke="#B8B6AD" stroke-width="0.5"/>
</g>
<g id="Vector 1326_9" opacity="0.8">
<path d="M772 221V237.682C772 244.053 773.79 250.296 777.166 255.699L789.834 275.973C793.21 281.376 795 287.619 795 293.99V310" id="Vector 600_215" opacity="0.7" stroke="#B8B6AD" stroke-width="0.5"/>
</g>
<g id="Vector 1327_9" opacity="0.8">
<path d="M819 221V237.326C819 243.92 817.082 250.372 813.481 255.896L800.519 275.776C796.918 281.3 795 287.752 795 294.346V310" id="Vector 600_216" opacity="0.7" stroke="#B8B6AD" stroke-width="0.5"/>
</g>
<g id="Vector 1328_9" opacity="0.8">
<path d="M819 221V238.045C819 244.188 820.664 250.215 823.815 255.488L836.185 276.184C839.336 281.457 841 287.485 841 293.627V310" id="Vector 600_217" opacity="0.7" stroke="#B8B6AD" stroke-width="0.5"/>
</g>
<g id="Vector 1329_9" opacity="0.8">
<path d="M866 221V236.977C866 243.789 863.954 250.444 860.126 256.079L846.874 275.593C843.046 281.228 841 287.883 841 294.695V310" id="Vector 600_218" opacity="0.7" stroke="#B8B6AD" stroke-width="0.5"/>
</g>
<g id="Vector 1330_9" opacity="0.8">
<path d="M866 221V230.448C866 241.14 860.97 251.21 852.421 257.632L830.579 274.04C822.03 280.462 817 290.532 817 301.224V310" id="Vector 600_219" opacity="0.7" stroke="#B8B6AD" stroke-width="0.5"/>
</g>
<g id="Vector 1331_9" opacity="0.8">
<path d="M842 221V236.977C842 243.789 839.954 250.444 836.126 256.079L822.874 275.593C819.046 281.228 817 287.883 817 294.695V310" id="Vector 600_220" opacity="0.7" stroke="#B8B6AD" stroke-width="0.5"/>
</g>
<g id="Vector 1332_9" opacity="0.8">
<path d="M842 221V230.873C842 241.325 837.193 251.196 828.964 257.641L808.036 274.031C799.807 280.476 795 290.347 795 300.799V310" id="Vector 600_221" opacity="0.7" stroke="#B8B6AD" stroke-width="0.5"/>
</g>
<g id="Vector 1333_9" opacity="0.8">
<path d="M866 221V226.761C866 239.46 858.923 251.1 847.649 256.945L813.351 274.727C802.077 280.572 795 292.213 795 304.912V310" id="Vector 600_222" opacity="0.7" stroke="#B8B6AD" stroke-width="0.5"/>
</g>
<g id="Vector 1334_9" opacity="0.8">
<path d="M819 221V230.658C819 241.232 823.919 251.204 832.31 257.638L853.69 274.034C862.081 280.469 867 290.44 867 301.014V310" id="Vector 600_223" opacity="0.7" stroke="#B8B6AD" stroke-width="0.5"/>
</g>
<g id="Vector 1335_9" opacity="0.8">
<path d="M842 221V236.977C842 243.789 844.046 250.444 847.874 256.079L861.126 275.593C864.954 281.228 867 287.883 867 294.695V310" id="Vector 600_224" opacity="0.7" stroke="#B8B6AD" stroke-width="0.5"/>
</g>
<g id="Vector 1336_9" opacity="0.8">
<path d="M866 221V247.431L867 284.241V310" id="Vector 600_225" opacity="0.7" stroke="#B8B6AD" stroke-width="0.5"/>
</g>
</g>
<path d="M793 216.027V216.027C793 204.029 799.841 193.082 810.625 187.823L831.824 177.486C842.333 172.361 849 161.692 849 150V150" id="Vector 1496" opacity="0.7" stroke="#B8B6AD"/>
<path d="M770 216.027V216.027C770 204.291 777.441 193.846 788.533 190.012L830.939 175.353C841.748 171.616 849 161.437 849 150V150" id="Vector 1500" opacity="0.7" stroke="#B8B6AD"/>
<path d="M729 216.027V216.027C729 204.556 736.936 194.612 748.12 192.067L830.367 173.35C841.266 170.87 849 161.178 849 150V150" id="Vector 1501" opacity="0.7" stroke="#B8B6AD"/>
<path d="M704 216.027V216.027C704 204.655 712.095 194.894 723.27 192.789L830.22 172.647C841.111 170.595 849 161.082 849 150V150" id="Vector 1502" opacity="0.7" stroke="#B8B6AD"/>
<path d="M680 216.027V216.027C680 204.725 688.2 195.093 699.358 193.29L830.135 172.158C841.008 170.401 849 161.014 849 150V150" id="Vector 1503" opacity="0.7" stroke="#B8B6AD"/>
<path d="M656 216.027V216.027C656 204.779 664.279 195.247 675.415 193.671L830.079 171.787C840.932 170.251 849 160.961 849 150V150" id="Vector 1504" opacity="0.7" stroke="#B8B6AD"/>
<path d="M632 216.027V216.027C632 204.822 640.338 195.369 651.455 193.97L830.04 171.496C840.874 170.132 849 160.919 849 150V150" id="Vector 1505" opacity="0.7" stroke="#B8B6AD"/>
<path d="M591 216.027V216.027C591 204.878 599.413 195.527 610.5 194.354L829.996 171.121C840.801 169.978 849 160.865 849 150V150" id="Vector 1506" opacity="0.7" stroke="#B8B6AD"/>
<path d="M567 216.027V216.027C567 204.904 575.447 195.6 586.517 194.528L829.979 170.952C840.768 169.907 849 160.84 849 150V150" id="Vector 1507" opacity="0.7" stroke="#B8B6AD"/>
<path d="M543 216.027V216.027C543 204.926 551.474 195.662 562.531 194.675L829.966 170.808C840.741 169.847 849 160.818 849 150V150" id="Vector 1508" opacity="0.7" stroke="#B8B6AD"/>
<path d="M520 216.027V216.027C520 204.944 528.497 195.713 539.541 194.796L829.956 170.691C840.719 169.797 849 160.8 849 150V150" id="Vector 1509" opacity="0.7" stroke="#B8B6AD"/>
<path d="M495 216.027V216.027C495 204.961 503.518 195.761 514.551 194.91L829.947 170.58C840.699 169.75 849 160.784 849 150V150" id="Vector 1510" opacity="0.7" stroke="#B8B6AD"/>
<path d="M817 216.027V212.101C817 202.149 821.36 192.698 828.929 186.238L837.071 179.29C844.64 172.83 849 163.378 849 153.427V150" id="Vector 1497" opacity="0.7" stroke="#B8B6AD"/>
<path d="M841 216.027V201.296C841 198.06 841.462 194.842 842.371 191.737L847.629 173.791C848.538 170.686 849 167.467 849 164.232V150" id="Vector 1498" opacity="0.7" stroke="#B8B6AD"/>
<path d="M864 216.027V205.141C864 199.418 862.555 193.788 859.8 188.772L853.2 176.755C850.445 171.74 849 166.109 849 160.387V150" id="Vector 1499" opacity="0.7" stroke="#B8B6AD"/>
<path d="M514 481.047V465.57C514 459.75 512.506 454.029 509.662 448.952L499.338 430.523C496.494 425.446 495 419.724 495 413.905V399.047" id="Vector 1511" opacity="0.7" stroke="#B8B6AD" stroke-width="0.75"/>
<path d="M651 481.047V465.57C651 459.75 649.506 454.029 646.662 448.952L636.338 430.523C633.494 425.446 632 419.724 632 413.905V399.047" id="Vector 1516" opacity="0.7" stroke="#B8B6AD" stroke-width="0.75"/>
<path d="M787 481.047V465.57C787 459.75 785.506 454.029 782.662 448.952L772.338 430.523C769.494 425.446 768 419.724 768 413.905V399.047" id="Vector 1521" opacity="0.7" stroke="#B8B6AD" stroke-width="0.75"/>
<path d="M514 481.047V456.695L518 422.78V399.047" id="Vector 1512" opacity="0.7" stroke="#B8B6AD" stroke-width="0.75"/>
<path d="M651 481.047V456.695L655 422.78V399.047" id="Vector 1517" opacity="0.7" stroke="#B8B6AD" stroke-width="0.75"/>
<path d="M787 481.047V456.695L791 422.78V399.047" id="Vector 1522" opacity="0.7" stroke="#B8B6AD" stroke-width="0.75"/>
<path d="M514 481.047V469.249C514 461.147 516.893 453.311 522.159 447.153L534.841 432.322C540.107 426.164 543 418.328 543 410.225V399.047" id="Vector 1513" opacity="0.7" stroke="#B8B6AD" stroke-width="0.75"/>
<path d="M651 481.047V469.249C651 461.147 653.893 453.311 659.159 447.153L671.841 432.322C677.107 426.164 680 418.328 680 410.225V399.047" id="Vector 1518" opacity="0.7" stroke="#B8B6AD" stroke-width="0.75"/>
<path d="M787 481.047V469.249C787 461.147 789.893 453.311 795.159 447.153L807.841 432.322C813.107 426.164 816 418.328 816 410.225V399.047" id="Vector 1523" opacity="0.7" stroke="#B8B6AD" stroke-width="0.75"/>
<path d="M514 481.047V475.303C514 463.709 519.908 452.914 529.674 446.665L551.326 432.81C561.092 426.561 567 415.766 567 404.171V399.047" id="Vector 1514" opacity="0.7" stroke="#B8B6AD" stroke-width="0.75"/>
<path d="M651 481.047V475.303C651 463.709 656.908 452.914 666.674 446.665L688.326 432.81C698.092 426.561 704 415.766 704 404.171V399.047" id="Vector 1519" opacity="0.7" stroke="#B8B6AD" stroke-width="0.75"/>
<path d="M787 481.047V475.303C787 463.709 792.908 452.914 802.674 446.665L824.326 432.81C834.092 426.561 840 415.766 840 404.171V399.047" id="Vector 1524" opacity="0.7" stroke="#B8B6AD" stroke-width="0.75"/>
<path d="M514 481.047V478.871C514 465.393 521.961 453.188 534.295 447.756L570.705 431.719C583.039 426.286 591 414.081 591 400.603V399.047" id="Vector 1515" opacity="0.7" stroke="#B8B6AD" stroke-width="0.75"/>
<path d="M651 481.047V478.871C651 465.393 658.961 453.188 671.295 447.756L707.705 431.719C720.039 426.286 728 414.081 728 400.603V399.047" id="Vector 1520" opacity="0.7" stroke="#B8B6AD" stroke-width="0.75"/>
<path d="M787 481.047V478.871C787 465.393 794.961 453.188 807.295 447.756L843.705 431.719C856.039 426.286 864 414.081 864 400.603V399.047" id="Vector 1525" opacity="0.7" stroke="#B8B6AD" stroke-width="0.75"/>
<g id="Frame 492">
<g id="Frame 469">
<g id="Frame 462">
<rect fill="#F6F6F3" height="26" rx="7" width="78" x="74" y="208"/>
<g id="Ellipse 251">
<rect fill="#F6F6F3" height="16" id="Rectangle 429" rx="4" stroke="#B8B6AD" stroke-width="2" width="16" x="79" y="213"/>
</g>
<g id="Ellipse 252">
<rect fill="#F6F6F3" height="16" id="Rectangle 429_2" rx="4" stroke="#B8B6AD" stroke-width="2" width="16" x="105" y="213"/>
</g>
<g id="Ellipse 253">
<rect fill="#F6F6F3" height="16" id="Rectangle 429_3" rx="4" stroke="#B8B6AD" stroke-width="2" width="16" x="131" y="213"/>
</g>
</g>
<g id="Frame 465">
<rect fill="#F6F6F3" height="26" rx="7" width="78" x="74" y="297"/>
<g id="Ellipse 251_2">
<rect fill="#F6F6F3" height="16" id="Rectangle 429_4" rx="4" stroke="#B8B6AD" stroke-width="2" width="16" x="79" y="302"/>
</g>
<g id="Ellipse 252_2">
<rect fill="#F6F6F3" height="16" id="Rectangle 429_5" rx="4" stroke="#B8B6AD" stroke-width="2" width="16" x="105" y="302"/>
</g>
<g id="Ellipse 253_2">
<rect fill="#F6F6F3" height="16" id="Rectangle 429_6" rx="4" stroke="#B8B6AD" stroke-width="2" width="16" x="131" y="302"/>
</g>
</g>
<g id="Frame 466">
<rect fill="#F6F6F3" height="26" rx="7" width="78" x="74" y="386"/>
<g id="Ellipse 251_3">
<rect fill="#F6F6F3" height="16" id="Rectangle 429_7" rx="4" stroke="#B8B6AD" stroke-width="2" width="16" x="79" y="391"/>
</g>
<g id="Ellipse 252_3">
<rect fill="#F6F6F3" height="16" id="Rectangle 429_8" rx="4" stroke="#B8B6AD" stroke-width="2" width="16" x="105" y="391"/>
</g>
<g id="Ellipse 253_3">
<rect fill="#F6F6F3" height="16" id="Rectangle 429_9" rx="4" stroke="#B8B6AD" stroke-width="2" width="16" x="131" y="391"/>
</g>
</g>
</g>
<g id="Frame 470">
<g id="Frame 462_2">
<rect fill="#F6F6F3" height="26" rx="7" width="78" x="189" y="208"/>
<g id="Ellipse 251_4">
<rect fill="#F6F6F3" height="16" id="Rectangle 429_10" rx="4" stroke="#B8B6AD" stroke-width="2" width="16" x="194" y="213"/>
</g>
<g id="Ellipse 252_4">
<rect fill="#F6F6F3" height="16" id="Rectangle 429_11" rx="4" stroke="#B8B6AD" stroke-width="2" width="16" x="220" y="213"/>
</g>
<g id="Ellipse 253_4">
<rect fill="#F6F6F3" height="16" id="Rectangle 429_12" rx="4" stroke="#B8B6AD" stroke-width="2" width="16" x="246" y="213"/>
</g>
</g>
<g id="Frame 465_2">
<rect fill="#F6F6F3" height="26" rx="7" width="78" x="189" y="297"/>
<g id="Ellipse 251_5">
<rect fill="#F6F6F3" height="16" id="Rectangle 429_13" rx="4" stroke="#B8B6AD" stroke-width="2" width="16" x="194" y="302"/>
</g>
<g id="Ellipse 252_5">
<rect fill="#F6F6F3" height="16" id="Rectangle 429_14" rx="4" stroke="#B8B6AD" stroke-width="2" width="16" x="220" y="302"/>
</g>
<g id="Ellipse 253_5">
<rect fill="#F6F6F3" height="16" id="Rectangle 429_15" rx="4" stroke="#B8B6AD" stroke-width="2" width="16" x="246" y="302"/>
</g>
</g>
<g id="Frame 466_2">
<rect fill="#F6F6F3" height="26" rx="7" width="78" x="189" y="386"/>
<g id="Ellipse 251_6">
<rect fill="#F6F6F3" height="16" id="Rectangle 429_16" rx="4" stroke="#B8B6AD" stroke-width="2" width="16" x="194" y="391"/>
</g>
<g id="Ellipse 252_6">
<rect fill="#F6F6F3" height="16" id="Rectangle 429_17" rx="4" stroke="#B8B6AD" stroke-width="2" width="16" x="220" y="391"/>
</g>
<g id="Ellipse 253_6">
<rect fill="#F6F6F3" height="16" id="Rectangle 429_18" rx="4" stroke="#B8B6AD" stroke-width="2" width="16" x="246" y="391"/>
</g>
</g>
</g>
<g id="Frame 471">
<g id="Frame 462_3">
<rect fill="#F6F6F3" height="26" rx="7" width="78" x="304" y="208"/>
<g id="Ellipse 251_7">
<rect fill="#F6F6F3" height="16" id="Rectangle 429_19" rx="4" stroke="#B8B6AD" stroke-width="2" width="16" x="309" y="213"/>
</g>
<g id="Ellipse 252_7">
<rect fill="#F6F6F3" height="16" id="Rectangle 429_20" rx="4" stroke="#B8B6AD" stroke-width="2" width="16" x="335" y="213"/>
</g>
<g id="Ellipse 253_7">
<rect fill="#F6F6F3" height="16" id="Rectangle 429_21" rx="4" stroke="#706D5C" stroke-width="2" width="16" x="361" y="213"/>
</g>
</g>
<g id="Frame 465_3">
<rect fill="#F6F6F3" height="26" rx="7" width="78" x="304" y="297"/>
<g id="Ellipse 251_8">
<rect fill="#F6F6F3" height="16" id="Rectangle 429_22" rx="4" stroke="#B8B6AD" stroke-width="2" width="16" x="309" y="302"/>
</g>
<g id="Ellipse 252_8">
<rect fill="#F6F6F3" height="16" id="Rectangle 429_23" rx="4" stroke="#B8B6AD" stroke-width="2" width="16" x="335" y="302"/>
</g>
<g id="Ellipse 253_8">
<rect fill="#F6F6F3" height="16" id="Rectangle 429_24" rx="4" stroke="#B8B6AD" stroke-width="2" width="16" x="361" y="302"/>
</g>
</g>
<g id="Frame 466_3">
<rect fill="#F6F6F3" height="26" rx="7" width="78" x="304" y="386"/>
<g id="Ellipse 251_9">
<rect fill="#F6F6F3" height="16" id="Rectangle 429_25" rx="4" stroke="#B8B6AD" stroke-width="2" width="16" x="309" y="391"/>
</g>
<g id="Ellipse 252_9">
<rect fill="#F6F6F3" height="16" id="Rectangle 429_26" rx="4" stroke="#B8B6AD" stroke-width="2" width="16" x="335" y="391"/>
</g>
<g id="Ellipse 253_9">
<rect fill="#F6F6F3" height="16" id="Rectangle 429_27" rx="4" stroke="#B8B6AD" stroke-width="2" width="16" x="361" y="391"/>
</g>
</g>
</g>
</g>
<g id="Frame 480">
<mask fill="white" id="path-292-inside-1_2076_5674">
<path d="M0 124H420V156H0V124Z"/>
</mask>
<path d="M0 124H420V156H0V124Z" fill="#F6F6F3"/>
<path d="M420 155H0V157H420V155Z" fill="#B8B6AD" mask="url(#path-292-inside-1_2076_5674)"/>
</g>
<g id="Frame 482">
<mask fill="white" id="path-294-inside-2_2076_5674">
<path d="M471 124H891V156H471V124Z"/>
</mask>
<path d="M471 124H891V156H471V124Z" fill="#F6F6F3"/>
<path d="M891 155H471V157H891V155Z" fill="#B8B6AD" mask="url(#path-294-inside-2_2076_5674)"/>
</g>
<g id="Frame 481">
<mask fill="white" id="path-296-inside-3_2076_5674">
<path d="M420 513L0 513L-2.79753e-06 481L420 481L420 513Z"/>
</mask>
<path d="M420 513L0 513L-2.79753e-06 481L420 481L420 513Z" fill="#F6F6F3"/>
<path d="M-2.71011e-06 482L420 482L420 480L-2.88495e-06 480L-2.71011e-06 482Z" fill="#B8B6AD" mask="url(#path-296-inside-3_2076_5674)"/>
</g>
<g id="Frame 485">
<mask fill="white" id="path-298-inside-4_2076_5674">
<path d="M891 513L471 513L471 481L891 481L891 513Z"/>
</mask>
<path d="M891 513L471 513L471 481L891 481L891 513Z" fill="#F6F6F3"/>
<path d="M471 482L891 482L891 480L471 480L471 482Z" fill="#B8B6AD" mask="url(#path-298-inside-4_2076_5674)"/>
</g>
<g id="Group 695">
<path d="M186 317L180.947 309.967L177.382 317.859L186 317ZM155.309 317.684L162.577 314.401L161.96 313.034L154.691 316.316L155.309 317.684ZM178.423 314.401L179.54 314.905L180.157 313.538L179.04 313.034L178.423 314.401ZM162.577 314.401C167.614 312.126 173.386 312.126 178.423 314.401L179.04 313.034C173.611 310.582 167.389 310.582 161.96 313.034L162.577 314.401Z" fill="#C46686" id="Vector 1019"/>
<path d="M186 406L180.947 398.967L177.382 406.859L186 406ZM155.309 406.684L162.577 403.401L161.96 402.034L154.691 405.316L155.309 406.684ZM178.423 403.401L179.54 403.905L180.157 402.538L179.04 402.034L178.423 403.401ZM162.577 403.401C167.614 401.126 173.386 401.126 178.423 403.401L179.04 402.034C173.611 399.582 167.389 399.582 161.96 402.034L162.577 403.401Z" fill="#C46686" id="Vector 1441"/>
<path d="M186 223L180.947 215.967L177.382 223.859L186 223ZM155.309 223.684L162.577 220.401L161.96 219.034L154.691 222.316L155.309 223.684ZM178.423 220.401L179.54 220.905L180.157 219.538L179.04 219.034L178.423 220.401ZM162.577 220.401C167.614 218.126 173.386 218.126 178.423 220.401L179.04 219.034C173.611 216.582 167.389 216.582 161.96 219.034L162.577 220.401Z" fill="#C46686" id="Vector 1440"/>
</g>
<g id="Group 696">
<path d="M300 317L294.947 309.967L291.382 317.859L300 317ZM269.309 317.684L276.577 314.401L275.96 313.034L268.691 316.316L269.309 317.684ZM292.423 314.401L293.54 314.905L294.157 313.538L293.04 313.034L292.423 314.401ZM276.577 314.401C281.614 312.126 287.386 312.126 292.423 314.401L293.04 313.034C287.611 310.582 281.389 310.582 275.96 313.034L276.577 314.401Z" fill="#C46686" id="Vector 1019_2"/>
<path d="M300 406L294.947 398.967L291.382 406.859L300 406ZM269.309 406.684L276.577 403.401L275.96 402.034L268.691 405.316L269.309 406.684ZM292.423 403.401L293.54 403.905L294.157 402.538L293.04 402.034L292.423 403.401ZM276.577 403.401C281.614 401.126 287.386 401.126 292.423 403.401L293.04 402.034C287.611 399.582 281.389 399.582 275.96 402.034L276.577 403.401Z" fill="#C46686" id="Vector 1441_2"/>
<path d="M300 223L294.947 215.967L291.382 223.859L300 223ZM269.309 223.684L276.577 220.401L275.96 219.034L268.691 222.316L269.309 223.684ZM292.423 220.401L293.54 220.905L294.157 219.538L293.04 219.034L292.423 220.401ZM276.577 220.401C281.614 218.126 287.386 218.126 292.423 220.401L293.04 219.034C287.611 216.582 281.389 216.582 275.96 219.034L276.577 220.401Z" fill="#C46686" id="Vector 1440_2"/>
</g>
<text fill="#1A1A1A" font-family="Roboto" font-size="16" id="neuron" letter-spacing="0em" style="white-space: pre" transform="translate(401 211)" xml:space="preserve"><tspan x="0" y="14.9688">neuron</tspan></text>
<g id="Frame 467">
<g id="Frame 467_2">
<g id="Frame 133">
<rect fill="#F6F6F3" height="28" rx="14" width="124" x="485" y="208"/>
<g id="Ellipse 202">
<circle cx="499" cy="222" fill="#F6F6F3" id="Ellipse 198" r="9" stroke="#B8B6AD" stroke-width="2"/>
</g>
<g id="Ellipse 203">
<circle cx="523" cy="222" fill="#F6F6F3" id="Ellipse 198_2" r="9" stroke="#B8B6AD" stroke-width="2"/>
</g>
<g id="Ellipse 204">
<circle cx="547" cy="222" fill="#F6F6F3" id="Ellipse 198_3" r="9" stroke="#B8B6AD" stroke-width="2"/>
</g>
<g id="Ellipse 205">
<circle cx="571" cy="222" fill="#F6F6F3" id="Ellipse 198_4" r="9" stroke="#B8B6AD" stroke-width="2"/>
</g>
<g id="Ellipse 206">
<circle cx="595" cy="222" fill="#F6F6F3" id="Ellipse 198_5" r="9" stroke="#B8B6AD" stroke-width="2"/>
</g>
</g>
<g id="Frame 136">
<rect fill="#F6F6F3" height="28" rx="14" width="124" x="620" y="208"/>
<g id="Ellipse 202_2">
<circle cx="634" cy="222" fill="#F6F6F3" id="Ellipse 198_6" r="9" stroke="#B8B6AD" stroke-width="2"/>
</g>
<g id="Ellipse 203_2">
<circle cx="658" cy="222" fill="#F6F6F3" id="Ellipse 198_7" r="9" stroke="#B8B6AD" stroke-width="2"/>
</g>
<g id="Ellipse 204_2">
<circle cx="682" cy="222" fill="#F6F6F3" id="Ellipse 198_8" r="9" stroke="#B8B6AD" stroke-width="2"/>
</g>
<g id="Ellipse 205_2">
<circle cx="706" cy="222" fill="#F6F6F3" id="Ellipse 198_9" r="9" stroke="#B8B6AD" stroke-width="2"/>
</g>
<g id="Ellipse 206_2">
<circle cx="730" cy="222" fill="#F6F6F3" id="Ellipse 198_10" r="9" stroke="#B8B6AD" stroke-width="2"/>
</g>
</g>
<g id="Frame 137">
<rect fill="#F6F6F3" height="28" rx="14" width="124" x="755" y="208"/>
<g id="Ellipse 202_3">
<circle cx="769" cy="222" fill="#F6F6F3" id="Ellipse 198_11" r="9" stroke="#B8B6AD" stroke-width="2"/>
</g>
<g id="Ellipse 203_3">
<circle cx="793" cy="222" fill="#F6F6F3" id="Ellipse 198_12" r="9" stroke="#B8B6AD" stroke-width="2"/>
</g>
<g id="Ellipse 204_3">
<circle cx="817" cy="222" fill="#F6F6F3" id="Ellipse 198_13" r="9" stroke="#B8B6AD" stroke-width="2"/>
</g>
<g id="Ellipse 205_3">
<circle cx="841" cy="222" fill="#F6F6F3" id="Ellipse 198_14" r="9" stroke="#B8B6AD" stroke-width="2"/>
</g>
<g id="Ellipse 206_3">
<circle cx="865" cy="222" fill="#F6F6F3" id="Ellipse 198_15" r="9" stroke="#706D5C" stroke-width="2"/>
</g>
</g>
</g>
<g id="Frame 469_2">
<g id="Frame 133_2">
<rect fill="#F6F6F3" height="28" rx="14" width="124" x="485" y="296"/>
<g id="Ellipse 202_4">
<circle cx="499" cy="310" fill="#F6F6F3" id="Ellipse 198_16" r="9" stroke="#B8B6AD" stroke-width="2"/>
</g>
<g id="Ellipse 203_4">
<circle cx="523" cy="310" fill="#F6F6F3" id="Ellipse 198_17" r="9" stroke="#B8B6AD" stroke-width="2"/>
</g>
<g id="Ellipse 204_4">
<circle cx="547" cy="310" fill="#F6F6F3" id="Ellipse 198_18" r="9" stroke="#B8B6AD" stroke-width="2"/>
</g>
<g id="Ellipse 205_4">
<circle cx="571" cy="310" fill="#F6F6F3" id="Ellipse 198_19" r="9" stroke="#B8B6AD" stroke-width="2"/>
</g>
<g id="Ellipse 206_4">
<circle cx="595" cy="310" fill="#F6F6F3" id="Ellipse 198_20" r="9" stroke="#B8B6AD" stroke-width="2"/>
</g>
</g>
<g id="Frame 136_2">
<rect fill="#F6F6F3" height="28" rx="14" width="124" x="620" y="296"/>
<g id="Ellipse 202_5">
<circle cx="634" cy="310" fill="#F6F6F3" id="Ellipse 198_21" r="9" stroke="#B8B6AD" stroke-width="2"/>
</g>
<g id="Ellipse 203_5">
<circle cx="658" cy="310" fill="#F6F6F3" id="Ellipse 198_22" r="9" stroke="#B8B6AD" stroke-width="2"/>
</g>
<g id="Ellipse 204_5">
<circle cx="682" cy="310" fill="#F6F6F3" id="Ellipse 198_23" r="9" stroke="#B8B6AD" stroke-width="2"/>
</g>
<g id="Ellipse 205_5">
<circle cx="706" cy="310" fill="#F6F6F3" id="Ellipse 198_24" r="9" stroke="#B8B6AD" stroke-width="2"/>
</g>
<g id="Ellipse 206_5">
<circle cx="730" cy="310" fill="#F6F6F3" id="Ellipse 198_25" r="9" stroke="#B8B6AD" stroke-width="2"/>
</g>
</g>
<g id="Frame 137_2">
<rect fill="#F6F6F3" height="28" rx="14" width="124" x="755" y="296"/>
<g id="Ellipse 202_6">
<circle cx="769" cy="310" fill="#F6F6F3" id="Ellipse 198_26" r="9" stroke="#B8B6AD" stroke-width="2"/>
</g>
<g id="Ellipse 203_6">
<circle cx="793" cy="310" fill="#F6F6F3" id="Ellipse 198_27" r="9" stroke="#B8B6AD" stroke-width="2"/>
</g>
<g id="Ellipse 204_6">
<circle cx="817" cy="310" fill="#F6F6F3" id="Ellipse 198_28" r="9" stroke="#B8B6AD" stroke-width="2"/>
</g>
<g id="Ellipse 205_6">
<circle cx="841" cy="310" fill="#F6F6F3" id="Ellipse 198_29" r="9" stroke="#B8B6AD" stroke-width="2"/>
</g>
<g id="Ellipse 206_6">
<circle cx="865" cy="310" fill="#F6F6F3" id="Ellipse 198_30" r="9" stroke="#B8B6AD" stroke-width="2"/>
</g>
</g>
</g>
<g id="Frame 470_2">
<g id="Frame 133_3">
<rect fill="#F6F6F3" height="28" rx="14" width="124" x="485" y="384"/>
<g id="Ellipse 202_7">
<circle cx="499" cy="398" fill="#F6F6F3" id="Ellipse 198_31" r="9" stroke="#B8B6AD" stroke-width="2"/>
</g>
<g id="Ellipse 203_7">
<circle cx="523" cy="398" fill="#F6F6F3" id="Ellipse 198_32" r="9" stroke="#B8B6AD" stroke-width="2"/>
</g>
<g id="Ellipse 204_7">
<circle cx="547" cy="398" fill="#F6F6F3" id="Ellipse 198_33" r="9" stroke="#B8B6AD" stroke-width="2"/>
</g>
<g id="Ellipse 205_7">
<circle cx="571" cy="398" fill="#F6F6F3" id="Ellipse 198_34" r="9" stroke="#B8B6AD" stroke-width="2"/>
</g>
<g id="Ellipse 206_7">
<circle cx="595" cy="398" fill="#F6F6F3" id="Ellipse 198_35" r="9" stroke="#B8B6AD" stroke-width="2"/>
</g>
</g>
<g id="Frame 136_3">
<rect fill="#F6F6F3" height="28" rx="14" width="124" x="620" y="384"/>
<g id="Ellipse 202_8">
<circle cx="634" cy="398" fill="#F6F6F3" id="Ellipse 198_36" r="9" stroke="#B8B6AD" stroke-width="2"/>
</g>
<g id="Ellipse 203_8">
<circle cx="658" cy="398" fill="#F6F6F3" id="Ellipse 198_37" r="9" stroke="#B8B6AD" stroke-width="2"/>
</g>
<g id="Ellipse 204_8">
<circle cx="682" cy="398" fill="#F6F6F3" id="Ellipse 198_38" r="9" stroke="#B8B6AD" stroke-width="2"/>
</g>
<g id="Ellipse 205_8">
<circle cx="706" cy="398" fill="#F6F6F3" id="Ellipse 198_39" r="9" stroke="#B8B6AD" stroke-width="2"/>
</g>
<g id="Ellipse 206_8">
<circle cx="730" cy="398" fill="#F6F6F3" id="Ellipse 198_40" r="9" stroke="#B8B6AD" stroke-width="2"/>
</g>
</g>
<g id="Frame 137_3">
<rect fill="#F6F6F3" height="28" rx="14" width="124" x="755" y="384"/>
<g id="Ellipse 202_9">
<circle cx="769" cy="398" fill="#F6F6F3" id="Ellipse 198_41" r="9" stroke="#B8B6AD" stroke-width="2"/>
</g>
<g id="Ellipse 203_9">
<circle cx="793" cy="398" fill="#F6F6F3" id="Ellipse 198_42" r="9" stroke="#B8B6AD" stroke-width="2"/>
</g>
<g id="Ellipse 204_9">
<circle cx="817" cy="398" fill="#F6F6F3" id="Ellipse 198_43" r="9" stroke="#B8B6AD" stroke-width="2"/>
</g>
<g id="Ellipse 205_9">
<circle cx="841" cy="398" fill="#F6F6F3" id="Ellipse 198_44" r="9" stroke="#B8B6AD" stroke-width="2"/>
</g>
<g id="Ellipse 206_9">
<circle cx="865" cy="398" fill="#F6F6F3" id="Ellipse 198_45" r="9" stroke="#B8B6AD" stroke-width="2"/>
</g>
</g>
</g>
</g>
<g id="Tokens" style="mix-blend-mode:darken">
<rect fill="#706D5C" height="2" id="Rectangle 19" width="133" x="471" y="481"/>
<g id="Frame 90">
<rect fill="#E6E3D6" height="30" transform="translate(471 483)" width="133"/>
<text fill="black" font-family="Roboto Mono" font-size="17" id="Lorem ipsum dolor sit amet, consectetur adipiscing elit" letter-spacing="0em" style="white-space: pre" xml:space="preserve"><tspan x="481" y="503.603">Token1</tspan></text>
</g>
</g>
<g id="Tokens_2" style="mix-blend-mode:darken">
<rect fill="#706D5C" height="2" id="Rectangle 19_2" width="133" y="481"/>
<g id="Frame 90_2">
<rect fill="#E6E3D6" height="30" transform="translate(0 483)" width="133"/>
<text fill="black" font-family="Roboto Mono" font-size="17" id="Lorem ipsum dolor sit amet, consectetur adipiscing elit_2" letter-spacing="0em" style="white-space: pre" xml:space="preserve"><tspan x="10" y="503.603">Token1</tspan></text>
</g>
</g>
<g id="Tokens_3" style="mix-blend-mode:darken">
<rect fill="#706D5C" height="2" id="Rectangle 19_3" width="125" x="624" y="481"/>
<g id="Frame 90_3">
<rect fill="#E6E3D6" height="30" transform="translate(624 483)" width="125"/>
<text fill="black" font-family="Roboto Mono" font-size="17" id="Lorem ipsum dolor sit amet, consectetur adipiscing elit_3" letter-spacing="0em" style="white-space: pre" xml:space="preserve"><tspan x="634" y="503.603">Token2</tspan></text>
</g>
</g>
<g id="Tokens_4" style="mix-blend-mode:darken">
<rect fill="#706D5C" height="2" id="Rectangle 19_4" width="125" x="153" y="481"/>
<g id="Frame 90_4">
<rect fill="#E6E3D6" height="30" transform="translate(153 483)" width="125"/>
<text fill="black" font-family="Roboto Mono" font-size="17" id="Lorem ipsum dolor sit amet, consectetur adipiscing elit_4" letter-spacing="0em" style="white-space: pre" xml:space="preserve"><tspan x="163" y="503.603">Token2</tspan></text>
</g>
</g>
<g id="Tokens_5" style="mix-blend-mode:darken">
<rect fill="#706D5C" height="2" id="Rectangle 19_5" width="122" x="769" y="481"/>
<g id="Frame 90_5">
<rect fill="#E6E3D6" height="30" transform="translate(769 483)" width="122"/>
<text fill="black" font-family="Roboto Mono" font-size="17" id="Lorem ipsum dolor sit amet, consectetur adipiscing elit_5" letter-spacing="0em" style="white-space: pre" xml:space="preserve"><tspan x="779" y="503.603">Token3</tspan></text>
</g>
</g>
<g id="Tokens_6" style="mix-blend-mode:darken">
<rect fill="#706D5C" height="2" id="Rectangle 19_6" width="122" x="298" y="481"/>
<g id="Frame 90_6">
<rect fill="#E6E3D6" height="30" transform="translate(298 483)" width="122"/>
<text fill="black" font-family="Roboto Mono" font-size="17" id="Lorem ipsum dolor sit amet, consectetur adipiscing elit_6" letter-spacing="0em" style="white-space: pre" xml:space="preserve"><tspan x="308" y="503.603">Token3</tspan></text>
</g>
</g>
<g id="Tokens_7" style="mix-blend-mode:darken">
<g id="Frame 90_7">
<path d="M335 124H418C419.105 124 420 124.895 420 126V154H335V124Z" fill="#E6E3D6"/>
<text fill="black" font-family="Roboto Mono" font-size="17" id="Lorem ipsum dolor sit amet, consectetur adipiscing elit_7" letter-spacing="0em" style="white-space: pre" xml:space="preserve"><tspan x="345" y="144.603">output</tspan></text>
</g>
<path d="M335 154H419.539H420C420 155.105 419.105 156 418 156H335V154Z" fill="#706D5C" id="Rectangle 19_7"/>
</g>
<g id="Tokens_8" style="mix-blend-mode:darken">
<g id="Frame 90_8">
<path d="M805 124H888C889.105 124 890 124.895 890 126V154H805V124Z" fill="#E6E3D6"/>
<text fill="black" font-family="Roboto Mono" font-size="17" id="Lorem ipsum dolor sit amet, consectetur adipiscing elit_8" letter-spacing="0em" style="white-space: pre" xml:space="preserve"><tspan x="815" y="144.603">output</tspan></text>
</g>
<path d="M805 154H889.539H890C890 155.105 889.105 156 888 156H805V154Z" fill="#706D5C" id="Rectangle 19_8"/>
</g>
<g id="Component 5">
<text fill="#1A1A1A" font-family="Roboto" font-size="21" font-weight="bold" id="Original model" letter-spacing="0em" style="white-space: pre" transform="translate(0 12)" xml:space="preserve"><tspan x="0" y="18.6777">Original Transformer Model</tspan></text>
<g id="Frame 479">
<text fill="black" font-family="Roboto" font-size="18" id="Original model_2" letter-spacing="0em" style="white-space: pre" xml:space="preserve"><tspan x="0" y="65.6523">The underlying model that we study is a </tspan><tspan x="0" y="92.6523">transformer-based large language model.</tspan></text>
</g>
</g>
<g id="Component 6">
<text fill="#1A1A1A" font-family="Roboto" font-size="21" font-weight="bold" id="Original model_3" letter-spacing="0em" style="white-space: pre" transform="translate(471 12)" xml:space="preserve"><tspan x="0" y="18.6777">Replacement Model</tspan></text>
<g id="Frame 479_2">
<g id="Original model_4">
<text fill="black" font-family="Roboto" font-size="18" letter-spacing="0em" style="white-space: pre" xml:space="preserve"><tspan x="1200.09" y="65.6523"></tspan></text>
<text fill="black" font-family="Roboto" font-size="18" font-style="italic" letter-spacing="0em" style="white-space: pre" xml:space="preserve"><tspan x="870.41" y="65.6523">features </tspan></text>
<text fill="black" font-family="Roboto" font-size="18" letter-spacing="0em" style="white-space: pre" xml:space="preserve"><tspan x="471" y="65.6523">We replace the neurons of the original model with </tspan><tspan x="938.859" y="65.6523">. There are typically more features</tspan><tspan x="471" y="92.6523">than neurons. Features are sparsely active and often represent interpretable concepts.</tspan></text>
</g>
</g>
</g>
<text fill="#262624" font-family="Roboto" font-size="14" id="Layer 1" letter-spacing="0em" style="white-space: pre" xml:space="preserve"><tspan x="1" y="406.285">Layer 1</tspan></text>
<text fill="#262624" font-family="Roboto" font-size="14" id="Layer 2" letter-spacing="0em" style="white-space: pre" xml:space="preserve"><tspan x="1" y="318.285">Layer 2</tspan></text>
<text fill="#262624" font-family="Roboto" font-size="14" id="Layer 3" letter-spacing="0em" style="white-space: pre" xml:space="preserve"><tspan x="1" y="232.285">Layer 3</tspan></text>
<text fill="#87867F" font-family="Roboto" font-size="14" id="MLP" letter-spacing="0em" style="white-space: pre" xml:space="preserve"><tspan x="98" y="197.285">MLP</tspan></text>
<text fill="#C46686" font-family="Roboto" font-size="14" id="Attention" letter-spacing="0em" style="white-space: pre" xml:space="preserve"><tspan x="145" y="197.285">Attention</tspan></text>
<path d="M983.5 222H904H875" id="Vector 1131" stroke="#706D5C" stroke-linejoin="round" stroke-width="1.5"/>
<path d="M398 221H383.346H378" id="Vector 1526" stroke="#706D5C" stroke-linejoin="round" stroke-width="1.5"/>
<g id="To understand what a feature represents, we use afeature visualization ,which shows dataset examples for which the feature is most strongly active. In this example, the feature fires strongly when the model is about to say a state capital.">
<text fill="black" font-family="Roboto" font-size="18" letter-spacing="0em" style="white-space: pre" xml:space="preserve"><tspan x="943" y="372.652">To understand what a feature represents, </tspan><tspan x="943" y="399.652">we use a</tspan><tspan x="1179.04" y="399.652">,which shows </tspan><tspan x="943" y="426.652">dataset examples for which the feature is </tspan><tspan x="943" y="453.652">most strongly active</tspan><tspan x="1159.56" y="480.652">the model is</tspan></text>
<text fill="black" font-family="Roboto" font-size="18" letter-spacing="0em" style="white-space: pre" xml:space="preserve"><tspan x="1105.12" y="453.652">. In this example, the </tspan><tspan x="943" y="480.652">feature fires strongly when </tspan><tspan x="1257.65" y="480.652"> </tspan><tspan x="943" y="507.652">about to say a state capital.</tspan></text>
<text fill="black" font-family="Roboto" font-size="18" font-style="italic" letter-spacing="0em" style="white-space: pre" xml:space="preserve"><tspan x="1018.04" y="399.652">feature visualization </tspan></text>
</g>
<text fill="black" font-family="Roboto" font-size="18" font-weight="bold" id="Feature" letter-spacing="0em" style="white-space: pre" xml:space="preserve"><tspan x="943" y="139.652">Feature</tspan></text>
<rect fill="url(#pattern0_2076_5674)" height="179" id="image 67" rx="5" stroke="#706D5C" stroke-width="2" width="359" x="944" y="156"/>
<g id="Group 697">
<path d="M139 228V230.105C139 242.222 132.551 253.424 122.072 259.508L103.928 270.043C93.4489 276.127 87 287.329 87 299.446V301" id="Vector 600_226" opacity="0.7" stroke="#B8B6AD"/>
<path d="M139 228V237.058C139 245.201 136.077 253.073 130.764 259.244L121.236 270.307C115.923 276.478 113 284.351 113 292.494V301" id="Vector 600_227" opacity="0.7" stroke="#B8B6AD"/>
<path d="M139 228V249.68L140 279.872V301" id="Vector 600_228" opacity="0.7" stroke="#B8B6AD"/>
<path d="M114 228V236.694C114 245.057 110.918 253.126 105.344 259.359L95.6559 270.193C90.0816 276.426 87 284.495 87 292.857V301" id="Vector 600_229" opacity="0.7" stroke="#B8B6AD"/>
<path d="M114 228V249.68L113 279.872V301" id="Vector 600_230" opacity="0.7" stroke="#B8B6AD"/>
<path d="M114 228V237.43C114 245.347 116.763 253.016 121.812 259.114L131.188 270.437C136.237 276.535 139 284.204 139 292.121V301" id="Vector 600_231" opacity="0.7" stroke="#B8B6AD"/>
<path d="M88 228V230.296C88 242.311 94.3408 253.433 104.679 259.554L122.321 269.998C132.659 276.118 139 287.241 139 299.255V301" id="Vector 600_232" opacity="0.7" stroke="#B8B6AD"/>
<path d="M88 228V237.43C88 245.347 90.7629 253.016 95.8122 259.114L105.188 270.437C110.237 276.535 113 284.204 113 292.121V301" id="Vector 600_233" opacity="0.7" stroke="#B8B6AD"/>
<path d="M88 228V249.68L87 279.872V301" id="Vector 600_234" opacity="0.7" stroke="#B8B6AD"/>
</g>
<g id="Group 700">
<path d="M139 319V320.239C139 332.502 132.397 343.815 121.719 349.845L104.281 359.692C93.6035 365.722 87 377.034 87 389.297V390" id="Vector 600_235" opacity="0.7" stroke="#B8B6AD"/>
<path d="M139 319V327.197C139 335.501 135.961 343.518 130.456 349.735L121.544 359.801C116.039 366.018 113 374.035 113 382.34V390" id="Vector 600_236" opacity="0.7" stroke="#B8B6AD"/>
<path d="M139 319V340.086L140 369.451V390" id="Vector 600_237" opacity="0.7" stroke="#B8B6AD"/>
<path d="M114 319V326.83C114 335.355 110.798 343.568 105.028 349.843L95.9716 359.693C90.202 365.968 87 374.182 87 382.706V390" id="Vector 600_238" opacity="0.7" stroke="#B8B6AD"/>
<path d="M114 319V340.086L113 369.451V390" id="Vector 600_239" opacity="0.7" stroke="#B8B6AD"/>
<path d="M114 319V327.573C114 335.65 116.875 343.463 122.111 349.613L130.889 359.923C136.125 366.073 139 373.886 139 381.963V390" id="Vector 600_240" opacity="0.7" stroke="#B8B6AD"/>
<path d="M88 319V320.429C88 332.59 94.4955 343.826 105.035 349.894L121.965 359.642C132.505 365.711 139 376.946 139 389.107V390" id="Vector 600_241" opacity="0.7" stroke="#B8B6AD"/>
<path d="M88 319V327.573C88 335.65 90.8754 343.463 96.1113 349.613L104.889 359.923C110.125 366.073 113 373.886 113 381.963V390" id="Vector 600_242" opacity="0.7" stroke="#B8B6AD"/>
<path d="M88 319V340.086L87 369.451V390" id="Vector 600_243" opacity="0.7" stroke="#B8B6AD"/>
</g>
<g id="Group 698">
<path d="M254 228V230.105C254 242.222 247.551 253.424 237.072 259.508L218.928 270.043C208.449 276.127 202 287.329 202 299.446V301" id="Vector 600_244" opacity="0.7" stroke="#B8B6AD"/>
<path d="M254 228V237.058C254 245.201 251.077 253.073 245.764 259.244L236.236 270.307C230.923 276.478 228 284.351 228 292.494V301" id="Vector 600_245" opacity="0.7" stroke="#B8B6AD"/>
<path d="M254 228V249.68L255 279.872V301" id="Vector 600_246" opacity="0.7" stroke="#B8B6AD"/>
<path d="M229 228V236.694C229 245.057 225.918 253.126 220.344 259.359L210.656 270.193C205.082 276.426 202 284.495 202 292.857V301" id="Vector 600_247" opacity="0.7" stroke="#B8B6AD"/>
<path d="M229 228V249.68L228 279.872V301" id="Vector 600_248" opacity="0.7" stroke="#B8B6AD"/>
<path d="M229 228V237.43C229 245.347 231.763 253.016 236.812 259.114L246.188 270.437C251.237 276.535 254 284.204 254 292.121V301" id="Vector 600_249" opacity="0.7" stroke="#B8B6AD"/>
<path d="M203 228V230.296C203 242.311 209.341 253.433 219.679 259.554L237.321 269.998C247.659 276.118 254 287.241 254 299.255V301" id="Vector 600_250" opacity="0.7" stroke="#B8B6AD"/>
<path d="M203 228V237.43C203 245.347 205.763 253.016 210.812 259.114L220.188 270.437C225.237 276.535 228 284.204 228 292.121V301" id="Vector 600_251" opacity="0.7" stroke="#B8B6AD"/>
<path d="M203 228V249.68L202 279.872V301" id="Vector 600_252" opacity="0.7" stroke="#B8B6AD"/>
</g>
<g id="Group 701">
<path d="M254 319V320.239C254 332.502 247.397 343.815 236.719 349.845L219.281 359.692C208.603 365.722 202 377.034 202 389.297V390" id="Vector 600_253" opacity="0.7" stroke="#B8B6AD"/>
<path d="M254 319V327.197C254 335.501 250.961 343.518 245.456 349.735L236.544 359.801C231.039 366.018 228 374.035 228 382.34V390" id="Vector 600_254" opacity="0.7" stroke="#B8B6AD"/>
<path d="M254 319V340.086L255 369.451V390" id="Vector 600_255" opacity="0.7" stroke="#B8B6AD"/>
<path d="M229 319V326.83C229 335.355 225.798 343.568 220.028 349.843L210.972 359.693C205.202 365.968 202 374.182 202 382.706V390" id="Vector 600_256" opacity="0.7" stroke="#B8B6AD"/>
<path d="M229 319V340.086L228 369.451V390" id="Vector 600_257" opacity="0.7" stroke="#B8B6AD"/>
<path d="M229 319V327.573C229 335.65 231.875 343.463 237.111 349.613L245.889 359.923C251.125 366.073 254 373.886 254 381.963V390" id="Vector 600_258" opacity="0.7" stroke="#B8B6AD"/>
<path d="M203 319V320.429C203 332.59 209.495 343.826 220.035 349.894L236.965 359.642C247.505 365.711 254 376.946 254 389.107V390" id="Vector 600_259" opacity="0.7" stroke="#B8B6AD"/>
<path d="M203 319V327.573C203 335.65 205.875 343.463 211.111 349.613L219.889 359.923C225.125 366.073 228 373.886 228 381.963V390" id="Vector 600_260" opacity="0.7" stroke="#B8B6AD"/>
<path d="M203 319V340.086L202 369.451V390" id="Vector 600_261" opacity="0.7" stroke="#B8B6AD"/>
</g>
<g id="Group 699">
<path d="M368 228V230.105C368 242.222 361.551 253.424 351.072 259.508L332.928 270.043C322.449 276.127 316 287.329 316 299.446V301" id="Vector 600_262" opacity="0.7" stroke="#B8B6AD"/>
<path d="M368 228V237.058C368 245.201 365.077 253.073 359.764 259.244L350.236 270.307C344.923 276.478 342 284.351 342 292.494V301" id="Vector 600_263" opacity="0.7" stroke="#B8B6AD"/>
<path d="M368 228V249.68L369 279.872V301" id="Vector 600_264" opacity="0.7" stroke="#B8B6AD"/>
<path d="M343 228V236.694C343 245.057 339.918 253.126 334.344 259.359L324.656 270.193C319.082 276.426 316 284.495 316 292.857V301" id="Vector 600_265" opacity="0.7" stroke="#B8B6AD"/>
<path d="M343 228V249.68L342 279.872V301" id="Vector 600_266" opacity="0.7" stroke="#B8B6AD"/>
<path d="M343 228V237.43C343 245.347 345.763 253.016 350.812 259.114L360.188 270.437C365.237 276.535 368 284.204 368 292.121V301" id="Vector 600_267" opacity="0.7" stroke="#B8B6AD"/>
<path d="M317 228V230.296C317 242.311 323.341 253.433 333.679 259.554L351.321 269.998C361.659 276.118 368 287.241 368 299.255V301" id="Vector 600_268" opacity="0.7" stroke="#B8B6AD"/>
<path d="M317 228V237.43C317 245.347 319.763 253.016 324.812 259.114L334.188 270.437C339.237 276.535 342 284.204 342 292.121V301" id="Vector 600_269" opacity="0.7" stroke="#B8B6AD"/>
<path d="M317 228V249.68L316 279.872V301" id="Vector 600_270" opacity="0.7" stroke="#B8B6AD"/>
</g>
<g id="Group 702">
<path d="M368 319V320.239C368 332.502 361.397 343.815 350.719 349.845L333.281 359.692C322.603 365.722 316 377.034 316 389.297V390" id="Vector 600_271" opacity="0.7" stroke="#B8B6AD"/>
<path d="M368 319V327.197C368 335.501 364.961 343.518 359.456 349.735L350.544 359.801C345.039 366.018 342 374.035 342 382.34V390" id="Vector 600_272" opacity="0.7" stroke="#B8B6AD"/>
<path d="M368 319V340.086L369 369.451V390" id="Vector 600_273" opacity="0.7" stroke="#B8B6AD"/>
<path d="M343 319V326.83C343 335.355 339.798 343.568 334.028 349.843L324.972 359.693C319.202 365.968 316 374.182 316 382.706V390" id="Vector 600_274" opacity="0.7" stroke="#B8B6AD"/>
<path d="M343 319V340.086L342 369.451V390" id="Vector 600_275" opacity="0.7" stroke="#B8B6AD"/>
<path d="M343 319V327.573C343 335.65 345.875 343.463 351.111 349.613L359.889 359.923C365.125 366.073 368 373.886 368 381.963V390" id="Vector 600_276" opacity="0.7" stroke="#B8B6AD"/>
<path d="M317 319V320.429C317 332.59 323.495 343.826 334.035 349.894L350.965 359.642C361.505 365.711 368 376.946 368 389.107V390" id="Vector 600_277" opacity="0.7" stroke="#B8B6AD"/>
<path d="M317 319V327.573C317 335.65 319.875 343.463 325.111 349.613L333.889 359.923C339.125 366.073 342 373.886 342 381.963V390" id="Vector 600_278" opacity="0.7" stroke="#B8B6AD"/>
<path d="M317 319V340.086L316 369.451V390" id="Vector 600_279" opacity="0.7" stroke="#B8B6AD"/>
</g>
<path d="M313 213V213C313 202.608 319.359 193.275 329.03 189.471L358.378 177.93C367.803 174.224 374 165.128 374 155V155" id="Vector 600_280" opacity="0.7" stroke="#B8B6AD"/>
<path d="M340 213V213C340 202.199 345.249 192.072 354.074 185.845L360.284 181.464C368.885 175.396 374 165.526 374 155V155" id="Vector 1494" opacity="0.7" stroke="#B8B6AD"/>
<path d="M369 213V199.281C369 196.95 369.24 194.625 369.715 192.343L373.285 175.219C373.76 172.937 374 170.612 374 168.281V155" id="Vector 1495" opacity="0.7" stroke="#B8B6AD"/>
<path d="M39 484V479.806C39 468.339 44.7802 457.644 54.3734 451.362L71.6266 440.064C81.2198 433.782 87 423.087 87 411.62V408" id="Vector 1485" opacity="0.7" stroke="#B8B6AD"/>
<path d="M192 484V466.708C192 463.21 192.54 459.733 193.6 456.4L200.4 435.026C201.46 431.693 202 428.216 202 424.718V408" id="Vector 1488" opacity="0.7" stroke="#B8B6AD"/>
<path d="M335 484V470.475C335 464.548 333.45 458.723 330.505 453.58L321.495 437.846C318.55 432.703 317 426.878 317 420.951V408" id="Vector 1491" opacity="0.7" stroke="#B8B6AD"/>
<path d="M39 484V484C39 470.327 47.2062 457.99 59.8162 452.705L93.7132 438.499C106.003 433.348 114 421.325 114 408V408" id="Vector 1486" opacity="0.7" stroke="#B8B6AD"/>
<path d="M192 484V476.879C192 467.062 196.243 457.725 203.638 451.268L216.362 440.158C223.757 433.701 228 424.364 228 414.547V408" id="Vector 1489" opacity="0.7" stroke="#B8B6AD"/>
<path d="M335 484V465.688C335 462.86 335.353 460.043 336.05 457.302L341.95 434.124C342.647 431.383 343 428.566 343 425.738V408" id="Vector 1492" opacity="0.7" stroke="#B8B6AD"/>
<path d="M39 483.516V483.516C39 470.083 47.7176 458.205 60.5318 454.177L118.016 436.108C130.504 432.183 139 420.606 139 407.516V407.516" id="Vector 1487" opacity="0.7" stroke="#B8B6AD"/>
<path d="M192 483.516V481.828C192 469.018 199.2 457.295 210.626 451.502L235.374 438.955C246.8 433.162 254 421.44 254 408.63V407.516" id="Vector 1490" opacity="0.7" stroke="#B8B6AD"/>
<path d="M335 483.516V475.816C335 466.336 338.958 457.286 345.919 450.85L358.081 439.607C365.042 433.171 369 424.122 369 414.641V407.516" id="Vector 1493" opacity="0.7" stroke="#B8B6AD"/>
<g id="Group 703">
<path d="M625 307L620.079 299.874L616.368 307.699L625 307ZM617.816 304.424L618.58 304.786L619.222 303.43L618.459 303.068L617.816 304.424ZM605.6 307.449C608.434 303.663 613.543 302.397 617.816 304.424L618.459 303.068C613.541 300.736 607.661 302.193 604.4 306.551L605.6 307.449Z" fill="#C46686" id="Vector 1019_3"/>
<path d="M625 398L619.947 390.967L616.382 398.859L625 398ZM616.775 395.109L618.54 395.905L619.157 394.538L617.393 393.742L616.775 395.109ZM605.631 398.406C608.015 394.697 612.757 393.294 616.775 395.109L617.393 393.742C612.697 391.621 607.156 393.26 604.369 397.594L605.631 398.406Z" fill="#C46686" id="Vector 1441_3"/>
<path d="M625 218L619.947 210.967L616.382 218.859L625 218ZM616.775 215.109L618.54 215.905L619.157 214.538L617.393 213.742L616.775 215.109ZM605.631 218.406C608.015 214.697 612.757 213.294 616.775 215.109L617.393 213.742C612.697 211.621 607.156 213.26 604.369 217.594L605.631 218.406Z" fill="#C46686" id="Vector 1440_3"/>
</g>
<g id="Group 722">
<path d="M759 312L754.079 304.874L750.368 312.699L759 312ZM751.816 309.424L752.58 309.786L753.222 308.43L752.459 308.068L751.816 309.424ZM739.6 312.449C742.434 308.663 747.543 307.397 751.816 309.424L752.459 308.068C747.541 305.736 741.661 307.193 738.4 311.551L739.6 312.449Z" fill="#C46686" id="Vector 1019_4"/>
<path d="M760 401L754.947 393.967L751.382 401.859L760 401ZM751.775 398.109L753.54 398.905L754.157 397.538L752.393 396.742L751.775 398.109ZM740.631 401.406C743.015 397.697 747.757 396.294 751.775 398.109L752.393 396.742C747.697 394.621 742.156 396.26 739.369 400.594L740.631 401.406Z" fill="#C46686" id="Vector 1441_4"/>
<path d="M760 218L754.947 210.967L751.382 218.859L760 218ZM751.775 215.109L753.54 215.905L754.157 214.538L752.393 213.742L751.775 215.109ZM740.631 218.406C743.015 214.697 747.757 213.294 751.775 215.109L752.393 213.742C747.697 211.621 742.156 213.26 739.369 217.594L740.631 218.406Z" fill="#C46686" id="Vector 1440_4"/>
</g>
<text fill="#4D4D4D" font-family="Roboto" font-size="13" id="Figure 00: The replacement model is obtained by replacing the original models neurons with the cross-layer transcoders sparsely-active features." letter-spacing="0em" style="white-space: pre" xml:space="preserve"><tspan x="0" y="558.443">Figure 00: The replacement model is obtained by replacing the original models neurons with the cross-layer transcoders sparsely-active features.</tspan></text>
</g>
<defs>
<pattern height="1" id="pattern0_2076_5674" patternContentUnits="objectBoundingBox" width="1">
<use transform="matrix(0.00160988 0 0 0.00322283 -0.376557 -0.055639)" xlink:href="#image0_2076_5674"/>
</pattern>
<clipPath id="clip0_2076_5674">
<rect fill="white" height="563" width="1304"/>
</clipPath>
<image data-name="image.png" height="736" id="image0_2076_5674" preserveAspectRatio="none" width="1148" xlink:href="./png/img_02c5db2410de4683.png"/>
</defs>
</svg>