<?xml version="1.0" encoding="utf-8"?>
<svg fill="none" height="321" viewBox="0 0 1380 321" width="1380" xmlns="http://www.w3.org/2000/svg" xmlns:xlink="http://www.w3.org/1999/xlink">
<g id="ui-overview-breakdown-svg">
<rect fill="white" height="321" width="1380"/>
<g id="Frame 530">
<g id="Frame 526">
<g id="Frame 525">
<text fill="#1A1A1A" font-family="Roboto" font-size="17" font-weight="bold" id="Hover" letter-spacing="0em" style="white-space: pre" transform="translate(15 10)" xml:space="preserve"><tspan x="0" y="15.3105">Hover</tspan></text>
<text fill="#4D4D4D" font-family="Roboto" font-size="17" id="Hovering over a feature displays information about it" letter-spacing="0em" style="white-space: pre" transform="translate(15 29)" xml:space="preserve"><tspan x="0" y="15.3105">Hovering over a feature displays </tspan><tspan x="0" y="34.3105">information about it</tspan></text>
</g>
<g clip-path="url(#clip0_1574_1564)" id="Frame 527">
<rect fill="url(#pattern0_1574_1564)" height="270" id="image 881740446" width="561" x="15" y="59"/>
<rect fill="url(#pattern1_1574_1564)" height="324" id="image 881740450" width="744.188" x="-361" y="31"/>
<g id="Cursor/Pointer">
<g filter="url(#filter0_d_1574_1564)" id="pointing">
<path d="M184.54 162.56C183.98 161.84 183.28 160.38 182.06 158.56C181.36 157.56 179.64 155.66 179.12 154.68C178.745 154.085 178.636 153.359 178.82 152.68C179.134 151.389 180.359 150.532 181.68 150.68C182.701 150.885 183.64 151.386 184.38 152.12C184.896 152.606 185.371 153.135 185.8 153.7C186.12 154.1 186.2 154.26 186.56 154.72C186.92 155.18 187.16 155.64 186.98 154.96C186.84 153.96 186.6 152.28 186.26 150.78C186 149.64 185.94 149.46 185.7 148.6C185.46 147.74 185.32 147.02 185.06 146.04C184.822 145.077 184.635 144.103 184.5 143.12C184.248 141.864 184.431 140.559 185.02 139.42C185.719 138.763 186.744 138.589 187.62 138.98C188.501 139.631 189.158 140.539 189.5 141.58C190.024 142.861 190.374 144.206 190.54 145.58C190.86 147.58 191.48 150.5 191.5 151.1C191.5 150.36 191.36 148.8 191.5 148.1C191.638 147.37 192.146 146.765 192.84 146.5C193.435 146.317 194.065 146.276 194.68 146.38C195.3 146.51 195.849 146.866 196.22 147.38C196.683 148.547 196.94 149.785 196.98 151.04C197.033 149.941 197.221 148.853 197.54 147.8C197.874 147.329 198.362 146.99 198.92 146.84C199.581 146.719 200.259 146.719 200.92 146.84C201.462 147.021 201.936 147.363 202.28 147.82C202.703 148.881 202.96 150.001 203.04 151.14C203.04 151.42 203.18 150.36 203.62 149.66C203.848 148.981 204.422 148.476 205.124 148.335C205.826 148.193 206.55 148.437 207.024 148.975C207.498 149.512 207.648 150.261 207.42 150.94C207.42 152.24 207.42 152.18 207.42 153.06C207.42 153.94 207.42 154.72 207.42 155.46C207.347 156.63 207.186 157.794 206.94 158.94C206.592 159.954 206.107 160.916 205.5 161.8C204.529 162.88 203.726 164.1 203.12 165.42C202.969 166.076 202.902 166.748 202.92 167.42C202.918 168.041 202.998 168.66 203.16 169.26C202.342 169.347 201.517 169.347 200.7 169.26C199.92 169.14 198.96 167.58 198.7 167.1C198.571 166.842 198.308 166.68 198.02 166.68C197.732 166.68 197.468 166.842 197.34 167.1C196.9 167.86 195.92 169.24 195.24 169.32C193.9 169.48 191.14 169.32 188.96 169.32C188.96 169.32 189.32 167.32 188.5 166.6C187.68 165.88 186.84 165.04 186.22 164.48L184.54 162.56Z" fill="white" id="Shape"/>
<path clip-rule="evenodd" d="M184.54 162.56C183.98 161.84 183.28 160.38 182.06 158.56C181.36 157.56 179.64 155.66 179.12 154.68C178.745 154.085 178.636 153.359 178.82 152.68C179.134 151.389 180.359 150.532 181.68 150.68C182.701 150.885 183.64 151.386 184.38 152.12C184.896 152.606 185.371 153.135 185.8 153.7C186.12 154.1 186.2 154.26 186.56 154.72C186.92 155.18 187.16 155.64 186.98 154.96C186.84 153.96 186.6 152.28 186.26 150.78C186 149.64 185.94 149.46 185.7 148.6C185.46 147.74 185.32 147.02 185.06 146.04C184.822 145.077 184.635 144.103 184.5 143.12C184.248 141.864 184.431 140.559 185.02 139.42C185.719 138.763 186.744 138.589 187.62 138.98C188.501 139.631 189.158 140.539 189.5 141.58C190.024 142.861 190.374 144.206 190.54 145.58C190.86 147.58 191.48 150.5 191.5 151.1C191.5 150.36 191.36 148.8 191.5 148.1C191.638 147.37 192.146 146.765 192.84 146.5C193.435 146.317 194.065 146.276 194.68 146.38C195.3 146.51 195.849 146.866 196.22 147.38C196.683 148.547 196.94 149.785 196.98 151.04C197.033 149.941 197.221 148.853 197.54 147.8C197.874 147.329 198.362 146.99 198.92 146.84C199.581 146.719 200.259 146.719 200.92 146.84C201.462 147.021 201.936 147.363 202.28 147.82C202.703 148.881 202.96 150.001 203.04 151.14C203.04 151.42 203.18 150.36 203.62 149.66C203.848 148.981 204.422 148.476 205.124 148.335C205.826 148.193 206.55 148.437 207.024 148.975C207.498 149.512 207.648 150.261 207.42 150.94C207.42 152.24 207.42 152.18 207.42 153.06C207.42 153.94 207.42 154.72 207.42 155.46C207.347 156.63 207.186 157.794 206.94 158.94C206.592 159.954 206.107 160.916 205.5 161.8C204.529 162.88 203.726 164.1 203.12 165.42C202.969 166.076 202.902 166.748 202.92 167.42C202.918 168.041 202.998 168.66 203.16 169.26C202.342 169.347 201.517 169.347 200.7 169.26C199.92 169.14 198.96 167.58 198.7 167.1C198.571 166.842 198.308 166.68 198.02 166.68C197.732 166.68 197.468 166.842 197.34 167.1C196.9 167.86 195.92 169.24 195.24 169.32C193.9 169.48 191.14 169.32 188.96 169.32C188.96 169.32 189.32 167.32 188.5 166.6C187.68 165.88 186.84 165.04 186.22 164.48L184.54 162.56Z" fill-rule="evenodd" id="Shape_2" stroke="black" stroke-linecap="round" stroke-linejoin="round" stroke-width="1.5"/>
<path d="M201.5 163.652V156.748C201.5 156.335 201.164 156 200.75 156C200.336 156 200 156.335 200 156.748V163.652C200 164.065 200.336 164.4 200.75 164.4C201.164 164.4 201.5 164.065 201.5 163.652Z" fill="black" id="Shape_3"/>
<path d="M197.54 163.649L197.5 156.742C197.498 156.33 197.16 155.998 196.746 156C196.331 156.002 195.998 156.339 196 156.751L196.04 163.658C196.042 164.07 196.38 164.402 196.794 164.4C197.209 164.398 197.542 164.061 197.54 163.649Z" fill="black" id="Shape_4"/>
<path d="M192 156.758L192.04 163.651C192.042 164.067 192.38 164.402 192.794 164.4C193.209 164.398 193.542 164.058 193.54 163.642L193.5 156.749C193.498 156.333 193.16 155.998 192.746 156C192.331 156.002 191.998 156.342 192 156.758Z" fill="black" id="Shape_5"/>
</g>
</g>
</g>
</g>
<g id="Frame 527_2">
<g id="Frame 525_2">
<text fill="#1A1A1A" font-family="Roboto" font-size="17" font-weight="bold" id="Click" letter-spacing="0em" style="white-space: pre" transform="translate(360.5 10)" xml:space="preserve"><tspan x="0" y="15.3105">Click</tspan></text>
<text fill="#4D4D4D" font-family="Roboto" font-size="17" id="One node is âactively selectedâ at a time (via clicking) and highlighted in pink" letter-spacing="0em" style="white-space: pre" transform="translate(360.5 29)" xml:space="preserve"><tspan x="0" y="15.3105">One node is “actively selected” at a time </tspan><tspan x="0" y="34.3105">(via clicking) and highlighted in pink</tspan></text>
</g>
<g clip-path="url(#clip1_1574_1564)" id="Frame 527_3">
<rect fill="url(#pattern2_1574_1564)" height="270" id="image 881740446_2" width="561" x="360.5" y="99"/>
<rect fill="url(#pattern3_1574_1564)" height="374" id="image 881740447" width="554.808" x="269" y="47"/>
<g id="Cursor/Pointer_2">
<g filter="url(#filter1_d_1574_1564)" id="pointing_2">
<path d="M514.54 155.56C513.98 154.84 513.28 153.38 512.06 151.56C511.36 150.56 509.64 148.66 509.12 147.68C508.745 147.085 508.636 146.359 508.82 145.68C509.134 144.389 510.359 143.532 511.68 143.68C512.701 143.885 513.64 144.386 514.38 145.12C514.896 145.606 515.371 146.135 515.8 146.7C516.12 147.1 516.2 147.26 516.56 147.72C516.92 148.18 517.16 148.64 516.98 147.96C516.84 146.96 516.6 145.28 516.26 143.78C516 142.64 515.94 142.46 515.7 141.6C515.46 140.74 515.32 140.02 515.06 139.04C514.822 138.077 514.635 137.103 514.5 136.12C514.248 134.864 514.431 133.559 515.02 132.42C515.719 131.763 516.744 131.589 517.62 131.98C518.501 132.631 519.158 133.539 519.5 134.58C520.024 135.861 520.374 137.206 520.54 138.58C520.86 140.58 521.48 143.5 521.5 144.1C521.5 143.36 521.36 141.8 521.5 141.1C521.638 140.37 522.146 139.765 522.84 139.5C523.435 139.317 524.065 139.276 524.68 139.38C525.3 139.51 525.849 139.866 526.22 140.38C526.683 141.547 526.94 142.785 526.98 144.04C527.033 142.941 527.221 141.853 527.54 140.8C527.874 140.329 528.362 139.99 528.92 139.84C529.581 139.719 530.259 139.719 530.92 139.84C531.462 140.021 531.936 140.363 532.28 140.82C532.703 141.881 532.96 143.001 533.04 144.14C533.04 144.42 533.18 143.36 533.62 142.66C533.848 141.981 534.422 141.476 535.124 141.335C535.826 141.193 536.55 141.437 537.024 141.975C537.498 142.512 537.648 143.261 537.42 143.94C537.42 145.24 537.42 145.18 537.42 146.06C537.42 146.94 537.42 147.72 537.42 148.46C537.347 149.63 537.186 150.794 536.94 151.94C536.592 152.954 536.107 153.916 535.5 154.8C534.529 155.88 533.726 157.1 533.12 158.42C532.969 159.076 532.902 159.748 532.92 160.42C532.918 161.041 532.998 161.66 533.16 162.26C532.342 162.347 531.517 162.347 530.7 162.26C529.92 162.14 528.96 160.58 528.7 160.1C528.571 159.842 528.308 159.68 528.02 159.68C527.732 159.68 527.468 159.842 527.34 160.1C526.9 160.86 525.92 162.24 525.24 162.32C523.9 162.48 521.14 162.32 518.96 162.32C518.96 162.32 519.32 160.32 518.5 159.6C517.68 158.88 516.84 158.04 516.22 157.48L514.54 155.56Z" fill="white" id="Shape_6"/>
<path clip-rule="evenodd" d="M514.54 155.56C513.98 154.84 513.28 153.38 512.06 151.56C511.36 150.56 509.64 148.66 509.12 147.68C508.745 147.085 508.636 146.359 508.82 145.68C509.134 144.389 510.359 143.532 511.68 143.68C512.701 143.885 513.64 144.386 514.38 145.12C514.896 145.606 515.371 146.135 515.8 146.7C516.12 147.1 516.2 147.26 516.56 147.72C516.92 148.18 517.16 148.64 516.98 147.96C516.84 146.96 516.6 145.28 516.26 143.78C516 142.64 515.94 142.46 515.7 141.6C515.46 140.74 515.32 140.02 515.06 139.04C514.822 138.077 514.635 137.103 514.5 136.12C514.248 134.864 514.431 133.559 515.02 132.42C515.719 131.763 516.744 131.589 517.62 131.98C518.501 132.631 519.158 133.539 519.5 134.58C520.024 135.861 520.374 137.206 520.54 138.58C520.86 140.58 521.48 143.5 521.5 144.1C521.5 143.36 521.36 141.8 521.5 141.1C521.638 140.37 522.146 139.765 522.84 139.5C523.435 139.317 524.065 139.276 524.68 139.38C525.3 139.51 525.849 139.866 526.22 140.38C526.683 141.547 526.94 142.785 526.98 144.04C527.033 142.941 527.221 141.853 527.54 140.8C527.874 140.329 528.362 139.99 528.92 139.84C529.581 139.719 530.259 139.719 530.92 139.84C531.462 140.021 531.936 140.363 532.28 140.82C532.703 141.881 532.96 143.001 533.04 144.14C533.04 144.42 533.18 143.36 533.62 142.66C533.848 141.981 534.422 141.476 535.124 141.335C535.826 141.193 536.55 141.437 537.024 141.975C537.498 142.512 537.648 143.261 537.42 143.94C537.42 145.24 537.42 145.18 537.42 146.06C537.42 146.94 537.42 147.72 537.42 148.46C537.347 149.63 537.186 150.794 536.94 151.94C536.592 152.954 536.107 153.916 535.5 154.8C534.529 155.88 533.726 157.1 533.12 158.42C532.969 159.076 532.902 159.748 532.92 160.42C532.918 161.041 532.998 161.66 533.16 162.26C532.342 162.347 531.517 162.347 530.7 162.26C529.92 162.14 528.96 160.58 528.7 160.1C528.571 159.842 528.308 159.68 528.02 159.68C527.732 159.68 527.468 159.842 527.34 160.1C526.9 160.86 525.92 162.24 525.24 162.32C523.9 162.48 521.14 162.32 518.96 162.32C518.96 162.32 519.32 160.32 518.5 159.6C517.68 158.88 516.84 158.04 516.22 157.48L514.54 155.56Z" fill-rule="evenodd" id="Shape_7" stroke="black" stroke-linecap="round" stroke-linejoin="round" stroke-width="1.5"/>
<path d="M531.5 156.652V149.748C531.5 149.335 531.164 149 530.75 149C530.336 149 530 149.335 530 149.748V156.652C530 157.065 530.336 157.4 530.75 157.4C531.164 157.4 531.5 157.065 531.5 156.652Z" fill="black" id="Shape_8"/>
<path d="M527.54 156.649L527.5 149.742C527.498 149.33 527.16 148.998 526.746 149C526.331 149.002 525.998 149.339 526 149.751L526.04 156.658C526.042 157.07 526.38 157.402 526.794 157.4C527.209 157.398 527.542 157.061 527.54 156.649Z" fill="black" id="Shape_9"/>
<path d="M522 149.758L522.04 156.651C522.042 157.067 522.38 157.402 522.794 157.4C523.209 157.398 523.542 157.058 523.54 156.642L523.5 149.749C523.498 149.333 523.16 148.998 522.746 149C522.331 149.002 521.998 149.342 522 149.758Z" fill="black" id="Shape_10"/>
</g>
</g>
</g>
</g>
<g id="Frame 528">
<g id="Frame 525_3">
<text fill="#1A1A1A" font-family="Roboto" font-size="17" font-weight="bold" id="Ctrl/Cmd-Click" letter-spacing="0em" style="white-space: pre" transform="translate(706 10)" xml:space="preserve"><tspan x="0" y="15.3105">Ctrl/Cmd-Click</tspan></text>
<text fill="#4D4D4D" font-family="Roboto" font-size="17" id="Pinned nodes are highlighted. The pinned subgraph is displayed in a separate panel." letter-spacing="0em" style="white-space: pre" transform="translate(706 29)" xml:space="preserve"><tspan x="0" y="15.3105">Pinned nodes are highlighted. 
</tspan><tspan x="0" y="34.3105">The pinned subgraph is displayed in a </tspan><tspan x="0" y="53.3105">separate panel.</tspan></text>
</g>
<g clip-path="url(#clip2_1574_1564)" id="Frame 527_4">
<rect fill="url(#pattern4_1574_1564)" height="270" id="image 881740446_3" width="561" x="706" y="99"/>
<rect fill="url(#pattern5_1574_1564)" height="293" id="image 881740448" width="731.882" x="442" y="58"/>
<g id="Cursor/Pointer_3">
<g filter="url(#filter2_d_1574_1564)" id="pointing_3">
<path d="M893.54 155.56C892.98 154.84 892.28 153.38 891.06 151.56C890.36 150.56 888.64 148.66 888.12 147.68C887.745 147.085 887.636 146.359 887.82 145.68C888.134 144.389 889.359 143.532 890.68 143.68C891.701 143.885 892.64 144.386 893.38 145.12C893.896 145.606 894.371 146.135 894.8 146.7C895.12 147.1 895.2 147.26 895.56 147.72C895.92 148.18 896.16 148.64 895.98 147.96C895.84 146.96 895.6 145.28 895.26 143.78C895 142.64 894.94 142.46 894.7 141.6C894.46 140.74 894.32 140.02 894.06 139.04C893.822 138.077 893.635 137.103 893.5 136.12C893.248 134.864 893.431 133.559 894.02 132.42C894.719 131.763 895.744 131.589 896.62 131.98C897.501 132.631 898.158 133.539 898.5 134.58C899.024 135.861 899.374 137.206 899.54 138.58C899.86 140.58 900.48 143.5 900.5 144.1C900.5 143.36 900.36 141.8 900.5 141.1C900.638 140.37 901.146 139.765 901.84 139.5C902.435 139.317 903.065 139.276 903.68 139.38C904.3 139.51 904.849 139.866 905.22 140.38C905.683 141.547 905.94 142.785 905.98 144.04C906.033 142.941 906.221 141.853 906.54 140.8C906.874 140.329 907.362 139.99 907.92 139.84C908.581 139.719 909.259 139.719 909.92 139.84C910.462 140.021 910.936 140.363 911.28 140.82C911.703 141.881 911.96 143.001 912.04 144.14C912.04 144.42 912.18 143.36 912.62 142.66C912.848 141.981 913.422 141.476 914.124 141.335C914.826 141.193 915.55 141.437 916.024 141.975C916.498 142.512 916.648 143.261 916.42 143.94C916.42 145.24 916.42 145.18 916.42 146.06C916.42 146.94 916.42 147.72 916.42 148.46C916.347 149.63 916.186 150.794 915.94 151.94C915.592 152.954 915.107 153.916 914.5 154.8C913.529 155.88 912.726 157.1 912.12 158.42C911.969 159.076 911.902 159.748 911.92 160.42C911.918 161.041 911.998 161.66 912.16 162.26C911.342 162.347 910.517 162.347 909.7 162.26C908.92 162.14 907.96 160.58 907.7 160.1C907.571 159.842 907.308 159.68 907.02 159.68C906.732 159.68 906.468 159.842 906.34 160.1C905.9 160.86 904.92 162.24 904.24 162.32C902.9 162.48 900.14 162.32 897.96 162.32C897.96 162.32 898.32 160.32 897.5 159.6C896.68 158.88 895.84 158.04 895.22 157.48L893.54 155.56Z" fill="white" id="Shape_11"/>
<path clip-rule="evenodd" d="M893.54 155.56C892.98 154.84 892.28 153.38 891.06 151.56C890.36 150.56 888.64 148.66 888.12 147.68C887.745 147.085 887.636 146.359 887.82 145.68C888.134 144.389 889.359 143.532 890.68 143.68C891.701 143.885 892.64 144.386 893.38 145.12C893.896 145.606 894.371 146.135 894.8 146.7C895.12 147.1 895.2 147.26 895.56 147.72C895.92 148.18 896.16 148.64 895.98 147.96C895.84 146.96 895.6 145.28 895.26 143.78C895 142.64 894.94 142.46 894.7 141.6C894.46 140.74 894.32 140.02 894.06 139.04C893.822 138.077 893.635 137.103 893.5 136.12C893.248 134.864 893.431 133.559 894.02 132.42C894.719 131.763 895.744 131.589 896.62 131.98C897.501 132.631 898.158 133.539 898.5 134.58C899.024 135.861 899.374 137.206 899.54 138.58C899.86 140.58 900.48 143.5 900.5 144.1C900.5 143.36 900.36 141.8 900.5 141.1C900.638 140.37 901.146 139.765 901.84 139.5C902.435 139.317 903.065 139.276 903.68 139.38C904.3 139.51 904.849 139.866 905.22 140.38C905.683 141.547 905.94 142.785 905.98 144.04C906.033 142.941 906.221 141.853 906.54 140.8C906.874 140.329 907.362 139.99 907.92 139.84C908.581 139.719 909.259 139.719 909.92 139.84C910.462 140.021 910.936 140.363 911.28 140.82C911.703 141.881 911.96 143.001 912.04 144.14C912.04 144.42 912.18 143.36 912.62 142.66C912.848 141.981 913.422 141.476 914.124 141.335C914.826 141.193 915.55 141.437 916.024 141.975C916.498 142.512 916.648 143.261 916.42 143.94C916.42 145.24 916.42 145.18 916.42 146.06C916.42 146.94 916.42 147.72 916.42 148.46C916.347 149.63 916.186 150.794 915.94 151.94C915.592 152.954 915.107 153.916 914.5 154.8C913.529 155.88 912.726 157.1 912.12 158.42C911.969 159.076 911.902 159.748 911.92 160.42C911.918 161.041 911.998 161.66 912.16 162.26C911.342 162.347 910.517 162.347 909.7 162.26C908.92 162.14 907.96 160.58 907.7 160.1C907.571 159.842 907.308 159.68 907.02 159.68C906.732 159.68 906.468 159.842 906.34 160.1C905.9 160.86 904.92 162.24 904.24 162.32C902.9 162.48 900.14 162.32 897.96 162.32C897.96 162.32 898.32 160.32 897.5 159.6C896.68 158.88 895.84 158.04 895.22 157.48L893.54 155.56Z" fill-rule="evenodd" id="Shape_12" stroke="black" stroke-linecap="round" stroke-linejoin="round" stroke-width="1.5"/>
<path d="M910.5 156.652V149.748C910.5 149.335 910.164 149 909.75 149C909.336 149 909 149.335 909 149.748V156.652C909 157.065 909.336 157.4 909.75 157.4C910.164 157.4 910.5 157.065 910.5 156.652Z" fill="black" id="Shape_13"/>
<path d="M906.54 156.649L906.5 149.742C906.498 149.33 906.16 148.998 905.746 149C905.331 149.002 904.998 149.339 905 149.751L905.04 156.658C905.042 157.07 905.38 157.402 905.794 157.4C906.209 157.398 906.542 157.061 906.54 156.649Z" fill="black" id="Shape_14"/>
<path d="M901 149.758L901.04 156.651C901.042 157.067 901.38 157.402 901.794 157.4C902.209 157.398 902.542 157.058 902.54 156.642L902.5 149.749C902.498 149.333 902.16 148.998 901.746 149C901.331 149.002 900.998 149.342 901 149.758Z" fill="black" id="Shape_15"/>
</g>
</g>
</g>
</g>
<g id="Frame 529">
<g id="Frame 525_4">
<text fill="#1A1A1A" font-family="Roboto" font-size="17" font-weight="bold" id="Hold âgâ and click on nodes" letter-spacing="0em" style="white-space: pre" transform="translate(1051.5 10)" xml:space="preserve"><tspan x="0" y="15.3105">Hold “g” and click on nodes</tspan></text>
<text fill="#4D4D4D" font-family="Roboto" font-size="17" id="Group nodes into supernodes in the subgraph" letter-spacing="0em" style="white-space: pre" transform="translate(1051.5 29)" xml:space="preserve"><tspan x="0" y="15.3105">Group nodes into supernodes in the </tspan><tspan x="0" y="34.3105">subgraph</tspan></text>
</g>
<g clip-path="url(#clip3_1574_1564)" id="Frame 527_5">
<rect fill="url(#pattern6_1574_1564)" height="270" id="image 881740446_4" width="561" x="1051" y="99"/>
<rect fill="url(#pattern7_1574_1564)" height="321" id="image 881740449" width="637" x="783.5" y="-35"/>
<g id="Cursor/Pointer_4">
<g filter="url(#filter3_d_1574_1564)" id="pointing_4">
<path d="M1215.54 185.56C1214.98 184.84 1214.28 183.38 1213.06 181.56C1212.36 180.56 1210.64 178.66 1210.12 177.68C1209.74 177.085 1209.64 176.359 1209.82 175.68C1210.13 174.389 1211.36 173.532 1212.68 173.68C1213.7 173.885 1214.64 174.386 1215.38 175.12C1215.9 175.606 1216.37 176.135 1216.8 176.7C1217.12 177.1 1217.2 177.26 1217.56 177.72C1217.92 178.18 1218.16 178.64 1217.98 177.96C1217.84 176.96 1217.6 175.28 1217.26 173.78C1217 172.64 1216.94 172.46 1216.7 171.6C1216.46 170.74 1216.32 170.02 1216.06 169.04C1215.82 168.077 1215.64 167.103 1215.5 166.12C1215.25 164.864 1215.43 163.559 1216.02 162.42C1216.72 161.763 1217.74 161.589 1218.62 161.98C1219.5 162.631 1220.16 163.539 1220.5 164.58C1221.02 165.861 1221.37 167.206 1221.54 168.58C1221.86 170.58 1222.48 173.5 1222.5 174.1C1222.5 173.36 1222.36 171.8 1222.5 171.1C1222.64 170.37 1223.15 169.765 1223.84 169.5C1224.44 169.317 1225.07 169.276 1225.68 169.38C1226.3 169.51 1226.85 169.866 1227.22 170.38C1227.68 171.547 1227.94 172.785 1227.98 174.04C1228.03 172.941 1228.22 171.853 1228.54 170.8C1228.87 170.329 1229.36 169.99 1229.92 169.84C1230.58 169.719 1231.26 169.719 1231.92 169.84C1232.46 170.021 1232.94 170.363 1233.28 170.82C1233.7 171.881 1233.96 173.001 1234.04 174.14C1234.04 174.42 1234.18 173.36 1234.62 172.66C1234.85 171.981 1235.42 171.476 1236.12 171.335C1236.83 171.193 1237.55 171.437 1238.02 171.975C1238.5 172.512 1238.65 173.261 1238.42 173.94C1238.42 175.24 1238.42 175.18 1238.42 176.06C1238.42 176.94 1238.42 177.72 1238.42 178.46C1238.35 179.63 1238.19 180.794 1237.94 181.94C1237.59 182.954 1237.11 183.916 1236.5 184.8C1235.53 185.88 1234.73 187.1 1234.12 188.42C1233.97 189.076 1233.9 189.748 1233.92 190.42C1233.92 191.041 1234 191.66 1234.16 192.26C1233.34 192.347 1232.52 192.347 1231.7 192.26C1230.92 192.14 1229.96 190.58 1229.7 190.1C1229.57 189.842 1229.31 189.68 1229.02 189.68C1228.73 189.68 1228.47 189.842 1228.34 190.1C1227.9 190.86 1226.92 192.24 1226.24 192.32C1224.9 192.48 1222.14 192.32 1219.96 192.32C1219.96 192.32 1220.32 190.32 1219.5 189.6C1218.68 188.88 1217.84 188.04 1217.22 187.48L1215.54 185.56Z" fill="white" id="Shape_16"/>
<path clip-rule="evenodd" d="M1215.54 185.56C1214.98 184.84 1214.28 183.38 1213.06 181.56C1212.36 180.56 1210.64 178.66 1210.12 177.68C1209.74 177.085 1209.64 176.359 1209.82 175.68C1210.13 174.389 1211.36 173.532 1212.68 173.68C1213.7 173.885 1214.64 174.386 1215.38 175.12C1215.9 175.606 1216.37 176.135 1216.8 176.7C1217.12 177.1 1217.2 177.26 1217.56 177.72C1217.92 178.18 1218.16 178.64 1217.98 177.96C1217.84 176.96 1217.6 175.28 1217.26 173.78C1217 172.64 1216.94 172.46 1216.7 171.6C1216.46 170.74 1216.32 170.02 1216.06 169.04C1215.82 168.077 1215.64 167.103 1215.5 166.12C1215.25 164.864 1215.43 163.559 1216.02 162.42C1216.72 161.763 1217.74 161.589 1218.62 161.98C1219.5 162.631 1220.16 163.539 1220.5 164.58C1221.02 165.861 1221.37 167.206 1221.54 168.58C1221.86 170.58 1222.48 173.5 1222.5 174.1C1222.5 173.36 1222.36 171.8 1222.5 171.1C1222.64 170.37 1223.15 169.765 1223.84 169.5C1224.44 169.317 1225.07 169.276 1225.68 169.38C1226.3 169.51 1226.85 169.866 1227.22 170.38C1227.68 171.547 1227.94 172.785 1227.98 174.04C1228.03 172.941 1228.22 171.853 1228.54 170.8C1228.87 170.329 1229.36 169.99 1229.92 169.84C1230.58 169.719 1231.26 169.719 1231.92 169.84C1232.46 170.021 1232.94 170.363 1233.28 170.82C1233.7 171.881 1233.96 173.001 1234.04 174.14C1234.04 174.42 1234.18 173.36 1234.62 172.66C1234.85 171.981 1235.42 171.476 1236.12 171.335C1236.83 171.193 1237.55 171.437 1238.02 171.975C1238.5 172.512 1238.65 173.261 1238.42 173.94C1238.42 175.24 1238.42 175.18 1238.42 176.06C1238.42 176.94 1238.42 177.72 1238.42 178.46C1238.35 179.63 1238.19 180.794 1237.94 181.94C1237.59 182.954 1237.11 183.916 1236.5 184.8C1235.53 185.88 1234.73 187.1 1234.12 188.42C1233.97 189.076 1233.9 189.748 1233.92 190.42C1233.92 191.041 1234 191.66 1234.16 192.26C1233.34 192.347 1232.52 192.347 1231.7 192.26C1230.92 192.14 1229.96 190.58 1229.7 190.1C1229.57 189.842 1229.31 189.68 1229.02 189.68C1228.73 189.68 1228.47 189.842 1228.34 190.1C1227.9 190.86 1226.92 192.24 1226.24 192.32C1224.9 192.48 1222.14 192.32 1219.96 192.32C1219.96 192.32 1220.32 190.32 1219.5 189.6C1218.68 188.88 1217.84 188.04 1217.22 187.48L1215.54 185.56Z" fill-rule="evenodd" id="Shape_17" stroke="black" stroke-linecap="round" stroke-linejoin="round" stroke-width="1.5"/>
<path d="M1232.5 186.652V179.748C1232.5 179.335 1232.16 179 1231.75 179C1231.34 179 1231 179.335 1231 179.748V186.652C1231 187.065 1231.34 187.4 1231.75 187.4C1232.16 187.4 1232.5 187.065 1232.5 186.652Z" fill="black" id="Shape_18"/>
<path d="M1228.54 186.649L1228.5 179.742C1228.5 179.33 1228.16 178.998 1227.75 179C1227.33 179.002 1227 179.339 1227 179.751L1227.04 186.658C1227.04 187.07 1227.38 187.402 1227.79 187.4C1228.21 187.398 1228.54 187.061 1228.54 186.649Z" fill="black" id="Shape_19"/>
<path d="M1223 179.758L1223.04 186.651C1223.04 187.067 1223.38 187.402 1223.79 187.4C1224.21 187.398 1224.54 187.058 1224.54 186.642L1224.5 179.749C1224.5 179.333 1224.16 178.998 1223.75 179C1223.33 179.002 1223 179.342 1223 179.758Z" fill="black" id="Shape_20"/>
</g>
</g>
</g>
</g>
</g>
<text fill="#4D4D4D" font-family="Roboto" font-size="13" id="Figure 00: Supported mouse and keyboard interactions with attribution graphs." letter-spacing="0em" style="white-space: pre" xml:space="preserve"><tspan x="15" y="306.443">Figure 00: Supported mouse and keyboard interactions with attribution graphs.</tspan></text>
</g>
<defs>
<pattern height="1" id="pattern0_1574_1564" patternContentUnits="objectBoundingBox" width="1">
<use transform="scale(0.000891266 0.00185185)" xlink:href="#image0_1574_1564"/>
</pattern>
<pattern height="1" id="pattern1_1574_1564" patternContentUnits="objectBoundingBox" width="1">
<use transform="scale(0.00085034 0.00195312)" xlink:href="#image1_1574_1564"/>
</pattern>
<filter color-interpolation-filters="sRGB" filterUnits="userSpaceOnUse" height="35.7176" id="filter0_d_1574_1564" width="33.492" x="176.382" y="138.024">
<feFlood flood-opacity="0" result="BackgroundImageFix"/>
<feColorMatrix in="SourceAlpha" result="hardAlpha" type="matrix" values="0 0 0 0 0 0 0 0 0 0 0 0 0 0 0 0 0 0 127 0"/>
<feOffset dy="2"/>
<feGaussianBlur stdDeviation="0.8"/>
<feColorMatrix type="matrix" values="0 0 0 0 0 0 0 0 0 0 0 0 0 0 0 0 0 0 0.5 0"/>
<feBlend in2="BackgroundImageFix" mode="normal" result="effect1_dropShadow_1574_1564"/>
<feBlend in="SourceGraphic" in2="effect1_dropShadow_1574_1564" mode="normal" result="shape"/>
</filter>
<pattern height="1" id="pattern2_1574_1564" patternContentUnits="objectBoundingBox" width="1">
<use transform="scale(0.000891266 0.00185185)" xlink:href="#image0_1574_1564"/>
</pattern>
<pattern height="1" id="pattern3_1574_1564" patternContentUnits="objectBoundingBox" width="1">
<use transform="scale(0.00111607 0.00165563)" xlink:href="#image2_1574_1564"/>
</pattern>
<filter color-interpolation-filters="sRGB" filterUnits="userSpaceOnUse" height="35.7176" id="filter1_d_1574_1564" width="33.492" x="506.382" y="131.024">
<feFlood flood-opacity="0" result="BackgroundImageFix"/>
<feColorMatrix in="SourceAlpha" result="hardAlpha" type="matrix" values="0 0 0 0 0 0 0 0 0 0 0 0 0 0 0 0 0 0 127 0"/>
<feOffset dy="2"/>
<feGaussianBlur stdDeviation="0.8"/>
<feColorMatrix type="matrix" values="0 0 0 0 0 0 0 0 0 0 0 0 0 0 0 0 0 0 0.5 0"/>
<feBlend in2="BackgroundImageFix" mode="normal" result="effect1_dropShadow_1574_1564"/>
<feBlend in="SourceGraphic" in2="effect1_dropShadow_1574_1564" mode="normal" result="shape"/>
</filter>
<pattern height="1" id="pattern4_1574_1564" patternContentUnits="objectBoundingBox" width="1">
<use transform="scale(0.000891266 0.00185185)" xlink:href="#image0_1574_1564"/>
</pattern>
<pattern height="1" id="pattern5_1574_1564" patternContentUnits="objectBoundingBox" width="1">
<use transform="scale(0.000844595 0.0021097)" xlink:href="#image3_1574_1564"/>
</pattern>
<filter color-interpolation-filters="sRGB" filterUnits="userSpaceOnUse" height="35.7176" id="filter2_d_1574_1564" width="33.492" x="885.382" y="131.024">
<feFlood flood-opacity="0" result="BackgroundImageFix"/>
<feColorMatrix in="SourceAlpha" result="hardAlpha" type="matrix" values="0 0 0 0 0 0 0 0 0 0 0 0 0 0 0 0 0 0 127 0"/>
<feOffset dy="2"/>
<feGaussianBlur stdDeviation="0.8"/>
<feColorMatrix type="matrix" values="0 0 0 0 0 0 0 0 0 0 0 0 0 0 0 0 0 0 0.5 0"/>
<feBlend in2="BackgroundImageFix" mode="normal" result="effect1_dropShadow_1574_1564"/>
<feBlend in="SourceGraphic" in2="effect1_dropShadow_1574_1564" mode="normal" result="shape"/>
</filter>
<pattern height="1" id="pattern6_1574_1564" patternContentUnits="objectBoundingBox" width="1">
<use transform="scale(0.000891266 0.00185185)" xlink:href="#image0_1574_1564"/>
</pattern>
<pattern height="1" id="pattern7_1574_1564" patternContentUnits="objectBoundingBox" width="1">
<use transform="scale(0.000784929 0.00155763)" xlink:href="#image4_1574_1564"/>
</pattern>
<filter color-interpolation-filters="sRGB" filterUnits="userSpaceOnUse" height="35.7176" id="filter3_d_1574_1564" width="33.492" x="1207.38" y="161.024">
<feFlood flood-opacity="0" result="BackgroundImageFix"/>
<feColorMatrix in="SourceAlpha" result="hardAlpha" type="matrix" values="0 0 0 0 0 0 0 0 0 0 0 0 0 0 0 0 0 0 127 0"/>
<feOffset dy="2"/>
<feGaussianBlur stdDeviation="0.8"/>
<feColorMatrix type="matrix" values="0 0 0 0 0 0 0 0 0 0 0 0 0 0 0 0 0 0 0.5 0"/>
<feBlend in2="BackgroundImageFix" mode="normal" result="effect1_dropShadow_1574_1564"/>
<feBlend in="SourceGraphic" in2="effect1_dropShadow_1574_1564" mode="normal" result="shape"/>
</filter>
<clipPath id="clip0_1574_1564">
<rect fill="white" height="185" transform="translate(15 99)" width="313.5"/>
</clipPath>
<clipPath id="clip1_1574_1564">
<rect fill="white" height="185" transform="translate(360.5 99)" width="313.5"/>
</clipPath>
<clipPath id="clip2_1574_1564">
<rect fill="white" height="185" transform="translate(706 99)" width="313.5"/>
</clipPath>
<clipPath id="clip3_1574_1564">
<rect fill="white" height="185" transform="translate(1051.5 99)" width="313.5"/>
</clipPath>
<image data-name="image.png" height="540" id="image0_1574_1564" preserveAspectRatio="none" width="1122" xlink:href="./png/img_d5896beeb09d49dd.png"/>
<image data-name="image.png" height="512" id="image1_1574_1564" preserveAspectRatio="none" width="1176" xlink:href="./png/img_8cd98667366614fa.png"/>
<image data-name="image.png" height="604" id="image2_1574_1564" preserveAspectRatio="none" width="896" xlink:href="./png/img_4bce82c5d47fa60a.png"/>
<image data-name="image.png" height="474" id="image3_1574_1564" preserveAspectRatio="none" width="1184" xlink:href="./png/img_3f90a53a6005cda4.png"/>
<image data-name="image.png" height="642" id="image4_1574_1564" preserveAspectRatio="none" width="1274" xlink:href="./png/img_38905486c470dac0.png"/>
</defs>
</svg>