<?xml version="1.0" encoding="UTF-8" standalone="no"?>
<!DOCTYPE svg PUBLIC "-//W3C//DTD SVG 1.1//EN"
 "http://www.w3.org/Graphics/SVG/1.1/DTD/svg11.dtd">
<!-- Generated by graphviz version 2.40.1 (20161225.0304)
 -->
<!-- Title: G Pages: 1 -->
<svg width="250pt" height="332pt"
 viewBox="0.00 0.00 250.20 332.00" xmlns="http://www.w3.org/2000/svg" xmlns:xlink="http://www.w3.org/1999/xlink">
<g id="graph0" class="graph" transform="scale(1 1) rotate(0) translate(4 328)">
<title>G</title>
<polygon fill="#ffffff" stroke="transparent" points="-4,4 -4,-328 246.2021,-328 246.2021,4 -4,4"/>
<!-- e0 -->
<g id="node1" class="node">
<title>e0</title>
<ellipse fill="none" stroke="#000000" cx="121.1011" cy="-306" rx="27" ry="18"/>
<text text-anchor="middle" x="121.1011" y="-301.8" font-family="Times,serif" font-size="14.00" fill="#000000">expr</text>
</g>
<!-- m0 -->
<g id="node2" class="node">
<title>m0</title>
<ellipse fill="none" stroke="#000000" cx="121.1011" cy="-234" rx="27" ry="18"/>
<text text-anchor="middle" x="121.1011" y="-229.8" font-family="Times,serif" font-size="14.00" fill="#000000">mul</text>
</g>
<!-- e0&#45;&gt;m0 -->
<g id="edge1" class="edge">
<title>e0&#45;&gt;m0</title>
<path fill="none" stroke="#000000" d="M121.1011,-287.8314C121.1011,-280.131 121.1011,-270.9743 121.1011,-262.4166"/>
<polygon fill="#000000" stroke="#000000" points="124.6012,-262.4132 121.1011,-252.4133 117.6012,-262.4133 124.6012,-262.4132"/>
</g>
<!-- t0 -->
<g id="node3" class="node">
<title>t0</title>
<ellipse fill="none" stroke="#000000" cx="38.1011" cy="-162" rx="38.2024" ry="18"/>
<text text-anchor="middle" x="38.1011" y="-157.8" font-family="Times,serif" font-size="14.00" fill="#000000">primary</text>
</g>
<!-- m0&#45;&gt;t0 -->
<g id="edge2" class="edge">
<title>m0&#45;&gt;t0</title>
<path fill="none" stroke="#000000" d="M104.3048,-219.4297C92.8504,-209.4934 77.4483,-196.1326 64.3825,-184.7983"/>
<polygon fill="#000000" stroke="#000000" points="66.4526,-181.9607 56.6052,-178.0518 61.8656,-187.2485 66.4526,-181.9607"/>
</g>
<!-- * -->
<g id="node6" class="node">
<title>*</title>
<ellipse fill="#f0f0f0" stroke="#000000" cx="121.1011" cy="-162" rx="27" ry="18"/>
<text text-anchor="middle" x="121.1011" y="-157.8" font-family="Times,serif" font-size="14.00" fill="#000000">*</text>
</g>
<!-- m0&#45;&gt;* -->
<g id="edge5" class="edge">
<title>m0&#45;&gt;*</title>
<path fill="none" stroke="#000000" d="M121.1011,-215.8314C121.1011,-208.131 121.1011,-198.9743 121.1011,-190.4166"/>
<polygon fill="#000000" stroke="#000000" points="124.6012,-190.4132 121.1011,-180.4133 117.6012,-190.4133 124.6012,-190.4132"/>
</g>
<!-- t1 -->
<g id="node7" class="node">
<title>t1</title>
<ellipse fill="none" stroke="#000000" cx="204.1011" cy="-162" rx="38.2024" ry="18"/>
<text text-anchor="middle" x="204.1011" y="-157.8" font-family="Times,serif" font-size="14.00" fill="#000000">primary</text>
</g>
<!-- m0&#45;&gt;t1 -->
<g id="edge6" class="edge">
<title>m0&#45;&gt;t1</title>
<path fill="none" stroke="#000000" d="M137.8973,-219.4297C149.3517,-209.4934 164.7538,-196.1326 177.8196,-184.7983"/>
<polygon fill="#000000" stroke="#000000" points="180.3365,-187.2485 185.5969,-178.0518 175.7495,-181.9607 180.3365,-187.2485"/>
</g>
<!-- n0 -->
<g id="node4" class="node">
<title>n0</title>
<ellipse fill="none" stroke="#000000" cx="38.1011" cy="-90" rx="27" ry="18"/>
<text text-anchor="middle" x="38.1011" y="-85.8" font-family="Times,serif" font-size="14.00" fill="#000000">num</text>
</g>
<!-- t0&#45;&gt;n0 -->
<g id="edge3" class="edge">
<title>t0&#45;&gt;n0</title>
<path fill="none" stroke="#000000" d="M38.1011,-143.8314C38.1011,-136.131 38.1011,-126.9743 38.1011,-118.4166"/>
<polygon fill="#000000" stroke="#000000" points="41.6012,-118.4132 38.1011,-108.4133 34.6012,-118.4133 41.6012,-118.4132"/>
</g>
<!-- 1 -->
<g id="node5" class="node">
<title>1</title>
<ellipse fill="#f0f0f0" stroke="#000000" cx="38.1011" cy="-18" rx="27" ry="18"/>
<text text-anchor="middle" x="38.1011" y="-13.8" font-family="Times,serif" font-size="14.00" fill="#000000">1</text>
</g>
<!-- n0&#45;&gt;1 -->
<g id="edge4" class="edge">
<title>n0&#45;&gt;1</title>
<path fill="none" stroke="#000000" d="M38.1011,-71.8314C38.1011,-64.131 38.1011,-54.9743 38.1011,-46.4166"/>
<polygon fill="#000000" stroke="#000000" points="41.6012,-46.4132 38.1011,-36.4133 34.6012,-46.4133 41.6012,-46.4132"/>
</g>
<!-- n1 -->
<g id="node8" class="node">
<title>n1</title>
<ellipse fill="none" stroke="#000000" cx="204.1011" cy="-90" rx="27" ry="18"/>
<text text-anchor="middle" x="204.1011" y="-85.8" font-family="Times,serif" font-size="14.00" fill="#000000">num</text>
</g>
<!-- t1&#45;&gt;n1 -->
<g id="edge7" class="edge">
<title>t1&#45;&gt;n1</title>
<path fill="none" stroke="#000000" d="M204.1011,-143.8314C204.1011,-136.131 204.1011,-126.9743 204.1011,-118.4166"/>
<polygon fill="#000000" stroke="#000000" points="207.6012,-118.4132 204.1011,-108.4133 200.6012,-118.4133 207.6012,-118.4132"/>
</g>
<!-- 2 -->
<g id="node9" class="node">
<title>2</title>
<ellipse fill="#f0f0f0" stroke="#000000" cx="204.1011" cy="-18" rx="27" ry="18"/>
<text text-anchor="middle" x="204.1011" y="-13.8" font-family="Times,serif" font-size="14.00" fill="#000000">2</text>
</g>
<!-- n1&#45;&gt;2 -->
<g id="edge8" class="edge">
<title>n1&#45;&gt;2</title>
<path fill="none" stroke="#000000" d="M204.1011,-71.8314C204.1011,-64.131 204.1011,-54.9743 204.1011,-46.4166"/>
<polygon fill="#000000" stroke="#000000" points="207.6012,-46.4132 204.1011,-36.4133 200.6012,-46.4133 207.6012,-46.4132"/>
</g>
</g>
</svg>
