<?xml version="1.0" encoding="UTF-8" standalone="no"?>
<!DOCTYPE svg PUBLIC "-//W3C//DTD SVG 1.1//EN"
 "http://www.w3.org/Graphics/SVG/1.1/DTD/svg11.dtd">
<!-- Generated by graphviz version 2.40.1 (20161225.0304)
 -->
<!-- Title: G Pages: 1 -->
<svg width="322pt" height="548pt"
 viewBox="0.00 0.00 322.20 548.00" xmlns="http://www.w3.org/2000/svg" xmlns:xlink="http://www.w3.org/1999/xlink">
<g id="graph0" class="graph" transform="scale(1 1) rotate(0) translate(4 544)">
<title>G</title>
<polygon fill="#ffffff" stroke="transparent" points="-4,4 -4,-544 318.2021,-544 318.2021,4 -4,4"/>
<!-- e0 -->
<g id="node1" class="node">
<title>e0</title>
<ellipse fill="none" stroke="#000000" cx="121.1011" cy="-522" rx="27" ry="18"/>
<text text-anchor="middle" x="121.1011" y="-517.8" font-family="Times,serif" font-size="14.00" fill="#000000">expr</text>
</g>
<!-- m0 -->
<g id="node2" class="node">
<title>m0</title>
<ellipse fill="none" stroke="#000000" cx="121.1011" cy="-450" rx="27" ry="18"/>
<text text-anchor="middle" x="121.1011" y="-445.8" font-family="Times,serif" font-size="14.00" fill="#000000">mul</text>
</g>
<!-- e0&#45;&gt;m0 -->
<g id="edge1" class="edge">
<title>e0&#45;&gt;m0</title>
<path fill="none" stroke="#000000" d="M121.1011,-503.8314C121.1011,-496.131 121.1011,-486.9743 121.1011,-478.4166"/>
<polygon fill="#000000" stroke="#000000" points="124.6012,-478.4132 121.1011,-468.4133 117.6012,-478.4133 124.6012,-478.4132"/>
</g>
<!-- t0 -->
<g id="node3" class="node">
<title>t0</title>
<ellipse fill="none" stroke="#000000" cx="38.1011" cy="-378" rx="38.2024" ry="18"/>
<text text-anchor="middle" x="38.1011" y="-373.8" font-family="Times,serif" font-size="14.00" fill="#000000">primary</text>
</g>
<!-- m0&#45;&gt;t0 -->
<g id="edge2" class="edge">
<title>m0&#45;&gt;t0</title>
<path fill="none" stroke="#000000" d="M104.3048,-435.4297C92.8504,-425.4934 77.4483,-412.1326 64.3825,-400.7983"/>
<polygon fill="#000000" stroke="#000000" points="66.4526,-397.9607 56.6052,-394.0518 61.8656,-403.2485 66.4526,-397.9607"/>
</g>
<!-- * -->
<g id="node6" class="node">
<title>*</title>
<ellipse fill="#f0f0f0" stroke="#000000" cx="121.1011" cy="-378" rx="27" ry="18"/>
<text text-anchor="middle" x="121.1011" y="-373.8" font-family="Times,serif" font-size="14.00" fill="#000000">*</text>
</g>
<!-- m0&#45;&gt;* -->
<g id="edge5" class="edge">
<title>m0&#45;&gt;*</title>
<path fill="none" stroke="#000000" d="M121.1011,-431.8314C121.1011,-424.131 121.1011,-414.9743 121.1011,-406.4166"/>
<polygon fill="#000000" stroke="#000000" points="124.6012,-406.4132 121.1011,-396.4133 117.6012,-406.4133 124.6012,-406.4132"/>
</g>
<!-- t1 -->
<g id="node7" class="node">
<title>t1</title>
<ellipse fill="none" stroke="#000000" cx="204.1011" cy="-378" rx="38.2024" ry="18"/>
<text text-anchor="middle" x="204.1011" y="-373.8" font-family="Times,serif" font-size="14.00" fill="#000000">primary</text>
</g>
<!-- m0&#45;&gt;t1 -->
<g id="edge6" class="edge">
<title>m0&#45;&gt;t1</title>
<path fill="none" stroke="#000000" d="M137.8973,-435.4297C149.3517,-425.4934 164.7538,-412.1326 177.8196,-400.7983"/>
<polygon fill="#000000" stroke="#000000" points="180.3365,-403.2485 185.5969,-394.0518 175.7495,-397.9607 180.3365,-403.2485"/>
</g>
<!-- n0 -->
<g id="node4" class="node">
<title>n0</title>
<ellipse fill="none" stroke="#000000" cx="38.1011" cy="-306" rx="27" ry="18"/>
<text text-anchor="middle" x="38.1011" y="-301.8" font-family="Times,serif" font-size="14.00" fill="#000000">num</text>
</g>
<!-- t0&#45;&gt;n0 -->
<g id="edge3" class="edge">
<title>t0&#45;&gt;n0</title>
<path fill="none" stroke="#000000" d="M38.1011,-359.8314C38.1011,-352.131 38.1011,-342.9743 38.1011,-334.4166"/>
<polygon fill="#000000" stroke="#000000" points="41.6012,-334.4132 38.1011,-324.4133 34.6012,-334.4133 41.6012,-334.4132"/>
</g>
<!-- 1 -->
<g id="node5" class="node">
<title>1</title>
<ellipse fill="#f0f0f0" stroke="#000000" cx="38.1011" cy="-234" rx="27" ry="18"/>
<text text-anchor="middle" x="38.1011" y="-229.8" font-family="Times,serif" font-size="14.00" fill="#000000">1</text>
</g>
<!-- n0&#45;&gt;1 -->
<g id="edge4" class="edge">
<title>n0&#45;&gt;1</title>
<path fill="none" stroke="#000000" d="M38.1011,-287.8314C38.1011,-280.131 38.1011,-270.9743 38.1011,-262.4166"/>
<polygon fill="#000000" stroke="#000000" points="41.6012,-262.4132 38.1011,-252.4133 34.6012,-262.4133 41.6012,-262.4132"/>
</g>
<!-- ( -->
<g id="node8" class="node">
<title>(</title>
<ellipse fill="#f0f0f0" stroke="#000000" cx="132.1011" cy="-306" rx="27" ry="18"/>
<text text-anchor="middle" x="132.1011" y="-301.8" font-family="Times,serif" font-size="14.00" fill="#000000">(</text>
</g>
<!-- t1&#45;&gt;( -->
<g id="edge7" class="edge">
<title>t1&#45;&gt;(</title>
<path fill="none" stroke="#000000" d="M187.7631,-361.6621C177.9196,-351.8185 165.2468,-339.1458 154.4805,-328.3795"/>
<polygon fill="#000000" stroke="#000000" points="156.9356,-325.8848 147.3897,-321.2886 151.9859,-330.8346 156.9356,-325.8848"/>
</g>
<!-- e1 -->
<g id="node9" class="node">
<title>e1</title>
<ellipse fill="none" stroke="#000000" cx="204.1011" cy="-306" rx="27" ry="18"/>
<text text-anchor="middle" x="204.1011" y="-301.8" font-family="Times,serif" font-size="14.00" fill="#000000">expr</text>
</g>
<!-- t1&#45;&gt;e1 -->
<g id="edge8" class="edge">
<title>t1&#45;&gt;e1</title>
<path fill="none" stroke="#000000" d="M204.1011,-359.8314C204.1011,-352.131 204.1011,-342.9743 204.1011,-334.4166"/>
<polygon fill="#000000" stroke="#000000" points="207.6012,-334.4132 204.1011,-324.4133 200.6012,-334.4133 207.6012,-334.4132"/>
</g>
<!-- ) -->
<g id="node19" class="node">
<title>)</title>
<ellipse fill="#f0f0f0" stroke="#000000" cx="276.1011" cy="-306" rx="27" ry="18"/>
<text text-anchor="middle" x="276.1011" y="-301.8" font-family="Times,serif" font-size="14.00" fill="#000000">)</text>
</g>
<!-- t1&#45;&gt;) -->
<g id="edge18" class="edge">
<title>t1&#45;&gt;)</title>
<path fill="none" stroke="#000000" d="M220.439,-361.6621C230.2825,-351.8185 242.9553,-339.1458 253.7216,-328.3795"/>
<polygon fill="#000000" stroke="#000000" points="256.2162,-330.8346 260.8124,-321.2886 251.2665,-325.8848 256.2162,-330.8346"/>
</g>
<!-- m2 -->
<g id="node10" class="node">
<title>m2</title>
<ellipse fill="none" stroke="#000000" cx="132.1011" cy="-234" rx="27" ry="18"/>
<text text-anchor="middle" x="132.1011" y="-229.8" font-family="Times,serif" font-size="14.00" fill="#000000">mul</text>
</g>
<!-- e1&#45;&gt;m2 -->
<g id="edge9" class="edge">
<title>e1&#45;&gt;m2</title>
<path fill="none" stroke="#000000" d="M188.8317,-290.7307C178.9041,-280.803 165.7857,-267.6847 154.6647,-256.5637"/>
<polygon fill="#000000" stroke="#000000" points="156.8944,-253.8436 147.3484,-249.2473 151.9446,-258.7933 156.8944,-253.8436"/>
</g>
<!-- + -->
<g id="node14" class="node">
<title>+</title>
<ellipse fill="#f0f0f0" stroke="#000000" cx="204.1011" cy="-234" rx="27" ry="18"/>
<text text-anchor="middle" x="204.1011" y="-229.8" font-family="Times,serif" font-size="14.00" fill="#000000">+</text>
</g>
<!-- e1&#45;&gt;+ -->
<g id="edge13" class="edge">
<title>e1&#45;&gt;+</title>
<path fill="none" stroke="#000000" d="M204.1011,-287.8314C204.1011,-280.131 204.1011,-270.9743 204.1011,-262.4166"/>
<polygon fill="#000000" stroke="#000000" points="207.6012,-262.4132 204.1011,-252.4133 200.6012,-262.4133 207.6012,-262.4132"/>
</g>
<!-- m3 -->
<g id="node15" class="node">
<title>m3</title>
<ellipse fill="none" stroke="#000000" cx="276.1011" cy="-234" rx="27" ry="18"/>
<text text-anchor="middle" x="276.1011" y="-229.8" font-family="Times,serif" font-size="14.00" fill="#000000">mul</text>
</g>
<!-- e1&#45;&gt;m3 -->
<g id="edge14" class="edge">
<title>e1&#45;&gt;m3</title>
<path fill="none" stroke="#000000" d="M219.3704,-290.7307C229.298,-280.803 242.4164,-267.6847 253.5374,-256.5637"/>
<polygon fill="#000000" stroke="#000000" points="256.2575,-258.7933 260.8537,-249.2473 251.3077,-253.8436 256.2575,-258.7933"/>
</g>
<!-- t2 -->
<g id="node11" class="node">
<title>t2</title>
<ellipse fill="none" stroke="#000000" cx="132.1011" cy="-162" rx="38.2024" ry="18"/>
<text text-anchor="middle" x="132.1011" y="-157.8" font-family="Times,serif" font-size="14.00" fill="#000000">primary</text>
</g>
<!-- m2&#45;&gt;t2 -->
<g id="edge10" class="edge">
<title>m2&#45;&gt;t2</title>
<path fill="none" stroke="#000000" d="M132.1011,-215.8314C132.1011,-208.131 132.1011,-198.9743 132.1011,-190.4166"/>
<polygon fill="#000000" stroke="#000000" points="135.6012,-190.4132 132.1011,-180.4133 128.6012,-190.4133 135.6012,-190.4132"/>
</g>
<!-- n1 -->
<g id="node12" class="node">
<title>n1</title>
<ellipse fill="none" stroke="#000000" cx="132.1011" cy="-90" rx="27" ry="18"/>
<text text-anchor="middle" x="132.1011" y="-85.8" font-family="Times,serif" font-size="14.00" fill="#000000">num</text>
</g>
<!-- t2&#45;&gt;n1 -->
<g id="edge11" class="edge">
<title>t2&#45;&gt;n1</title>
<path fill="none" stroke="#000000" d="M132.1011,-143.8314C132.1011,-136.131 132.1011,-126.9743 132.1011,-118.4166"/>
<polygon fill="#000000" stroke="#000000" points="135.6012,-118.4132 132.1011,-108.4133 128.6012,-118.4133 135.6012,-118.4132"/>
</g>
<!-- 2 -->
<g id="node13" class="node">
<title>2</title>
<ellipse fill="#f0f0f0" stroke="#000000" cx="132.1011" cy="-18" rx="27" ry="18"/>
<text text-anchor="middle" x="132.1011" y="-13.8" font-family="Times,serif" font-size="14.00" fill="#000000">2</text>
</g>
<!-- n1&#45;&gt;2 -->
<g id="edge12" class="edge">
<title>n1&#45;&gt;2</title>
<path fill="none" stroke="#000000" d="M132.1011,-71.8314C132.1011,-64.131 132.1011,-54.9743 132.1011,-46.4166"/>
<polygon fill="#000000" stroke="#000000" points="135.6012,-46.4132 132.1011,-36.4133 128.6012,-46.4133 135.6012,-46.4132"/>
</g>
<!-- t3 -->
<g id="node16" class="node">
<title>t3</title>
<ellipse fill="none" stroke="#000000" cx="276.1011" cy="-162" rx="38.2024" ry="18"/>
<text text-anchor="middle" x="276.1011" y="-157.8" font-family="Times,serif" font-size="14.00" fill="#000000">primary</text>
</g>
<!-- m3&#45;&gt;t3 -->
<g id="edge15" class="edge">
<title>m3&#45;&gt;t3</title>
<path fill="none" stroke="#000000" d="M276.1011,-215.8314C276.1011,-208.131 276.1011,-198.9743 276.1011,-190.4166"/>
<polygon fill="#000000" stroke="#000000" points="279.6012,-190.4132 276.1011,-180.4133 272.6012,-190.4133 279.6012,-190.4132"/>
</g>
<!-- n2 -->
<g id="node17" class="node">
<title>n2</title>
<ellipse fill="none" stroke="#000000" cx="276.1011" cy="-90" rx="27" ry="18"/>
<text text-anchor="middle" x="276.1011" y="-85.8" font-family="Times,serif" font-size="14.00" fill="#000000">num</text>
</g>
<!-- t3&#45;&gt;n2 -->
<g id="edge16" class="edge">
<title>t3&#45;&gt;n2</title>
<path fill="none" stroke="#000000" d="M276.1011,-143.8314C276.1011,-136.131 276.1011,-126.9743 276.1011,-118.4166"/>
<polygon fill="#000000" stroke="#000000" points="279.6012,-118.4132 276.1011,-108.4133 272.6012,-118.4133 279.6012,-118.4132"/>
</g>
<!-- 3 -->
<g id="node18" class="node">
<title>3</title>
<ellipse fill="#f0f0f0" stroke="#000000" cx="276.1011" cy="-18" rx="27" ry="18"/>
<text text-anchor="middle" x="276.1011" y="-13.8" font-family="Times,serif" font-size="14.00" fill="#000000">3</text>
</g>
<!-- n2&#45;&gt;3 -->
<g id="edge17" class="edge">
<title>n2&#45;&gt;3</title>
<path fill="none" stroke="#000000" d="M276.1011,-71.8314C276.1011,-64.131 276.1011,-54.9743 276.1011,-46.4166"/>
<polygon fill="#000000" stroke="#000000" points="279.6012,-46.4132 276.1011,-36.4133 272.6012,-46.4133 279.6012,-46.4132"/>
</g>
</g>
</svg>
