<?xml version="1.0" encoding="UTF-8" standalone="no"?>
<!DOCTYPE svg PUBLIC "-//W3C//DTD SVG 1.1//EN"
 "http://www.w3.org/Graphics/SVG/1.1/DTD/svg11.dtd">
<!-- Generated by graphviz version 2.40.1 (20161225.0304)
 -->
<!-- Title: G Pages: 1 -->
<svg width="355pt" height="404pt"
 viewBox="0.00 0.00 355.10 404.00" xmlns="http://www.w3.org/2000/svg" xmlns:xlink="http://www.w3.org/1999/xlink">
<g id="graph0" class="graph" transform="scale(1 1) rotate(0) translate(4 400)">
<title>G</title>
<polygon fill="#ffffff" stroke="transparent" points="-4,4 -4,-400 351.1011,-400 351.1011,4 -4,4"/>
<!-- e1 -->
<g id="node1" class="node">
<title>e1</title>
<ellipse fill="none" stroke="#000000" cx="168" cy="-378" rx="27" ry="18"/>
<text text-anchor="middle" x="168" y="-373.8" font-family="Times,serif" font-size="14.00" fill="#000000">expr</text>
</g>
<!-- e3 -->
<g id="node2" class="node">
<title>e3</title>
<ellipse fill="none" stroke="#000000" cx="168" cy="-306" rx="27" ry="18"/>
<text text-anchor="middle" x="168" y="-301.8" font-family="Times,serif" font-size="14.00" fill="#000000">mul</text>
</g>
<!-- e1&#45;&gt;e3 -->
<g id="edge1" class="edge">
<title>e1&#45;&gt;e3</title>
<path fill="none" stroke="#000000" d="M168,-359.8314C168,-352.131 168,-342.9743 168,-334.4166"/>
<polygon fill="#000000" stroke="#000000" points="171.5001,-334.4132 168,-324.4133 164.5001,-334.4133 171.5001,-334.4132"/>
</g>
<!-- e5 -->
<g id="node3" class="node">
<title>e5</title>
<ellipse fill="none" stroke="#000000" cx="93" cy="-234" rx="30.4862" ry="18"/>
<text text-anchor="middle" x="93" y="-229.8" font-family="Times,serif" font-size="14.00" fill="#000000">unary</text>
</g>
<!-- e3&#45;&gt;e5 -->
<g id="edge3" class="edge">
<title>e3&#45;&gt;e5</title>
<path fill="none" stroke="#000000" d="M152.46,-291.0816C142.0418,-281.0801 128.1322,-267.7269 116.3858,-256.4504"/>
<polygon fill="#000000" stroke="#000000" points="118.6754,-253.7966 109.0376,-249.3961 113.8276,-258.8463 118.6754,-253.7966"/>
</g>
<!-- * -->
<g id="node8" class="node">
<title>*</title>
<ellipse fill="#f0f0f0" stroke="#000000" cx="168" cy="-234" rx="27" ry="18"/>
<text text-anchor="middle" x="168" y="-229.8" font-family="Times,serif" font-size="14.00" fill="#000000">*</text>
</g>
<!-- e3&#45;&gt;* -->
<g id="edge7" class="edge">
<title>e3&#45;&gt;*</title>
<path fill="none" stroke="#000000" d="M168,-287.8314C168,-280.131 168,-270.9743 168,-262.4166"/>
<polygon fill="#000000" stroke="#000000" points="171.5001,-262.4132 168,-252.4133 164.5001,-262.4133 171.5001,-262.4132"/>
</g>
<!-- e8 -->
<g id="node9" class="node">
<title>e8</title>
<ellipse fill="none" stroke="#000000" cx="243" cy="-234" rx="30.4862" ry="18"/>
<text text-anchor="middle" x="243" y="-229.8" font-family="Times,serif" font-size="14.00" fill="#000000">unary</text>
</g>
<!-- e3&#45;&gt;e8 -->
<g id="edge8" class="edge">
<title>e3&#45;&gt;e8</title>
<path fill="none" stroke="#000000" d="M183.54,-291.0816C193.9582,-281.0801 207.8678,-267.7269 219.6142,-256.4504"/>
<polygon fill="#000000" stroke="#000000" points="222.1724,-258.8463 226.9624,-249.3961 217.3246,-253.7966 222.1724,-258.8463"/>
</g>
<!-- &#45; -->
<g id="node4" class="node">
<title>&#45;</title>
<ellipse fill="#f0f0f0" stroke="#000000" cx="27" cy="-162" rx="27" ry="18"/>
<text text-anchor="middle" x="27" y="-157.8" font-family="Times,serif" font-size="14.00" fill="#000000">&#45;</text>
</g>
<!-- e5&#45;&gt;&#45; -->
<g id="edge2" class="edge">
<title>e5&#45;&gt;&#45;</title>
<path fill="none" stroke="#000000" d="M78.3525,-218.0209C69.4291,-208.2863 57.8806,-195.688 47.9959,-184.9046"/>
<polygon fill="#000000" stroke="#000000" points="50.4909,-182.4468 41.1536,-177.4403 45.3308,-187.1769 50.4909,-182.4468"/>
</g>
<!-- e6 -->
<g id="node5" class="node">
<title>e6</title>
<ellipse fill="none" stroke="#000000" cx="110" cy="-162" rx="38.2024" ry="18"/>
<text text-anchor="middle" x="110" y="-157.8" font-family="Times,serif" font-size="14.00" fill="#000000">primary</text>
</g>
<!-- e5&#45;&gt;e6 -->
<g id="edge4" class="edge">
<title>e5&#45;&gt;e6</title>
<path fill="none" stroke="#000000" d="M97.2898,-215.8314C99.1562,-207.9266 101.385,-198.4872 103.4511,-189.7365"/>
<polygon fill="#000000" stroke="#000000" points="106.8788,-190.4501 105.7704,-179.9134 100.0661,-188.8415 106.8788,-190.4501"/>
</g>
<!-- e7 -->
<g id="node6" class="node">
<title>e7</title>
<ellipse fill="none" stroke="#000000" cx="110" cy="-90" rx="27" ry="18"/>
<text text-anchor="middle" x="110" y="-85.8" font-family="Times,serif" font-size="14.00" fill="#000000">num</text>
</g>
<!-- e6&#45;&gt;e7 -->
<g id="edge5" class="edge">
<title>e6&#45;&gt;e7</title>
<path fill="none" stroke="#000000" d="M110,-143.8314C110,-136.131 110,-126.9743 110,-118.4166"/>
<polygon fill="#000000" stroke="#000000" points="113.5001,-118.4132 110,-108.4133 106.5001,-118.4133 113.5001,-118.4132"/>
</g>
<!-- 3 -->
<g id="node7" class="node">
<title>3</title>
<ellipse fill="#f0f0f0" stroke="#000000" cx="110" cy="-18" rx="27" ry="18"/>
<text text-anchor="middle" x="110" y="-13.8" font-family="Times,serif" font-size="14.00" fill="#000000">3</text>
</g>
<!-- e7&#45;&gt;3 -->
<g id="edge6" class="edge">
<title>e7&#45;&gt;3</title>
<path fill="none" stroke="#000000" d="M110,-71.8314C110,-64.131 110,-54.9743 110,-46.4166"/>
<polygon fill="#000000" stroke="#000000" points="113.5001,-46.4132 110,-36.4133 106.5001,-46.4133 113.5001,-46.4132"/>
</g>
<!-- + -->
<g id="node10" class="node">
<title>+</title>
<ellipse fill="#f0f0f0" stroke="#000000" cx="226" cy="-162" rx="27" ry="18"/>
<text text-anchor="middle" x="226" y="-157.8" font-family="Times,serif" font-size="14.00" fill="#000000">+</text>
</g>
<!-- e8&#45;&gt;+ -->
<g id="edge9" class="edge">
<title>e8&#45;&gt;+</title>
<path fill="none" stroke="#000000" d="M238.7102,-215.8314C236.8438,-207.9266 234.615,-198.4872 232.5489,-189.7365"/>
<polygon fill="#000000" stroke="#000000" points="235.9339,-188.8415 230.2296,-179.9134 229.1212,-190.4501 235.9339,-188.8415"/>
</g>
<!-- e9 -->
<g id="node11" class="node">
<title>e9</title>
<ellipse fill="none" stroke="#000000" cx="309" cy="-162" rx="38.2024" ry="18"/>
<text text-anchor="middle" x="309" y="-157.8" font-family="Times,serif" font-size="14.00" fill="#000000">primary</text>
</g>
<!-- e8&#45;&gt;e9 -->
<g id="edge10" class="edge">
<title>e8&#45;&gt;e9</title>
<path fill="none" stroke="#000000" d="M257.6475,-218.0209C266.1816,-208.7109 277.1168,-196.7817 286.7014,-186.3258"/>
<polygon fill="#000000" stroke="#000000" points="289.5281,-188.4217 293.7054,-178.6851 284.368,-183.6916 289.5281,-188.4217"/>
</g>
<!-- e10 -->
<g id="node12" class="node">
<title>e10</title>
<ellipse fill="none" stroke="#000000" cx="309" cy="-90" rx="27" ry="18"/>
<text text-anchor="middle" x="309" y="-85.8" font-family="Times,serif" font-size="14.00" fill="#000000">num</text>
</g>
<!-- e9&#45;&gt;e10 -->
<g id="edge11" class="edge">
<title>e9&#45;&gt;e10</title>
<path fill="none" stroke="#000000" d="M309,-143.8314C309,-136.131 309,-126.9743 309,-118.4166"/>
<polygon fill="#000000" stroke="#000000" points="312.5001,-118.4132 309,-108.4133 305.5001,-118.4133 312.5001,-118.4132"/>
</g>
<!-- 5 -->
<g id="node13" class="node">
<title>5</title>
<ellipse fill="#f0f0f0" stroke="#000000" cx="309" cy="-18" rx="27" ry="18"/>
<text text-anchor="middle" x="309" y="-13.8" font-family="Times,serif" font-size="14.00" fill="#000000">5</text>
</g>
<!-- e10&#45;&gt;5 -->
<g id="edge12" class="edge">
<title>e10&#45;&gt;5</title>
<path fill="none" stroke="#000000" d="M309,-71.8314C309,-64.131 309,-54.9743 309,-46.4166"/>
<polygon fill="#000000" stroke="#000000" points="312.5001,-46.4132 309,-36.4133 305.5001,-46.4133 312.5001,-46.4132"/>
</g>
</g>
</svg>
